<svg xmlns="http://www.w3.org/2000/svg" viewBox="0 0 16 19" fill="#c64c34"><path d="M14.36 7.88v.43A9.27 9.27 0 0 1 5 17.64a9.26 9.26 0 0 1-5-1.47 6.74 6.74 0 0 0 .79 0 6.57 6.57 0 0 0 4.07-1.4 3.29 3.29 0 0 1-3.06-2.24 4.12 4.12 0 0 0 .62.05 3.46 3.46 0 0 0 .86-.11A3.28 3.28 0 0 1 .65 9.25a3.3 3.3 0 0 0 1.48.42 3.29 3.29 0 0 1-1-4.39 9.32 9.32 0 0 0 6.75 3.39 3.69 3.69 0 0 1-.08-.75 3.28 3.28 0 0 1 5.67-2.24 6.46 6.46 0 0 0 2.08-.79 3.27 3.27 0 0 1-1.44 1.81A6.57 6.57 0 0 0 16 6.19a7 7 0 0 1-1.64 1.69z"/></svg>