<svg id="Layer_1" data-name="Layer 1" xmlns="http://www.w3.org/2000/svg" viewBox="0 0 45 81"><defs><style>.cls-1{fill:#cfc5b6}</style></defs><title>skull</title><path class="cls-1" d="M43.33 57.74v5.76a2.5 2.5 0 0 0 .09.68l.84 2.82a2.61 2.61 0 0 1 0 1.35l-.26 1a2 2 0 0 1-.56.93l-.13.13a2 2 0 0 1-1.42.59h-1.17a1.75 1.75 0 0 0-1.24.51l-1.14 1.18a2.12 2.12 0 0 0-.62 1.33l-.49 5.35a.69.69 0 0 1-.56.63l-5.41.9a3.45 3.45 0 0 1-1.47-.07L24.9 79.5a.7.7 0 0 1-.51-.67v-2.51a1.91 1.91 0 0 0-.56-1.32l-1.73-1.73a4.13 4.13 0 0 0-1.1-.84l-3.3-1.64a1.77 1.77 0 0 0-1.14-.16L15 71a1.52 1.52 0 0 0-1 .68l-3 4.65a2 2 0 0 1-1.67.92H5.86a2.12 2.12 0 0 1-1.63-.77l-.95-1.12A7.12 7.12 0 0 1 1.74 72l-.63-3.32A7.1 7.1 0 0 1 1 66.8l.37-4A7.11 7.11 0 0 1 2 60.62l1-2.52a.61.61 0 0 1 .56-.36h1.31L2.38 51.3A6.17 6.17 0 0 1 2 49.66L.41 32.72l3-3a.9.9 0 0 1 .78-.25l2.81.45a.69.69 0 0 1 .26.08l2.11 1.05 10.85 6.5a1.71 1.71 0 0 1 .48.42l7.3 9.37a1.91 1.91 0 0 1 .36.87l.39 2.32a1.9 1.9 0 0 0 .44.93l2.78 3.23a1.68 1.68 0 0 1 .33.56l2 5.91a.24.24 0 0 0 .42.07l1.28-1.8a.26.26 0 0 0 0-.12l.52-5.23a1.76 1.76 0 0 1 .13-.5l1.37-3.18a2.25 2.25 0 0 0 .18-1l-.56-14 .56-1.79 2.17 13a2 2 0 0 0 .32.83l1.85 2.77a2.23 2.23 0 0 0 .29.35l1.75 1.74a1.12 1.12 0 0 1 .34.81v2a1.07 1.07 0 0 1-.22.65zm-18.95 1.31l-3.52-2.19a1.66 1.66 0 0 0-.86-.24h-1.51a1.61 1.61 0 0 0-1.27.64l-.87 1.15a1.6 1.6 0 0 0-.32 1v1.31a1.59 1.59 0 0 0 .17.72l.56 1.15a1.62 1.62 0 0 0 1.18.87l2.22.37a1.57 1.57 0 0 0 .56 0l2.14-.43a1.57 1.57 0 0 0 .65-.29l1.08-.8a1.61 1.61 0 0 0 .6-1.68L25 60a1.63 1.63 0 0 0-.71-1zM36 66.54l-1.23-1.22a.51.51 0 0 0-.72 0l-1.78 1.78a.51.51 0 0 0-.12.2l-1 2.85a.5.5 0 0 0 .2.56l.95.63a.5.5 0 0 0 .69-.12l1-1.37a.51.51 0 0 1 .72-.1h.05l.48.47a.23.23 0 0 0 .32 0v-.05l.88-1.75a.52.52 0 0 0 0-.39L36 66.7a.5.5 0 0 0-.12-.2zm5.53-8.81h-.14a.69.69 0 0 0-.49.2l-2.44 2.44a.3.3 0 0 0-.07.32l.78 1.93a1.55 1.55 0 0 0 .94.89l.74.25a.3.3 0 0 0 .37-.15l.78-1.46a2.48 2.48 0 0 0 .22-1.15v-2.58a.69.69 0 0 0-.69-.69zm-5.08-8.06l-1.67 4a.34.34 0 0 1-.56.09l-2.48-2.89a2.08 2.08 0 0 1-.47-.94l-.64-3.08a2.07 2.07 0 0 0-.42-.89L22.14 36a2.23 2.23 0 0 0-.61-.52L8.12 27.93a1.11 1.11 0 0 0-.39-.13l-3.81-.43a1 1 0 0 0-.84.29L0 30.68l1.79-12.43L3.17 4.07a.72.72 0 0 1 .21-.44L6.83.18A.63.63 0 0 1 7.46 0l16 4.79a2 2 0 0 1 .62.32l4.32 3.35a1.88 1.88 0 0 1 .61.82l8.28 22L36.6 33a1.85 1.85 0 0 0-.14.74l.15 15.22a1.94 1.94 0 0 1-.15.76z"/></svg>