<svg id="Layer_11" data-name="Layer 11" xmlns="http://www.w3.org/2000/svg" viewBox="0 0 258.05 190.67"><title>100 proven performers icon</title><polygon points="167.46 90.72 207.93 35.25 203.3 30.95 169.18 76.5 167.46 90.72" style="fill:#973100"/><path d="M443,184.58c.2.05.4.08.6.12,1.84.35,3.68.71,5.53,1.05s3.71.77,5.56,1.14a.27.27,0,0,1,.24.24c.29,1.37.61,2.73.88,4.11.44,2.21.86,4.43,1.29,6.65a5.6,5.6,0,0,0,.2.89.68.68,0,0,0,.66.46.71.71,0,0,0,.72-.59c0-.18.07-.37.11-.55.32-1.64.63-3.28,1-4.92.24-1.25.47-2.5.64-3.76.1-.76.23-1.51.33-2.27a.26.26,0,0,1,.25-.25l3.12-.61,8.15-1.55a3.82,3.82,0,0,0,.84-.19.7.7,0,0,0,.2-1.16,1,1,0,0,0-.5-.22l-4.63-.87c-2.4-.44-4.8-.92-7.2-1.39-.13,0-.22-.07-.22-.22a4.09,4.09,0,0,0-.06-.43q-.17-1.25-.34-2.5c-.08-.56-.14-1.13-.24-1.69-.21-1.19-.45-2.37-.68-3.55l-.71-3.7a.74.74,0,0,0-.32-.5.72.72,0,0,0-1.12.48c-.07.32-.13.65-.19,1-.36,1.87-.72,3.75-1.09,5.62s-.7,3.49-1,5.24a.31.31,0,0,1-.29.28c-1.59.33-3.17.69-4.76,1l-5,.94c-.62.12-1.24.22-1.85.36a.7.7,0,0,0-.58.7A.69.69,0,0,0,443,184.58Z" transform="translate(-292.07 -152)" style="fill:#973100"/><polygon points="90.76 125 46.09 118.17 45.59 122.5 95.64 131.92 90.76 125" style="fill:#973100"/><polygon points="86.93 107.25 16.68 72.5 13.44 76.74 88.1 117.01 86.93 107.25" style="fill:#973100"/><polygon points="129.93 37.75 131.68 0.75 122.43 0 123.93 38.5 129.93 37.75" style="fill:#973100"/><polygon points="36.76 120.33 37.09 116.33 29.26 115.83 28.59 118.5 36.76 120.33" style="fill:#973100"/><polygon points="250.12 102.47 161.18 122.92 158.34 127.17 251.66 112.76 250.12 102.47" style="fill:#973100"/><path d="M519.34,205.24c.16,0,.32.07.48.1l4.44.84c1.5.28,3,.62,4.47.91a.22.22,0,0,1,.2.19c.23,1.1.49,2.2.71,3.3.36,1.78.69,3.56,1,5.34a4.5,4.5,0,0,0,.16.72.54.54,0,0,0,.53.37.57.57,0,0,0,.58-.48c0-.15.06-.29.09-.44.25-1.32.51-2.64.76-4,.2-1,.38-2,.51-3,.08-.61.18-1.21.26-1.82a.21.21,0,0,1,.2-.2l2.51-.49,6.55-1.25a3.07,3.07,0,0,0,.68-.16.56.56,0,0,0,.16-.93.76.76,0,0,0-.41-.18l-3.72-.7c-1.93-.35-3.86-.74-5.78-1.12-.1,0-.17-.05-.18-.18a3.29,3.29,0,0,0,0-.34l-.27-2c-.06-.45-.11-.91-.19-1.36-.17-1-.36-1.9-.54-2.85l-.57-3a.59.59,0,0,0-.25-.4.58.58,0,0,0-.9.39c-.06.26-.1.52-.15.78-.29,1.51-.58,3-.88,4.52s-.57,2.81-.84,4.21a.25.25,0,0,1-.23.23c-1.28.26-2.55.55-3.82.79l-4,.76c-.5.09-1,.18-1.49.29a.56.56,0,0,0-.47.57A.55.55,0,0,0,519.34,205.24Z" transform="translate(-292.07 -152)" style="fill:#973100"/><polygon points="167.18 110.25 221.82 81.37 216.16 72.63 167.18 102.5 167.18 110.25" style="fill:#973100"/><polygon points="233.14 151.86 233.66 151.86 234.69 141.57 229.54 141.06 228 151.34 233.14 151.86" style="fill:#973100"/><path d="M513.24,246.9a1.82,1.82,0,0,0,0-.19l-.15-1.12c0-.25-.06-.51-.11-.76-.1-.53-.2-1.06-.3-1.6l-.32-1.66a.33.33,0,0,0-.14-.23.32.32,0,0,0-.5.22c0,.14-.06.29-.09.44-.16.84-.32,1.69-.49,2.53s-.32,1.57-.47,2.36a.14.14,0,0,1-.13.13c-.71.15-1.42.31-2.14.44l-2.25.42-.83.16a.31.31,0,0,0-.26.32.31.31,0,0,0,.25.31l.27.05,2.48.47c.84.15,1.67.34,2.5.51a.12.12,0,0,1,.11.11c.13.62.27,1.23.4,1.85.2,1,.38,2,.58,3a2.52,2.52,0,0,0,.09.4.3.3,0,0,0,.3.21.32.32,0,0,0,.32-.27c0-.08,0-.16,0-.25.14-.74.28-1.48.43-2.21.11-.56.21-1.12.29-1.69,0-.34.1-.68.15-1a.12.12,0,0,1,.11-.11l1.4-.28,3.66-.7a1.71,1.71,0,0,0,.38-.09.32.32,0,0,0,.09-.52.43.43,0,0,0-.23-.1l-2.08-.39c-1.08-.2-2.16-.41-3.24-.62C513.28,247,513.24,247,513.24,246.9Z" transform="translate(-292.07 -152)" style="fill:#973100"/><polygon points="212.43 139.5 152.09 135 151.51 138.75 211.02 149.8 212.43 139.5" style="fill:#973100"/><path d="M332.3,310.69c-1.08-.2-2.16-.41-3.24-.62-.06,0-.1,0-.1-.1a1.84,1.84,0,0,0,0-.19l-.15-1.12c0-.25-.06-.51-.11-.76-.1-.53-.2-1.06-.3-1.6l-.32-1.66a.33.33,0,0,0-.14-.23.32.32,0,0,0-.5.22c0,.14-.06.29-.09.44-.16.84-.32,1.69-.49,2.53s-.32,1.57-.47,2.36a.14.14,0,0,1-.13.13c-.71.15-1.42.31-2.14.44l-2.25.42-.83.16a.31.31,0,0,0-.26.32.31.31,0,0,0,.25.31l.27.05,2.48.47c.84.15,1.67.34,2.5.51a.12.12,0,0,1,.11.11c.13.62.27,1.23.4,1.85.2,1,.38,2,.58,3a2.52,2.52,0,0,0,.09.4.3.3,0,0,0,.3.21A.32.32,0,0,0,328,318c0-.08,0-.16,0-.25.14-.74.28-1.48.43-2.21.11-.56.21-1.12.29-1.69,0-.34.1-.68.15-1a.12.12,0,0,1,.11-.11l1.4-.28,3.66-.7a1.71,1.71,0,0,0,.38-.09.32.32,0,0,0,.09-.52.43.43,0,0,0-.23-.1Z" transform="translate(-292.07 -152)" style="fill:#973100"/><path d="M382.1,168.17c.18.05.37.08.56.11l5.15,1c1.74.32,3.45.71,5.18,1.06a.25.25,0,0,1,.23.22c.27,1.28.56,2.55.82,3.83.41,2.06.8,4.13,1.2,6.2a5.22,5.22,0,0,0,.18.83.63.63,0,0,0,.62.43.66.66,0,0,0,.67-.55c0-.17.07-.34.1-.51.3-1.53.59-3.06.89-4.59.23-1.16.44-2.33.59-3.51.09-.71.21-1.41.31-2.11a.24.24,0,0,1,.23-.24l2.91-.57,7.6-1.45a3.56,3.56,0,0,0,.78-.18.65.65,0,0,0,.18-1.08.88.88,0,0,0-.47-.21l-4.32-.81c-2.24-.41-4.47-.86-6.71-1.29-.12,0-.2-.06-.21-.21a3.8,3.8,0,0,0-.05-.4l-.32-2.33c-.07-.53-.13-1.05-.23-1.57-.2-1.11-.42-2.21-.63-3.31l-.67-3.45a.69.69,0,0,0-.3-.47.67.67,0,0,0-1,.45c-.07.3-.12.61-.18.91-.34,1.75-.67,3.5-1,5.24s-.66,3.26-1,4.89a.29.29,0,0,1-.27.26c-1.48.3-3,.64-4.44.92l-4.66.88c-.58.11-1.15.21-1.72.33a.65.65,0,0,0-.54.66A.64.64,0,0,0,382.1,168.17Z" transform="translate(-292.07 -152)" style="fill:#973100"/><path d="M550,285.46a.62.62,0,0,0-.33-.15l-3-.57c-1.57-.29-3.13-.6-4.7-.91-.09,0-.14,0-.14-.14a2.65,2.65,0,0,0,0-.28l-.22-1.63c-.05-.37-.09-.74-.16-1.1-.14-.77-.29-1.55-.44-2.32l-.47-2.41a.48.48,0,0,0-.21-.33.47.47,0,0,0-.73.31c0,.21-.08.42-.12.64-.24,1.22-.47,2.45-.71,3.67s-.46,2.28-.68,3.42a.2.2,0,0,1-.19.18c-1,.21-2.07.45-3.11.65l-3.27.61-1.21.23a.46.46,0,0,0-.38.46.45.45,0,0,0,.37.45l.39.08,3.61.69c1.21.22,2.42.5,3.63.74a.18.18,0,0,1,.16.16c.19.89.4,1.78.57,2.68.29,1.44.56,2.89.84,4.34a3.66,3.66,0,0,0,.13.58.44.44,0,0,0,.43.3.47.47,0,0,0,.47-.39c0-.12,0-.24.07-.36.21-1.07.41-2.14.62-3.21.16-.82.31-1.63.42-2.46.07-.49.15-1,.21-1.48a.17.17,0,0,1,.16-.17l2-.4,5.32-1a2.49,2.49,0,0,0,.55-.13A.46.46,0,0,0,550,285.46Z" transform="translate(-292.07 -152)" style="fill:#973100"/><polygon points="150.46 142.94 150.31 150.83 182.09 159.83 208.93 178.5 209.88 182.97 241.26 190.67 245.26 179 199.93 164 150.46 142.94" style="fill:#973100"/><path d="M300.07,264.84a.18.18,0,0,1,.16.16c.19.89.4,1.78.57,2.68.29,1.44.56,2.89.84,4.34a3.66,3.66,0,0,0,.13.58.44.44,0,0,0,.43.3.47.47,0,0,0,.47-.39c0-.12,0-.24.07-.36.21-1.07.41-2.14.62-3.21.16-.82.31-1.63.42-2.46.07-.49.15-1,.21-1.48a.17.17,0,0,1,.16-.17l2-.4,5.32-1a2.49,2.49,0,0,0,.55-.13.46.46,0,0,0,.13-.76.62.62,0,0,0-.33-.15l-3-.57c-1.57-.29-3.13-.6-4.7-.91-.09,0-.14,0-.14-.14a2.67,2.67,0,0,0,0-.28l-.22-1.63c-.05-.37-.09-.74-.16-1.1-.14-.77-.29-1.55-.44-2.32l-.47-2.41a.48.48,0,0,0-.21-.33.47.47,0,0,0-.73.31c0,.21-.08.42-.12.64-.24,1.22-.47,2.45-.71,3.67s-.46,2.28-.68,3.42a.2.2,0,0,1-.19.18c-1,.21-2.07.45-3.11.65l-3.27.61-1.21.23a.46.46,0,0,0-.38.46.45.45,0,0,0,.37.45l.39.08,3.61.69C297.66,264.32,298.86,264.59,300.07,264.84Z" transform="translate(-292.07 -152)" style="fill:#973100"/><polygon points="83.68 79 55.18 49.88 49.98 54.1 85.38 93.25 83.68 79" style="fill:#973100"/><path d="M350,182.85l.27.05,2.48.47c.84.15,1.67.34,2.5.51a.12.12,0,0,1,.11.11c.13.62.27,1.23.4,1.85.2,1,.38,2,.58,3a2.52,2.52,0,0,0,.09.4.3.3,0,0,0,.3.21.32.32,0,0,0,.32-.27c0-.08,0-.16,0-.25.14-.74.28-1.48.43-2.21.11-.56.21-1.12.29-1.69,0-.34.1-.68.15-1a.12.12,0,0,1,.11-.11l1.4-.28,3.66-.7a1.71,1.71,0,0,0,.38-.09.32.32,0,0,0,.09-.52.43.43,0,0,0-.23-.1l-2.08-.39c-1.08-.2-2.16-.41-3.24-.62-.06,0-.1,0-.1-.1a1.84,1.84,0,0,0,0-.19l-.15-1.12c0-.25-.06-.51-.11-.76-.1-.53-.2-1.06-.3-1.6l-.32-1.66a.33.33,0,0,0-.14-.23.32.32,0,0,0-.5.22c0,.14-.06.29-.09.44-.16.84-.32,1.69-.49,2.53s-.32,1.57-.47,2.36a.14.14,0,0,1-.13.13c-.71.15-1.42.31-2.14.44l-2.25.42-.83.16a.31.31,0,0,0-.26.32A.31.31,0,0,0,350,182.85Z" transform="translate(-292.07 -152)" style="fill:#973100"/><polygon points="95.68 50 80.18 12.75 71.93 16.5 91.16 57.46 95.68 50" style="fill:#973100"/><polygon points="46.18 40.25 38.18 32.88 33.88 36.46 41.08 44.69 46.18 40.25" style="fill:#973100"/><path d="M296,202.7l.35.07,3.27.62c1.1.2,2.19.45,3.29.67a.16.16,0,0,1,.14.14c.17.81.36,1.62.52,2.43.26,1.31.51,2.62.76,3.94a3.32,3.32,0,0,0,.12.53.4.4,0,0,0,.39.27.42.42,0,0,0,.43-.35c0-.11,0-.22.06-.33.19-1,.37-1.94.56-2.92.14-.74.28-1.48.38-2.23.06-.45.13-.89.19-1.34a.15.15,0,0,1,.15-.15l1.85-.36,4.83-.92a2.26,2.26,0,0,0,.5-.11.42.42,0,0,0,.12-.69.56.56,0,0,0-.3-.13l-2.74-.51c-1.42-.26-2.84-.55-4.26-.82-.08,0-.13,0-.13-.13a2.42,2.42,0,0,0,0-.25l-.2-1.48c0-.33-.08-.67-.14-1-.13-.7-.27-1.4-.4-2.1l-.42-2.19a.44.44,0,0,0-.19-.3.43.43,0,0,0-.66.28c0,.19-.08.38-.11.58-.21,1.11-.43,2.22-.65,3.33s-.42,2.07-.62,3.1a.18.18,0,0,1-.17.17c-.94.19-1.88.41-2.82.59l-3,.56-1.1.21a.41.41,0,0,0-.35.42A.41.41,0,0,0,296,202.7Z" transform="translate(-292.07 -152)" style="fill:#973100"/><path d="M340.69,230.16l.27.05,2.48.47c.84.15,1.67.34,2.5.51a.12.12,0,0,1,.11.11c.13.62.27,1.23.4,1.85.2,1,.38,2,.58,3a2.52,2.52,0,0,0,.09.4.3.3,0,0,0,.3.21.32.32,0,0,0,.32-.27c0-.08,0-.16,0-.25.14-.74.28-1.48.43-2.21.11-.56.21-1.12.29-1.69,0-.34.1-.68.15-1a.12.12,0,0,1,.11-.11l1.4-.28,3.66-.7a1.71,1.71,0,0,0,.38-.09.32.32,0,0,0,.09-.52.43.43,0,0,0-.23-.1l-2.08-.39c-1.08-.2-2.16-.41-3.24-.62-.06,0-.1,0-.1-.1a1.84,1.84,0,0,0,0-.19l-.15-1.12c0-.25-.06-.51-.11-.76-.1-.53-.2-1.06-.3-1.6l-.32-1.66a.33.33,0,0,0-.14-.23.32.32,0,0,0-.5.22c0,.14-.06.29-.09.44-.16.84-.32,1.69-.49,2.53s-.32,1.57-.47,2.36a.14.14,0,0,1-.13.13c-.71.15-1.42.31-2.14.44l-2.25.42-.83.16a.31.31,0,0,0-.26.32A.31.31,0,0,0,340.69,230.16Z" transform="translate(-292.07 -152)" style="fill:#973100"/><path d="M414.75,192.38l-22.5,8.38-10,15.25-4.37,15.88,4.88,39.75,9.41,15.67-6.17.91L294.2,302.83l1.55,3.17,91-13.75.5,4.75L360.7,312.74l11.3-3.57,20.83-7.33,2-11.06,0-6.88-8.27-13L382,232.75c5.86-19.9,2.29-13.31,14.25-27l18.63-10.37,13.5-1.12.13-2.25Z" transform="translate(-292.07 -152)" style="fill:#973100"/><polygon points="233.18 74.29 226.21 65.93 221.49 68.92 227.56 78.03 233.18 74.29" style="fill:#973100"/><polygon points="100.93 151.25 50.43 170 43.18 184.25 50.43 184 54.93 173 101.93 153 100.93 151.25" style="fill:#973100"/></svg>