<svg id="Layer_11" data-name="Layer 11" xmlns="http://www.w3.org/2000/svg" viewBox="0 0 284.72 275.78"><title>100_rising_stars_icon</title><g style="isolation:isolate"><path d="M919.29,271.25l-39,17.68-1.23,1.3,1.6,25.78,1.34,1.21L920.58,272l-1.3-.71M779.67,240.68l-1.25.25,14.11,56.63,1.54.65,19-26.7-.82-1.55-32.62-29.29m-63.49,7.23-1.07.22L712,277.35l-30.41,9.15,0,1L713,298.64l-6.87,36.19.85.42,22.6-23.61,3.79,2.69c2.31,1.63,5.45,3.84,8.78,6.17s6.83,4.74,9.89,6.82,5.68,3.8,7.25,4.73l1.14-.83-20.1-37.33,32.85-28.25-.68-.85-41.67,8.37-14.63-25.24M951.06,299l-18.22,12.8-24.52-15.53-.65,1.37,10.93,28-20,16.11.74,1.19,27.89-.23,2.64,34,1.09-.14,8.86-33.12,26.4,2.17-.15-1.63-20.37-16.92,6.65-27.73-1.35-.4M835.3,308.52l-48.25,18.31-.83,2.14,4.15,24.22,1.62,5.69-.89,1.91L808.35,461l28.79-151.66-1.84-.82m8,4.65-1.25-.24L809.45,467.61l53.78-105.93,5-8.43.37-2.19,4.13-8.14,0-1.91-29.48-27.85m20.85-121.34-11.89,18.59-.48,2.42-2.68,2.51-13.91,21.73-.23,3.56L831.07,238l-38.68-8.1-2.28-.1-3.16-1-13.63-2.85-1.14.37,45.72,43.57-.54,1.83-31.94,50,1.3.55L838,299l2.2-2.82.72,2.93,36.49,40.5,2.21-1.15-5.84-51.37,1.08-1,47.76-19.62-.85-1.37-22.69-7.52-4.2-.82-.85-.86-22.25-7.37-1.66.05.09-2.29L865.37,193l-1.26-1.14" transform="translate(-681.56 -191.83)" style="fill:#973100"/></g></svg>