<svg id="Layer_1" data-name="Layer 1" xmlns="http://www.w3.org/2000/svg" viewBox="0 0 38.74 40.36"><title>_divider_Audition_icon</title><path d="M275.06,93.77a2.57,2.57,0,0,0,.09.42,2.85,2.85,0,0,0,.37-.41c.05-.08,0-.22,0-.33,0-.72-.12-1.43-.15-2.15a15.06,15.06,0,0,0-.94-5.11,11.52,11.52,0,0,0-1.47-3,.84.84,0,0,0-.27-.24.8.8,0,0,0-.31,0,1.19,1.19,0,0,0,0,.3,1.81,1.81,0,0,0,.17.29,10.24,10.24,0,0,1,.92,1.71,40.67,40.67,0,0,1,1.06,4c.27,1.26.41,2.55.61,3.82l-.12,0C275.06,93.28,275,93.52,275.06,93.77Z" transform="translate(-241.67 -72.52)" style="fill:#973100"/><path d="M270.25,101.3c-.41,0-.82.11-1.22.19a.87.87,0,0,0-.23.13c.09,0,.17.14.26.14.25,0,.49,0,.78-.05a2.52,2.52,0,0,0,.46,0c.09,0,.16-.12.24-.18C270.44,101.44,270.34,101.29,270.25,101.3Z" transform="translate(-241.67 -72.52)" style="fill:#973100"/><path d="M260.78,105.68a2.3,2.3,0,0,1,.26.29,1.5,1.5,0,0,0,.17.14c0-.06.11-.11.12-.18.12-.75.23-1.5.35-2.24h-.06a1.82,1.82,0,0,0,0-.2c0-.25.09-.6-.39-.56s-.79.29-.82.65-.09.6-.1.9a3.81,3.81,0,0,0,0,1C260.37,105.53,260.64,105.57,260.78,105.68Z" transform="translate(-241.67 -72.52)" style="fill:#973100"/><path d="M266,101.84v0c.1,0,.23,0,.29,0a.67.67,0,0,0,.21-.33.31.31,0,0,0-.11-.26.85.85,0,0,0-1,.15c-.08.09-.2.13-.29.22a1.33,1.33,0,0,0-.16.21c.08,0,.16.13.23.12C265.48,101.92,265.74,101.87,266,101.84Z" transform="translate(-241.67 -72.52)" style="fill:#973100"/><path d="M266.1,105.24c.71-.13,1.36-.2,2-.37a5,5,0,0,0,2.64-1.87.78.78,0,0,0,.08-.24.87.87,0,0,0-.25.12,4.25,4.25,0,0,1-2.09,1.09c-.73.17-1.47.3-2.21.42-.38.07-.46.34-.47.64C265.79,105.1,266,105.18,266.1,105.24Z" transform="translate(-241.67 -72.52)" style="fill:#973100"/><path d="M268.16,101.57a.56.56,0,0,0,0-.43,1.43,1.43,0,0,0-.73,0c-.16.07-.25.33-.37.5l.6.19A1.68,1.68,0,0,0,268.16,101.57Z" transform="translate(-241.67 -72.52)" style="fill:#973100"/><path d="M266.94,102.6a3.6,3.6,0,0,0,.22,1c0,.06.39,0,.59,0,.39,0,.57-.17.44-.51-.05-.71-.08-.73-1-.65C267.1,102.38,266.93,102.53,266.94,102.6Z" transform="translate(-241.67 -72.52)" style="fill:#973100"/><path d="M269.17,103.08a6.65,6.65,0,0,0,.73-.41,2.5,2.5,0,0,0,.35-.34l-.46,0v0c-.26,0-.52,0-.77,0-.07,0-.18.09-.18.14a3,3,0,0,0,.07.59A.52.52,0,0,0,269.17,103.08Z" transform="translate(-241.67 -72.52)" style="fill:#973100"/><path d="M258.49,109.55c0,.07.13.1.19.15a.6.6,0,0,0,0-.23c-.13-.46-.27-.93-.41-1.39-.18-.61-.36-1.23-.56-1.83,0-.1-.17-.17-.27-.22s-.12.1-.17.15c.11.34.2.63.3.91C257.89,107.91,258.19,108.73,258.49,109.55Z" transform="translate(-241.67 -72.52)" style="fill:#973100"/><path d="M260.26,101.52a3.92,3.92,0,0,0-.91-.27l-.43.24c.09.14.16.36.29.41a3.9,3.9,0,0,0,.87.2,1.36,1.36,0,0,0,.35,0C260.37,101.88,260.38,101.59,260.26,101.52Z" transform="translate(-241.67 -72.52)" style="fill:#973100"/><path d="M259,106.88a1.3,1.3,0,0,0,.13-.35,1.22,1.22,0,0,1,.56-1.08.46.46,0,0,0,.19-.31c.06-.63.1-1.25.12-1.88a.37.37,0,0,0-.22-.26c-.25-.07-.52,0-.76-.12s-.34,0-.34.24c0,.63,0,1.26,0,1.89h.07c0,.5,0,1,0,1.51C258.73,106.64,258.87,106.76,259,106.88Z" transform="translate(-241.67 -72.52)" style="fill:#973100"/><path d="M260.35,107c.23,0,.59,0,.6-.43s-.17-.74-.77-.75a.93.93,0,0,0-.79.73C259.38,106.78,259.74,107,260.35,107Zm-.16-.8a1.62,1.62,0,0,1,.35.25c-.14.09-.23.19-.27.18a.46.46,0,0,1-.24-.22S260.16,106.15,260.19,106.16Z" transform="translate(-241.67 -72.52)" style="fill:#973100"/><path d="M257.5,105.41c0-.07.19-.26.16-.28a2.43,2.43,0,0,0-.49-.37s-.15.11-.14.17C257.05,105.16,257.07,105.42,257.5,105.41Z" transform="translate(-241.67 -72.52)" style="fill:#973100"/><path d="M257.5,103.58a.62.62,0,0,0,.73-.77.28.28,0,0,0-.19-.18q-.61-.11-1.23-.19c-.39,0-.54.13-.42.51C256.56,103.48,257,103.54,257.5,103.58Z" transform="translate(-241.67 -72.52)" style="fill:#973100"/><path d="M269.17,78.45c.34,0,.38-.28.39-.52s-.06-.5-.51-.55a1.61,1.61,0,0,0-.3.51A.45.45,0,0,0,269.17,78.45Z" transform="translate(-241.67 -72.52)" style="fill:#973100"/><path d="M262.65,102.08c.09-.08.11-.24.15-.36a1.78,1.78,0,0,0-.3-.1l-1.06-.14a2.06,2.06,0,0,0-.34,0c0,.13.06.32.15.38a9.64,9.64,0,0,0,.89.49A2.65,2.65,0,0,0,262.65,102.08Z" transform="translate(-241.67 -72.52)" style="fill:#973100"/><path d="M256.74,101.36a.8.8,0,0,0-.27.11c.06.09.09.23.17.26.31.11.64.19,1,.28V102c.12,0,.28,0,.36,0a.59.59,0,0,0,.16-.36c0-.05-.09-.17-.15-.18Q257.37,101.36,256.74,101.36Z" transform="translate(-241.67 -72.52)" style="fill:#973100"/><path d="M268,77.31a3.59,3.59,0,0,0-.22.77,1.43,1.43,0,0,0,1.78,1.51,1.53,1.53,0,0,0,1-1.57c0-.12-.08-.33-.14-.53a1.24,1.24,0,0,0-1.2-.89A1,1,0,0,0,268,77.31Zm2.07.59a1.71,1.71,0,0,1,0,.2.89.89,0,0,1-.55.92,1.11,1.11,0,0,1-1.15-.28,1.24,1.24,0,0,1-.14-.61,1.28,1.28,0,0,1,.11-.42c.17-.51.44-.74.85-.71A1.06,1.06,0,0,1,270.07,77.9Z" transform="translate(-241.67 -72.52)" style="fill:#973100"/><path d="M274.86,82.73a.86.86,0,0,0-.06.33,1.56,1.56,0,0,0,.2.35c.21.38.44.76.62,1.15a14.32,14.32,0,0,1,1.21,4.53c.12,1.23.29,2.45.38,3.68,0,.4.09.65.52.74.18,0,.26.05.25-.16s0-.18,0-.27h0c0-.47-.08-.94-.15-1.41-.17-1.21-.29-2.44-.57-3.62a31.41,31.41,0,0,0-1.19-3.68,8.76,8.76,0,0,0-.92-1.55C275.12,82.76,275,82.76,274.86,82.73Z" transform="translate(-241.67 -72.52)" style="fill:#973100"/><path d="M260.9,108.53l.28.23.27-.21c-.1-.06-.19-.15-.29-.16S261,108.48,260.9,108.53Z" transform="translate(-241.67 -72.52)" style="fill:#973100"/><path d="M276.1,83.22c.32.74.72,1.45,1,2.21a22.56,22.56,0,0,1,1.41,7.89.66.66,0,0,0,.45.83c.19.09.21,0,.19-.14,0-.37-.06-.74-.09-1.11-.08-1-.13-2-.26-3.06A27.63,27.63,0,0,0,276.63,83c-.07-.16-.38-.23-.57-.34A1.75,1.75,0,0,0,276.1,83.22Z" transform="translate(-241.67 -72.52)" style="fill:#973100"/><path d="M276.06,93.22c0,.29.07.33.37.26.48-.11.41-.42.37-.74-.1-.86-.2-1.72-.32-2.57a21.68,21.68,0,0,0-.5-2.92,32.16,32.16,0,0,0-1.32-3.5,4.07,4.07,0,0,0-.75-1,.22.22,0,0,0-.37.16,1,1,0,0,0,.13.41c.24.39.53.75.73,1.16a12.72,12.72,0,0,1,1.16,3.92c.17,1.25.37,2.5.56,3.75l-.11,0C276,92.55,276.06,92.88,276.06,93.22Z" transform="translate(-241.67 -72.52)" style="fill:#973100"/><path d="M271.25,81.11a5.46,5.46,0,0,1-2.22.48,2.16,2.16,0,0,1-1.54-.56,5.22,5.22,0,0,1-.91-.95,2.82,2.82,0,0,1-.49-.91,3.71,3.71,0,0,1,.4-3c.12-.22.1-.32-.16-.35l-1.93-.27a18.36,18.36,0,0,1,.58,1.93,4.69,4.69,0,0,1,0,1.59,18.49,18.49,0,0,1-.54,2.1,2.93,2.93,0,0,1-.24.54,1,1,0,0,1-.18.2,1.53,1.53,0,0,0,.29.06c1.52,0,3,0,4.55,0,.78,0,1.55,0,2.32-.1.28,0,.54-.23.82-.24,1.23,0,2.47,0,3.71,0a1.67,1.67,0,0,0,.28,0,1,1,0,0,0-.14-.22l-1.2-1.08-2-1.83a.61.61,0,0,0-.21-.07.81.81,0,0,0,0,.19,4.25,4.25,0,0,1-.91,2.31C271.45,81,271.33,81.07,271.25,81.11Z" transform="translate(-241.67 -72.52)" style="fill:#973100"/><path d="M267.58,95.46a6.17,6.17,0,0,0,3.33-.16,5.74,5.74,0,0,0,2.31-1.41,10,10,0,0,0,1.1-1.27.75.75,0,0,0,.18-.42,7.31,7.31,0,0,0-.08-1.55c-.38-1.7-.78-3.4-1.24-5.08a2.24,2.24,0,0,0-1-1.52,8.17,8.17,0,0,0-1.86-.78,11.44,11.44,0,0,0-3.54-.34c-1.15.09-2.31.09-3.47.11s-2.47,0-3.71,0-2.2,0-3.3,0h-2.89a3.27,3.27,0,0,0-1.76.29,6,6,0,0,1-1.35.67c-.56.16-.68.6-.87,1a1.85,1.85,0,0,0-.08.42,1.93,1.93,0,0,0,.39-.2,6.24,6.24,0,0,1,2.48-1.31,27.78,27.78,0,0,1,7.17-.59c1.76,0,3.53,0,5.29.08a24.57,24.57,0,0,1,4.76.24,3.14,3.14,0,0,1,1.23.5,14.1,14.1,0,0,1,1.6,1.54,2.65,2.65,0,0,1,.7,1,21.4,21.4,0,0,1,.71,3.56,3.19,3.19,0,0,1-1.68,3,7.57,7.57,0,0,1-2,.88,21.22,21.22,0,0,1-2.82.45c-.12,0-.39-.24-.38-.35s.21-.32.36-.43.22,0,.33,0a7.55,7.55,0,0,0,3.14-.45l.69-.28a2.46,2.46,0,0,0,1.72-1.91,6.47,6.47,0,0,0-.49-4.18A11.72,11.72,0,0,0,271,85a3.23,3.23,0,0,0-2.06-1.12c-.67-.07-1.34,0-2-.06-1.18,0-2.36-.06-3.54-.07l-4.38,0c-.74,0-1.49-.07-2.22,0-1,.08-2,.23-3,.39a11.26,11.26,0,0,0-1.5.36,12.87,12.87,0,0,0-3,1.66,2.22,2.22,0,0,0-.75.88,3.17,3.17,0,0,0-.33,2.32,11.31,11.31,0,0,0,.45,1.29A5.1,5.1,0,0,0,251,93.29a6,6,0,0,0,3.64.69,5.16,5.16,0,0,1,.8-.08c.12,0,.23.15.34.24-.08.08-.14.2-.23.22a5.66,5.66,0,0,1-1.09.22,7,7,0,0,1-3.14-.6,6.6,6.6,0,0,1-2.6-2.17,5.53,5.53,0,0,1-.5-1.06,1,1,0,0,0-.16-.19,1.42,1.42,0,0,0-.07.21c-.07.35-.13.71-.2,1.06a1.61,1.61,0,0,0,.85,1.84c.64.4,1.24.88,1.87,1.31a4.69,4.69,0,0,0,3.11.88,5.26,5.26,0,0,0,2.21-.61,8.82,8.82,0,0,1-1.22.91,3.75,3.75,0,0,1-3.23,0,13.14,13.14,0,0,1-2.89-2,2.87,2.87,0,0,0-.54-.25c0,.23,0,.46,0,.68,0,.07.07.14.1.21.18.48.37,1,.54,1.44a5,5,0,0,0,.33,1.05c.34.54.79,1,1.18,1.52a.43.43,0,0,0,.64.1,8.56,8.56,0,0,1,3-1.19c.62-.08,1.25-.13,1.88-.19a1,1,0,0,0,1-1,3.53,3.53,0,0,1,.87-2l.1-.08a.44.44,0,0,1,0,.15,1.75,1.75,0,0,1-.09.29,3.17,3.17,0,0,0,0,2.28c.18.54.6.62,1,.21a8.67,8.67,0,0,1,.71-.67c.38-.32.79-.16,1,.37a2.33,2.33,0,0,0,1.13,1.37.67.67,0,0,0,1-.5,2.73,2.73,0,0,1,.26-.76c.12-.19.33-.44.51-.45s.39.23.57.39.08.2.15.26a4.17,4.17,0,0,0,.76.62c.29.16.56,0,.5-.34a5.81,5.81,0,0,0-.47-1.59c-.46-.88-1-1.71-1.56-2.56a1.54,1.54,0,0,1-.2-1.26c.12-.47.22-.94.31-1.41,0-.15,0-.44,0-.45a2.15,2.15,0,0,0-.57,0,.85.85,0,0,1-.37,0s0-.21,0-.3c.15-.45.3-.89.47-1.34A3.26,3.26,0,0,1,264.32,87a4.44,4.44,0,0,1,2.13-.33,6.83,6.83,0,0,1,3.22,1h0c.28.21.55.43.84.62s.79.46,1.19.68c0,0,.14-.06.13-.08a2.17,2.17,0,0,0-.77-1.79,7.49,7.49,0,0,0-1.55-.73,6.43,6.43,0,0,0-2.74-.38c-1.16.1-2.34,0-3.5.1a20.58,20.58,0,0,1-4.34-.11,22.37,22.37,0,0,0-2.89-.27,11.22,11.22,0,0,0-3.95,1,1.66,1.66,0,0,0-1,.88c-.13.29-.25.58-.37.87a1.34,1.34,0,0,0-.05.22.73.73,0,0,0,.23-.08,6.52,6.52,0,0,1,3.35-1.27,5.84,5.84,0,0,1,2.64.05,1,1,0,0,0,.37,0,1.33,1.33,0,0,0-.27-.32,5.19,5.19,0,0,0-.63-.29c.24,0,.49,0,.73,0A1.92,1.92,0,0,1,259,88a2.75,2.75,0,0,1,0,.45l-.53-.06s-.08,0-.12-.06a8.76,8.76,0,0,0-1.89-.58,15.84,15.84,0,0,0-2.48.14,4.77,4.77,0,0,0-1.94.59,3.55,3.55,0,0,0-1.4,1.12,1.21,1.21,0,0,0-.1.33c.12,0,.26.06.35,0a7.27,7.27,0,0,0,1.07-.56,5.64,5.64,0,0,1,2.66-1.06,3.13,3.13,0,0,1,2.67.7l.85.85a.6.6,0,0,0,.19.08c0-.07,0-.15,0-.19-.19-.32-.4-.63-.6-.95l-.12-.18c.08,0,.18,0,.24,0,.61.33,1.11.74,1,1.48a5.24,5.24,0,0,1-1.41,3.24.61.61,0,0,1-.41.14c-.59,0-1.19-.13-1.78-.1a9.35,9.35,0,0,1-4.76-1,1.6,1.6,0,0,1-.62-.63,4.09,4.09,0,0,1-.41-1.14,8.56,8.56,0,0,1-.32-2.22,3.33,3.33,0,0,1,2.17-2.64,9.35,9.35,0,0,1,3.44-1c1.44-.14,2.89-.25,4.33-.26a28.05,28.05,0,0,0,5-.34A3.76,3.76,0,0,1,265,84c.76.05,1.52.16,2.28.26a6.22,6.22,0,0,1,3.34,1.33,5.25,5.25,0,0,1,.93.82,5.16,5.16,0,0,1,.86,3.76,3,3,0,0,1-.53,1.33,6.65,6.65,0,0,1-1.11,1,2.85,2.85,0,0,1-1.9.74,4.64,4.64,0,0,1-3.67-1.35c-.13-.14-.27-.27-.4-.41,0,.2-.06.4-.11.59a.82.82,0,0,1-.15.22c-.07-.07-.19-.14-.19-.22,0-.37,0-.74,0-1.11s0-.65,0-1h0a1.72,1.72,0,0,1,.19-.44,3.36,3.36,0,0,1,3.84-1c1,.46,2,1,3,1.53l.21.09c0-.08,0-.18-.06-.23a9,9,0,0,0-1.32-1.28,6.51,6.51,0,0,0-2.72-.9,3,3,0,0,0-3,.81,3.94,3.94,0,0,0-.56.74,2.84,2.84,0,0,0-.16.68c-.07.29-.15.59-.22.88a5,5,0,0,0,.26,2.29,2.7,2.7,0,0,0,.19.68c.43.79.88,1.57,1.33,2.34a2.75,2.75,0,0,1,.29,1.86.46.46,0,0,1-.55.41l-1.37-.13a1.38,1.38,0,0,0-1.27.35c-.38.4-.9.27-1.35.16a1.87,1.87,0,0,1-.86-.51c-.53-.54-1.11-.34-1.64-.13a1.34,1.34,0,0,1-1.67-.24.33.33,0,0,0-.31,0,1.8,1.8,0,0,1-1.55.39,4.76,4.76,0,0,0-3.27.8c-.55.39-1.08.78-1.06,1.6,0,1.53.13,1.15-1.21,2a.52.52,0,0,0-.24.38c.1,1,.23,2,.37,2.95a.44.44,0,0,0,.13.29,12.3,12.3,0,0,0,2.11,1.26c1.83.69,3.7,1.25,5.56,1.87a1.17,1.17,0,0,0,.26,0,1.72,1.72,0,0,0,0-.28l-.87-2.73a.69.69,0,0,0-.61-.57,7,7,0,0,1-2.71-1.07,4.22,4.22,0,0,1-2-2.67,1.61,1.61,0,0,1,.29-1.43,4.29,4.29,0,0,1,2.92-1.58c1.14-.19,2.3-.29,3.44-.46s2-.28,2.87.63c.47.51.66.44,1.24,0a2.85,2.85,0,0,1,1.63-.74,12.82,12.82,0,0,1,2.5.24,26.43,26.43,0,0,1,3,.88,3,3,0,0,1,2,2.89.89.89,0,0,1-.18.45c-.39.45-.79.89-1.2,1.32a2.13,2.13,0,0,1-.64.53c-.69.29-1.41.53-2.12.77a5.31,5.31,0,0,1-1.11.25c-.69.07-.69,0-.86.72-.05.21-.11.41-.16.62s-.06.32-.08.49l.45-.17.29-.07a11.46,11.46,0,0,0,2.7-.65,8.79,8.79,0,0,0,2.61-1.82c.67-.74,1.25-1.55,1.88-2.34h0a7.72,7.72,0,0,0,1.09-2.8.31.31,0,0,0-.1-.25,2.68,2.68,0,0,1-.82-2.55c.06-.43-.07-.43-.38-.37l-.17,0a10.22,10.22,0,0,1-3.9.29,2,2,0,0,1-1.67-.85c-.1-.17-.22-.42-.17-.58S267.33,95.39,267.58,95.46Zm.41,1.76c.76.19,1.56.23,2.31.43a3,3,0,0,1,1.31.7,15.31,15.31,0,0,1,1.43,1.89.38.38,0,0,1,0,.37.39.39,0,0,1-.38,0,7.63,7.63,0,0,1-.65-.76c-.38-.48-.74-1-1.15-1.43a1.61,1.61,0,0,0-1.33-.33,4.16,4.16,0,0,1-3.33-1.34,1.53,1.53,0,0,1-.14-.21C266.68,96.78,267.32,97.06,268,97.22Z" transform="translate(-241.67 -72.52)" style="fill:#973100"/><path d="M252.59,102.9c.12.15.25.3.37.45.78,1.06,2,1.34,3.21,1.84,0-.09.09-.16.09-.23,0-.32-.27-.38-.51-.49-.89-.4-1.76-.83-2.63-1.25A5.76,5.76,0,0,1,252.59,102.9Z" transform="translate(-241.67 -72.52)" style="fill:#973100"/><path d="M255.68,103.26c.15,0,.27-.34.44-.57-.16-.14-.27-.3-.34-.29s-.54.14-.55.24C255.21,102.92,255.28,103.31,255.68,103.26Z" transform="translate(-241.67 -72.52)" style="fill:#973100"/><path d="M253.67,102.77c.32.1.64.2,1,.29,0,0,.09-.15.16-.27s-.15-.25-.22-.25a5.47,5.47,0,0,0-.83.06S253.7,102.72,253.67,102.77Z" transform="translate(-241.67 -72.52)" style="fill:#973100"/><path d="M256.26,101.63c0-.12-.15-.23-.23-.34l-.1.06c-.25,0-.49,0-.73.09a1.12,1.12,0,0,0-.29.16,1.17,1.17,0,0,0,.35.22,5.61,5.61,0,0,0,.67,0C256.11,101.87,256.31,101.9,256.26,101.63Z" transform="translate(-241.67 -72.52)" style="fill:#973100"/><path d="M262.07,107.73a1.66,1.66,0,0,0-2.08,0,.67.67,0,0,0-.23.39,1.21,1.21,0,0,0,1.2,1.43,6,6,0,0,0,.89-.26A.9.9,0,0,0,262.07,107.73Zm-.93,1.29a.76.76,0,0,1-.77-.61.6.6,0,0,1,.61-.55c.49,0,.9.27.91.61S261.56,109,261.14,109Z" transform="translate(-241.67 -72.52)" style="fill:#973100"/><path d="M260.69,109.82c-.45,0-.66.19-.66.61a1.12,1.12,0,0,0,1,1.17,1.07,1.07,0,0,0,.95-1.17C261.94,110,261.65,109.91,260.69,109.82Zm.64,1c-.13.09-.39.21-.44.15a1.06,1.06,0,0,1-.21-.51s.15-.1.22-.15l.07.14,0,0,0,.15.18,0,.25-.06C261.37,110.65,261.39,110.81,261.33,110.85Z" transform="translate(-241.67 -72.52)" style="fill:#973100"/><path d="M254.2,101.63c-.29.06-.58.15-.87.24a1,1,0,0,0-.19.11l.13,0c.37,0,.67-.06,1-.11.08,0,.15-.11.22-.17C254.37,101.7,254.27,101.61,254.2,101.63Z" transform="translate(-241.67 -72.52)" style="fill:#973100"/><path d="M261.46,100.49c.89,0,1.77,0,2.66-.06.31,0,.63,0,.94,0,.5,0,1-.19,1.49-.19.93,0,1.86.07,2.8.11a.86.86,0,0,0,.21,0s-.08-.12-.13-.14a6.46,6.46,0,0,0-1.27-.51c-.85-.16-1.73-.16-2.57-.35a2.67,2.67,0,0,0-2.72.46,1.32,1.32,0,0,1-1.67.27,4.29,4.29,0,0,1-.62-.52,1.21,1.21,0,0,0-1.14-.34c-.56.11-1.14.14-1.7.23-1.16.19-2.33.36-3.48.61a5.25,5.25,0,0,0-1.43.66c-.13.08-.14.36-.21.55.11,0,.23.09.32.06a14.25,14.25,0,0,1,3.14-.78h2.12C259.28,100.49,260.37,100.5,261.46,100.49Z" transform="translate(-241.67 -72.52)" style="fill:#973100"/><path d="M268.83,75.37a1.56,1.56,0,0,0-1.68.9,6.55,6.55,0,0,0-.47,1.25,2.86,2.86,0,0,0,.57,2.34,2.08,2.08,0,0,0,2.17.87h.1c.45-.08.95,0,1.3-.36a2.79,2.79,0,0,0,1-2.59A2.9,2.9,0,0,0,268.83,75.37ZM271,78a1.91,1.91,0,0,1-1.22,2,2.16,2.16,0,0,1-2.08-.45,1.52,1.52,0,0,1-.41-1.61,4.18,4.18,0,0,1,.46-1.25,1.52,1.52,0,0,1,2-.53A2,2,0,0,1,271,78Z" transform="translate(-241.67 -72.52)" style="fill:#973100"/><path d="M265.85,103.77c.81,0,.73.07.64-.72a.18.18,0,0,1,0,0c0-.46-.16-.6-.63-.61-.81,0-.81,0-.69.76C265.25,103.76,265.25,103.76,265.85,103.77Z" transform="translate(-241.67 -72.52)" style="fill:#973100"/><path d="M253.73,109.19a22.42,22.42,0,0,1-2.13-1c-.58-.34-.55-.39-.92.12,0,.06-.11.12-.15.18-.19.3-.39.6-.56.91s-.08.38.2.49c.75.31,1.5.65,2.24,1a1.74,1.74,0,0,0,.22.06l.06.08a5.39,5.39,0,0,0,.84-.59c.18-.18.22-.49.38-.7S254,109.31,253.73,109.19Z" transform="translate(-241.67 -72.52)" style="fill:#973100"/><path d="M263,106.16c0-.37-.3-.4-.52-.42-.52,0-.77.19-.76.58s.13.54.46.57S263.05,106.44,263,106.16Zm-.66.29c-.06-.07-.15-.13-.16-.2s.08-.14.17-.27c.09.14.18.22.17.28S262.44,106.39,262.37,106.45Z" transform="translate(-241.67 -72.52)" style="fill:#973100"/><path d="M250.3,107.39c-.54-.26-1.07-.58-1.66-.11,0,0-.07,0-.1,0-.27.17-.54.34-.79.54a.29.29,0,0,0,0,.28,2.29,2.29,0,0,0,1.48.74.63.63,0,0,0,.24-.13c.32-.38.62-.76.92-1.16A.19.19,0,0,0,250.3,107.39Z" transform="translate(-241.67 -72.52)" style="fill:#973100"/><path d="M263.71,109.78a.24.24,0,0,0-.23.06,2.52,2.52,0,0,0-.21.38c-.38.72-.51,1.58-1.27,2.1a1.71,1.71,0,0,1-2.1-.3c-.29-.44-.52-.92-.79-1.37,0-.08-.15-.13-.23-.19,0,.09-.05.2,0,.28a5.89,5.89,0,0,0,.46,1,2.07,2.07,0,0,0,2,1.18l1.38-.22a.26.26,0,0,0,.16-.14q.25-.62.48-1.25c.15-.42.3-.84.43-1.26A.24.24,0,0,0,263.71,109.78Z" transform="translate(-241.67 -72.52)" style="fill:#973100"/><path d="M258.16,110.56a.58.58,0,0,0-.31-.24c-.31-.09-.63-.13-1-.2l-1.67-.36c-.52,0-.71.15-.84.55-.07.23-.15.45-.21.68a.6.6,0,0,0,.42.79,2.69,2.69,0,0,1,.28.08,9.08,9.08,0,0,0,2.9.78l1.52.15h.09l-.07-.15C258.93,111.94,258.56,111.25,258.16,110.56Z" transform="translate(-241.67 -72.52)" style="fill:#973100"/><path d="M246.89,102.43a1.13,1.13,0,0,0-.92-.82,1.1,1.1,0,0,0-1.18.75,5,5,0,0,0-.27.83,1,1,0,0,0,.78,1.19c.23,0,.47.06.71.09h.3a.85.85,0,0,0,.89-1.09A10,10,0,0,0,246.89,102.43Zm-1,1.54a.86.86,0,0,1-.85-1c0-.48.34-.75.93-.75a.92.92,0,0,1,.8.82A1,1,0,0,1,245.91,104Z" transform="translate(-241.67 -72.52)" style="fill:#973100"/><path d="M264.15,110.92c0,.06-.12.1-.13.17-.1.38-.19.76-.26,1.14a.48.48,0,0,0,.06.36c.05.06.25,0,.34,0a.52.52,0,0,0,.15-.23c0-.49-.07-.87-.1-1.25A1,1,0,0,0,264.15,110.92Z" transform="translate(-241.67 -72.52)" style="fill:#973100"/><path d="M253.64,80.86a4.49,4.49,0,0,0,.53-.05,2.5,2.5,0,0,0,1.69-2.41,4.31,4.31,0,0,0-1.32-2.77,1.7,1.7,0,0,0-1.45-.52,2.43,2.43,0,0,0-1.88,1.38,3.34,3.34,0,0,0,.54,3.64A2.63,2.63,0,0,0,253.64,80.86ZM252,76.48a1,1,0,0,1,1.14-.33c.34.13.74.14,1.07.29a1.65,1.65,0,0,1,.69,1.93c-.27,1.12-.63,1.44-2,1.55a1.24,1.24,0,0,1-1.41-1.11A2.19,2.19,0,0,1,252,76.48Z" transform="translate(-241.67 -72.52)" style="fill:#973100"/><path d="M250.16,79.72l-1.85,1.76a1.46,1.46,0,0,0-.19.3,2.8,2.8,0,0,0,.36.06c1.41.05,2.83.08,4.24.15,1.73.08,3.45.18,5.18.27v-.1c.54,0,1.08,0,1.62,0a.45.45,0,0,0,.22-.16,1.41,1.41,0,0,0-.35-.52,1.72,1.72,0,0,1-.68-1.6c0-.23-.08-.33-.31-.39a1,1,0,0,1-.79-.61c-.14-.38-.32-.75-.44-1.14a2.4,2.4,0,0,1-.14-.85c0-.7.07-.69-.62-.52-.25.06-.29.17-.19.41a6.45,6.45,0,0,1,.45,1.3,3.32,3.32,0,0,1-.57,2.26,2.31,2.31,0,0,1-2.79,1.28,4,4,0,0,1-2.74-1.79C250.45,79.64,250.36,79.52,250.16,79.72Z" transform="translate(-241.67 -72.52)" style="fill:#973100"/><path d="M273.69,103.23l-.16-.07a7.36,7.36,0,0,1-1.32,1.83,15.5,15.5,0,0,1-1.76,1.66,11.59,11.59,0,0,1-5,1.67,1.58,1.58,0,0,0-1.14.94c-.13.46.09.72.56.6.26-.06.5-.22.76-.25.57-.08,1.16-.1,1.73-.15a.68.68,0,0,0,.31-.08c.53-.36,1-.77,1.57-1.09a16.4,16.4,0,0,1,1.65-.72c.31.15.44.08.48-.23a1.23,1.23,0,0,1,.32-.65c.57-.59,1.16-1.16,1.77-1.7l.23-.22a.21.21,0,0,1,0-.08C273.68,104.2,273.7,103.72,273.69,103.23Z" transform="translate(-241.67 -72.52)" style="fill:#973100"/><path d="M276.9,96.45c-.37,0-.53.25-.6.57s-.07.53-.11.93c0,.07,0,.33.15.42a.81.81,0,0,0,1.19-.6,6.48,6.48,0,0,0,0-.74A.55.55,0,0,0,276.9,96.45Z" transform="translate(-241.67 -72.52)" style="fill:#973100"/><path d="M277.94,97.16a5.63,5.63,0,0,0,.19.78s.15,0,.15,0a3.53,3.53,0,0,0,.47-1.16,1.54,1.54,0,0,0-1.69-1.55,2,2,0,0,0-1.84,1,1.54,1.54,0,0,0-.19,1.45c.1.24.46.37.7.55a4.17,4.17,0,0,0,.19-.52s-.09-.17-.15-.18a.41.41,0,0,1-.34-.58,1.16,1.16,0,0,1,1.11-.92,5.36,5.36,0,0,1,1.4.29c.22.06.3.25.11.48A.47.47,0,0,0,277.94,97.16Z" transform="translate(-241.67 -72.52)" style="fill:#973100"/><path d="M275.71,101.3c0,.08.16.18.23.17.69-.12,1.39-.26,2.08-.41a.33.33,0,0,0,.2-.25c-.07-.62-.17-1.24-.28-1.86a.31.31,0,0,0-.24-.17c-.44.06-.88.15-1.32.24a.29.29,0,0,0-.16.11,2.94,2.94,0,0,0-.63,1.52A5.55,5.55,0,0,0,275.71,101.3Z" transform="translate(-241.67 -72.52)" style="fill:#973100"/><path d="M252.78,79.48a1.2,1.2,0,0,0,1.65-1.14,3.49,3.49,0,0,0-.17-1,1.34,1.34,0,0,0-1.68-.56,1.35,1.35,0,0,0-.64,1.44C252,79,252.15,79.29,252.78,79.48Zm.44-2.31a1,1,0,0,1,.85.77c0,.63-.24.89-.79.9a.87.87,0,0,1-.9-.85A.84.84,0,0,1,253.23,77.17Z" transform="translate(-241.67 -72.52)" style="fill:#973100"/><path d="M279.23,94.85A3,3,0,0,0,277.5,94a3.4,3.4,0,0,0-3.59,2.56,2.72,2.72,0,0,0,.81,2.82c.41.37.56.34.8-.14a1.38,1.38,0,0,1,.15-.26c.2-.23.09-.33-.15-.43a2,2,0,0,1-.6-3,3.66,3.66,0,0,1,2.36-1,1.89,1.89,0,0,1,.54.16c.43.26,1,.39,1.21.92a2.79,2.79,0,0,1-.45,3,.72.72,0,0,0,.07,1,.57.57,0,0,0,.84-.19,4.09,4.09,0,0,0,.45-.75c.47-1.09.79-2.18-.11-3.22C279.64,95.26,279.43,95.06,279.23,94.85Z" transform="translate(-241.67 -72.52)" style="fill:#973100"/><path d="M267.61,110.38a.49.49,0,0,0-.43-.45,2.1,2.1,0,0,0-2.15.78.73.73,0,0,0-.11.31c0,.37-.07.74-.12,1.1s0,.46.37.42c.78-.19,1.56-.39,2.34-.57a.34.34,0,0,0,.29-.46C267.75,111.13,267.66,110.76,267.61,110.38Z" transform="translate(-241.67 -72.52)" style="fill:#973100"/><path d="M278.4,101.88c0-.33-.1-.38-.42-.32a10.81,10.81,0,0,1-1.9.22.65.65,0,0,0-.67.48,2.35,2.35,0,0,0-.14.69c0,.44.27,1,.57,1l1,.12c.73.08,1.22-.16,1.42-.73a8.53,8.53,0,0,0,.22-1h-.06C278.4,102.17,278.39,102,278.4,101.88Zm-1.55,1.71c-.5,0-.82-.29-.82-.7a.79.79,0,0,1,.81-.8.83.83,0,0,1,.77.74A.75.75,0,0,1,276.85,103.59Z" transform="translate(-241.67 -72.52)" style="fill:#973100"/><path d="M271.57,108.13A.45.45,0,0,0,271,108l-1.83,1a1.32,1.32,0,0,0-.86,1.47c0,.36,0,.61,0,.85s.12.33.36.2c.44-.23.88-.44,1.32-.65l2.21-1.06c.33-.15.42-.34.16-.65S271.82,108.46,271.57,108.13Z" transform="translate(-241.67 -72.52)" style="fill:#973100"/><path d="M275,106.4a.85.85,0,0,0-.92-.6c-.29,0-.56.16-.84.23h-.09c-.28.29-.55.58-.82.87s-.34.68.06,1.13a1.66,1.66,0,0,1,.24.33c.31.59.29.67.9.25a15.22,15.22,0,0,0,1.58-1.25A2.37,2.37,0,0,0,275,106.4Z" transform="translate(-241.67 -72.52)" style="fill:#973100"/><path d="M248.35,98.39a4,4,0,0,0-1-3.51,2,2,0,0,0-2.26-.75,7.09,7.09,0,0,0-1.67.91,7.85,7.85,0,0,0-1.24,1.13c-.48.52-.39,1.22-.52,2.08a3.09,3.09,0,0,0,.37,1.12,2.28,2.28,0,0,0,2.22,1c.05,0,.13.12.19.18-.29.24-.14.49-.05.76,0,.08,0,.2-.06.29-.08-.05-.19-.09-.22-.16a.69.69,0,0,0-.66-.5c-.24,0-.24,0-.17.2.16.36.32.72.48,1.07.09.19.18.24.32,0a2,2,0,0,1,1-.89c.12,0,.23-.33.22-.5,0-.42-.14-.84-.2-1.26,0-.15.07-.38,0-.46-.41-.4,0-.33.2-.37a2.36,2.36,0,0,1,.57,0c.63,0,.86-.19,1-.81a3.26,3.26,0,0,0-.18-2.13.88.88,0,0,0-.86-.62,2.34,2.34,0,0,0-2.19,1.3A1.18,1.18,0,0,0,244,98.1c.09.07.18.25.14.33a.48.48,0,0,1-.33.21c-.8.12-1.25-.74-1.11-1.54a2.9,2.9,0,0,1,3.06-2.34c.75.11,1.65.57,1.69,1.4a14.64,14.64,0,0,1-.08,2.38,1.71,1.71,0,0,1-.5.88c-.1.1-.42,0-.63,0,0,0-.08,0-.1,0s-.2.12-.22.2a3,3,0,0,0-.1.62c0,.33,0,.66,0,1,0,0,0,.06.06.07L247,102a.82.82,0,0,0,.18.06,1,1,0,0,0,0-.19,10.67,10.67,0,0,0-.12-1.07,1.19,1.19,0,0,1,.54-1.33A1.9,1.9,0,0,0,248.35,98.39Zm-4.3-1.52a1.45,1.45,0,0,1,1.4-.86,1.41,1.41,0,0,1,1,1.2c0,.1,0,.2,0,.37l-.07.24a2.16,2.16,0,0,1-.22-.26,5.72,5.72,0,0,0-.34-.61.52.52,0,0,0-.88,0,3.39,3.39,0,0,1-.36.4,2.2,2.2,0,0,1-.46.21C244.14,97.31,244,97.05,244.06,96.87Z" transform="translate(-241.67 -72.52)" style="fill:#973100"/><path d="M254.64,89.61a.58.58,0,0,0-.39.38.4.4,0,0,0,.46.48c.15,0,.29-.15.39-.2C255.06,89.86,255,89.57,254.64,89.61Z" transform="translate(-241.67 -72.52)" style="fill:#973100"/><path d="M269.24,89.71a1.63,1.63,0,0,0-1.6-.73,1.88,1.88,0,0,0-1.44,1.25c0,.11-.19.27-.27.26a5.41,5.41,0,0,1-.72-.22c-.14,0-.29-.06-.44-.09.06.12.11.24.17.35s.16.27.25.4a2.22,2.22,0,0,0,1.5.93,16.41,16.41,0,0,0,1.95.11l.62-.13c.69-.16,1.19-.79,2-.75.08,0,.18-.25.27-.38l-.35-.05C270.41,90.56,269.62,90.58,269.24,89.71Zm-.22.81a1.1,1.1,0,0,1-1,.71,1.23,1.23,0,0,1-1.17-.4c-.32-.39-.15-.73,0-1.06a1,1,0,0,1,1-.52,4.92,4.92,0,0,1,.68.26A1.08,1.08,0,0,1,269,90.52Z" transform="translate(-241.67 -72.52)" style="fill:#973100"/><path d="M267.61,89.59c-.06.08-.23.23-.24.38,0,.34.24.46.53.47s.36-.14.36-.38S268,89.59,267.61,89.59Z" transform="translate(-241.67 -72.52)" style="fill:#973100"/><path d="M252.62,92a17.56,17.56,0,0,0-2-.31c.07.15.11.38.23.43a8.32,8.32,0,0,0,1.86.64c1.36.2,2.74.27,4.12.41a.6.6,0,0,0,.63-.4c.24-.43.46-.87.69-1.31a1,1,0,0,0,.05-.24l-.25.07a.67.67,0,0,0-.14.09A5.76,5.76,0,0,1,252.62,92Z" transform="translate(-241.67 -72.52)" style="fill:#973100"/><path d="M253.42,77.89c0-.06-.11-.12-.17-.18a1.2,1.2,0,0,0-.17.28s.07.12.16.27C253.34,78.08,253.42,78,253.42,77.89Z" transform="translate(-241.67 -72.52)" style="fill:#973100"/><path d="M264.13,108.31a.79.79,0,0,0,.13-.19c.32-1.09.64-2.17,1-3.26,0-.05-.08-.14-.13-.21s-.22.11-.24.19q-.42,1.54-.81,3.09a1.26,1.26,0,0,0,0,.38Z" transform="translate(-241.67 -72.52)" style="fill:#973100"/><path d="M264.46,102c.07,0,.14-.22.16-.35a.3.3,0,0,0-.14-.25,2.42,2.42,0,0,0-.47-.11,1.12,1.12,0,0,0-.38,0,2.65,2.65,0,0,0-.38.33c.12.11.22.3.36.33A2.73,2.73,0,0,0,264.46,102Z" transform="translate(-241.67 -72.52)" style="fill:#973100"/><path d="M263.42,106.32c.05-.09.14-.17.15-.27.06-.7.1-1.41.14-2.11h0c0-.12,0-.25,0-.37-.15-1-.15-1-1.19-.82a.42.42,0,0,0-.4.45c0,.56,0,1.12-.09,1.68,0,.25.06.33.31.34.61,0,.8.24.89.83C263.28,106.15,263.37,106.23,263.42,106.32Z" transform="translate(-241.67 -72.52)" style="fill:#973100"/><path d="M264.22,102.65a3.86,3.86,0,0,0,.19.38l.16-.22-.23-.28S264.21,102.63,264.22,102.65Z" transform="translate(-241.67 -72.52)" style="fill:#973100"/><path d="M256.36,90.21c-.2,0-.27,0-.31-.22A1.23,1.23,0,0,0,255,88.87a1.34,1.34,0,0,0-1.46.7,1.41,1.41,0,0,1-1.11.9,6.29,6.29,0,0,1-1.68.18c-.08,0-.17.07-.25.1s.11.13.18.16a13,13,0,0,0,4.72.77,4.74,4.74,0,0,0,2.48-1.07.54.54,0,0,0,.1-.16c-.08,0-.15-.11-.23-.12A13.31,13.31,0,0,0,256.36,90.21Zm-.79.33a1,1,0,0,1-1,.61,1,1,0,0,1-1-.68c-.07-.37.32-.9.82-1.07.33-.12.67-.21,1,.12A.9.9,0,0,1,255.58,90.54Z" transform="translate(-241.67 -72.52)" style="fill:#973100"/><path d="M260,80.9h2.66v-.06l.81-.06a.52.52,0,0,0,.52-.52.55.55,0,0,0-.53-.62c-.46,0-.92-.09-1.38-.1a20.08,20.08,0,0,0-2.25,0,.69.69,0,0,0-.65.73A.75.75,0,0,0,260,80.9Z" transform="translate(-241.67 -72.52)" style="fill:#973100"/><path d="M247.46,87.49a18.15,18.15,0,0,1,1-2.54,14.55,14.55,0,0,1,1.24-1.75.89.89,0,0,0,.08-.3c-.08,0-.19-.06-.24,0a3.24,3.24,0,0,0-.82.67,21.17,21.17,0,0,0-1.07,1.87,14.11,14.11,0,0,0-1.29,4.65c-.14.92-.21,1.85-.31,2.78h0c0,.2-.07.45,0,.59s.35.18.54.26a1,1,0,0,0,.13-.32c0-.49,0-1,0-1.48A19.8,19.8,0,0,1,247.46,87.49Z" transform="translate(-241.67 -72.52)" style="fill:#973100"/><path d="M258.7,78.71a3.43,3.43,0,0,0,.73.06c.69,0,1.37-.07,2.06-.07.89,0,1.77.05,2.66.05.13,0,.27-.18.4-.27-.12-.09-.24-.24-.37-.25-1-.06-2-.1-3.25-.15l-2.23.23c-.09,0-.17.11-.26.17C258.53,78.56,258.61,78.69,258.7,78.71Z" transform="translate(-241.67 -72.52)" style="fill:#973100"/><path d="M260,73.22a5.22,5.22,0,0,0-.15,1.26,1.18,1.18,0,0,0,1.68.92,1.29,1.29,0,0,0,.7-1.08,5,5,0,0,0-.17-1.12.89.89,0,0,0-.92-.69A1,1,0,0,0,260,73.22Zm1.12.36a.66.66,0,0,1,.65.6.89.89,0,0,1-.79.75c-.27,0-.51-.17-.53-.52A.77.77,0,0,1,261.15,73.58Z" transform="translate(-241.67 -72.52)" style="fill:#973100"/><path d="M246,88.46a15.51,15.51,0,0,1,1.41-3.63,23.36,23.36,0,0,1,1.35-1.93,1.3,1.3,0,0,0,.1-.2s-.11-.05-.15,0c-.23.12-.53.2-.65.39a15.7,15.7,0,0,0-1.55,2.71,28.37,28.37,0,0,0-1,3.89c-.22,1-.32,2-.47,3l.08,0c0,.22,0,.45,0,.67s.09.34.15.34c.24,0,.33-.14.32-.4,0-.5,0-1,0-1.51A14.91,14.91,0,0,1,246,88.46Z" transform="translate(-241.67 -72.52)" style="fill:#973100"/><path d="M244,93.74c0,.09,0,.19,0,.28s.24,0,.32-.07a.48.48,0,0,0,.13-.3,13.94,13.94,0,0,1,.11-1.71c.35-1.74.72-3.48,1.14-5.21a7.89,7.89,0,0,1,1.59-3.21,1.71,1.71,0,0,0,.19-.49,2.38,2.38,0,0,0-.43.28,8.3,8.3,0,0,0-1.69,3,21.29,21.29,0,0,0-.88,3.39c-.25,1.23-.4,2.49-.59,3.73H244C244,93.54,244,93.64,244,93.74Z" transform="translate(-241.67 -72.52)" style="fill:#973100"/><path d="M263.55,76.46c0,.28.05.57.11.85a.5.5,0,0,0,.21.27s.19,0,.22-.11a1.61,1.61,0,0,0-1-2.15.84.84,0,0,0-.85.28c-.26.25-.51.51-.94.25a.83.83,0,0,0-.64,0,1,1,0,0,1-1.23-.24.77.77,0,0,0-1.09-.05,1.6,1.6,0,0,0-.23,2.08c0,.07.23.14.28.11a.36.36,0,0,0,.15-.29c-.16-.59.19-.94.57-1.27a.73.73,0,0,1,.22-.08c0,.09.06.2,0,.28s-.17.27-.23.41a1.53,1.53,0,0,0-.17.59c0,.15.17.29.26.43a1.83,1.83,0,0,0,.33-.41c.11-.28.16-.58.26-.86,0-.09.15-.15.23-.22,0,.1.14.21.13.31s-.07.49-.07.74.1.2.16.29c.08-.08.2-.15.24-.24s0-.32,0-.46a1.51,1.51,0,0,1,.22-.35L261,77l-.08.06a.67.67,0,0,0,0,.23,2.53,2.53,0,0,0,.21.31,2.08,2.08,0,0,0,.19-.39,3.12,3.12,0,0,0,0-.5,3.14,3.14,0,0,0,.16.45c.07.13.18.33.27.33.25,0,.28-.21.23-.42a3.51,3.51,0,0,1-.1-.46c0-.07.07-.15.1-.22s.12.11.14.18.06.43.13.63.17.16.26.24c.07-.1.21-.19.21-.3a6.42,6.42,0,0,0-.07-.67.85.85,0,0,1,.07-.26c.07.07.19.13.2.21.05.28.05.56.1.84,0,.09.12.16.19.23.07-.09.19-.17.2-.26a6.86,6.86,0,0,0-.07-.74.93.93,0,0,1,0-.18C263.48,76.35,263.54,76.4,263.55,76.46Z" transform="translate(-241.67 -72.52)" style="fill:#973100"/><path d="M246.07,84a1.07,1.07,0,0,0,0-.24l-.1,0a3.94,3.94,0,0,0-.29.35,13.87,13.87,0,0,0-1.8,4.26,26.28,26.28,0,0,0-1,6,1,1,0,0,0,0,.22c.06,0,.16,0,.18-.07a2.26,2.26,0,0,0,.28-.67c.13-1,.12-2.07.34-3.07A45.08,45.08,0,0,1,245,86.49,25.65,25.65,0,0,1,246.07,84Z" transform="translate(-241.67 -72.52)" style="fill:#973100"/><path d="M255.88,95.2h0Z" transform="translate(-241.67 -72.52)" style="fill:#973100"/><path d="M266,96.55h0Z" transform="translate(-241.67 -72.52)" style="fill:#973100"/><path d="M264.13,108.32h0Z" transform="translate(-241.67 -72.52)" style="fill:#973100"/></svg>