<svg id="Layer_10" data-name="Layer 10" xmlns="http://www.w3.org/2000/svg" viewBox="0 0 48.55 44.79"><title>_divider_FAQ_icon</title><path d="M-361.19,208l-.56,2.49s6.57.33,6.81.47,6.43,4.32,6.43,4.32l2.35,6.1-.7,5.07-2.39,3.8-2.07.66,3.43,4.51-.52.38-7.42-2-4,.28-6.48-1.69-3.38-4-2.39-5.31-.47-1-1.22.38,1.13,5.87,5.12,5.54,7.23,2.21,4.32,0,9.63,2,1.31-.66-2.91-5.87,2.77-4.46,1.22-6-2.35-6.53-2.11-3.1-.33.61-2.25-2.11-4.65-1.69Z" transform="translate(392.56 -193.18)" style="fill:#973100"/><polygon points="26.9 26.34 24.37 26.9 24.23 29.67 25.54 31.08 27.56 31.27 28.97 29.95 28.41 27.09 26.9 26.34" style="fill:#973100"/><polygon points="32.54 26.06 30.89 28.59 31.6 30.43 33.52 31.46 35.83 30.24 36.15 27.61 34.46 25.96 32.54 26.06" style="fill:#973100"/><path d="M-352.93,219.48c-.09.14-1.69,2.16-1.69,2.16l.56,1.83,1.93,1.17,1.78-.66,1.13-2-1.36-2.49Z" transform="translate(392.56 -193.18)" style="fill:#973100"/><path d="M-370.07,194.78l-1.74-.19-.7-1.13-4.51-.28L-383.4,195c-.19.09-6.95,6.57-6.95,6.57l-1.69,8.08,4.32,7L-392,222l.85,1.27-1.41,2.86,7-2.35,1.78-1.78,3.71-.85,6,.23,9.16-5.07,2.63-12.58Zm-7.75,21.88-1.64-.19-.7-1.6s1.31-1.64,1.46-1.74l2.11.38.47,1.78Zm4.32-11.27-4.51,2.68.33,3.29-1.27.19-.8-3.9,2.49-2.63.7-1.93-3.05-1.22-1.88,2.35-2.16-.56,2.86-4.74,4.41.23,3.15,3Z" transform="translate(392.56 -193.18)" style="fill:#973100"/></svg>