<svg id="Layer_26" data-name="Layer 26" xmlns="http://www.w3.org/2000/svg" viewBox="0 0 34.5 68.28"><title>_divider_Invited_Skull_icon</title><path d="M411.85,408.89c-1.44-.55-3-1.68-4.42-.86-1.18.7-1.09,2.35-.46,3.7.07.16,0,.71-.15.75s-.28-.24-.33-.38a5.14,5.14,0,0,1-.34-1.38c-.07-3.32-1.84-6.62-.14-10a8.87,8.87,0,0,0-.06-2.63c-.12-.58.65-1.59-.37-1.66s-.79,1.07-1,1.75a5.34,5.34,0,0,0-.07,1c-.15,1.88-.45,3.76-.41,5.64.05,2.72-.48,5.42.29,8.17a1.72,1.72,0,0,0,2,1.45c1.2,0,1.27-.93,1.2-1.91-.1-1.37.19-2.38,2-2a5.81,5.81,0,0,0,2-.24c.31-.06.76,0,.85-.41A.87.87,0,0,0,411.85,408.89Z" transform="translate(-403.97 -350.85)" style="fill:#973100"/><path d="M422.81,415.57a1.58,1.58,0,0,0-.09-.38c-.09-.25-.21-.51-.52-.49s-.4.29-.46.55a2.15,2.15,0,0,0,0,.39c0,.45,0,.91,0,1.2a6.26,6.26,0,0,1,0,1.62.58.58,0,0,0,.19.53,1.13,1.13,0,0,0,1.11,0c.28-.15.36-.32.28-.74A25.7,25.7,0,0,1,422.81,415.57Z" transform="translate(-403.97 -350.85)" style="fill:#973100"/><path d="M425.13,414.94a1.17,1.17,0,0,0-.23-.42c-.05-.06-.17-.08-.21-.1a.39.39,0,0,0-.35.21.78.78,0,0,0-.06.57c.17.75.36,1.51.55,2.26a.35.35,0,0,0,.24.28.45.45,0,0,0,.42-.19.62.62,0,0,0,.11-.64C425.45,416.26,425.3,415.6,425.13,414.94Z" transform="translate(-403.97 -350.85)" style="fill:#973100"/><path d="M425.63,414.08c-.19,0-.24.2-.23.37a2.14,2.14,0,0,0,.07.38l.58,2.35c0,.1.08.18.19.17s.15-.12.15-.21c0-.26,0-.52,0-.67a3,3,0,0,0-.47-2.23A.31.31,0,0,0,425.63,414.08Z" transform="translate(-403.97 -350.85)" style="fill:#973100"/><path d="M420.72,414.67c-.24,0-.43.23-.46.65-.05.9-.07,1.8-.09,2.69a.31.31,0,0,0,.35.35c.64,0,.78-.15.81-.79,0-.16,0-.32,0-.48a8.76,8.76,0,0,0-.16-1.82C421.13,414.84,421,414.64,420.72,414.67Z" transform="translate(-403.97 -350.85)" style="fill:#973100"/><path d="M424,415.53a2,2,0,0,0-.13-.46.35.35,0,0,0-.36-.26c-.24,0-.3.21-.32.39.17.94.32,1.86.5,2.78a.31.31,0,0,0,.47.17.49.49,0,0,0,.27-.64A10.19,10.19,0,0,1,424,415.53Z" transform="translate(-403.97 -350.85)" style="fill:#973100"/><path d="M417.15,414.05c-.22,0-.35.13-.43.32a.86.86,0,0,0-.06.22c-.09.7-.17,1.39-.24,2.09a.2.2,0,0,0,.12.15.21.21,0,0,0,.18-.11c.25-.74.49-1.48.68-2.08C417.43,414.28,417.39,414.09,417.15,414.05Z" transform="translate(-403.97 -350.85)" style="fill:#973100"/><path d="M418.61,414.52c0-.16-.07-.33-.25-.36a.58.58,0,0,0-.32.08.4.4,0,0,0-.15.18,12.85,12.85,0,0,0-.65,2.28.92.92,0,0,0,.16.68.58.58,0,0,0,.27.21c.24.05.23-.17.26-.31a12.91,12.91,0,0,1,.65-2.53A.5.5,0,0,0,418.61,414.52Z" transform="translate(-403.97 -350.85)" style="fill:#973100"/><path d="M419.48,414.32a.39.39,0,0,0-.41.19,2.81,2.81,0,0,0-.56,1.32,4.07,4.07,0,0,1-.14,1,2.16,2.16,0,0,0,.41,1.91.3.3,0,0,0,.49.1,1.12,1.12,0,0,0,.51-1c0-.45,0-.9,0-1.35a9.78,9.78,0,0,0,0-1.73A.44.44,0,0,0,419.48,414.32Z" transform="translate(-403.97 -350.85)" style="fill:#973100"/><path d="M432.08,406.8c2.81-.17,3.89-1.18,3.21-3.81-1-3.8,0-7.6-.47-11.4-.49-4,.3-8,.09-12-.22-4.24.31-8.49-1.4-12.59a34.52,34.52,0,0,1-2-7c-.66-3.57-3.47-5.48-6.16-7.47a8.5,8.5,0,0,0-5.35-1.67c-1.49,0-3,.1-4.48.17-2.21.1-3.87.76-4.57,3.23-.4,1.42-.84,2.86-1.27,4.29-1.76,5.73-3.57,11.46-3.06,17.57a44.91,44.91,0,0,1,0,5.86c-.14,3-1.08,6.15-.22,9.15.58,2,.73,9.75.71,9.75-1.33,1.69-.91,3.56-.6,5.44.13.8.54.56,1,.5a6.88,6.88,0,0,1,6.84,3.41c.92,1.65,2.06,3,4.1,3.21h.2c1.65.21,2,.62,4.41.1a8.29,8.29,0,0,0,3.11-.81c.41-.29.58-.85,1.07-1.21.11-.08.05-.39.09-.59A4.72,4.72,0,0,1,432.08,406.8Zm-1.48-45.66c.81,3.83,2.51,7.44,3.21,11.32.1.53.13,1.08.19,1.62h0c.14,1-.19,3.09-1.42,3.26-1,.13-1.14-1.5-1.4-2.42-1.63-5.61-3.8-11-5.82-16.51-.16-.45-.46-1-.18-1.35s.84.11,1.28.16C428.79,357.51,430.07,358.6,430.61,361.14Zm-11.45,16.95c.39-1.48.77-3.13,1.29-4.74.23-.7.62-1.17,1.38-.19a22.77,22.77,0,0,1,4,8.65c.12.5.39,1.09-.45,1.3C423.88,383.5,419.14,379.79,419.16,378.09ZM420.1,367c.37-.38,1.32,1.47,1.53,2,.29.65-.26,1.13-.62,1.61-.2.26-.4.29-.64,0A7.71,7.71,0,0,1,420.1,367Zm2.07,5.47c-.23-.47-.94-1.08-.21-1.6s1.09.18,1.47.65l1.12,1.37h0c.72,1.32,2,2.26,2.79,3.51a.31.31,0,0,1-.41.44A10.55,10.55,0,0,1,422.17,372.5Zm3.33.6a17.72,17.72,0,0,1-1.54-2.17c-1-1.07-1-1.68-.3-2.58,1.38-1.85.76-4.09,1.28-6.1.08-.3,0-.74.39-.82s.43.24.52.5c.2.63,5.56,16.55,5,16.85S428,375.69,425.49,373.1Zm-1-18.87c0-.34,0-.68.49-.72a13,13,0,0,1,3.52,2.91c0,.16-.17.47-.26.46a7.67,7.67,0,0,1-3-.94C424.51,355.57,424.47,354.93,424.53,354.23Zm-.15,5.36c-.27.5.17,1.47-.51,1.51s-.67-.92-.83-1.48c-.31-1.11-.55-2.25-.79-3.38a.27.27,0,0,1,0-.07V356a.41.41,0,0,1,.54-.36,1,1,0,0,1,.25.11C424.21,356.48,424.66,359.07,424.38,359.6ZM422,352.36c.9,0,1.63.21,1.54,1.19,0,.49,0,1-.43.75-.76-.48-2-.43-2.21-1.5C420.83,352.19,421.62,352.36,422,352.36Zm-2,3c.06-.46.09-1.11.63-1.13s.53.61.63,1.08a76.19,76.19,0,0,0,2.32,8.64c.16.45.4,1.15,0,1.32s-.65-.52-.82-.92c-1-2.55-2.65-5-2.83-7.76A6.14,6.14,0,0,1,420.08,355.39Zm-.12,6.44c0-.25.15-.69.27-.71.37-.05.57.3.7.6.76,1.65,1.49,3.32,2.24,5a.91.91,0,0,1-.35,1.23c-.58.38-.83-.13-1.12-.5a11.86,11.86,0,0,1-1.72-3.55,2.88,2.88,0,0,1-.14-1.2C419.89,362.36,419.91,362.1,420,361.84Zm-1.54,15c-.11.61-.61.46-.85,0a4.88,4.88,0,0,1-.9-3.07c.32-2.49,1.54-4.82,1.29-7.41a.58.58,0,0,1,.3-.47c.39-.1.41.29.45.51a30.78,30.78,0,0,1,.82,5.66C419.56,373.76,418.71,375.23,418.42,376.84Zm-1.63-18.1a3.77,3.77,0,0,1,.88-1.09c.26-.25.54-.72,1-.39.29.21.15.61.07.95-.19.78-.35,1.58-.54,2.36-.06.24-.08.54-.43.58C417.16,361.18,416.44,359.51,416.79,358.74Zm-.68-3a2.34,2.34,0,0,1,2.15-1.74c.51-.08,1-.06.82.71s-2,3-2.45,2.78C415.8,357.11,416,356.49,416.11,355.74Zm-1.64,4.72c1.14,1.85,1.21,4.16,2.55,5.93.22.29,0,.54-.25.64-.41.17-.67-.21-.78-.47-.52-1.17-1-2.36-1.43-3.57-.28-.76-.46-1.56-.66-2.26,0-.33-.09-.64.25-.72C414.21,360,414.37,360.29,414.47,360.46Zm.45,10.68c-.07-.8-.18-1.6-.26-2.41,0-.33-.11-.79.23-.89s.78.27.91.64a7.94,7.94,0,0,1,.48,2.61c0,1,.35,2.42-.71,2.46C414.69,373.59,415,372,414.91,371.14ZM413,366.71c-1.5.27-1.53-.66-1.27-1.91a5.79,5.79,0,0,1,1-2.71.33.33,0,0,1,.52,0,7,7,0,0,1,.81,2.44C414.52,366.68,414.55,366.67,413,366.71ZM412.4,379c-.08.23-.08.55-.45.57-.6,0-3.06-2.91-3-3.78.51-2.29,1.08-4.74,1.6-7.2.21-1,.91-1,1.69-1.09s.93.55,1.11,1.16C414.39,372.2,413.59,375.6,412.4,379Zm.94-25.55c.67.07.83.57.7,1.3-.12.25.12,1-.56.87s-.84-.81-.88-1.43A.64.64,0,0,1,413.34,353.41Zm-3.09,6.74c.34-1.07.1-2.19.59-3.17.3-.61.28-1.93,1.05-1.63s2,1.63,1.45,2.58c-1.63,2.59-3.84,11.87-4.94,13.69a.11.11,0,0,1-.21-.06A42.7,42.7,0,0,1,410.25,360.15Zm3.13,40.47a3.77,3.77,0,0,1-3.24,1.41c-.56,0-1.18-.19-1.37-.72-.46-1.25-.8-2.55-1-3.32-.05-1.55.11-2.55,1.07-3a2.44,2.44,0,0,1,2.78.69,8.75,8.75,0,0,1,1.63,2.06A2.68,2.68,0,0,1,413.37,400.63Zm.08-17.93c-.42-.28-.57-.74-.44-1.61-.12-1.79,1-3.68,1.39-5.72.2-.93,1-.93,1.42-.11.66,1.18,1.21,2.41,1.76,3.64.24.54-.2.87-.56,1.18-.82.7-1.64,1.41-2.49,2.07C414.23,382.39,414.06,383.1,413.45,382.7Zm.94,1.55a3.11,3.11,0,0,1,2.4-2.61c1.34-.08.72,1.66,1,2.39.25,1.83-1.21,2-2.06,2.13C414.71,386.3,414.35,385,414.39,384.25Zm1.37,6.51c-.69-.19-.39-.88-.25-1.62a3.4,3.4,0,0,1,0-.79c.18-.93,1-1.88,1.61-1.71s0,1.23-.12,1.89a5,5,0,0,1-.42,1.14C416.37,390.07,416.58,391,415.76,390.75Zm1.21,1c.21-1.06.63-2.07.9-3.12.16-.64.31-1.15,1.14-1.16a1.33,1.33,0,0,1,1.46,1.11c.77,2.74,1.91,3.31-1.88,4.52C417.32,393.56,416.72,393.1,417,391.8Zm3,6.41c0-.32,1.1-3.45,1.47-3.38.17,0,.25.29.27.44a12.78,12.78,0,0,1,.08,3.25c0,.72,0,1.81-.87,1.7C420.21,400.14,419.9,399.06,420,398.21Zm-1.25-.93h0c-.34,0-.73-3.29,1.28-4,.29-.09.55-.5.88-.16s0,.5-.14.72C420,395,420.51,396.8,418.75,397.29Zm3.63,10.53a2.1,2.1,0,0,0-2.81,0c-.85.59-1.4,0-1.13-1a11.15,11.15,0,0,1,.6-1.73c.4-.91.6-2.19,1.89-2.08,1.1.09,1.65,1.11,2,2.11.22.64.38,1.3.48,1.66C423.48,407.91,423.15,408.36,422.38,407.81Zm1-11.42a.26.26,0,0,1-.45,0c-.32-.59.16-1.32-.14-1.92a4.15,4.15,0,0,1-.31-2.6c.06-.33.1-.74.52-.78s.41.41.47.71a8.93,8.93,0,0,1,.46,2.2A5.22,5.22,0,0,1,423.36,396.39Zm1.57-3.72c-.39.24-2.06-3.18-2-4.13.09-.78,1.05-.49,1.5-.49,1.51,0,2.52.16,2.39,1.71A3.74,3.74,0,0,1,424.93,392.67Zm2.25-7.69c-.23.92-.23,2.31-1.74,2.41-.47,0-1,0-1.43,0-3.08,0-4.5-1.75-4-5,.16-1.07.74-.52,1.11-.2a8.69,8.69,0,0,0,4.62,1.94C426.21,384.21,427.44,384,427.18,385Zm-.74-5.14c-.16-.54-.94-1.07-.37-1.57.21-.18,1.15.28,1.61.64a6.84,6.84,0,0,1,1.49,1.27,1.27,1.27,0,0,1,.1,1.3c-.2.39-.39.78-.61,1.16-.13.22-.36.49-.57.51-.39,0-.6-.33-.61-.66C427.43,381.47,426.72,380.74,426.44,379.84Zm1.24,20.28c-.6-1.06,0-2.11.76-3a6.3,6.3,0,0,1,1.15-1.15c1-.61,2.06-1.45,3.19-.81s.89,2,.55,3.12a11,11,0,0,0-.15,1.82,2,2,0,0,1-2.38,1.95A3.92,3.92,0,0,1,427.68,400.12Z" transform="translate(-403.97 -350.85)" style="fill:#973100"/><path d="M438.07,405a17.42,17.42,0,0,0-.92-8.14c-.12-.3-.31-.79-.51-.81-.47,0-.64.45-.74.83a9.87,9.87,0,0,0,0,3.65c.16,1.67,1.08,3.36.26,5a8.67,8.67,0,0,0-.53,3.79,10.4,10.4,0,0,0,.39,1.76c0,.21-.16.63-.28.64-.35,0-.36-.33-.39-.59s0-.54,0-.82c-.23-3.45-.59-3.65-3.74-2.11-.73.36-1.5.63-2.25,1-.31.14-.63.36-.49.77a.71.71,0,0,0,.8.49c.4-.06.8-.16,1.2-.22a6,6,0,0,1,3.2.43c.87.35.35,1.47.6,2.21.2.58.27,1.21,1,1.36s1.42.27,1.89-.36a3.51,3.51,0,0,0,.82-2.86C437.9,409.06,438.28,407.09,438.07,405Z" transform="translate(-403.97 -350.85)" style="fill:#973100"/></svg>