<svg id="Layer_11" data-name="Layer 11" xmlns="http://www.w3.org/2000/svg" viewBox="0 0 39.98 34.06"><title>_impress_icon</title><path d="M190,233l-1.27-1,2.68-2.34-.84-.82.72-1.55,2-1-.49-.61,2.41-1.74,2.25.08,4.73,1.69-.24.35-4.39-1.27-2.36-.08-1.16,1.12,4.36,2.89,3.22.84,3.05-.74,2.51-2.65-.15-3.07L202.42,220l-5.17-.89.14-.6,3.4-5.4,1-3.39-.45-3.18-3-.79-3.56,6.57s-6.21,3.31-6.25,3.39-5.63,3.48-5.63,3.48l-5.1-.65L175.32,232l4.87,1,2.68,3.08,3.62,2.4,5.13.36-4.17-3.38Z" transform="translate(-167.21 -205.75)" style="fill:#973100"/><polygon points="10.18 12.06 1.37 10.57 1.01 12.96 0.21 16.99 0 21.65 0.47 23.62 0.18 25.21 0.01 26.13 7.25 26.84 8.44 20.08 10.18 12.06" style="fill:#973100"/><polygon points="23.23 28.19 21.39 29.79 24.2 32.09 26.74 33.84 28.57 34.06 31.34 33.08 31.59 31.03 26.82 30.09 23.23 28.19" style="fill:#973100"/><polygon points="24.71 24.54 22.59 26.27 27.05 29.13 32.37 30.4 34.87 30.06 35.36 27.89 29.76 27.19 24.71 24.54" style="fill:#973100"/><polygon points="34.5 24.62 31.34 23.91 26.85 21.49 25.4 21.93 24.45 23.25 30.14 26.61 35.38 27.25 37.83 26.55 38.29 24.85 37.82 23.77 34.5 24.62" style="fill:#973100"/></svg>