<svg id="Layer_26" data-name="Layer 26" xmlns="http://www.w3.org/2000/svg" viewBox="0 0 280 359.11" width="280" height="359" ><title>_Invitational_logo</title><path d="M369,341.39a8.87,8.87,0,0,0-1.14,1.42c-.34.63,0,1.18.51,1.6a.82.82,0,0,0,1.25-.09q1.62-1.68,3.29-3.33c.59-.58.37-1.06-.09-1.58-1.66-1.89-3.31-3.79-5-5.69a1.27,1.27,0,0,0-1.57-.54c-4,1.52-4.71,4.6-1.53,7.35.59.51,1.13,1.62,2.2.85a2.19,2.19,0,0,0,1.09-2.53,2.77,2.77,0,0,0-.43-.5,1.81,1.81,0,0,0-1-.11c-.71.07-.94-.46-1-1s.5-.68.86-.95c1-.72,3.18,2.72,3.53,3.52S369.38,340.91,369,341.39Z" transform="translate(-284.37 -91.57)" style="fill:#fff"/><path d="M359.5,332c-.73.64-1.12,1.51,0,1.9,2.23.8,2.93-1.69,4.49-2.42.71-.33,1.39-1,.72-2-1.48-2.21-2.93-4.44-4.41-6.64a1.29,1.29,0,0,0-1-.67c-1.57,1.28-3.44,2.17-4.8,3.7a1.06,1.06,0,0,0,.05,1c.67,1.1,1.41,2.17,2.14,3.23.56.82,1.3.57,2,.23s1.5-.39,1.39-1.24a1.8,1.8,0,0,0-1.39-1.59c-.36-.08-.89.13-1-.47,0-.41.35-.53.62-.72.43-.29.72-.07,1.06.22C361.77,328.56,361.8,330,359.5,332Z" transform="translate(-284.37 -91.57)" style="fill:#fff"/><path d="M411.85,408.89c-1.44-.55-3-1.68-4.42-.86-1.18.7-1.09,2.35-.46,3.7.07.16,0,.71-.15.75s-.28-.24-.33-.38a5.14,5.14,0,0,1-.34-1.38c-.07-3.32-1.84-6.62-.14-10a8.87,8.87,0,0,0-.06-2.63c-.12-.58.65-1.59-.37-1.66s-.79,1.07-1,1.75a5.34,5.34,0,0,0-.07,1c-.15,1.88-.45,3.76-.41,5.64.05,2.72-.48,5.42.29,8.17a1.72,1.72,0,0,0,2,1.45c1.2,0,1.27-.93,1.2-1.91-.1-1.37.19-2.38,2-2a5.81,5.81,0,0,0,2-.24c.31-.06.76,0,.85-.41A.87.87,0,0,0,411.85,408.89Z" transform="translate(-284.37 -91.57)" style="fill:#fff"/><path d="M352.6,320.78c-.47.36-1.2.59-.74,1.4.22.4.44.86.91.95,1.46-.84,2.86-1.67,4.28-2.45,1.09-.59,1.18-1.29.54-2.32-.91-1.44-1.73-2.93-2.53-4.44-1.42-2.68-1.41-2.69-4.13-1.45-3.53,1.61-3.58,1.77-1.55,5.23.14.24.28.47.43.7.36.53.51,1.42,1.44,1.1a2.92,2.92,0,0,0,1.8-1.25c.35-.74-.3-1.25-.83-1.68s-1.3-.67-.71-1.35,1.21-.13,1.7.42C354.89,317.49,354.7,319.16,352.6,320.78Z" transform="translate(-284.37 -91.57)" style="fill:#fff"/><path d="M398.3,368.06c-.41.83-.84,1.66.18,2.32s1.66-.08,2.14-.85a20.48,20.48,0,0,1,1.58-2.84c1-1.1.41-1.65-.43-2.29-1.19-.91-2.39-1.82-3.52-2.79-2.74-2.37-3.14-2.35-5.41.41-.82,1-2.14,2.23-1.29,3.38a6.83,6.83,0,0,0,4.2,2.95c.9.12,1.56-1,1.76-1.86.29-1.24-.57-1.84-1.74-2-.36,0-.93.21-.95-.4a.64.64,0,0,1,.84-.64,7.61,7.61,0,0,1,3.66,2.5C400.07,367,398.65,367.34,398.3,368.06Z" transform="translate(-284.37 -91.57)" style="fill:#fff"/><path d="M377.33,351.78c-.53.57-.81,1.07-.23,1.76s1.2.48,1.82.12c1.57-.93,2.44-2.54,3.6-3.86.35-.4,0-.75-.27-1-1.9-1.75-3.45-3.84-5.51-5.43-.57-.44-1.18-.91-1.82-.35-1.38,1.21-3.14,2.27-3.71,4-.45,1.34,1.65,1.69,2.26,2.78a3.93,3.93,0,0,0,.53.62c.51.58,1.11,1.26,1.88.62s1.8-1.09,1.71-2.09-1-1.87-1.9-1.21a.59.59,0,0,1-.4.06c-.57-.08-.89-.39-.68-1s.9-1.1,1.39-.66c1.07.94,2.46,1.76,2.94,3.06C379.32,350.2,378,351,377.33,351.78Z" transform="translate(-284.37 -91.57)" style="fill:#fff"/><path d="M387.52,360.24a1.65,1.65,0,0,1-.12.17c-.34.57-.89,1.18-.09,1.76a1.32,1.32,0,0,0,2.11-.28,10.49,10.49,0,0,1,2-2.33c1.62-1.36,1.59-1.69-.16-3s-3.38-2.51-4.95-3.9-2-1.47-3.25.17c-.29.37-.51.8-.81,1.17-1.79,2.21-1.79,2.2.27,3.94.47.39.87.86,1.32,1.28s.85,1.26,1.66.75,2.09-1.13,2.12-2.25-1.07-.6-2-.5c-.45,0-1-.53-1.19-1a.76.76,0,0,1,.18-.93,1,1,0,0,1,1.31-.14c1.1.79,2.42,1.46,2.92,2.76C389.22,358.95,387.88,359.4,387.52,360.24Z" transform="translate(-284.37 -91.57)" style="fill:#fff"/><path d="M422.81,415.57a1.58,1.58,0,0,0-.09-.38c-.09-.25-.21-.51-.52-.49s-.4.29-.46.55a2.15,2.15,0,0,0,0,.39c0,.45,0,.91,0,1.2a6.26,6.26,0,0,1,0,1.62.58.58,0,0,0,.19.53,1.13,1.13,0,0,0,1.11,0c.28-.15.36-.32.28-.74A25.7,25.7,0,0,1,422.81,415.57Z" transform="translate(-284.37 -91.57)" style="fill:#fff"/><path d="M346.56,308.67c-.06,0-.13,0-.19.08-.8.44-.64,1.14-.42,1.79s.83.77,1.49.49c1.19-.5,2.37-1,3.6-1.42s1.46-1.15.91-2.32a15.3,15.3,0,0,1-1.39-4.24,6,6,0,0,0-1.32-3.13c-.79-.82-1.87.35-2.85.39a5.23,5.23,0,0,0-2.54.62c-.52.3-.86.66-.71,1.32a9.61,9.61,0,0,0,1.21,4c.52.83,1.11,1.22,2,.89.59-.22,1.47-.3,1.48-1.17s.16-1.85-1.15-2c-.36,0-.9-.27-.64-.79a2,2,0,0,1,.92-.75c.5-.25.71.18.93.53C349.61,305.68,349.31,307,346.56,308.67Z" transform="translate(-284.37 -91.57)" style="fill:#fff"/><path d="M425.13,414.94a1.17,1.17,0,0,0-.23-.42c-.05-.06-.17-.08-.21-.1a.39.39,0,0,0-.35.21.78.78,0,0,0-.06.57c.17.75.36,1.51.55,2.26a.35.35,0,0,0,.24.28.45.45,0,0,0,.42-.19.62.62,0,0,0,.11-.64C425.45,416.26,425.3,415.6,425.13,414.94Z" transform="translate(-284.37 -91.57)" style="fill:#fff"/><path d="M425.63,414.08c-.19,0-.24.2-.23.37a2.14,2.14,0,0,0,.07.38l.58,2.35c0,.1.08.18.19.17s.15-.12.15-.21c0-.26,0-.52,0-.67a3,3,0,0,0-.47-2.23A.31.31,0,0,0,425.63,414.08Z" transform="translate(-284.37 -91.57)" style="fill:#fff"/><path d="M420.72,414.67c-.24,0-.43.23-.46.65-.05.9-.07,1.8-.09,2.69a.31.31,0,0,0,.35.35c.64,0,.78-.15.81-.79,0-.16,0-.32,0-.48a8.76,8.76,0,0,0-.16-1.82C421.13,414.84,421,414.64,420.72,414.67Z" transform="translate(-284.37 -91.57)" style="fill:#fff"/><path d="M424,415.53a2,2,0,0,0-.13-.46.35.35,0,0,0-.36-.26c-.24,0-.3.21-.32.39.17.94.32,1.86.5,2.78a.31.31,0,0,0,.47.17.49.49,0,0,0,.27-.64A10.19,10.19,0,0,1,424,415.53Z" transform="translate(-284.37 -91.57)" style="fill:#fff"/><path d="M417.15,414.05c-.22,0-.35.13-.43.32a.86.86,0,0,0-.06.22c-.09.7-.17,1.39-.24,2.09a.2.2,0,0,0,.12.15.21.21,0,0,0,.18-.11c.25-.74.49-1.48.68-2.08C417.43,414.28,417.39,414.09,417.15,414.05Z" transform="translate(-284.37 -91.57)" style="fill:#fff"/><path d="M343.25,295.66c-.58.13-1.52.08-1.32,1.16s1,1.16,1.86,1a36.13,36.13,0,0,1,3.78-.79c1.33-.15,1.5-.82,1-1.8a12.27,12.27,0,0,1-1.07-3.91c-.62-4-.56-3.92-4.48-3.71-1.78.1-3.06.33-2.17,2.45a7.13,7.13,0,0,0,.34,3.12c.19.54.44,1,1.13,1s1.43.25,1.89-.44c.57-.86.07-1.59-.49-2.19s-.72-.91-.07-1.3c.46-.28,1.21-.41,1.43.27C346.28,294.28,346.23,295,343.25,295.66Z" transform="translate(-284.37 -91.57)" style="fill:#fff"/><path d="M418.61,414.52c0-.16-.07-.33-.25-.36a.58.58,0,0,0-.32.08.4.4,0,0,0-.15.18,12.85,12.85,0,0,0-.65,2.28.92.92,0,0,0,.16.68.58.58,0,0,0,.27.21c.24.05.23-.17.26-.31a12.91,12.91,0,0,1,.65-2.53A.5.5,0,0,0,418.61,414.52Z" transform="translate(-284.37 -91.57)" style="fill:#fff"/><path d="M419.48,414.32a.39.39,0,0,0-.41.19,2.81,2.81,0,0,0-.56,1.32,4.07,4.07,0,0,1-.14,1,2.16,2.16,0,0,0,.41,1.91.3.3,0,0,0,.49.1,1.12,1.12,0,0,0,.51-1c0-.45,0-.9,0-1.35a9.78,9.78,0,0,0,0-1.73A.44.44,0,0,0,419.48,414.32Z" transform="translate(-284.37 -91.57)" style="fill:#fff"/><path d="M391.64,242.57c-2.18.05-4.31.57-6.51.35a47.67,47.67,0,0,0-7.3.23c-.7,0-1.45.18-1.53,1-.11,1.2-.66,2.65.2,3.54s2.13.61,3.31.33c1.91-.46,2.21-.16,2.21,1.91q0,8.45,0,16.91h.08c0,.82,0,1.63,0,2.45,0,.56.16,1.21.84,1.21a42.68,42.68,0,0,0,4.27-.27.85.85,0,0,0,.61-1c-.26-1.43.2-2.88,0-4.22-.67-5.28.53-10.56-.14-15.83-.14-1.1.51-1.81,1.72-1.78.54,0,1.09,0,1.63,0,2.79-.06,2.81-.17,2.67-3.06C393.65,243,393.16,242.53,391.64,242.57Z" transform="translate(-284.37 -91.57)" style="fill:#fff"/><path d="M515.87,265.22c-1.35-5.18-3-10.28-4.53-15.4-.89-3-.92-3-3.94-3.05-2.2-.07-2.08,0-2.93,2a60.78,60.78,0,0,0-2,6.8C501,260.74,499.23,265.77,498,271c-.55,2.33-.59,2.32,1.78,2.61,3.38.42,3.37.42,4.15-2.86.18-.77.16-1.72,1.39-1.6a35.73,35.73,0,0,0,3.84.3c1.61,0,2.32.93,2.75,2.24.23.7.32,1.46.5,2.18s.43,1.32,1.3,1.31a18.2,18.2,0,0,1,4.23.48c.64.15,1,0,.7-.72A86.27,86.27,0,0,1,515.87,265.22Zm-7.62-.84c-2.68-.11-2.75-.38-1.88-2.75a36.63,36.63,0,0,0,1.2-5.1c.05-.25-.07-.61.26-.66s.35.31.42.57c.6,2.19.76,4.47,1.59,6.64C510.43,264.65,508.93,264.3,508.25,264.39Z" transform="translate(-284.37 -91.57)" style="fill:#fff"/><path d="M444.93,260.23c-.07-5.37-.17-10.73-.27-16.1,0-.7.28-1.62-.87-1.73a9.34,9.34,0,0,0-4.61.25c-.07,0,0,.36,0,.55,0,6.16,0,12.32,0,18.35-.5,2.45.17,4.74.12,7.05,0,.7,0,1.42,1,1.33,1.55-.14,3.22.53,4.6-.67.1-.09,0-.39,0-.6C444.94,265.86,445,263,444.93,260.23Z" transform="translate(-284.37 -91.57)" style="fill:#fff"/><path d="M493.2,250c.45-3.94,0-4.53-3.7-4.89-1.58-.15-2.3.32-2.14,2a74.22,74.22,0,0,1,0,10.56c0,.41.4,1.11-.24,1.2-.45.06-.5-.7-.71-1.11-2-4-3.73-8.17-6-12.06-.67-1.15-3.65-2-4.82-1.38-.46.23-.41.64-.48,1a35.38,35.38,0,0,0-.16,7.46c.27,5.1-.16,10.19,0,15.28.13,3.68-.17,3.69,3.6,3.6a3.46,3.46,0,0,1,1,.13c1.12.31,1.24-.2,1.19-1.17-.09-1.84,0-3.69,0-5.53s0-4,0-5.94c0-.31-.08-.74.38-.81.12,0,.35.19.43.35,1.66,3.34,3.55,6.6,4.89,10.06,1.24,3.22,1.54,3.74,4.91,4.1,1.39.15,2.09-.18,2-1.7a49.1,49.1,0,0,1-.06-8.16C493.7,258.66,492.71,254.32,493.2,250Z" transform="translate(-284.37 -91.57)" style="fill:#fff"/><path d="M408.4,243.62c-.76-2.79-2.93-.61-4.29-1.36a1.43,1.43,0,0,0-2.08.69,7.07,7.07,0,0,0-.22,1.19c-.19.86-.34,1.73-.59,2.57-1.11,3.61-2.47,7.15-3.33,10.82-.73,3.1-1.61,6.15-2.4,9.22-.86,3.36-1,3.25,2.5,3.16s3.13-.55,3.22-2.93c.08-2,1-2.58,2.73-2.4.34,0,.68,0,1,0,3.49,0,3.49,0,4.19,2.2.86,2.75.86,2.75,3.88,2.81h.61c2,.07,2.35-.45,1.71-2.37C412.74,259.45,410.57,251.53,408.4,243.62Zm-3.73,16.22c-1.51.24-2-.6-1.39-2a21.67,21.67,0,0,0,1.18-4.92c.08-.49.19-1.23.77-1.23s.48.72.58,1.17c.35,1.52.68,3,1.07,4.55C407.45,259.6,407.22,259.89,404.68,259.84Z" transform="translate(-284.37 -91.57)" style="fill:#fff"/><path d="M468.88,251.29c-1.38-6.53-3.83-7.93-9.61-8.63a6.92,6.92,0,0,0-6.79,4.28,29.3,29.3,0,0,0-.77,17.3c.74,3.06,2.53,5.57,5.52,6.29,3.61.88,7.48,1.38,10.06-2.65a12.87,12.87,0,0,0,1.49-3.52c.89-3.11.54-6.22.43-9A24.47,24.47,0,0,0,468.88,251.29Zm-5.68,12.1c-.32,1.5-1,2.76-2.65,2.91-1.3.12-3.06-1.43-3.34-2.78a21.67,21.67,0,0,1-.65-4.87q.35-4.17.71-8.33c.14-1.63,1.13-2.34,2.64-2.6,1.66-.29,2.37.8,2.87,2a7.67,7.67,0,0,1,.69,3C463.39,256.27,463.94,259.85,463.2,263.39Z" transform="translate(-284.37 -91.57)" style="fill:#fff"/><path d="M434.32,243.12c-.08-.66-.28-1.38-1.25-1.26-5,.62-10,0-15,.37-.56,0-1,0-1.21.76-.8,3.05,0,4.08,3.13,4h.2c2.4,0,2.48,0,2.48,2.51,0,2.93.22,5.86.11,8.78,0,3.13.07,6.26,0,9.38,0,1.45.52,2,1.86,2,.61,0,1.21-.05,1.81,0,1.8.13,2.28-.63,2.24-2.43-.13-5.8-.51-11.61-.08-17.42.19-2.6.14-2.6,2.83-2.72.61,0,1.23-.12,1.84-.1.9,0,1.22-.39,1.19-1.23S434.42,244,434.32,243.12Z" transform="translate(-284.37 -91.57)" style="fill:#fff"/><path d="M311.16,263.19a28.45,28.45,0,0,1,0-7.5c.27-1.88-.44-3.87-.21-5.85.08-.69-.56-.81-1-.55-1.41.86-4.3-.35-4.39,1.54-.35,7.34-.14,14.72-.14,22.08h0c0,1.15,0,2.3,0,3.46,0,.43-.15,1,.59,1.07a7.22,7.22,0,0,0,4.53-.85c.9-.61.46-1.87.46-2.87,0-.34.08-.68,0-1C310.73,269.54,311.56,266.41,311.16,263.19Z" transform="translate(-284.37 -91.57)" style="fill:#fff"/><path d="M335.9,250c-.13-3.8-.15-3.79-3.79-3.24-1.14.17-1.83.58-1.82,1.94,0,3.85,0,7.69-.09,11.54a6.68,6.68,0,0,1-.09.76,2.51,2.51,0,0,1-.61-.48,18.73,18.73,0,0,1-1.83-2.91,59.11,59.11,0,0,0-4.34-8.51c-.63-1-4.76-1.23-5.45-.3a1.18,1.18,0,0,0-.25.95c.71,1.45.25,3,.2,4.43-.1,2.93.48,5.83.13,8.76-.46,3.93.32,7.87.08,11.81,0,.74.24,1.16,1.1,1a9.43,9.43,0,0,1,1.63-.06c2.76,0,2.91-.22,2.85-3-.08-3.4,0-6.8,0-10.2,0-.38-.13-.92.43-1,.34,0,.49.4.65.71,1.86,3.55,3.85,7,5.54,10.66.68,1.46,1.37,1.86,2.79,1.37a2.6,2.6,0,0,1,1.2-.15c1.54.24,1.78-.48,1.77-1.86,0-6.12.17-12.23-.07-18.17C335.9,252.54,335.94,251.25,335.9,250Z" transform="translate(-284.37 -91.57)" style="fill:#fff"/><path d="M359.57,244.31c-1.15.14-2.3.23-3.46.31s-1.71.74-1.88,2c-.71,5-2.28,9.74-3.33,14.63-.06.28,0,.73-.42.75-.08,0-.21-.46-.25-.72-.79-5-2.73-9.78-3.64-14.78a1.33,1.33,0,0,0-1.84-1.1c-1.4.44-3.26-.63-4.23,1.2a1,1,0,0,0,.08.79c.84,1.59.84,3.41,1.43,5.07,1.9,5.37,3.12,10.94,4.91,16.35,1.31,4,1.08,4,5.15,3.69a1.6,1.6,0,0,0,1.69-1.42c.42-3,1.65-5.85,2.4-8.79,1.06-4.2,2-8.42,3.43-12.52a18.74,18.74,0,0,0,1.1-4.31C360.89,244.48,360.46,244.2,359.57,244.31Z" transform="translate(-284.37 -91.57)" style="fill:#fff"/><path d="M369.54,146.95c-.81.15-1,.8-1.05,1.54a1.62,1.62,0,0,0,.83,1.72,1,1,0,0,0,1.58-.35c.25-.39.58-.89,1.12-.6a1.23,1.23,0,0,1,.46,1.46c-.14.64-.73.54-1.17.48-1.27-.17-2.72.22-3.79-.55-.88-.64-.34-1.91-.52-2.89-.1-.56-.26-1.08-1-1.07-.49,0-1.09.07-1.13.63-.12,1.55-.62,3.07-.37,4.64.14.9.7,1.22,1.69,1.35,2.46.34,4.91-.57,7.31,0,1.56.37,1.83-.42,1.81-1.59s-.18-2-.3-3.21c-.08-.51.76-1.53-.62-1.77A13.68,13.68,0,0,0,369.54,146.95Z" transform="translate(-284.37 -91.57)" style="fill:#fff"/><path d="M366.91,243.83h-.41c-.59,0-.85.29-.87.88-.08,2.45-.53,4.95-.18,7.33.4,2.7,0,5.37,0,8,.05,3.39.51,6.84-.08,10.24-.11.61,0,1.18.72,1.15,1.41-.07,2.82-.23,4.23-.37.66-.06.88-.46.91-1.11.21-4.05,0-8.11.13-12.16.07-3,0-6.09-.2-8.8C371.28,243.6,371.15,243.45,366.91,243.83Z" transform="translate(-284.37 -91.57)" style="fill:#fff"/><path d="M472.78,335.35a35.67,35.67,0,0,0-5,6.11c-.25.43-.6.89-.07,1.24,1.4.92,1,1.83,2.27,2.53h0l0,0s0,0,0,0h0c.68.36,1.22,1.55,2.21.55s1.86-2,2.79-3a.83.83,0,0,0,.07-1.26c-.5-.5-.69-1.48-1.6-1.38s-1.2.84-1.39,1.58c-.12.47-.17.94-.76,1.07s-.61-.23-.77-.51c-.36-.65.17-1,.54-1.37.55-.5,1.23-.83,1.56-1.56.57-1.24,1.33-1.13,2.2-.28a9.27,9.27,0,0,0,1.11.9c.65.46,1.35.8,1.94,0a1.3,1.3,0,0,0-.21-2L474,335.17C473.53,334.8,473.17,334.94,472.78,335.35Z" transform="translate(-284.37 -91.57)" style="fill:#fff"/><path d="M463.67,345.5c-1.57,1.28-2.85,2.87-4.54,4-1.37.94-1.22,1.93-.17,3.31,2.83,3.72,3,4.28,6.79-.2a1.42,1.42,0,0,0,0-2.14c-.44-.51-.83-1.33-1.58-1s-1.53.92-1.33,1.69.4,1,0,1.17-.92-.23-1.27-.49-.13-.67.1-1,3.16-3.92,3.54-3.63c.93.71,1.15,2,2,2.78a1.17,1.17,0,0,0,1.79-.19,1,1,0,0,0-.09-1.58,29.79,29.79,0,0,1-2.49-2.68C465.49,344.4,464.67,344.7,463.67,345.5Z" transform="translate(-284.37 -91.57)" style="fill:#fff"/><path d="M455.62,353.34a1.13,1.13,0,0,0-.76.17c-2.1,1.6-4.18,3.22-6.26,4.85-.53.41-1,1.1-.4,1.54,1.38,1,1.73,3,3,3.77,1.81,1.14,2.59-1.61,4.16-2a1.13,1.13,0,0,0,.35-.2A1,1,0,0,0,456,360c-.42-.75-.73-1.86-1.67-1.9s-1.4.82-1.42,1.83c0,.45-.4.68-.84.75s-.6-.27-.78-.54a.8.8,0,0,1,.16-1.1c1-.84,2-1.7,3-2.44.63-.44,1.17,0,1.57.53s.68,1,1,1.52a.91.91,0,0,0,1.39.28c.49-.28.93-.58.9-1.24S456.33,353.43,455.62,353.34Z" transform="translate(-284.37 -91.57)" style="fill:#fff"/><path d="M444.53,361.45c-.27.15-3.22,2.27-4.87,3.35-2.38,1.56-2.33,1.64-1,4.19,1.76,3.44,1.76,3.44,4.69,1.13.16-.13.34-.23.51-.35.67-.48,1.47-.91.91-1.94-.31-.57-.34-1.53-1.15-1.54-1,0-.94,1-1.22,1.67s-.56,1.05-1.2.57-1.09-.95-.37-1.68a7.48,7.48,0,0,1,.78-.66c.85-.66,1.52-1.81,2.65-1.79s1,1.44,1.67,2.12,1.15,1.35,2,.69.68-1.41.14-2.18l-2.5-3.63C445.4,361.15,444.8,361.3,444.53,361.45Z" transform="translate(-284.37 -91.57)" style="fill:#fff"/><path d="M479.84,325.31a59.92,59.92,0,0,1-3.75,6.29,1.37,1.37,0,0,0,.31,1.83c3.44,3.51,4.05,3.46,6.61-.59,0-.06.06-.12.09-.18.9-1.41.4-1.13-.42-1.79-.35-.28-.83-.89-1.24-.75-.82.27-1,1-1,1.82,0,.46.13,1.08-.67.87a.9.9,0,0,1-.73-1.06,4.8,4.8,0,0,1,2.31-3.4c.86-.58,1.61.33,2.35.76.24.14.45.31.68.45.76.45,1.27.1,1.7-.54a1,1,0,0,0-.24-1.57c-1.21-.87-2.13-2.08-3.48-2.81C481.24,324,480.33,324.26,479.84,325.31Zm-.49,3h0l.15-.09Z" transform="translate(-284.37 -91.57)" style="fill:#fff"/><path d="M491.14,303.28c-.78,2-1.57,3.91-2.41,5.85-.47,1.09-.54,1.93.81,2.39a11.89,11.89,0,0,1,1.25.68c3.41,1.64,3.67,1.53,4.91-2,.16-.45.36-.88.51-1.34s.91-1.36.08-1.79a3.05,3.05,0,0,0-2.51-.54c-.78.31-.73,1.07-.69,1.76,0,.49.45,1.16-.35,1.38A.65.65,0,0,1,492,309a7.23,7.23,0,0,1,1.53-3.73c.79-1,1.54-.14,2.35.19a1.42,1.42,0,0,0,2-.94c.36-.95-.39-1.13-1-1.37a17.08,17.08,0,0,1-2.65-1C492.57,301.22,491.73,301.81,491.14,303.28Z" transform="translate(-284.37 -91.57)" style="fill:#fff"/><path d="M496.86,292.6c.64-.78,1.53-.08,2.31-.11.54,0,1.12,0,1.22-.74.08-.59.43-1.41-.29-1.65a15.28,15.28,0,0,0-5.4-.48c-.35,0-.57.37-.64.72-.47,2.32-1.32,4.61-1.32,6.7,0,1-.32,1.83.67,2.24,1.69.69,3.55,1.68,5.22,1.27,1.22-.3.75-2.38,1.05-3.66a6.21,6.21,0,0,0,.18-.8c.07-.73.35-1.55-.57-2a2,2,0,0,0-2-.15c-.74.5-.6,1.29-.28,2,.18.4.31.81-.12,1.07a1,1,0,0,1-.77,0,.83.83,0,0,1-.43-1C496.07,294.88,496.06,293.57,496.86,292.6Z" transform="translate(-284.37 -91.57)" style="fill:#fff"/><path d="M557.49,284.3c-.25-4.24-.57-8.51-.5-12.75.13-8.38-.87-16.75-.05-25.11.21-2.19-.76-3-2.54-3.37-3-.61-6-1.23-9-1.7-6.92-1.08-13.86-2.05-20.68-3.72a2.5,2.5,0,0,1-2.2-2.89c.14-3.27.22-6.55.13-9.81-.22-7.88-.23-15.76.26-23.63a27.45,27.45,0,0,0,.25-5.27c-.52-3.86-.31-7.75-.54-11.61-.43-7.19.49-14.4.33-21.62-.14-6.11-.06-12.24,0-18.36,0-4.73-1-9.46-.42-14.23.14-1.14,0-2.31,0-3.47s-.46-1.47-1.49-1.42c-3.69.16-7.36-.32-11-.33-5,0-10.08.18-15.12.3-3.11.08-6.18-.38-9.35,0a119.88,119.88,0,0,1-19.47.34c-.42,0-1.06-.06-1-.48.33-1.75-1.15-2.88-1.35-4.41-.48-3.67-2.55-6.71-4.62-9.43a51.22,51.22,0,0,0-13.25-12.59,41.33,41.33,0,0,0-6.64-3.82,32.43,32.43,0,0,0-6-1.74c-8.82-1.59-17.59-2.86-26.31.65-4.47,1.79-9.3,2.87-13,6.13-4.11,3.62-8.59,6.91-11.29,11.92-1.35,2.5-3.24,4.66-4,7.5a43.19,43.19,0,0,1-2.35,5.42,1.54,1.54,0,0,1-1.76,1c-3.19-.26-6.41.09-9.59-.56a13.88,13.88,0,0,0-5.68-.21c-2.51.53-5,.23-7.55.33-2.82.11-5.59-.84-8.32-.61-3.87.34-7.74.1-11.61.48-3.57.35-7.19.28-10.78.41-1,0-1.9.12-1.9,1.52,0,3.53-.74,7-.44,10.57.11,1.3.84,2.4.79,3.77-.14,4.23-.08,8.46-.1,12.69,0,5.32.29,10.67-.13,16-.33,4.22-.22,8.41-.25,12.6,0,2.44.39,4.89.34,7.33-.1,5.25-1.19,10.45-.79,15.74a37.37,37.37,0,0,1,.11,5.71,55.57,55.57,0,0,0,0,9.13c.43,4.8.73,9.6.7,14.42,0,1.71-.77,2.61-2.57,2.65a20,20,0,0,0-3.42.15c-2.56.48-5,1.43-7.5,1.93-6.4,1.25-12.78,2.56-19.15,4-1.38.31-1.75.86-1.77,2.17a58.33,58.33,0,0,1-.18,7.57,23.56,23.56,0,0,0,.23,6.7,22.94,22.94,0,0,1,.19,5.81c-.5,4.38-.65,8.77-.71,13.18s1.28,9,.63,13.59c-.15,1.06.37,1.55,1.28,2,2.15,1.11,4.55,1.4,6.78,2.25,3.6,1.38,7,3.32,10.82,4.16,2.83.61,5.53,1.81,8.3,2.69,1.76.56,3.06,1.93,5,2.14,3.64.39,3.66.61,4.63,4.25s1.86,7.27,3.17,10.77c1.83,4.88,4,9.63,6,14.43h0c.31.6.59,1.22.94,1.79,1.41,2.28,2.49,4.85,4.55,6.62a47,47,0,0,1,4.55,4.9c1,1.11,3.22,4.74,5.45,7.55.2.24,1.49,1.42,1.9,2a31.62,31.62,0,0,0,6.26,6.33,57.9,57.9,0,0,1,5.94,4.58c2.59,2.58,4.79,5.58,7.88,7.63a27.94,27.94,0,0,1,4.4,2.93c5.24,5.18,12.35,7.58,17.93,12.28,2.35,2,5.39,3.12,7.93,5,1.12.83,2.52,1.84,4.05,1.5,1.09-.24.71-1.71,1.26-2.5.08-.11.17-.21.25-.33,1.37-2,1.05-3.68-.9-5.12a24.36,24.36,0,0,0-4.49-2.33c-3.52-1.61-6.05-4.57-9.17-6.75-3.5-2.44-7-4.91-10.36-7.57-2.86-2.26-5.88-4.35-8.69-6.71l0,.07-.08,0c-1.66-1.8-3.24-3.67-5-5.38-4.28-4.18-8.59-8.32-12.64-12.74-1.43-1.56-2.18-3.39-3.28-5.07-2.76-4.2-6.33-7.77-8.75-12.29-2.09-3.92-4.22-7.75-5.35-12.07-.17-.65-.46-1.28-.67-1.92-1.48-4.37-3.8-8.4-4.8-13a80.64,80.64,0,0,0-1.7-7.92,68,68,0,0,1-1.83-8.38c-.47-2.47-.07-3,2.42-3.36,2.27-.36,3.84-.51,6.1-.9,1.35-.24,2-.14,1.94,1.3-.25,3.56,1.07,7.16,1.75,10.62.71,3.63,2.1,7,3.15,10.54,1.94,6.54,3.63,13.28,7.69,18.87,3.34,4.59,6.3,9.4,10,13.84,4.56,5.54,9.8,10.56,14.8,15.63A101.31,101.31,0,0,0,389,366.78c4.8,3.33,9.29,7.12,14.6,9.68.53.26,1.22,1.24,1.65.55.54-.87-.66-1.12-1.21-1.53-1.37-1-2.91-1.74-4.33-2.63-6.41-4-12.22-8.83-18.08-13.56a99.3,99.3,0,0,1-11.67-10.79c-5.27-5.86-10.57-11.66-15-18.18-2-2.87-3.58-5.92-5.3-8.89a50.85,50.85,0,0,1-5.12-11.53c-.65-2.31-1.36-4.67-2.21-7a57.71,57.71,0,0,1-3.43-17.77c0-1,.16-1,1.17-.8,2.41.48,4.89.79,6.9-1.34.78-.82,1.4-.29,1.47.67.11,1.49,0,3,.15,4.5a89.69,89.69,0,0,0,6.41,22.19c2.67,6.51,6.59,12.34,10.47,18.18,4.34,6.52,10.27,11.56,15.67,17.12a65.16,65.16,0,0,0,9.35,8.24c4.8,3.34,8.68,7.11,13.47,10.46,1.76,1.23,2,1.5,2.7-.6,1.06-3.34,1.66-6.84,3.24-10,.65-1.31,1.5-2.63,3-3,3.08-.72,6.11-1.54,9.41-.84a15.19,15.19,0,0,1,9,6.51h0a27.25,27.25,0,0,1,2.17,4.82c2,4.8,2.09,5,5.85,1.84.18-.15,2-1.34,2.44-1.58a44.59,44.59,0,0,0,4.86-3.51,140.73,140.73,0,0,0,15.62-13,156.14,156.14,0,0,0,11.05-12c4.52-5.42,7.94-11.66,11.56-17.73l-.14.09.11-.11c.42-.92.85-1.83,1.26-2.76,2.68-6.12,5-12.33,6-19,.47-3.41,1.5-6.75,1.48-10.24,0-.6.12-1.29,1-1.31.57,0,.84.37.91.91.15,1.13-.28,2.45.64,3.33s2.42-.17,3.54.2c2.21.73,2.64-.36,2.61-2.19,0-.41-.17-1.12.53-1.06s.5.72.47,1.17-.13.94-.18,1.42c-.38,3.58-1,7.14-1.7,10.66-.89,4.73-1.32,8.66-4.31,14.79-.36.75-3.18,7.36-4.15,9.6a6.29,6.29,0,0,0-1.32,1.75c-1.08,3.51-3.49,6.27-5.79,8.82-4.87,5.41-8.42,11.78-13.39,17.11-2.83,3-5.71,6-8.79,8.74-3.81,3.42-8.5,5.65-12.32,9.06a24,24,0,0,1-3.68,2.74l-7,4.58c-4.09,1.88-1.64,3.88-.87,2.77.88-1.27,2.32-1.36,3.38-2.2,3.76-3,7.9-5.43,11.59-8.52,4.1-3.45,8.45-6.57,12.46-10.15,7.82-7,13.67-15.57,20.2-23.59,2.81-3.45,4.86-7.51,7.21-11.32a29.18,29.18,0,0,0,3.07-7.39c.07-.22,3.72-10,3.84-10.47a96,96,0,0,0,3.27-18.69c0-.82.37-1.16,1.14-.92,2.56.8,5.26.49,7.86,1,1.81.38,2.25.87,2,2.78-.2,1.34-.36,2.7-.56,4-.45,3.08-.53,6.24-1.69,9.18-1.72,4.38-2.17,9.1-3.61,13.55-.25.77.2,1.64-.37,2.38-2.56,3.3-4.27,7.12-6.34,10.71-1.8,3.11-3.79,6.1-5.5,9.27a56.74,56.74,0,0,1-8,12c-3.53,3.82-6.71,8-10.41,11.66-2.12,2.11-3.83,4.67-6.53,6.12a11.27,11.27,0,0,0-3.07,2.34,57.49,57.49,0,0,1-8.27,7.26c-.73.55-1.24,1.6-2,1.85a19.06,19.06,0,0,0-6.15,3.86c-1.53,1.24-2.84,2.85-4.66,3.63-3.57,1.53-6.77,3.73-10.28,5.36-1.68.78-1.91,1.68-.91,3.27.76,1.21,1.65,2.3,1.61,3.88,0,.69.61,1,1.33.58s1.2-.64,1.79-1c3.07-1.73,6.4-3,9-5.47v0l1.75-1.07.09-.09c5.42-3.47,11-6.73,16-10.77,3.91-3.12,8.08-5.89,11.65-9.46,2.68-2.68,5.91-4.82,8.43-7.63,4.45-5,9.36-9.52,13-15.18,1.9-3,4.25-5.64,6.09-8.62s3.17-6.17,4.89-9.18c3.71-6.49,6.57-13.28,7.66-20.73a2.48,2.48,0,0,1,2.24-2.3c3.27-.48,6.25-1.93,9.28-3.07,4.46-1.68,9.06-3,13.41-4.91,3.29-1.47,7.09-1.45,10.09-3.7.69-.51,1.39-1,1.42-1.89C557,290,557.65,287,557.49,284.3Zm-111.71,104v0l.09.15ZM466.28,142a14.7,14.7,0,0,0,.29-7.65c-.27-1.41.13-1.63,1.25-1.8a34,34,0,0,1,6.65-.14c4.42.19,8.83-.05,13.24.16a69.44,69.44,0,0,0,14.7-.37c1.73-.29,3.36.16,5,.25,2.12.12,4.18-.19,6.27-.2,1.93,0,2.54.68,2.36,2.54-.22,2.29-.13,4.62-.4,6.91-.57,4.9.32,9.78.12,14.68a52,52,0,0,0,.64,11,18.23,18.23,0,0,1-.5,6.28,29.92,29.92,0,0,0-.3,5.83c.09,6.19,1.37,12.43.66,18.52s-.53,11.94-.57,17.91c0,3.25.2,6.51.37,9.76s-.42,6.78-.13,10.19c.08,1-.41,1.39-1.4,1.16a43.51,43.51,0,0,0-9-1.37c-.8,0-.92-.71-.93-1.35,0-1.5,0-3,0-4.5,0-4.34.27-8.67-.1-13-.25-2.94.34-6,.33-9,0-5.38-.57-10.74-.37-16.13.27-7.16-.64-14.33-.36-21.48a161.92,161.92,0,0,0-.33-17.82c-.13-1.82.29-3.66.32-5.5,0-2.27-.33-2.57-2.58-2.58-5,0-9.94.1-14.9-.06-6.19-.2-12.36.12-18.54.1C465.76,144.27,465.56,144.09,466.28,142Zm-2.79,11.19c.74-1.89,1.78-3.83,1.32-6.06a1.18,1.18,0,0,1,1-1.54,58.58,58.58,0,0,1,8.91-.21c5,.52,10,.09,15-.21,2.84-.17,5.71.13,8.56.15,1.21,0,2.41-.42,3.63.09.57.24.88.41.88,1.13,0,4.08.23,8.16,0,12.22-.25,4.9-.31,9.8-.24,14.7.06,3.75.27,7.49.35,11.24s-.62,7.34-.26,11c.25,2.56-.33,5.13.24,7.69.42,1.9-.47,3.75-.4,5.67.17,4.47.69,8.95.42,13.43-.22,3.63-.17,7.25-.11,10.87,0,1.48-.37,2.19-2,2-2-.29-4.06-.55-6.09-.73-1.1-.1-1.36-.75-1.38-1.64,0-1.43,0-2.86,0-4.3h0q0-17.12,0-34.24c0-6.07,0-12.15,0-18.22,0-5.69.12-11.39.18-17.08a9.12,9.12,0,0,0-.14-1.21c-.42-3.36-.42-3.21-3.78-3.08-2.76.11-5.54-.2-8.31-.31a7.51,7.51,0,0,0-1.64,0c-5,.92-10,.16-15.07.32C463.23,154.88,462.87,154.72,463.49,153.15ZM443.95,220c.24-1.39.66-2.23,2.23-2.35,3.6-.28,7.17-.87,10.8-.4a9.24,9.24,0,0,0,2.44,0,26.89,26.89,0,0,1,8.15-.2c.74.12,1.67.15,1.78-.87s-.8-1.13-1.54-1.26a57.4,57.4,0,0,0-8.32-.78c-4.34-.1-8.68-.4-13-.69a2.61,2.61,0,0,1-2.62-3c.29-3.93-.52-7.88.29-11.82a8.16,8.16,0,0,0-.29-4.18c-.77-2.45-.12-4.62,3.09-4.44,1.84.11,3.68,0,5.53,0v0c4.61,0,9.24-.24,13.84.07,4.43.3,8.83-.25,13.24.07,1.62.12,2.44.49,2.72,2.24.36,2.3.88,4.45-.17,6.77-.91,2-2.29,2.33-4.23,2.32-6.38,0-12.75-.94-19.13-.08-.74.1-2-.2-2,.9s1,1.59,2.18,1.69a95.57,95.57,0,0,0,9.56.11c3.72-.05,7.48.07,11.21.28a3.43,3.43,0,0,1,3,4c-.68,4.92.6,9.78.29,14.68a9.82,9.82,0,0,1-.68,3.57,2.94,2.94,0,0,1-3.12,1.81,124.86,124.86,0,0,0-16.89.4,34.35,34.35,0,0,1-7.23,0,71.34,71.34,0,0,0-8.76-.51c-1.82,0-2.44-.76-2.28-2.56S443.62,222,443.95,220Zm24.82-51.27c1.28,1.84,3.54,2,5.56,2,2.26,0,4.43.7,6.67.8a1.6,1.6,0,0,1,1.68,1.7c-.09,1-1,1.3-1.82,1.31-3.53,0-7.06,0-10.59,0-4.91-.11-9.82.08-14.73-.33a6.92,6.92,0,0,0-2.31.68c-.77.24-1.46.6-1.28,1.54a1.69,1.69,0,0,0,1.75,1.45c2.44-.15,4.86.73,7.32,0a2,2,0,0,1,2.46,1.61c.28.92-1.09,2.44-2.19,2.43-3.31,0-6.61.24-9.93-.29-1.57-.25-3.24.17-4.87.25-4.54.21-9.14.76-13.62-.06-4.75-.88-9.34.46-14,.28-5.17-.21-10.35-.07-15.52-.39-4.11-.25-8.26.26-12.39.11-3.21-.11-6.36.65-9.56.37A6.77,6.77,0,0,1,380,182c-.93-.29-1.88-.69-1.86-1.87a2.25,2.25,0,0,1,2.05-2.21,6.8,6.8,0,0,1,3,0,9.34,9.34,0,0,0,4-.07c1.06-.19,1.88-.62,1.85-1.79s-1-1.5-2-1.54c-.48,0-1,0-1.43,0-7.8-.25-15.6-.16-23.4-.05-.41,0-.82,0-1.23,0a1.63,1.63,0,0,1-1.47-1.24c-.3-.74.54-.81.94-1.08,2.16-1.47,4.73-1.11,7.12-1.39a7,7,0,0,0,4.5-2c4-3.9,8-7.84,11.71-12a4.18,4.18,0,0,1,5.87-.06c2.39,2,4.61,4.23,6.82,6.44a5.7,5.7,0,0,0,2.51,1.7c.42.11,1,.25,1.32-.22a1.34,1.34,0,0,0,.13-1.53,6.3,6.3,0,0,0-1.51-1.64c-1.53-1.43-1.56-1.9.18-2.85,1.89-1,2.94-2.82,4.29-4.32,2.23-2.48,4.57-4.82,7-7.13,2.12-2,4.1-4.33,6-6.6,3-3.5,5.13-3.69,8.24-.33,4.15,4.5,8.52,8.78,12.57,13.38,3.62,4.12,7.88,7.67,11.87,11.47a1.7,1.7,0,0,0,2.4.22c.92-.69.11-1.49-.13-2-1.12-2.32-3.35-3.73-5.06-5.56a44.21,44.21,0,0,0-5.45-5.52c-.66-.5-.69-.89-.13-1.64,1.13-1.51,2.82-2.35,4-3.73.51-.57,1.08-.29,1.68,0,2.78,1.17,4.78,3.39,6.75,5.46,3.22,3.39,6.28,6.93,9.57,10.26C464.84,164.63,467.11,166.37,468.77,168.76ZM401.9,211.43c0-3.22-.24-6.5-.14-9.74s.05-6.23.08-9.35c0-1.6.81-2,2.33-2.06,4.34-.18,8.68-.29,13-.15,6.24.2,12.47-1,18.71-.11,3.36.5,4.33,1.54,3.86,4.88a46.2,46.2,0,0,0,0,6.9c0,5.18.27,10.36.39,15.53.07,3,.39,6-.31,9.07-.36,1.58-1.11,2.22-2.64,2.17-1,0-2,0-3.07,0-4.56-.12-9.11-.41-13.68-.24-5.23.19-10.47-.35-15.7.3a2.48,2.48,0,0,1-2.79-2.17,5.91,5.91,0,0,1-.11-2C402.44,220.1,401.83,215.76,401.9,211.43Zm-43,7.42c0-1.38.5-1.7,1.78-1.8a154.83,154.83,0,0,1,16.5-.09,45.15,45.15,0,0,0,6.08-.52c.56-.06,1.3-.07,1.4-.91s-.74-1-1.3-1.34a3.38,3.38,0,0,0-2-.32c-4.41.25-8.83.08-13.25.63-2.38.3-4.88-.31-7.32-.58-1.26-.14-1.23-1.3-1.47-2.18-.72-2.75-.45-5.55-.38-9.14-.17-2.53.31-5.84,0-9.17-.23-2.23.27-2.86,2.58-2.93,4-.13,8-.05,12-.1,4.53-.06,9.06-.32,13.59-.19,2.7.08,5.39.37,8.1.38a2,2,0,0,1,2,1.77,16.77,16.77,0,0,1-.13,7.3c-.29,1.43-1.58,1.55-2.75,1.61-2.59.14-5.18-.07-7.76-.1-4,0-8,.45-12.05-.22-1.4-.23-2.53.35-2.65,1.82s1.16,1.55,2.29,1.64a52,52,0,0,0,8.15-.19c2.31-.17,4.58-.48,6.9.13a8.75,8.75,0,0,0,3.45-.11c2.93-.46,4.51.8,4.9,3.73.77,5.84.09,11.66-.09,17.49-.07,2.4-.91,3.09-3.36,3.14q-15.6.32-31.21.56c-3.44.05-5-1.52-3.9-5.69C359.39,221.83,358.85,220.38,358.9,218.84Zm44-68.54.08,0H403Zm-21.34-12.13c.4-6.22.44-12.72,4.37-18,4-5.39,7.32-11.49,13.08-15.47,2.51-1.74,5.37-2.63,8.16-3.68,4.48-1.69,9.07-2.88,13.92-2.46,4,.35,7.91.57,11.78,2,3.06,1.17,6.16,2,8.76,4.13,5.66,4.62,11.19,9.35,14.61,16,1.29,2.5,1.52,5.34,2.25,8a19.16,19.16,0,0,0,1.43,4.42c.78,1.41.3,3.08.36,4.64a29.63,29.63,0,0,1-2.52,12.51c-.49,1.16-1,1.26-1.91.5a14.74,14.74,0,0,1-2.75-2.73c-1.47-2.14-3.65-3.47-5.75-4.82-1.8-1.16-5.17-.13-6.42,1.67a13.87,13.87,0,0,1-1.23,1.62c-2.22,2.35-2.33,2.31-4.52-.05q-4.09-4.41-8.27-8.74c-3.28-3.4-7-3.73-10.88-1-.53.38-.91.59-1.36,0-.33-.45-.67-.88-.18-1.45a13.9,13.9,0,0,1,1.83-2.18c2.09-1.59,1.48-3.47.68-5.33-1.26-2.92-1.16-3.53,1.22-5.43a3,3,0,0,0,1.25-1.83c.32-2.66,2.29-3.4,4.41-4a10.48,10.48,0,0,0,2.29-.86c.83-.49,1.45-.17,2.27,0,2.34.61,3.74,2.6,5.75,3.71,1.05.58,1.59,2.11,2.38,3.18.61.82-.53,1.42-1.21,1.77-1,.51-2.9.56-2.92,1.4,0,1.16,1.89.8,2.79,1.51a13.65,13.65,0,0,1,4.7,6c.17.46.19,1.26.9,1.14.44-.07.53-.69.58-1.2a7.25,7.25,0,0,1,6.7-6.33c.36,0,.91.18,1-.39s-.34-.7-.74-.85c-3.79-1.43-5.8-4.52-7.43-8-.11-.24-.14-.6-.45-.6-.54,0-.29.48-.36.76,0,.13,0,.28,0,.41-.28.95-.16,2.4-1.31,2.53s-1.27-1.26-1.7-2.17c-1-2.05-2.3-3.89-4.59-4.65a5,5,0,0,1-2.86-2.13c-.86-1.39-2.05-1.58-3.25-.48a3.26,3.26,0,0,1-3.24.66c-1.62-.37-3.56-.72-4.82.06-2.17,1.35-4.86,2.35-6.31,4.3-1.3,1.75-2.37,3.13-4.49,4a4.74,4.74,0,0,0-2.83,5.17c.06.65.21,1.39-.28,1.71-1.75,1.15-1.65,2.91-1.55,4.57a1.44,1.44,0,0,1-1.27,1.71c-1.24.36-2.52.62-3.74,1.05-4,1.44-7,5.5-4.09,10.86a5.5,5.5,0,0,0,1.33,1.23c1.56,1.35,1.52,2.9-.34,3.64-1.48.6-1.88,1.26-1.31,2.71a1.25,1.25,0,0,1-.59,1.6c-.53.26-.93-.17-1.21-.53-1.26-1.62-2.85-2-4.87-1.8-2.78.25-2.86.11-3.49-2.68C382.45,145.85,381.31,142.05,381.56,138.17Zm57.16-12a1.83,1.83,0,0,1,1.85-2,1.57,1.57,0,0,1,1.57,1.59,2.54,2.54,0,0,1-1.75,2.26C439.57,127.58,438.68,127.12,438.72,126.13Zm-61.17,22.56c.7,1.54.94,3.27,2,4.67.56.75.33,1.26-.68,1.31-4.68.21-9.37,0-14,.08-4.95.07-9.91-.21-14.86.15-1.26.09-1.67.61-1.68,1.76-.07,4.81-.13,9.62.17,14.42a15.72,15.72,0,0,1-.06,3.05c-.78,5.84.31,11.67.09,17.51-.3,7.81-.64,15.65-.37,23.46.2,5.65.15,11.3.37,16.95.09,2.41-.23,2.7-2.57,2.8-1.76.08-3.53.15-5.28.32-1.31.13-1.83-.27-1.8-1.67.08-3.68,0-7.37,0-11,0-2.46-.12-4.92,0-7.37.4-6.93-.34-13.85,0-20.77.41-8.5-.69-17,0-25.48.43-5.36,0-10.72.37-16.07.13-1.81-.51-3.63-.42-5.49.05-1.05.2-1.56,1.46-1.57,5.46-.07,10.91-.26,16.37-.28,5.3,0,10.62,0,15.93,0C376.64,145.38,375.7,144.63,377.55,148.69Zm-51.49,35c-.15-3.78-.61-7.53,0-11.36s-.25-7.6-.19-11.42c.11-6.8-.39-13.61.51-20.4a29.36,29.36,0,0,0-.24-5.68c-.1-1.55.51-2.24,2.14-2.21,3.55.07,7.09,0,11.94,0,5.31-.35,11.9.76,18.5.3,4.64-.32,9.27-.18,13.9-.34,1.48-.05,2,.34,2,1.92,0,2.55-.32,5.16.79,7.64.46,1,0,1.56-1.17,1.76a20.61,20.61,0,0,1-3.84.22c-4.33-.09-8.66.1-13,0-2.37-.07-4.72,0-7.08,0-3.74.12-7.48.07-11.22.12-1,0-1.35.56-1.34,1.6.18,10.49.1,21-.05,31.46-.09,6.09.49,12.19-.29,18.3-.52,4.07.52,8.22.29,12.35-.42,7.68.24,15.37,0,23.05,0,1.19-.65,2.36,0,3.61.31.6-.24.91-.88,1-3.19.64-6.37,1.33-9.56,2-.9.19-1.48,0-1.25-1.14.87-4.24.26-8.49,0-12.71a73.5,73.5,0,0,1,.2-13.47c.28-2.46-.39-4.87-.21-7.31a87.92,87.92,0,0,0-.29-10c-.05-1.3.84-2.24,1-3.51C326.79,187.52,326.14,185.63,326.06,183.66ZM323.78,143c-.07,0-.13.07-.16.06s0-.08-.06-.13Zm-3.39,6.31.08.16c-.05,0-.13.08-.15.06S320.22,149.29,320.39,149.27ZM291.9,247.64h0l-.08-.13ZM417.72,334c-.13,1.35,0,2.72-.17,4.07-.22,2.53-.12,5.07-.43,7.59-.06.47-.11.51-.66.48-.4,0-.42-.05-.42-.55,0-.2,0-.39,0-.59.07-.88.13-1.76.2-2.65.16-1.9.22-3.81.43-5.7.17-1.62.15-3.26.38-4.87.1-.71.08-1.45.11-2.18.07-1.49.28-3,.28-4.47,0-.57.21-1.11.23-1.69a.49.49,0,0,1,.19-.34c.16-.15.27-.09.28.13a5,5,0,0,1,0,.65,61.32,61.32,0,0,0-.29,6.23A27.49,27.49,0,0,1,417.72,334Zm6,11.27c0,.45-.06.5-.47.5h-4.77c-.45,0-.49,0-.5-.53,0-.31,0-.63,0-.94,0-.61,0-.65.62-.65h4.72c.3,0,.42.14.41.46S423.72,344.88,423.71,345.27Zm0-3.51c0,.55,0,.57-.5.58h-4.74c-.48,0-.5,0-.51-.57,0-.24,0-.47,0-.71,0-.73,0-.73.64-.74h4.63c.45,0,.47,0,.48.55C423.72,341.17,423.72,341.46,423.71,341.76Zm-4.62-18.14c0-.16.06-.28.22-.25.92.23,1.83-.16,2.74-.06h.27c.22,0,.33.12.34.35a9.65,9.65,0,0,1,0,1.29c0,.23-.12.36-.34.35a12.55,12.55,0,0,1-2,.13c-.3,0-.6,0-.9,0s-.39-.14-.35-.43A4.87,4.87,0,0,0,419.09,323.62Zm.91,3.22h1.09a12.49,12.49,0,0,0,1.56,0c.18,0,.26.06.26.26,0,.43,0,.86,0,1.29a.36.36,0,0,1-.35.41,5.64,5.64,0,0,1-1.48,0,7.93,7.93,0,0,0-1.59,0c-.57.05-.74-.1-.66-.72C419,326.64,418.72,326.86,420,326.84Zm-.9,3.43c.65,0,1.31,0,2,0a3.29,3.29,0,0,0,1.15-.14,1.4,1.4,0,0,1,.63-.07.32.32,0,0,1,.31.33q0,.76,0,1.53c0,.3-.21.32-.42.32H419c-.4,0-.46-.07-.47-.51,0-.25,0-.51,0-.77C418.5,330.36,418.57,330.28,419.1,330.28Zm-.29,3.24c.67,0,1.35,0,2,0h2c.47,0,.52.06.53.58,0,.3,0,.59,0,.89,0,.5-.07.57-.53.58h-3.94c-.55,0-.61-.07-.62-.68,0-.26,0-.51,0-.77C418.31,333.59,418.36,333.53,418.82,333.52Zm-.21,3.34h2.23c.76,0,1.52,0,2.28,0,.3,0,.43.14.44.44s0,.79,0,1.18-.08.54-.51.55h-4.41c-.41,0-.47-.07-.48-.51s0-.79,0-1.18S418.22,336.86,418.61,336.86Zm6.41,9.27c-.29,0-.42-.13-.42-.45,0-.51,0-1,0-1.53q-.24-4.77-.48-9.54,0-.65,0-1.3c0-1.24-.12-2.47-.21-3.71s-.09-2.44-.14-3.65c0-.73-.07-1.45-.11-2.18,0-.14,0-.28,0-.41s0-.3.16-.34.22.09.29.21a1.77,1.77,0,0,1,.21.9c0,.39,0,.79,0,1.18a8.43,8.43,0,0,0,.13,2.11,8.85,8.85,0,0,1,.07,1.71s.32,1.89.55,5.48c.13,2,.21,4,.42,5.94.17,1.54.12,3.1.37,4.64C425.93,346,425.77,346.15,425,346.13Zm61.45-41.35c-1.54,4.13-3.09,8.26-4.76,12.34A32.71,32.71,0,0,1,477,324.6a37.25,37.25,0,0,0-1.84,3.4c-2.16,3.47-5.22,5.82-7.43,9.22a22.13,22.13,0,0,1-1.5,1.94c-.29.35-.46,1-1,.84s-.45-.76-.46-1.22c-.15-4.36-.27-8.73-.45-13.09a114.22,114.22,0,0,0-1-12.42c0-.3-.33-.68.12-.84.17-.06.53.16.67.34,1.08,1.4,2.14,2.83,3.2,4.24a12.68,12.68,0,0,0,1,1.27c.16.16.48.17.72.24.06-.25.23-.52.18-.75a55.34,55.34,0,0,0-2.82-9.94c-.16-.37-.37-.73-.55-1.09s-.52-.9-.11-1.31.77,0,1.12.18A15.06,15.06,0,0,1,475,313a6.81,6.81,0,0,0,.79,1.42c.37.41.31,1.45,1.1,1.17.53-.19.24-1,.17-1.51a26,26,0,0,0-3.91-10,7.31,7.31,0,0,0-5.49-3.18c-.32,0-.83-.07-.91-.25-.19-.46.26-.73.59-.94,2.64-1.73,5.39-3.16,8.67-3.13.54,0,1.39.58,1.5-.34.06-.5-.76-.94-1.36-1.06-2.66-.54-5.32-1.23-8-.11-.4.17-.91.75-1.27.3s.2-1,.45-1.43c.13-.24.34-.44.44-.69s.22-.6.12-.73c-.35-.43-.57.07-.8.23a16.39,16.39,0,0,0-3.81,4c-1.27,1.82-1.33,1.81-2.25-.1a14.21,14.21,0,0,0-3.31-4.62c-.25-.23-.5-.59-.84-.37s-.23.6-.1.94q.73,2,1.45,4c.11.32.27.72,0,1s-.6-.12-.83-.33c-3.22-2.84-6.76-2.28-10.3-.86-1,.39-2.18.45-2.87,1.45-.25.37-1.05.49-.78,1s.82.09,1.27,0a14.4,14.4,0,0,1,9.28,1.16c.34.17.89.29.78.79s-.67.37-1,.37a11.65,11.65,0,0,0-6.9,2.14,7.39,7.39,0,0,0-2.67,4.25c-.38,1.41.83,2.21,1.75,3,.47.4.65,0,.76-.47.7-3.18,3.56-3.61,6-4.42,1.42-.48.84.94.68,1.42a22.69,22.69,0,0,0-.62,7.91c0,.43-.28,1.07.36,1.24s.85-.51,1-1a31.76,31.76,0,0,1,2.94-6.51c.44-.74.91-1.28,1.63-.22.19.27.53.69.73.66,2.82-.49,2.1,1.84,2.24,3.07.54,4.86,1,9.72,1.06,14.63,0,0,.18,1.65.34,12.27,0,1.8-.79,1.71-2.28,1.4a29.64,29.64,0,0,0-5.05-.39s-1.45,0-2.43-.1L451,339.8c-2.11-.23-.86-2.19-4.83-2.11-.6,0-.46-1-.45-1.62,0-1.21-.41-1.79-1.71-1.6-1.46.21-2.43-.31-2.29-2,.08-1-.3-1.42-1.27-1.28-1.44.2-1.87-.55-1.65-1.8s-.29-1.56-1.41-1.56-2-.21-1.85-1.75c.14-1.18-.51-1.75-1.77-1.54-1.73.3-2.63-.33-2.36-2.21A1.34,1.34,0,0,0,431,321a1.81,1.81,0,0,1-.35-2.26c1.19-1.4.54-2.2-.17-3.58a2.15,2.15,0,0,0-2.24-1.41c-5.22,0-10.44.07-15.66.15-1.1,0-2.41,2.62-1.72,3.76,1.41,2.33-.54,4.12-.79,6.16-.09.73-1.18.4-1.82.44-1.21.07-2.17.28-1.79,1.91.27,1.16-.4,1.64-1.51,1.55-1.35-.1-1.85.56-1.7,1.84s-.39,1.63-1.54,1.52c-.85-.09-1.44.1-1.43,1.18,0,1.62-.63,2.56-2.49,2.11-.94-.22-1.67.14-1.47,1.3.29,1.64-.64,2-2,2-.85,0-1.72-.15-1.65,1.15,0,.28-.11.62-.41.61-2.63-.16-4.9,1.54-7.51,1.41-1.21-.06-1.91-.3-1.78-1.92a88,88,0,0,1,3.34-18.46c.33-1.11.73-3,1.81-2.76s.44,2.22.33,3.47a26.86,26.86,0,0,1-2.33,7.75c-.13.31-.61.72-.12,1.07s.75,0,1.13-.19c2.68-1,5-2.58,5.12-5.69a14.49,14.49,0,0,0-1.35-7.53c-.21-.37-.73-.76-.16-1.23.37-.3.78-.14,1.16,0,3.5,1.61,6.64,3.74,6.52,8.84,0,.46-.19,1,.4,1.25s1-.21,1.37-.61c1.95-2.08,1.45-7-.88-8.69q-1.91-1.37-3.84-2.71c-.27-.19-.71-.25-.58-.69s.56-.36.86-.33a14.21,14.21,0,0,1,4,.61c2.1.92,4.43.84,6.49,1.8.4.19,1,.42,1.32-.06s0-1-.34-1.45c-3.19-4.54-7.65-6.07-13-5.65-.48,0-1.15.58-1.44-.14-.12-.3.26-.86.51-1.25,1-1.61,2.1-3.19,3.15-4.79a5.23,5.23,0,0,0,1-2.23c0-.26,0-.63-.13-.78-.31-.28-.63,0-.86.23a34.83,34.83,0,0,0-5.78,6.33c-.61.92-1,2.36-2.13,2.19s-.79-1.3-.94-2c-.52-2.59-2.26-4.45-3.73-6.48-.31-.42-.78-1-1.33-.69-.81.38-.28,1.09-.11,1.62.54,1.76,1.08,3.52,1.76,5.22.46,1.15.14,1.52-1,1.82-6.92,1.79-10.54,6.09-11.36,13.38-.07.61.08,1.18.69,1.3a.91.91,0,0,0,1-1c0-2,1.22-3.41,2-5.06,1.06-2.26,3.06-3,5.19-3.57a2,2,0,0,1,2,.66c.45.57-.31,1.09-.63,1.57-2.21,3.25-4.79,6.31-5.28,10.43-.08.7-.67,1.62.32,1.94s.78-.81,1.07-1.32a7.47,7.47,0,0,1,2.3-2.57c.68-.46,1.33-1,2-1.38s.9-1.57,1.39-1.22c.77.54-.08,1.43-.29,2.14-1.11,3.73-1.4,7.6-2.05,11.41-.41,2.41-1.1,4.76-1.29,7.21-.06.72-.63,1.24-2.12.22-3.7-2.54-5.75-6.56-9-9.58a23.59,23.59,0,0,1-4.12-5.41A111.79,111.79,0,0,1,357.84,312a121.9,121.9,0,0,1-5.45-15.11,41,41,0,0,1-1.71-12.49c.07-1.27.39-1.68,1.74-1.85,5.65-.71,11.31-.19,17-.45,6.88-.31,13.77-.06,20.63-.43,5.42-.29,10.87-1,16.28-.86,6.53.15,13-.89,19.51-.46,4.52.3,9.06.65,13.57.5s9.1-.15,13.64-.35a146.48,146.48,0,0,1,14.66.38c5.1.28,10.2.57,15.3.94a47.13,47.13,0,0,0,6.1.42c1.17-.07,1.71.54,1.62,1.78A75.51,75.51,0,0,1,486.47,304.78Zm12.06-20.46a.92.92,0,0,1-.91-.92c-.09-.66.28-.84.89-.79.33.18,1.07-.18,1,.62C499.43,283.76,499.27,284.35,498.53,284.32Zm47.43,7c-6.76,2-13.51,4.08-20.08,6.71-3.44,1.38-4,.9-3.53-2.78.39-3.22.86-6.44,1.15-9.67a2.43,2.43,0,0,1,2.21-2.43c.64-.14,1.71-.25,1.66-.88-.07-.94-1.19-.49-1.85-.7-7.33-2.33-15.07-2.11-22.57-3.48a57.73,57.73,0,0,0-12.48-1c-2.1-.36-5.57-.14-9-1.09-2.72-.77-5.56-.24-8.35-.42a29.38,29.38,0,0,1-7.82-1.31,10.48,10.48,0,0,0-3.79-.29c-4,.05-8-.29-11.93,0-7,.61-13.81-.49-20.71-.48-6.6,0-13.2-.09-19.79-.19-2,0-4-.59-5.87-.28-4.15.7-8.43.19-12.5,1.43a2.82,2.82,0,0,1-1,.16c-6.4-.49-12.76.55-19.17.43a79.87,79.87,0,0,0-14.36.89c-6.75,1.1-13.58,1.45-20.3,2.53-3.81.61-7.64,1.37-11.44,1.73-3.45.33-6.78,1.29-10.23,1.45-.32,0-.72-.09-.8.36,0,.07.4.3.62.32,4.19.3,5.35,3,5.08,6.63a42.89,42.89,0,0,0,.78,9.13c.13,1-.22,1.22-1.18.78-5.08-2.32-10.49-3.74-15.69-5.71-3.19-1.21-6.56-1.62-9.69-3-2.06-.88-2.36-1.27-1.5-3.27a3.21,3.21,0,0,0,.32-1.15c.13-6-.85-11.9-.58-17.83.18-3.89-.6-7.72-.12-11.61a28.16,28.16,0,0,0-.21-4.87,1.88,1.88,0,0,1,1.66-2.3c6.59-1.65,13.26-2.82,20-3.87,4.09-.64,8.16-1.37,12.28-1.77,3.32-.32,6.73-.12,10-.84,6.95-1.55,14.18-.42,21-2.49a27.5,27.5,0,0,1,2.83-.38c10-1.89,20.15-2.1,30.3-1.76a58.29,58.29,0,0,0,9.56-.64,101.79,101.79,0,0,1,21.74-.73c3.12.26,6.28,0,9.4.19,6.24.47,12.5.23,18.74.37,3.9.09,7.67.66,11.51,1,5.53.46,11.13.1,16.7.18a23,23,0,0,1,7,1.05,16.52,16.52,0,0,0,4.66.39c3.94.16,7.9.37,11.82.72s7.66.86,11.47,1.37c2.22.3,4.42,1.64,6.77,1.94a66,66,0,0,0,7.08.57c1.83,0,3.3,1.2,5.08,1.31,5.87.37,11.43,2.4,17.22,3.23a2.1,2.1,0,0,1,2,2.35c-.07,1.63,0,3.28-.14,4.9-.52,4.85.27,9.67.11,14.51a68.38,68.38,0,0,1-.74,8.12c-.28,1.84.54,3.6.57,5.43,0,.81.31,1.62.28,2.43C550.05,289.78,549.58,290.24,546,291.32Z" transform="translate(-284.37 -91.57)" style="fill:#fff"/><path d="M535.42,273.26a21.33,21.33,0,0,0-4.62-.74c-2,0-2.58-.86-2.56-2.77.09-5.79,0-11.59,0-17.38h0c0-.94.34-2.09-.08-2.78-.56-.93-1.91-.19-2.87-.5a5.94,5.94,0,0,0-.58-.19c-1.46-.31-2.21-.06-2.16,1.77.12,4.93,0,9.86.05,14.79.05,2.85-.41,5.68-.11,8.55.24,2.26.56,2.71,2.91,2.85a50.05,50.05,0,0,1,9.82,1.18c.53.14,1.33.27,1.53-.17a7.47,7.47,0,0,0,.35-3.8C537,272.71,536,273.4,535.42,273.26Z" transform="translate(-284.37 -91.57)" style="fill:#fff"/><path d="M487,314.49a.67.67,0,0,0-.11.17c-1.31,2.21-2.65,4.41-3.92,6.65-.27.47-.32,1.13.37,1.38,1.46.52,2.46,1.69,3.68,2.55.47.33,1,.67,1.43.1a17.63,17.63,0,0,0,2.59-4.78c-.05-1.08-1-1.27-1.58-1.75a1.19,1.19,0,0,0-1.67,0,1.23,1.23,0,0,0-.16,1.66c.23.45.37.92-.22,1.21a1,1,0,0,1-1-.15.81.81,0,0,1-.36-1.2c.59-1.23,1.15-2.6,2.3-3.3,1-.6,1.8.59,2.65,1,1.09.59,1.75.21,1.92-.9a1.7,1.7,0,0,0-1.52-1.86C489.88,315.2,488.74,313,487,314.49Z" transform="translate(-284.37 -91.57)" style="fill:#fff"/><path d="M486.52,153.53c.34,0,.68,0,1,0,5.15-.25,5,.38,4.49-5.62,0-.47,0-1-.65-1.14-1.59-.27-3.18-.8-4.82-.31-.63.19-1.25.48-1.17,1.19s.08,1.86.87,2.41a1.22,1.22,0,0,0,1.78-.37c.34-.46.75-.84,1.37-.48a1,1,0,0,1,.39,1.08c-.06.7-.57.86-1.14.92-4.49.47-4,.29-4.31-3,0-.34,0-.68-.1-1a1,1,0,0,0-1.16-.89,1.11,1.11,0,0,0-1.24,1.07c-.05.53.06,1.08.06,1.62C481.81,153.82,481.38,153.49,486.52,153.53Z" transform="translate(-284.37 -91.57)" style="fill:#fff"/><path d="M432.08,406.8c2.81-.17,3.89-1.18,3.21-3.81-1-3.8,0-7.6-.47-11.4-.49-4,.3-8,.09-12-.22-4.24.31-8.49-1.4-12.59a34.52,34.52,0,0,1-2-7c-.66-3.57-3.47-5.48-6.16-7.47a8.5,8.5,0,0,0-5.35-1.67c-1.49,0-3,.1-4.48.17-2.21.1-3.87.76-4.57,3.23-.4,1.42-.84,2.86-1.27,4.29-1.76,5.73-3.57,11.46-3.06,17.57a44.91,44.91,0,0,1,0,5.86c-.14,3-1.08,6.15-.22,9.15.58,2,.73,9.75.71,9.75-1.33,1.69-.91,3.56-.6,5.44.13.8.54.56,1,.5a6.88,6.88,0,0,1,6.84,3.41c.92,1.65,2.06,3,4.1,3.21h.2c1.65.21,2,.62,4.41.1a8.29,8.29,0,0,0,3.11-.81c.41-.29.58-.85,1.07-1.21.11-.08.05-.39.09-.59A4.72,4.72,0,0,1,432.08,406.8Zm-1.48-45.66c.81,3.83,2.51,7.44,3.21,11.32.1.53.13,1.08.19,1.62h0c.14,1-.19,3.09-1.42,3.26-1,.13-1.14-1.5-1.4-2.42-1.63-5.61-3.8-11-5.82-16.51-.16-.45-.46-1-.18-1.35s.84.11,1.28.16C428.79,357.51,430.07,358.6,430.61,361.14Zm-11.45,16.95c.39-1.48.77-3.13,1.29-4.74.23-.7.62-1.17,1.38-.19a22.77,22.77,0,0,1,4,8.65c.12.5.39,1.09-.45,1.3C423.88,383.5,419.14,379.79,419.16,378.09ZM420.1,367c.37-.38,1.32,1.47,1.53,2,.29.65-.26,1.13-.62,1.61-.2.26-.4.29-.64,0A7.71,7.71,0,0,1,420.1,367Zm2.07,5.47c-.23-.47-.94-1.08-.21-1.6s1.09.18,1.47.65l1.12,1.37h0c.72,1.32,2,2.26,2.79,3.51a.31.31,0,0,1-.41.44A10.55,10.55,0,0,1,422.17,372.5Zm3.33.6a17.72,17.72,0,0,1-1.54-2.17c-1-1.07-1-1.68-.3-2.58,1.38-1.85.76-4.09,1.28-6.1.08-.3,0-.74.39-.82s.43.24.52.5c.2.63,5.56,16.55,5,16.85S428,375.69,425.49,373.1Zm-1-18.87c0-.34,0-.68.49-.72a13,13,0,0,1,3.52,2.91c0,.16-.17.47-.26.46a7.67,7.67,0,0,1-3-.94C424.51,355.57,424.47,354.93,424.53,354.23Zm-.15,5.36c-.27.5.17,1.47-.51,1.51s-.67-.92-.83-1.48c-.31-1.11-.55-2.25-.79-3.38a.27.27,0,0,1,0-.07V356a.41.41,0,0,1,.54-.36,1,1,0,0,1,.25.11C424.21,356.48,424.66,359.07,424.38,359.6ZM422,352.36c.9,0,1.63.21,1.54,1.19,0,.49,0,1-.43.75-.76-.48-2-.43-2.21-1.5C420.83,352.19,421.62,352.36,422,352.36Zm-2,3c.06-.46.09-1.11.63-1.13s.53.61.63,1.08a76.19,76.19,0,0,0,2.32,8.64c.16.45.4,1.15,0,1.32s-.65-.52-.82-.92c-1-2.55-2.65-5-2.83-7.76A6.14,6.14,0,0,1,420.08,355.39Zm-.12,6.44c0-.25.15-.69.27-.71.37-.05.57.3.7.6.76,1.65,1.49,3.32,2.24,5a.91.91,0,0,1-.35,1.23c-.58.38-.83-.13-1.12-.5a11.86,11.86,0,0,1-1.72-3.55,2.88,2.88,0,0,1-.14-1.2C419.89,362.36,419.91,362.1,420,361.84Zm-1.54,15c-.11.61-.61.46-.85,0a4.88,4.88,0,0,1-.9-3.07c.32-2.49,1.54-4.82,1.29-7.41a.58.58,0,0,1,.3-.47c.39-.1.41.29.45.51a30.78,30.78,0,0,1,.82,5.66C419.56,373.76,418.71,375.23,418.42,376.84Zm-1.63-18.1a3.77,3.77,0,0,1,.88-1.09c.26-.25.54-.72,1-.39.29.21.15.61.07.95-.19.78-.35,1.58-.54,2.36-.06.24-.08.54-.43.58C417.16,361.18,416.44,359.51,416.79,358.74Zm-.68-3a2.34,2.34,0,0,1,2.15-1.74c.51-.08,1-.06.82.71s-2,3-2.45,2.78C415.8,357.11,416,356.49,416.11,355.74Zm-1.64,4.72c1.14,1.85,1.21,4.16,2.55,5.93.22.29,0,.54-.25.64-.41.17-.67-.21-.78-.47-.52-1.17-1-2.36-1.43-3.57-.28-.76-.46-1.56-.66-2.26,0-.33-.09-.64.25-.72C414.21,360,414.37,360.29,414.47,360.46Zm.45,10.68c-.07-.8-.18-1.6-.26-2.41,0-.33-.11-.79.23-.89s.78.27.91.64a7.94,7.94,0,0,1,.48,2.61c0,1,.35,2.42-.71,2.46C414.69,373.59,415,372,414.91,371.14ZM413,366.71c-1.5.27-1.53-.66-1.27-1.91a5.79,5.79,0,0,1,1-2.71.33.33,0,0,1,.52,0,7,7,0,0,1,.81,2.44C414.52,366.68,414.55,366.67,413,366.71ZM412.4,379c-.08.23-.08.55-.45.57-.6,0-3.06-2.91-3-3.78.51-2.29,1.08-4.74,1.6-7.2.21-1,.91-1,1.69-1.09s.93.55,1.11,1.16C414.39,372.2,413.59,375.6,412.4,379Zm.94-25.55c.67.07.83.57.7,1.3-.12.25.12,1-.56.87s-.84-.81-.88-1.43A.64.64,0,0,1,413.34,353.41Zm-3.09,6.74c.34-1.07.1-2.19.59-3.17.3-.61.28-1.93,1.05-1.63s2,1.63,1.45,2.58c-1.63,2.59-3.84,11.87-4.94,13.69a.11.11,0,0,1-.21-.06A42.7,42.7,0,0,1,410.25,360.15Zm3.13,40.47a3.77,3.77,0,0,1-3.24,1.41c-.56,0-1.18-.19-1.37-.72-.46-1.25-.8-2.55-1-3.32-.05-1.55.11-2.55,1.07-3a2.44,2.44,0,0,1,2.78.69,8.75,8.75,0,0,1,1.63,2.06A2.68,2.68,0,0,1,413.37,400.63Zm.08-17.93c-.42-.28-.57-.74-.44-1.61-.12-1.79,1-3.68,1.39-5.72.2-.93,1-.93,1.42-.11.66,1.18,1.21,2.41,1.76,3.64.24.54-.2.87-.56,1.18-.82.7-1.64,1.41-2.49,2.07C414.23,382.39,414.06,383.1,413.45,382.7Zm.94,1.55a3.11,3.11,0,0,1,2.4-2.61c1.34-.08.72,1.66,1,2.39.25,1.83-1.21,2-2.06,2.13C414.71,386.3,414.35,385,414.39,384.25Zm1.37,6.51c-.69-.19-.39-.88-.25-1.62a3.4,3.4,0,0,1,0-.79c.18-.93,1-1.88,1.61-1.71s0,1.23-.12,1.89a5,5,0,0,1-.42,1.14C416.37,390.07,416.58,391,415.76,390.75Zm1.21,1c.21-1.06.63-2.07.9-3.12.16-.64.31-1.15,1.14-1.16a1.33,1.33,0,0,1,1.46,1.11c.77,2.74,1.91,3.31-1.88,4.52C417.32,393.56,416.72,393.1,417,391.8Zm3,6.41c0-.32,1.1-3.45,1.47-3.38.17,0,.25.29.27.44a12.78,12.78,0,0,1,.08,3.25c0,.72,0,1.81-.87,1.7C420.21,400.14,419.9,399.06,420,398.21Zm-1.25-.93h0c-.34,0-.73-3.29,1.28-4,.29-.09.55-.5.88-.16s0,.5-.14.72C420,395,420.51,396.8,418.75,397.29Zm3.63,10.53a2.1,2.1,0,0,0-2.81,0c-.85.59-1.4,0-1.13-1a11.15,11.15,0,0,1,.6-1.73c.4-.91.6-2.19,1.89-2.08,1.1.09,1.65,1.11,2,2.11.22.64.38,1.3.48,1.66C423.48,407.91,423.15,408.36,422.38,407.81Zm1-11.42a.26.26,0,0,1-.45,0c-.32-.59.16-1.32-.14-1.92a4.15,4.15,0,0,1-.31-2.6c.06-.33.1-.74.52-.78s.41.41.47.71a8.93,8.93,0,0,1,.46,2.2A5.22,5.22,0,0,1,423.36,396.39Zm1.57-3.72c-.39.24-2.06-3.18-2-4.13.09-.78,1.05-.49,1.5-.49,1.51,0,2.52.16,2.39,1.71A3.74,3.74,0,0,1,424.93,392.67Zm2.25-7.69c-.23.92-.23,2.31-1.74,2.41-.47,0-1,0-1.43,0-3.08,0-4.5-1.75-4-5,.16-1.07.74-.52,1.11-.2a8.69,8.69,0,0,0,4.62,1.94C426.21,384.21,427.44,384,427.18,385Zm-.74-5.14c-.16-.54-.94-1.07-.37-1.57.21-.18,1.15.28,1.61.64a6.84,6.84,0,0,1,1.49,1.27,1.27,1.27,0,0,1,.1,1.3c-.2.39-.39.78-.61,1.16-.13.22-.36.49-.57.51-.39,0-.6-.33-.61-.66C427.43,381.47,426.72,380.74,426.44,379.84Zm1.24,20.28c-.6-1.06,0-2.11.76-3a6.3,6.3,0,0,1,1.15-1.15c1-.61,2.06-1.45,3.19-.81s.89,2,.55,3.12a11,11,0,0,0-.15,1.82,2,2,0,0,1-2.38,1.95A3.92,3.92,0,0,1,427.68,400.12Z" transform="translate(-284.37 -91.57)" style="fill:#fff"/><path d="M471.52,153.52c.87-.07,2.09-.22,3.32-.27,4.26-.17,4.26-.15,4.52-4.38.15-2.35-.25-2.74-2.67-2.56-.88.07-1.77.12-2.64.27-.6.1-1.67-.24-1.6.75s.08,2.19,1,2.75a1.3,1.3,0,0,0,2-.65c.13-.33.37-.61.78-.46.56.22.48.77.53,1.22s-.24.56-.63.59c-.61,0-1.21.12-1.81.2-2.83.41-3,.24-3.16-2.57a2.41,2.41,0,0,1,0-.41c.1-.79-.06-1.36-1-1.33a1.27,1.27,0,0,0-1.41,1.38c0,.81-.17,1.62-.26,2.42C468.22,153.13,468.48,153.42,471.52,153.52Z" transform="translate(-284.37 -91.57)" style="fill:#fff"/><path d="M494.76,175.44a3.13,3.13,0,0,0,0,.61c-.08,5.92,0,6,5.38,5.72a3.69,3.69,0,0,0,1-.17c.49-.17.89-.55.77-1.07a20,20,0,0,1-.31-3.84c0-1.08-1-1.21-1.8-1.21-.68,0-1.59-.52-2,.48s.65,1,1.14,1.33a1.27,1.27,0,0,1,.42,1.63c-.28.75-1,.65-1.56.6s-.9-.59-.82-1.17c.17-1.23-.38-2.57,0-3.62.49-1.42,2.15-.48,3.24-.83.19-.06.4-.09.59-.17.48-.19.87-.52.71-1.07s-.25-1-.86-1c-1.9-.11-3.95-.48-5.62.35C493.84,172.6,495,174.27,494.76,175.44Z" transform="translate(-284.37 -91.57)" style="fill:#fff"/><path d="M415.14,217c1.84.06,3.67,0,6,0,1.65-.24,3.84.37,6-.28.77-.23,1.48-.42,1.47-1.38-.06-4.12.72-8.24.16-12.37a1.73,1.73,0,0,0-1.26-1.67,9.52,9.52,0,0,0-3.59-.46c-2.9.53-5.83.28-8.73.56a2.09,2.09,0,0,0-2,1.6c-1.63,4.42-.09,8.71.41,13C413.69,217,414.51,217,415.14,217ZM417,205.19a7.11,7.11,0,0,1,6.75-.8c2,.66,2.36,2.58,2.14,4.55a10.78,10.78,0,0,0,0,1.43c.05,2.62-.52,3.28-3.07,3.47l-2.54.21a5,5,0,0,1-.72,0c-2.72-.27-3.72.64-3.69-3.44C415.89,208.64,415.12,206.63,417,205.19Z" transform="translate(-284.37 -91.57)" style="fill:#fff"/><path d="M346.12,182.47a8.06,8.06,0,0,0-5,.3c-1.15.51-.43,2-.64,2.94,0,.19,0,.32,0,.46.1.89-.44,2.1.8,2.48.78.24,1.85.53,2.51-.21,1-1.09-.37-1.63-.8-2.37-.32-.55-.48-1,.25-1.31s1.06.12,1.22.73a7.16,7.16,0,0,1,.08,4.23c-.34.9-1.74.3-2.65.46a5.88,5.88,0,0,0-.61.09,1.45,1.45,0,0,0-1,1.4c-.1.8.59.7,1.05.94,1.38.73,2.64-.41,4-.12s1.77-.51,1.68-1.68a36.61,36.61,0,0,1,.09-5.68C347.19,184.2,347.28,182.74,346.12,182.47Z" transform="translate(-284.37 -91.57)" style="fill:#fff"/><path d="M494.73,166.57c-.21,1.68.56,2.24,2.13,2.05a3.08,3.08,0,0,1,.74,0c4.14.18,4.15.18,4.13-3.53,0-.68-.08-1.36-.1-2,0-1-.54-1.3-1.47-1.22-2.22.18-2.75,1.25-1.5,3.18.2.31.36.56.2.91s-.64.46-1,.44c-.95-.06-1-.75-1-1.47.13-1.34,0-2.87.58-4,.5-.9,2-.25,3.09-.36.78-.08,1-.52,1.1-1.21.13-.94-.52-.91-1.13-1a15.09,15.09,0,0,0-4.48.11c-.93.1-1.16.55-1.34,1.42C494.16,162.11,495,164.33,494.73,166.57Z" transform="translate(-284.37 -91.57)" style="fill:#fff"/><path d="M342.18,164.16a8.79,8.79,0,0,1-1.38.31c-.55.18-.62.66-.58,1.17a.86.86,0,0,0,.93.88,4.92,4.92,0,0,0,1.61-.21c1.34-.48,3.14.69,4-.67.76-1.16.21-2.78.24-4.19,0-1.16.07-2.32,0-3.47-.06-.77-.1-1.77-1.23-1.8-1.62-.05-3.47-.63-4.8.15-1.16.68-.5,2.49-.5,3.81a4.5,4.5,0,0,1-.1.81c-.12.65-.12,1.29.65,1.49a2.79,2.79,0,0,0,2.54-.2c.59-.52.35-1.39,0-2.07-.12-.22-.44-.32-.61-.52a.68.68,0,0,1,.15-1.06.68.68,0,0,1,1,.28,6.89,6.89,0,0,1,.19,4.59C344.06,164.53,342.86,163.8,342.18,164.16Z" transform="translate(-284.37 -91.57)" style="fill:#fff"/><path d="M438.07,405a17.42,17.42,0,0,0-.92-8.14c-.12-.3-.31-.79-.51-.81-.47,0-.64.45-.74.83a9.87,9.87,0,0,0,0,3.65c.16,1.67,1.08,3.36.26,5a8.67,8.67,0,0,0-.53,3.79,10.4,10.4,0,0,0,.39,1.76c0,.21-.16.63-.28.64-.35,0-.36-.33-.39-.59s0-.54,0-.82c-.23-3.45-.59-3.65-3.74-2.11-.73.36-1.5.63-2.25,1-.31.14-.63.36-.49.77a.71.71,0,0,0,.8.49c.4-.06.8-.16,1.2-.22a6,6,0,0,1,3.2.43c.87.35.35,1.47.6,2.21.2.58.27,1.21,1,1.36s1.42.27,1.89-.36a3.51,3.51,0,0,0,.82-2.86C437.9,409.06,438.28,407.09,438.07,405Z" transform="translate(-284.37 -91.57)" style="fill:#fff"/><path d="M494.73,205.66c.09,1.89.08,2.48,2.46,2.36,1-.05,1.88.16,2.76,0,.63-.08,1.12-.38,1.14-1,.07-1.47.63-2.91.19-4.44-.21-.72-.4-1.06-1.16-1.06s-1.78-.13-2.21,1c-.27.69-.5,1.27.29,1.77.38.23,1,.49.29,1-.46.34-1,.5-1.45-.05s-.23-4.65.2-4.94a2.83,2.83,0,0,1,1.15-.36,10.16,10.16,0,0,1,1.63-.12c.74,0,1.16-.26,1.18-1.06s-.52-1.11-1.15-1.16a33.43,33.43,0,0,0-3.46-.1,1.68,1.68,0,0,0-1.82,2C494.88,201.59,494.63,203.62,494.73,205.66Z" transform="translate(-284.37 -91.57)" style="fill:#fff"/><path d="M496,221.11c4,1.2,5.64-.09,5.3-4.23a6.36,6.36,0,0,1-.05-.81c0-1-.7-1-1.36-1.11a1.6,1.6,0,0,0-1.93.75c-.35.64-.48,1.33.36,1.72.57.26.72.58.32,1.08-.21.27-.44.56-.83.48-.6-.12-.68-.61-.68-1.1,0-.81,0-1.63,0-2.45,0-2.36.31-2.75,2.53-2.34,1,.18,1.44,0,1.65-.87s-.48-1.12-1.13-1.39c-1.25-.51-2.4.34-3.61.2s-1.88.44-1.82,1.75a10.53,10.53,0,0,1-.06,1.38c.13,2.07.2,3.7.36,5.32C495.15,220.12,495.08,220.83,496,221.11Z" transform="translate(-284.37 -91.57)" style="fill:#fff"/><path d="M343.31,203c-1.27,0-3.1-.19-3.05,1.68.05,2.14,2,1.15,3,1.39.88-.05,1.56-.08,2.23-.14s1.2-.3,1.23-1.08c.1-2.37.31-4.75.26-7.12,0-2.08-.6-2.42-2.7-2.26-3.95.31-3.94.31-3.84,4.48,0,.47-.11,1-.07,1.42s.25,1,.69.86c.88-.21,2,.08,2.58-.83.48-.75,0-1.41-.57-2-.35-.31-.75-.67-.45-1.21s.8-.42,1.27-.39c.77,0,.76.62.77,1.18,0,.82,0,1.63.05,2.45C344.75,202.44,344.4,202.94,343.31,203Z" transform="translate(-284.37 -91.57)" style="fill:#fff"/><path d="M501.33,229.23c-.2-.65.09-1.69-1-1.67-.71,0-1.62-.2-2.08.5s0,1.44.46,2c.21.26.52.49.28.85-.09.12-.37.16-.56.16-.45,0-.83-.17-.84-.68,0-1.22-.36-2.52.15-3.62.42-.91,1.58-.54,2.43-.6s1.3-.43,1.33-1.21-.75-.87-1.31-1c-3.61-.74-4.92.35-5,4.05l-.07,2.45c-.06,2.8.08,3,2.93,3h.61c2.63,0,3-.35,2.86-3.05A4.83,4.83,0,0,0,501.33,229.23Z" transform="translate(-284.37 -91.57)" style="fill:#fff"/><path d="M500.45,184.42c-1.5,0-3,0-4.49,0-.92,0-1.25.62-1.24,1.51,0,1.84,0,3.68,0,5.51,0,3.51.05,3.58,3.49,3.4s3.33-.18,3-3.67c0-.34,0-.68,0-1,0-.55,0-1.2-.7-1.24s-1.69-.36-2.32.34a1.16,1.16,0,0,0,.1,1.65c.26.28.76.49.46,1-.19.31-.59.28-.93.25s-.65-.36-.78-.79c-.91-3.13-.26-4.12,3-4.55l.41,0a1,1,0,0,0,1-1.23C501.51,184.86,501.21,184.41,500.45,184.42Z" transform="translate(-284.37 -91.57)" style="fill:#fff"/><path d="M498.39,155.55a5.23,5.23,0,0,0,1.17.33c.87.06,1.74-.17,1.87-1.15a20.37,20.37,0,0,0,.08-3.47c0-.88-.73-1-1.46-1.1s-1.42-.36-1.89.31-.08,1.16.38,1.64c.27.28.71.5.46,1a.67.67,0,0,1-.86.35,1.32,1.32,0,0,1-1-.9c-.59-2.09.13-3.23,2.27-3.47a10.14,10.14,0,0,0,1.4-.26.94.94,0,0,0,.74-1.07c0-.62-.28-1.07-.93-1.13a9.69,9.69,0,0,0-1.43,0c-4.37.21-4.37.21-4.46,4.54,0,1.29-.41,2.78.1,3.82C495.52,156.35,497.21,155.18,498.39,155.55Z" transform="translate(-284.37 -91.57)" style="fill:#fff"/><path d="M452.7,390.41l-.12.07h0Z" transform="translate(-284.37 -91.57)" style="fill:#fff"/><path d="M357.14,146.78l-.41,0c-1.3.16-1,1.26-1.21,2-.17.59-.14,1.15.53,1.34s1.64.32,2.07-.68c.18-.42.48-.76.91-.65.59.14.47.77.53,1.2.12.9-.41,1.28-1.23,1.15-1.29-.2-2.71.47-3.83-.2s-.36-2-.56-3.07c-.11-.6-.38-1.05-1-1.06a1,1,0,0,0-1.1.75c-.18,1.48-.69,2.93-.26,4.46a1.21,1.21,0,0,0,1.27,1c1.91.08,3.81.21,5.71.32v-.12l2,.15c.57,0,1,0,1.23-.71C363.31,147.82,362.09,146.22,357.14,146.78Z" transform="translate(-284.37 -91.57)" style="fill:#fff"/><path d="M341,175.61c.84.07,1.86.38,2.52-.41s.26-1.51-.43-2.12c-.3-.26-.63-.58-.37-1a.81.81,0,0,1,.88-.35c.5.05.6.4.75.82,1.18,3.18.46,4.38-3,4.91h-.2c-.54,0-.92.24-.92.85s.21,1,.75,1.06c.87.11,1.76.11,2.64.15v-.15c.68,0,1.36,0,2,0,.92,0,1.5-.31,1.33-1.3-.38-2.25.09-4.48.09-6.72,0-1.44-.47-2-2-2-5.47-.18-5,0-4.8,4.56C340.31,174.5,339.79,175.51,341,175.61Z" transform="translate(-284.37 -91.57)" style="fill:#fff"/><path d="M348.32,146.87c-.07-.08-.26-.08-.39-.08-1.16,0-2.32-.09-3.47,0s-1,1-1,1.68-.08,1.93,1.06,2.11a1.08,1.08,0,0,0,1.3-1.2c0-.31,0-.77.48-.69s.44.49.46.81c.08,1.44-.87,1.87-2.06,2s-1.83-.25-1.84-1.56a11.7,11.7,0,0,0-.38-2.41c-.17-.77-.79-.86-1.45-.76a1,1,0,0,0-.87,1.15c.06.75.13,1.49.21,2.24.37,3.28.37,3.28,3.67,3.55,1.09-.07,2.17-.11,3.26-.21.84-.08,1.89-.29,1.71-1.32C348.75,150.38,349.71,148.45,348.32,146.87Z" transform="translate(-284.37 -91.57)" style="fill:#fff"/><path d="M347.07,224.22c0-2.33-.19-2.51-2.59-2.53-4.39,0-4.36,0-4.24,4.45,0,1,.28,1.6,1.22,1.81.71.16,1.59.5,2.09-.24s.23-1.52-.58-2.08a.68.68,0,0,1,0-1.2.81.81,0,0,1,1.33.37,6.15,6.15,0,0,1,.29,4c-.25,1.23-1.52.45-2.28.77a3.08,3.08,0,0,1-1,.24c-.85.06-1,.64-.94,1.3s.47,1,1.21,1c5,.22,5.68-.44,5.46-5.27C347.07,225.86,347.07,225,347.07,224.22Z" transform="translate(-284.37 -91.57)" style="fill:#fff"/><path d="M342.69,208.62c-.41,0-.81.11-1.21.2s-.9.35-.94.92c-.1,1.29-.19,2.58-.27,3.87a1.13,1.13,0,0,0,.94,1.18,2,2,0,0,0,2.28-.41c.65-.76,0-1.38-.44-2-.31-.37-.7-.81-.26-1.23a1.84,1.84,0,0,1,1.15-.24c.64,0,.75.48.74,1s0,1.09-.06,1.64c-.06,3-.06,3-3.17,3.21-.65,0-1.27,0-1.28.89s.34,1.33,1.18,1.36,1.63,0,2.44,0v0a4.21,4.21,0,0,1,.82,0c1.7.34,2.36-.22,2.58-2.06a24.9,24.9,0,0,0-.19-4.87C346.72,208.35,346.46,208.19,342.69,208.62Z" transform="translate(-284.37 -91.57)" style="fill:#fff"/></svg>
