<svg id="Layer_9" data-name="Layer 9" xmlns="http://www.w3.org/2000/svg" viewBox="0 0 40.4 32.29"><title>_record_icon</title><path d="M413.84,289.32l1.59-1.23L415,286.5l-1.19-.33-1.25,1.27.43,1.25Zm.09-2.75.83.17.29,1,0,0L413.89,289l-.72-.54-.25-1Z" transform="translate(-400.74 -281.49)" style="fill:#973100"/><path d="M414,290.13l2.23-1.91-.79-2.12-1.84-.42-1.52,1.6,0,0,.35,1.87Zm-.28-4.2,1.64.3.54,1.89L414,289.89l-1.4-.82-.26-1.64Z" transform="translate(-400.74 -281.49)" style="fill:#973100"/><polygon points="12.76 1.5 12.8 1.5 12.81 1.41 12.89 1.42 12.9 1.37 12.81 1.37 12.82 1.3 12.76 1.29 12.76 1.36 12.69 1.36 12.69 1.4 12.76 1.41 12.76 1.5" style="fill:#973100"/><path d="M424.32,288.85l1.4-1.94,0,0-1.87-1.79-1.48.66-.88,1.83v0l1,1.42Zm-1.85-3,1.38-.56,1.77,1.63-1.35,1.86-1.72.16-.92-1.31Z" transform="translate(-400.74 -281.49)" style="fill:#973100"/><polygon points="13.16 7.29 14.19 6.24 13.94 5.34 13.22 5.22 12.42 5.98 12.53 6.82 13.16 7.29" style="fill:#973100"/><polygon points="22.81 1.09 22.85 1.09 22.86 1.02 22.95 1.02 22.95 0.98 22.86 0.97 22.87 0.89 22.82 0.88 22.82 0.97 22.75 0.97 22.74 1.02 22.82 1.02 22.81 1.09" style="fill:#973100"/><polygon points="23.28 7.07 24.67 5.46 23.17 4.02 21.96 4.54 21.1 6.11 22 7.25 23.28 7.07" style="fill:#973100"/><polygon points="14.39 24.78 14.42 27.96 20.27 28.11 20.23 24.57 14.39 24.78" style="fill:#973100"/><polygon points="14.58 28.55 20.1 28.7 20.18 28.28 14.5 28.08 14.58 28.55" style="fill:#973100"/><path d="M421,305.86l7.11-.46.44-11.49-19.07.28.45,11.71,1.63,0-6.41,4.17v.15l.21.32.2.06h0l7.31-4.66,2.28.06ZM409.8,294.78v-.16h2.75l0,.27Zm.46,3.25v-.17l2.06-.15,0,.23Z" transform="translate(-400.74 -281.49)" style="fill:#973100"/><polygon points="14.8 32.29 20.15 32.11 20.17 28.89 14.66 28.71 14.8 32.29" style="fill:#973100"/><polygon points="39.95 11.08 39.21 11.32 39.79 23.69 40.4 23.82 39.95 11.08" style="fill:#973100"/><path d="M432.52,295l0,.57-.21,0-.18-.56-.54,0-.09.58-.18,0-.1-.57-.57.05v.62l-.16,0-.2-.61-.55.05-.05.67-.17,0-.26-.65-.34,0c0,.08-.11,9.07-.11,9.07h.36l.1-.79.28,0,.22.8h.68l.16-.83.23,0,.1.84h.73l0-.93.22,0,.26.94h.66l.13-1,.22,0,.36,1h1l-1.36-9.39Z" transform="translate(-400.74 -281.49)" style="fill:#973100"/><path d="M434,297.22l.64,4.4,5.48,3.14-.45-11.5Z" transform="translate(-400.74 -281.49)" style="fill:#973100"/><polygon points="4.32 28.74 4.31 28.61 3.6 28.58 3.59 28.59 3.63 28.96 4.03 29.44 4.54 29.82 4.78 29.19 4.55 29.13 4.32 28.74" style="fill:#973100"/><path d="M409.05,297.58S409,295,409,295l-5.42-.15,0,2.83Z" transform="translate(-400.74 -281.49)" style="fill:#973100"/><path d="M426.66,293.64l3.33-4.18s-1.25-5.42-1.28-5.49-5.2-2.47-5.2-2.47l-3.6,1.29-1.18,1.47.62.61-.89-.67-2.81-2H412l-3.7,2.83-.53,4.25,3.47,4.55Zm-3.1-11.39a.23.23,0,1,1-.22.23A.22.22,0,0,1,423.56,282.25Zm-1.43,3.09,1.8-.63,2.18,2.16L424.39,289l-2,.16-1.17-1.63Zm-8.6-2.7a.23.23,0,1,1-.23.23A.23.23,0,0,1,413.53,282.64Zm-.1,2.7,2.22.65,1,2.43-2.8,2.17-1.75-1.36-.29-2Z" transform="translate(-400.74 -281.49)" style="fill:#973100"/><path d="M403.3,296.78l0-1.49-1.94-1.18-.1,3.88Z" transform="translate(-400.74 -281.49)" style="fill:#973100"/><polygon points="8.61 16.25 8.62 13.39 8.34 13.35 8.39 16.23 8.61 16.25" style="fill:#973100"/><polygon points="0.47 16.55 0.59 12.49 0.52 12.35 0.41 12.4 0.25 16.51 0.35 16.62 0.47 16.55" style="fill:#973100"/><polygon points="3.52 28.99 3.46 28.69 0 31.42 0.44 31.98 4.44 29.9 3.95 29.55 3.52 28.99" style="fill:#973100"/></svg>