<svg id="Layer_11" data-name="Layer 11" xmlns="http://www.w3.org/2000/svg" viewBox="0 0 266.33 254.15"><title>_send_icon</title><polygon points="138.43 70.87 151.72 72.03 154.97 52.4 171.35 56.53 135.1 16.15 94.97 45.4 114.22 46.9 111.47 68.53 121 69.36 124.85 44.03 112.35 42.78 134.47 25.15 156.22 48.53 143.72 46.53 138.43 70.87" style="fill:#973100"/><polygon points="137.75 229.88 98.44 227.01 98.19 229.63 137.19 234.99 137.75 229.88" style="fill:#973100"/><polygon points="95.7 242.46 136.19 246.95 136.31 243.33 96.45 237.85 95.7 242.46" style="fill:#973100"/><polygon points="139.15 229.59 138.78 248.54 93.83 243.69 96.26 226.59 90.47 226.03 86.34 249.29 144.89 254.15 144.81 229.66 139.15 229.59" style="fill:#973100"/><path d="M541.55,267.47,306.27,248.91l-3.58,29.68-8.56-1.2-6.35,92.66,18.09,14.24,222.68,16c1.25.08,15.59-12,15.59-12L550.27,297l-9-.6ZM532,274.25a3,3,0,1,1-3,3A3,3,0,0,1,532,274.25Zm-48.49,42.81,4.52,3.72,2.88,8.14-1.72,6.89-3.78,4.09-4.24,2.52ZM318.67,258.33a3,3,0,1,1-3,3A3,3,0,0,1,318.67,258.33ZM309.11,369a3,3,0,1,1,.75-4.18A3,3,0,0,1,309.11,369Zm45.48-45,2.23,2-.42,2.67L353,324.82l-.72-5.48,1.79-4.22,3.31-3.87-.42,3.5-.92.92-1.81,3.39Zm3.81-32c-2.21.46-9.83,2.05-9.91,2.26s-15,18.71-15,18.71l-.41,16,7.11,12.25L351,348.57l3.11.36-.38,5-44.3-4.48-6-26.71,3.42-21.07L316.47,286l42,4.83Zm110.92,68.42-104.9-8.8,5.82-60.5,104.56,6.27Zm23.17-23.78-5.83,7.17-5.95,2.79.27-2.84,5.09-2.67,4.59-4.87,1.84-7.48-3.26-9.91-5.55-3.73.25-2.67,7.56,5,3.74,10.75Zm17.43,27.16-1.3-.11,8-8,5.58-14.83,1.58-7.46-2.16-18.79-2.17-5.85-5.22-9,1.21.1,5,8.6L523,314l3.08,17.08-1.67,10.42-6.58,14.83Zm12.52,21a3,3,0,1,1,.75-4.18A3,3,0,0,1,522.45,384.88Zm10.78-39.43-8.82,19.45-8.44-.55,6-7.47,6.79-15.33L530,327.94l-2.63-15.63-5.27-11.88,7.13.4,6.57,21.49Z" transform="translate(-287.78 -165.47)" style="fill:#973100"/><polygon points="86.22 169.65 176.02 174.14 176.04 172.55 86.31 166.78 86.22 169.65" style="fill:#973100"/><polygon points="98.72 67.71 108.84 68.58 111.87 48.13 89.87 46.61 135.47 12.25 177.55 59.33 157.47 54.73 155.09 72.96 160.84 73.46 162.55 63 192.55 66.67 136.55 0 70.72 54 101.22 54 98.72 67.71" style="fill:#973100"/><polygon points="175.21 182.4 85.67 175 85.6 177.28 175.28 183.9 175.21 182.4" style="fill:#973100"/><polygon points="28.65 65.57 27.89 67.53 24.55 67.03 24.18 65.25 8.89 64.13 5.51 109.48 12.35 110.19 14.41 80.79 257.03 98.33 256.54 126.84 264 127.6 266.33 82.92 28.65 65.57" style="fill:#973100"/><polygon points="97.19 236.11 136.13 241.28 136.44 238.16 98.13 232.43 97.19 236.11" style="fill:#973100"/><polygon points="177.55 146.67 88.22 140.4 87.71 143.75 177.56 148.25 177.55 146.67" style="fill:#973100"/><polygon points="176.88 156.99 87.4 150.56 87.3 152.78 176.72 159.94 176.88 156.99" style="fill:#973100"/><polygon points="176.46 165.06 86.52 159.94 86.1 162.28 176.53 166.57 176.46 165.06" style="fill:#973100"/></svg>