<?xml version="1.0" encoding="utf-8"?>
<!-- Generator: Adobe Illustrator 21.1.0, SVG Export Plug-In . SVG Version: 6.00 Build 0)  -->
<svg version="1.1" id="Layer_1" xmlns="http://www.w3.org/2000/svg" xmlns:xlink="http://www.w3.org/1999/xlink" x="0px" y="0px"
	 viewBox="0 0 420 350" style="enable-background:new 0 0 750 1334;" xml:space="preserve">
<style type="text/css">
	.st0{fill:#E41345;}
	.st1{fill:#FEFDFE;}
	.st2{fill:#FDF9FA;}
	.st3{fill:#FEFDFD;}
	.st4{fill:#FEFEFE;}
</style>
<g>
	<g>
		<path class="st0" d="M10.5,157.9c6.1-19.6,20.7-31.2,37.9-40.2c6.6-3.4,10.2-8.1,11.4-15.7c3.9-25.3,8.5-50.5,12.6-75.8
			c1.2-7,4.4-12.1,11.4-14.4c6.4-2,11.9-0.4,16.4,4.4c5,5.3,5.3,11.4,2.6,18.1C88.9,69.1,78.4,105,70,141.5c-1.1,4.9,0,6.2,5,5.2
			c20.1-4,39.7-9.8,58.8-17.1c3.3-1.2,3.9-3.5,4.5-6.4C145.4,88.3,154,53.8,165.4,20c1.1-3.1,2.2-6.3,3.8-9.2
			c4.1-7.8,13.7-10.3,21-5.8c7.4,4.5,9.5,14.1,4.5,21.3c-8.7,12.4-14.4,26.2-20.3,39.9c-0.7,1.7-1.7,3.4-0.2,5.1
			c1.6,1.9,3.4,1.4,5.5,0.9c11.4-3.1,22.8-5,34.5-1.5c0.5,0.1,1,0.2,1.5,0.3c11.6,3.4,13.5,10.1,5.1,18.8
			c-9.3,9.7-20.9,16.4-32.6,22.9c-9.2,5.1-18.5,9.9-27.9,14.4c-5,2.4-7.7,5.9-8.8,11.2c-4.9,22.8-8.8,45.8-9.3,69.2
			c-0.1,6.3-3.4,10.5-8.5,11.4c-8.1,1.4-13.8-5.1-12-13.7c2-9.4,4-18.9,5.9-28.3c2.2-10.6,4.2-21.2,6.3-31.8c0.3-1.4,1.2-3-0.4-4.1
			c-1.5-1-2.9,0.1-4.2,0.7c-18.6,8.2-37.2,16.3-56.6,22.3c-6.3,1.9-8.7,5-9.7,11.4c-3.3,21.6-5.9,43.2-5.6,65.1
			c0.1,7-4.3,11.6-10.4,11.2c-6.4-0.4-10-5.7-8.8-12.9c3.3-21,6.5-42.1,9.9-63.1c0.6-3.9-0.8-4.4-4-3.6c-6.4,1.5-12.8,2.1-19.3,1.8
			c-6.2-0.2-11.3-2.3-14.3-8.1C10.5,163.2,10.5,160.6,10.5,157.9z"/>
		<path class="st0" d="M405.5,197.9c-2.1,1.1-4.5,1-6.8,1C321,201,244.6,211.1,170.4,235c-41.8,13.4-81.8,30.6-118.5,55
			c-6.6,4.4-12.9,9.3-19.4,13.9c-2,0-4,0-6,0c-10.3-6-10.7-14.3-0.8-21.3C54.1,262.4,85.5,248,118,236c47.3-17.5,96.1-28.6,146-35.2
			c44.6-5.9,89.5-8.1,134.5-7.6c2.5,0,5.1-0.4,7,1.7C405.5,195.9,405.5,196.9,405.5,197.9z"/>
		<path class="st0" d="M266.4,165.2c-5.3,4.3-9.9,8.4-14.9,11.9c-11.3,7.8-23.3,14.3-37.7,14.2c-21.5-0.1-35.6-15.3-33.4-36.7
			c2.1-19.7,10.3-35.7,30.4-43c4-1.4,8.1-2,12.3-1.9c15.4,0.4,24.5,13.7,19,28.1c-2.5,6.5-6.9,11.3-12.8,14.9
			c-8,4.8-16.6,7.7-25.9,8.1c-4.3,0.2-4.3,1.9-2.6,4.9c4.4,7.7,11.3,11.6,20,12.2c25.4,1.8,46-15.9,49.8-42.5
			c1.1-7.6,1-15.3,0.7-22.9c-0.1-3.5-0.2-7,4.4-7.6s6.3,2.5,6.5,6.3c0.3,4.5,1.7,4.7,5,2c7.1-5.9,15.2-10.2,24.1-12.7
			c2.1-0.6,4.4-1.4,5.7,1.1c1.2,2.4-1,3.6-2.4,4.9c-6.5,5.7-13.2,11.2-19.5,17.2c-7.7,7.3-12.6,16-12.9,27.2
			c-0.3,9.1-2.6,18.1-5.4,26.8c-1.1,3.4-2.8,5.9-6.7,5.3c-4-0.6-4.8-3.6-4.6-7.1C265.8,172.6,266.1,169.2,266.4,165.2z"/>
		<path class="st0" d="M348.5,180.1c-17.9-0.1-31.1-12.9-32.8-31.5c-1.7-19.1,10-38.8,27.6-46.4c22.1-9.6,44.1,3,47.1,27.1
			c2.7,21.7-13.2,44.9-34.3,50C353.3,179.9,350.7,180,348.5,180.1z"/>
		<path class="st1" d="M185.1,85.9c6.8-0.1,8.2,2.3,5.3,7.4c-2.2,3.8-5.4,6.8-8.7,9.5c-6.2,5.1-12.9,9.4-19.9,13.3
			c-1,0.6-2.1,1.3-3.2,0.5c-1.2-0.8-0.7-2-0.4-3.1c1.9-6,3.6-12.1,5.5-18.1c0.8-2.5,2.5-4.4,5-5.3C174.3,87.9,180.1,86.4,185.1,85.9
			z"/>
		<path class="st2" d="M54.9,131.7c-0.8,4.8-1.5,9.6-2.4,14.4c-0.4,2-1.9,2.2-3.4,1.6c-2.4-0.9-4-2.5-3.1-5.3
			C47.4,138.1,49.8,134.2,54.9,131.7z"/>
		<path class="st3" d="M226.5,134.2c-1.3,8.1-7.2,13.7-15.3,17c-3.6,1.5-8.2,4.8-11.5,1.4c-2.9-3,0.1-7.6,1.5-11.2
			c3.5-8.6,11.4-13.8,20.2-13.7C225.8,127.9,226.8,128.9,226.5,134.2z"/>
		<path class="st4" d="M351.4,160c-9.9,0-17.4-7.4-17.8-17.7c-0.5-12.6,9.5-26.6,21.6-30c12.3-3.5,22.6,3.6,23.8,16.3
			C380.3,144.3,366.7,159.9,351.4,160z"/>
	</g>
</g>
</svg>
