<svg xmlns="http://www.w3.org/2000/svg" xmlns:xlink="http://www.w3.org/1999/xlink" viewBox="0 0 392 364.14"><defs><radialGradient id="radial-gradient" cx="198.84" cy="175.24" r="166.7" gradientUnits="userSpaceOnUse"><stop offset="0" stop-color="#fff"/><stop offset="1" stop-color="#fff" stop-opacity="0"/></radialGradient><linearGradient id="linear-gradient" x1="421.44" y1="378" x2="421.44" y2="457.46" gradientUnits="userSpaceOnUse"><stop offset="0" stop-color="#296d8d"/><stop offset="1" stop-color="#feb85b"/></linearGradient><linearGradient id="linear-gradient-2" x1="317.14" y1="104.97" x2="317.14" y2="265.69" gradientUnits="userSpaceOnUse"><stop offset="0" stop-color="#236582"/><stop offset="1" stop-color="#296d8d"/></linearGradient><linearGradient id="linear-gradient-3" x1="151.27" y1="136.15" x2="151.27" y2="266.92" xlink:href="#linear-gradient-2"/><linearGradient id="linear-gradient-4" x1="260.86" y1="65.89" x2="260.86" y2="265.14" xlink:href="#linear-gradient-2"/><radialGradient id="radial-gradient-2" cx="354.72" cy="145.48" r="82.67" gradientTransform="translate(-344.4 275.58) scale(1.55 0.12)" gradientUnits="userSpaceOnUse"><stop offset="0" stop-opacity="0.7"/><stop offset="1" stop-opacity="0"/></radialGradient><linearGradient id="linear-gradient-5" x1="196" y1="234.54" x2="196" y2="296.28" gradientUnits="userSpaceOnUse"><stop offset="0" stop-color="#fff" stop-opacity="0.3"/><stop offset="1" stop-color="#fff" stop-opacity="0"/></linearGradient><linearGradient id="linear-gradient-6" x1="426.66" y1="348.71" x2="426.66" y2="381.06" xlink:href="#linear-gradient-5"/><linearGradient id="linear-gradient-7" x1="515.55" y1="204.92" x2="517.55" y2="296.42" xlink:href="#linear-gradient-5"/><linearGradient id="linear-gradient-8" x1="289.18" y1="209.87" x2="291.18" y2="301.37" xlink:href="#linear-gradient-5"/><linearGradient id="linear-gradient-9" x1="322.81" y1="209.14" x2="324.81" y2="300.64" xlink:href="#linear-gradient-5"/><linearGradient id="linear-gradient-10" x1="432" y1="84.67" x2="427.01" y2="355.02" gradientUnits="userSpaceOnUse"><stop offset="0" stop-color="#fff" stop-opacity="0.3"/><stop offset="0.62" stop-color="#fff" stop-opacity="0"/><stop offset="1" stop-color="#fff" stop-opacity="0.4"/></linearGradient><radialGradient id="radial-gradient-3" cx="203.21" cy="232.37" r="112.5" gradientUnits="userSpaceOnUse"><stop offset="0" stop-color="#feb85b"/><stop offset="0.87" stop-color="#feb85b" stop-opacity="0"/></radialGradient><linearGradient id="linear-gradient-11" x1="417.69" y1="55" x2="417.69" y2="347.81" xlink:href="#linear-gradient-5"/><linearGradient id="linear-gradient-12" x1="431.5" y1="112.53" x2="427" y2="355.96" xlink:href="#linear-gradient-10"/><linearGradient id="linear-gradient-13" x1="7022.5" y1="113.03" x2="7018" y2="356.46" gradientTransform="matrix(-1, 0, 0, 1, 7445, 0)" xlink:href="#linear-gradient-10"/></defs><title>Fame icon</title><g id="Layer_8" data-name="Layer 8"><circle cx="198.84" cy="175.24" r="166.7" style="opacity:0.23;fill:url(#radial-gradient)"/><path d="M600.61,395.39a3.76,3.76,0,0,0-3.75-3.75H246a3.75,3.75,0,1,0,0,7.5H336.7a3.75,3.75,0,1,1,0,7.5h-56a3.75,3.75,0,0,0,0,7.5H309.9a3.75,3.75,0,0,1,3.75,3.75,3.76,3.76,0,0,0,3.75,3.75H353.2a3.75,3.75,0,1,1,0,7.5H309.65a3.75,3.75,0,0,0,0,7.5h95.13a3.75,3.75,0,0,1,0,7.5H368.09a3.75,3.75,0,0,0,0,7.5h89.79a3.75,3.75,0,0,0,3.75-3.75,3.76,3.76,0,0,1,3.75-3.75h44.9a3.75,3.75,0,0,0,0-7.5H435.15a3.75,3.75,0,0,1,0-7.5H537a3.76,3.76,0,0,0,3.75-3.75,3.75,3.75,0,0,1,3.75-3.75h21.25a3.75,3.75,0,0,0,0-7.5h-29.5a3.75,3.75,0,0,1,0-7.5H571.7a3.76,3.76,0,0,0,3.75-3.75,3.71,3.71,0,0,1,3.71-3.75h17.71A3.76,3.76,0,0,0,600.61,395.39Zm-209.71,26H373.53a3.75,3.75,0,0,1,0-7.5H390.9a3.75,3.75,0,0,1,0,7.5Zm125.88-11.25a3.76,3.76,0,0,1-3.75,3.75H500.15a3.75,3.75,0,0,1,0-7.5H513A3.76,3.76,0,0,1,516.78,410.14Z" transform="translate(-224.94 -87.5)" style="fill:url(#linear-gradient)"/><path d="M409.77,216.13a2.25,2.25,0,0,0,.13-.7c0-1.93-2.26-3.5-5-3.5a5.91,5.91,0,0,0-4.1,1.48,7.5,7.5,0,0,0,0-.75c0-4.6-4.19-8.33-9.37-8.33A10.11,10.11,0,0,0,386,205.9c-.14-4.75-5.13-8.58-11.27-8.58s-11.29,3.93-11.29,8.79a7.06,7.06,0,0,0,.74,3.1,9,9,0,0,0-5-1.52,8.53,8.53,0,0,0-8.48,6.46,5.51,5.51,0,0,0-4.51-2c-2.78,0-5,1.57-5,3.5v.45Z" transform="translate(-224.94 -87.5)" style="fill:#3691ba"/><path d="M595,264.23a2.25,2.25,0,0,0,.13-.7c0-1.93-2.26-3.5-5-3.5a5.91,5.91,0,0,0-4.1,1.48,7.5,7.5,0,0,0,0-.75c0-4.6-4.19-8.33-9.37-8.33a10.11,10.11,0,0,0-5.47,1.58c-.14-4.75-5.13-8.58-11.27-8.58s-11.29,3.93-11.29,8.79a7.06,7.06,0,0,0,.74,3.1,9,9,0,0,0-5-1.52,8.53,8.53,0,0,0-8.48,6.46,5.51,5.51,0,0,0-4.51-2c-2.78,0-5,1.57-5,3.5v.45Z" transform="translate(-224.94 -87.5)" style="fill:#3691ba"/><polygon points="167.58 272.31 267.39 96.97 367.19 271.54 167.58 272.31" style="fill:#296d8d"/><polygon points="267.08 271.92 367.19 271.54 267.39 96.97 267.08 97.51 267.08 271.92" style="fill:url(#linear-gradient-2)"/><polygon points="29.58 272.31 110.79 129.64 192 271.68 29.58 272.31" style="fill:#296d8d"/><polygon points="110.55 271.99 192 271.68 110.79 129.64 110.55 130.08 110.55 271.99" style="fill:url(#linear-gradient-3)"/><polygon points="75.45 273.34 199.18 55.97 322.92 272.39 75.45 273.34" style="fill:#296d8d"/><polygon points="198.81 272.87 322.92 272.39 199.18 55.97 198.81 56.64 198.81 272.87" style="fill:url(#linear-gradient-4)"/><path d="M577.66,346.46l0,.06C577.7,346.51,577.71,346.49,577.66,346.46Z" transform="translate(-224.94 -87.5)" style="fill:#fff"/><path d="M603.42,374.26c-.25-3.26-.91-6.42-3.92-8.42s-5.32-5.63-8.5-7.5c-6-3.55-16.17-5.13-22.2-8.79-3.44-2.09-8.3-4.93-11.44-8.34a19.8,19.8,0,0,0-5.4-.89,2,2,0,0,1-1.83-.91,2.37,2.37,0,0,0-1.58-1.06c-2.06-.39-1.12-1-2.24-2.3a19.51,19.51,0,0,0-4.82-3.66,8.06,8.06,0,0,1-3.25-3.25,31,31,0,0,0-2.28-3.37c-1-1.52-3.12-.27-3.85.9s-1.45,2.31-2.21,3.43a4.16,4.16,0,0,1-3.42,2.19.93.93,0,0,1-1-.58,6,6,0,0,0-2-2.41c-2.44-2.08-4.8-4.28-7.66-5.62a2.93,2.93,0,0,1-1-.68,5.22,5.22,0,0,0-2-1.32,28.7,28.7,0,0,0-3.88-1.43,1.69,1.69,0,0,1-1.06-.61,1.56,1.56,0,0,0-1.37-.66,5.23,5.23,0,0,1-2.4-.81,10.85,10.85,0,0,1-2.9-2.61c-.93-1.08-1.83-2.31-3.35-2.4-.44,0-.57-.47-.72-.84-.24-.58-.57-1-1.2-.71s-.76-.1-.92-.55c-.75-2.22-2.45-3.67-3.55-5.61-.95-.45-1.44-1.51-2.24-2.16a4.22,4.22,0,0,1-1.26-1.84,13.55,13.55,0,0,1-.68-2.76c-.35-2.08-.66-4.18-1-6.26a5.47,5.47,0,0,0-1.25-2.86,3.09,3.09,0,0,1-.92-1.94c-.06-1-.16-2.08-.25-3.11a38.43,38.43,0,0,0-2-10.34c-.64-1.68-1.89-2.82-2.79-4.26a2.48,2.48,0,0,0-2.2-.51c-.47.1-.52.86-.65,1.35-.56,2-.94,4.11-1.38,6.17a60.68,60.68,0,0,1-1.93,6,5.82,5.82,0,0,1-1,1.51c-.33.46-.56.55-.73-.08a6.35,6.35,0,0,0-1.3-2.43,3.41,3.41,0,0,1-.59-1.46l-1.18-5.21a7.57,7.57,0,0,0-1-2.48,9.06,9.06,0,0,1-1-1.8c-.29-.77-.51-.8-1.05-.25s-1.24,1.31-1.83,2c-.42.49-.81.58-1.17,0-.59-1-1.91-.88-2.36-2.08,0-.13-.4-.13-.62-.14a8,8,0,0,0-1.1,0c-.62,0-.95-.28-1.12-.93a12.22,12.22,0,0,0-.58-1.75c-.44-1-.83-1.18-1.78-1a6.24,6.24,0,0,0-2.26,1c-.95.63-1.71.77-2.4-.42a8.18,8.18,0,0,0-1-1.12,9,9,0,0,0-5.63-2.87,2.67,2.67,0,0,1-2.1-1.42,1.63,1.63,0,0,0-2.87-.29,7.85,7.85,0,0,0-1.28,2.6,1.1,1.1,0,0,1-.68.91L434,266a1.34,1.34,0,0,1-.44.54c-1,.75-2.5.83-3.44,1.62s-1.36,2.39-1.61,3.69c0,.86.07,1.73.13,2.58a68.54,68.54,0,0,1,0,11.23,3.09,3.09,0,0,1-.21,1.34c-.62,1.08-1.22,2.19-1.9,3.22a4,4,0,0,1-2.11,1.72c-.75.23-.82.21-.92-.64s-.2-1.9-.3-2.86c-.41-4.22-.81-8.44-1.24-12.66-.21-2.07-.22-4.16-.63-6.2a2,2,0,0,0-2.43-1.82c-.72.15-1.08.55-1.52-.05a3.72,3.72,0,0,0-2.29-1.37,1.88,1.88,0,0,1-1.47-1.26,2,2,0,0,0-2.79-1.16.89.89,0,0,1-1.19-.17,5,5,0,0,0-.63-.5c-.73-.52-.84,0-1.29.79a1.45,1.45,0,0,1-2.25.59c-.38-.25-.75-.52-1.13-.77s-.81-.74-1.29-.58a4.94,4.94,0,0,0-2.3,1c-1.1,1.26-2.14,2.59-3.24,3.86a20.37,20.37,0,0,0-2.43,2.64,1,1,0,0,1-.69.33,2.38,2.38,0,0,0-1.22.77,6.55,6.55,0,0,0-2.32,4.47,5,5,0,0,1-.26,1c-.41,1.42-.86,2.83-1.23,4.27a92.76,92.76,0,0,0-1.78,9.91c-.06.44-.07.94-.48,1.2a5.92,5.92,0,0,0-2.23,3.15c-.34.89-1.37,1.57-2.7,3.55a17,17,0,0,0-3.42,3.59c-.1.15-4,3.51-4.4,3.47a.56.56,0,0,0-.61.43c-1.45,4.59-3.18,3.54-6,4.23a7,7,0,0,1-2.71.46c-1.92-.29-3.09.76-5.1-.39a36.9,36.9,0,0,1-4.2-2.74c-1.74-1.34-5-.59-6,4.35a2.92,2.92,0,0,1-1.07,1.94c-.93.66-1.39,1.6-2.22,3.63a5.29,5.29,0,0,1-2.31,2.58c-1,.61-5.64-1.82-7.5,2.78-.36.89-2.79,1.92-3.45,2.13-2.61.84-2.62,1.93-6.62,4.4-1.23.76-2.41,1.59-3.63,2.36-1.8,1.14-3.66,2.12-5.82,1.89-1-.11-2.62,0-3.33.82a5.64,5.64,0,0,1-3,2q-2.65.6-5.28,1.25c-2.79.68-1.44,2.29-3.78,2.23-7.76-.19-6.69.34-8.12,2.3a3.31,3.31,0,0,0-1.62,2.1c-.41,1-1,1-4.18,1.26l-11.19-.34c-.31.14-.63.29-.94.47-1.32.72-2.61,1.52-3.88,2.34-1.26,1.35-2.6,2.6-3.88,3.73-4,3.5-7.16,4-12.36,4.83-6,1-14,10-14,10a52.64,52.64,0,0,0-6.52,2.7c-1.7,1.22-5.14,2.88-1.8,5.5l94.21-.39,276.16-1C603.52,374.32,603.42,374.32,603.42,374.26Z" transform="translate(-224.94 -87.5)" style="fill:#08334f"/><path d="M313.28,338.41c.12,0,.21,0,.13.16s-.16.12-.25.18l-.12-.15A1.09,1.09,0,0,1,313.28,338.41Z" transform="translate(-224.94 -87.5)" style="fill:#08334f"/><rect y="280.31" width="392" height="24" rx="12" ry="12" style="fill:#0a3d5e"/><ellipse cx="206.53" cy="293.42" rx="128.39" ry="10.14" style="opacity:0.67;fill:url(#radial-gradient-2)"/><rect y="280.31" width="392" height="24" rx="12" ry="12" style="opacity:0.62;fill:url(#linear-gradient-5)"/><path d="M488.66,381.08c0,2.14-27.76,3.88-62,3.88s-62-1.73-62-3.87v-26c0-2.14,27.76-3.87,62-3.87s62,1.73,62,3.88Z" transform="translate(-224.94 -87.5)" style="fill:#08334f"/><path d="M488.66,381.08c0,2.14-27.76,3.88-62,3.88s-62-1.73-62-3.87v-26c0-2.14,27.76-3.87,62-3.87s62,1.73,62,3.88Z" transform="translate(-224.94 -87.5)" style="fill:url(#linear-gradient-6)"/><path d="M483.65,306c.46.27.59-.31.82-.56s.42-.51.64-.76A24.06,24.06,0,0,1,497,297a18.06,18.06,0,0,1,10.71.59c.34.12.85.15.87.62s-.44.59-.76.79a30,30,0,0,0-5,4A24.07,24.07,0,0,0,496,315.81a32.56,32.56,0,0,0,0,11.34,18.75,18.75,0,0,0,.69,2.54c0,.13.22.21.34.31a1.29,1.29,0,0,0,.21-.39c0-.33,0-.66.07-1,.87-7.23,3.56-13.57,9.07-18.55a29.66,29.66,0,0,1,10.78-5.9c1.24-.41,1.49-.15,1.22,1.09-.58,2.63-1.18,5.26-1.77,7.9-.11.47-.48,1.13,0,1.38.61.35.64-.53,1-.81s.46-.86.79-.73c.5.2.08.76.1,1.16s0,.88,0,1.32c-.24,8.7-.62,17.39-1,26.09s-.45,17.47-.9,26.19h10.6c-.28-6.92-.69-13.84-.55-20.78a4.53,4.53,0,0,0-.22-2.28,4.82,4.82,0,0,1-.31-3.22,17.36,17.36,0,0,0,.21-2.62,42.48,42.48,0,0,0-.33-5.43c-.37-3.73-.28-7.48-.32-11.23-.07-.93-.16-1.87-.2-2.8-.09-2.15-.15-4.29-.22-6.44,0-.22-.1-.51.11-.62s.41.25.61.39c0,0,.07.09.11.12.19.19.37.52.66.4s.12-.47.08-.72c-.46-2.71-.92-5.43-1.39-8.14-.24-1.38-.25-1.38,1.15-1.38a26.48,26.48,0,0,1,10.13,2.09,25.08,25.08,0,0,1,12,10,42.37,42.37,0,0,1,2.56,5c.09.19.19.44.45.39.1,0,.17-.26.21-.42a8.47,8.47,0,0,0,.21-1.14c.78-8.43-2-15.36-8.72-20.61a35.17,35.17,0,0,0-11-5.49c-1.89-.61-1.88-.73-.55-2.3l.23-.24a18.35,18.35,0,0,1,14-6.38,20.16,20.16,0,0,1,4.94.28c.2,0,.47.07.51-.22a.6.6,0,0,0-.21-.41,3.53,3.53,0,0,0-.54-.37,26.71,26.71,0,0,0-8.76-3.77,18.58,18.58,0,0,0-14,2.13,25.66,25.66,0,0,0-5,4c-.94,1-1,1-1.83-.13a20.69,20.69,0,0,0-3.26-3.49c-6.17-5-13.26-6.05-20.87-4.89a3.36,3.36,0,0,0-1.58.4c.4.48,1,.41,1.51.49a24.09,24.09,0,0,1,7.19,2.33,14.74,14.74,0,0,1,7,7c.35.75,1.26,1.67.68,2.36s-1.53-.11-2.32-.27c-6.12-1.25-11.88-.48-17,3.31a24,24,0,0,0-8.68,12.55C483.66,305.41,483.33,305.81,483.65,306Z" transform="translate(-224.94 -87.5)" style="fill:#10475b"/><path d="M279,283.44c.41.14,1,.18,1,.74s-.53.7-.91.94a35.73,35.73,0,0,0-6,4.76,28.7,28.7,0,0,0-8.09,15.24,38.84,38.84,0,0,0,0,13.53,22.4,22.4,0,0,0,.82,3c0,.15.27.25.41.37a1.53,1.53,0,0,0,.25-.46c.06-.39,0-.79.09-1.18,1-8.62,4.25-16.19,10.81-22.12a35.37,35.37,0,0,1,12.85-7c1.48-.49,1.78-.18,1.45,1.3-.69,3.14-1.41,6.28-2.11,9.42-.13.56-.57,1.34,0,1.65.72.41.76-.63,1.17-1s.55-1,.94-.87c.6.24.1.91.12,1.39s0,1-.05,1.57c-.29,10.37-.74,20.74-1.13,31.11-.4,10.64-.54,21.29-1.11,31.92h12.7c-.34-8.49-.86-17-.68-25.47a5.41,5.41,0,0,0-.27-2.72,5.75,5.75,0,0,1-.37-3.85,20.71,20.71,0,0,0,.25-3.13,50.65,50.65,0,0,0-.4-6.48c-.44-4.45-.33-8.92-.38-13.39-.08-1.11-.19-2.22-.24-3.34-.11-2.56-.18-5.12-.27-7.68,0-.26-.12-.61.13-.74.41-.21.49.3.73.47a1.11,1.11,0,0,1,.13.15c.23.23.44.62.78.47s.14-.56.09-.86c-.55-3.24-1.1-6.47-1.65-9.71-.28-1.64-.29-1.64,1.37-1.65a31.57,31.57,0,0,1,12.07,2.49,29.9,29.9,0,0,1,14.27,11.89,50.49,50.49,0,0,1,3,5.94c.1.23.23.53.53.46.12,0,.21-.31.25-.5a10.06,10.06,0,0,0,.25-1.36c.93-10-2.4-18.32-10.4-24.58a41.94,41.94,0,0,0-13.14-6.54c-2.25-.73-2.25-.87-.66-2.74l.27-.29a21.88,21.88,0,0,1,16.66-7.6,24,24,0,0,1,5.89.33c.24.05.56.08.61-.26a.71.71,0,0,0-.25-.49,4.2,4.2,0,0,0-.65-.45,31.86,31.86,0,0,0-10.45-4.49,22.15,22.15,0,0,0-16.71,2.54,30.61,30.61,0,0,0-6,4.74c-1.12,1.14-1.17,1.14-2.18-.15a24.67,24.67,0,0,0-3.89-4.16c-7.36-5.94-15.81-7.22-24.88-5.83a4,4,0,0,0-1.88.48c.47.57,1.18.49,1.8.59a28.72,28.72,0,0,1,8.57,2.78A17.57,17.57,0,0,1,283,271c.41.89,1.5,2,.81,2.81-.56.67-1.83-.13-2.77-.32-7.3-1.49-14.17-.58-20.24,3.94a28.63,28.63,0,0,0-10.35,15c-.11.36-.5.84-.12,1.07.55.32.7-.36,1-.67s.5-.61.76-.9a28.69,28.69,0,0,1,14.18-9.11A21.53,21.53,0,0,1,279,283.44Z" transform="translate(-224.94 -87.5)" style="fill:#10475b"/><path d="M327.24,317c-3.36-4.06-7.88-5.44-13-5.37a9.12,9.12,0,0,0-1.55.19c-.25,0-.52.19-.47.52s.23.28.44.31a7,7,0,0,1,1,.14A11.55,11.55,0,0,1,321,318c.32.56.87,1.23.49,1.81s-1.22.19-1.82,0a11.27,11.27,0,0,0-4.87-.19,14.13,14.13,0,0,0-9.59,6.61,11.28,11.28,0,0,0-1.82,3.46c-.06.26-.18.57.09.71s.48-.13.67-.31c.69-.7,1.33-1.45,2.06-2.11a12.13,12.13,0,0,1,11.44-3.17c.65.15,1.69.06,1.79.9.08.64-.87.86-1.39,1.23a16.79,16.79,0,0,0-6.57,17.38c.08.35,0,1,.51.9s.25-.65.31-1c1-5.43,3.49-9.86,8.32-12.76a13.78,13.78,0,0,1,4.12-1.82c1-.22,1.35.14,1.15,1.16-.25,1.29-.58,2.56-.85,3.84-.07.32-.2.86-.08.94,1.61,1,.82,2.58.76,3.82-.41,8.72-.34,17.46-.85,26.18,0,.7-.09,1.41-.13,2.11h6.93c0-.41,0-.82,0-1.23q-.55-14.47-1.11-28.93a3.8,3.8,0,0,1,0-1.75c.84-1.57.3-3,0-4.58-.5-2.47-.18-2.78,2.26-2.44.26,0,.52,0,.78.08a17.13,17.13,0,0,1,13.32,9.89c.11.23.08.65.34.65s.44-.42.48-.74a9.56,9.56,0,0,0,.06-1.18c0-6.12-3-10.42-8.24-13.34a39.91,39.91,0,0,0-4.74-1.91c-.83-.33-1-.84-.4-1.49a13.21,13.21,0,0,1,2.74-2.52,14.15,14.15,0,0,1,8.28-2c.33,0,.87.29,1-.26.06-.3-.39-.49-.66-.64-3.74-2-7.63-2.88-11.74-1.3a13.71,13.71,0,0,0-4.75,3.11C328.45,318,328,317.87,327.24,317Z" transform="translate(-224.94 -87.5)" style="fill:#10475b"/><path d="M483.65,306c.46.27.59-.31.82-.56s.42-.51.64-.76A24.06,24.06,0,0,1,497,297a18.06,18.06,0,0,1,10.71.59c.34.12.85.15.87.62s-.44.59-.76.79a30,30,0,0,0-5,4A24.07,24.07,0,0,0,496,315.81a32.56,32.56,0,0,0,0,11.34,18.75,18.75,0,0,0,.69,2.54c0,.13.22.21.34.31a1.29,1.29,0,0,0,.21-.39c0-.33,0-.66.07-1,.87-7.23,3.56-13.57,9.07-18.55a29.66,29.66,0,0,1,10.78-5.9c1.24-.41,1.49-.15,1.22,1.09-.58,2.63-1.18,5.26-1.77,7.9-.11.47-.48,1.13,0,1.38.61.35.64-.53,1-.81s.46-.86.79-.73c.5.2.08.76.1,1.16s0,.88,0,1.32c-.24,8.7-.62,17.39-1,26.09s-.45,17.47-.9,26.19h10.6c-.28-6.92-.69-13.84-.55-20.78a4.53,4.53,0,0,0-.22-2.28,4.82,4.82,0,0,1-.31-3.22,17.36,17.36,0,0,0,.21-2.62,42.48,42.48,0,0,0-.33-5.43c-.37-3.73-.28-7.48-.32-11.23-.07-.93-.16-1.87-.2-2.8-.09-2.15-.15-4.29-.22-6.44,0-.22-.1-.51.11-.62s.41.25.61.39c0,0,.07.09.11.12.19.19.37.52.66.4s.12-.47.08-.72c-.46-2.71-.92-5.43-1.39-8.14-.24-1.38-.25-1.38,1.15-1.38a26.48,26.48,0,0,1,10.13,2.09,25.08,25.08,0,0,1,12,10,42.37,42.37,0,0,1,2.56,5c.09.19.19.44.45.39.1,0,.17-.26.21-.42a8.47,8.47,0,0,0,.21-1.14c.78-8.43-2-15.36-8.72-20.61a35.17,35.17,0,0,0-11-5.49c-1.89-.61-1.88-.73-.55-2.3l.23-.24a18.35,18.35,0,0,1,14-6.38,20.16,20.16,0,0,1,4.94.28c.2,0,.47.07.51-.22a.6.6,0,0,0-.21-.41,3.53,3.53,0,0,0-.54-.37,26.71,26.71,0,0,0-8.76-3.77,18.58,18.58,0,0,0-14,2.13,25.66,25.66,0,0,0-5,4c-.94,1-1,1-1.83-.13a20.69,20.69,0,0,0-3.26-3.49c-6.17-5-13.26-6.05-20.87-4.89a3.36,3.36,0,0,0-1.58.4c.4.48,1,.41,1.51.49a24.09,24.09,0,0,1,7.19,2.33,14.74,14.74,0,0,1,7,7c.35.75,1.26,1.67.68,2.36s-1.53-.11-2.32-.27c-6.12-1.25-11.88-.48-17,3.31a24,24,0,0,0-8.68,12.55C483.66,305.41,483.33,305.81,483.65,306Z" transform="translate(-224.94 -87.5)" style="fill:url(#linear-gradient-7)"/><path d="M279,283.44c.41.14,1,.18,1,.74s-.53.7-.91.94a35.73,35.73,0,0,0-6,4.76,28.7,28.7,0,0,0-8.09,15.24,38.84,38.84,0,0,0,0,13.53,22.4,22.4,0,0,0,.82,3c0,.15.27.25.41.37a1.53,1.53,0,0,0,.25-.46c.06-.39,0-.79.09-1.18,1-8.62,4.25-16.19,10.81-22.12a35.37,35.37,0,0,1,12.85-7c1.48-.49,1.78-.18,1.45,1.3-.69,3.14-1.41,6.28-2.11,9.42-.13.56-.57,1.34,0,1.65.72.41.76-.63,1.17-1s.55-1,.94-.87c.6.24.1.91.12,1.39s0,1-.05,1.57c-.29,10.37-.74,20.74-1.13,31.11-.4,10.64-.54,21.29-1.11,31.92h12.7c-.34-8.49-.86-17-.68-25.47a5.41,5.41,0,0,0-.27-2.72,5.75,5.75,0,0,1-.37-3.85,20.71,20.71,0,0,0,.25-3.13,50.65,50.65,0,0,0-.4-6.48c-.44-4.45-.33-8.92-.38-13.39-.08-1.11-.19-2.22-.24-3.34-.11-2.56-.18-5.12-.27-7.68,0-.26-.12-.61.13-.74.41-.21.49.3.73.47a1.11,1.11,0,0,1,.13.15c.23.23.44.62.78.47s.14-.56.09-.86c-.55-3.24-1.1-6.47-1.65-9.71-.28-1.64-.29-1.64,1.37-1.65a31.57,31.57,0,0,1,12.07,2.49,29.9,29.9,0,0,1,14.27,11.89,50.49,50.49,0,0,1,3,5.94c.1.23.23.53.53.46.12,0,.21-.31.25-.5a10.06,10.06,0,0,0,.25-1.36c.93-10-2.4-18.32-10.4-24.58a41.94,41.94,0,0,0-13.14-6.54c-2.25-.73-2.25-.87-.66-2.74l.27-.29a21.88,21.88,0,0,1,16.66-7.6,24,24,0,0,1,5.89.33c.24.05.56.08.61-.26a.71.71,0,0,0-.25-.49,4.2,4.2,0,0,0-.65-.45,31.86,31.86,0,0,0-10.45-4.49,22.15,22.15,0,0,0-16.71,2.54,30.61,30.61,0,0,0-6,4.74c-1.12,1.14-1.17,1.14-2.18-.15a24.67,24.67,0,0,0-3.89-4.16c-7.36-5.94-15.81-7.22-24.88-5.83a4,4,0,0,0-1.88.48c.47.57,1.18.49,1.8.59a28.72,28.72,0,0,1,8.57,2.78A17.57,17.57,0,0,1,283,271c.41.89,1.5,2,.81,2.81-.56.67-1.83-.13-2.77-.32-7.3-1.49-14.17-.58-20.24,3.94a28.63,28.63,0,0,0-10.35,15c-.11.36-.5.84-.12,1.07.55.32.7-.36,1-.67s.5-.61.76-.9a28.69,28.69,0,0,1,14.18-9.11A21.53,21.53,0,0,1,279,283.44Z" transform="translate(-224.94 -87.5)" style="fill:url(#linear-gradient-8)"/><path d="M327.24,317c-3.36-4.06-7.88-5.44-13-5.37a9.12,9.12,0,0,0-1.55.19c-.25,0-.52.19-.47.52s.23.28.44.31a7,7,0,0,1,1,.14A11.55,11.55,0,0,1,321,318c.32.56.87,1.23.49,1.81s-1.22.19-1.82,0a11.27,11.27,0,0,0-4.87-.19,14.13,14.13,0,0,0-9.59,6.61,11.28,11.28,0,0,0-1.82,3.46c-.06.26-.18.57.09.71s.48-.13.67-.31c.69-.7,1.33-1.45,2.06-2.11a12.13,12.13,0,0,1,11.44-3.17c.65.15,1.69.06,1.79.9.08.64-.87.86-1.39,1.23a16.79,16.79,0,0,0-6.57,17.38c.08.35,0,1,.51.9s.25-.65.31-1c1-5.43,3.49-9.86,8.32-12.76a13.78,13.78,0,0,1,4.12-1.82c1-.22,1.35.14,1.15,1.16-.25,1.29-.58,2.56-.85,3.84-.07.32-.2.86-.08.94,1.61,1,.82,2.58.76,3.82-.41,8.72-.34,17.46-.85,26.18,0,.7-.09,1.41-.13,2.11h6.93c0-.41,0-.82,0-1.23q-.55-14.47-1.11-28.93a3.8,3.8,0,0,1,0-1.75c.84-1.57.3-3,0-4.58-.5-2.47-.18-2.78,2.26-2.44.26,0,.52,0,.78.08a17.13,17.13,0,0,1,13.32,9.89c.11.23.08.65.34.65s.44-.42.48-.74a9.56,9.56,0,0,0,.06-1.18c0-6.12-3-10.42-8.24-13.34a39.91,39.91,0,0,0-4.74-1.91c-.83-.33-1-.84-.4-1.49a13.21,13.21,0,0,1,2.74-2.52,14.15,14.15,0,0,1,8.28-2c.33,0,.87.29,1-.26.06-.3-.39-.49-.66-.64-3.74-2-7.63-2.88-11.74-1.3a13.71,13.71,0,0,0-4.75,3.11C328.45,318,328,317.87,327.24,317Z" transform="translate(-224.94 -87.5)" style="fill:url(#linear-gradient-9)"/><path d="M489,355.38c0,2.14-27.76,3.88-62,3.88s-62-1.73-62-3.87L422.17,87.5l2.17.17Z" transform="translate(-224.94 -87.5)" style="opacity:0.63;fill:url(#linear-gradient-10)"/><circle cx="203.21" cy="232.37" r="112.5" style="opacity:0.37;fill:url(#radial-gradient-3)"/><path d="M603.42,374.26c-.25-3.26-.91-6.42-3.92-8.42s-5.32-5.63-8.5-7.5c-6-3.55-16.17-5.13-22.2-8.79-3.44-2.09-8.3-4.93-11.44-8.34a19.8,19.8,0,0,0-5.4-.89,2,2,0,0,1-1.83-.91,2.37,2.37,0,0,0-1.58-1.06c-2.06-.39-1.12-1-2.24-2.3a19.51,19.51,0,0,0-4.82-3.66,8.06,8.06,0,0,1-3.25-3.25,31,31,0,0,0-2.28-3.37c-1-1.52-3.12-.27-3.85.9s-1.45,2.31-2.21,3.43a4.16,4.16,0,0,1-3.42,2.19.93.93,0,0,1-1-.58,6,6,0,0,0-2-2.41c-2.44-2.08-4.8-4.28-7.66-5.62a2.93,2.93,0,0,1-1-.68,5.22,5.22,0,0,0-2-1.32,28.7,28.7,0,0,0-3.88-1.43,1.69,1.69,0,0,1-1.06-.61,1.56,1.56,0,0,0-1.37-.66,5.23,5.23,0,0,1-2.4-.81,10.85,10.85,0,0,1-2.9-2.61c-.93-1.08-1.83-2.31-3.35-2.4-.44,0-.57-.47-.72-.84-.24-.58-.57-1-1.2-.71s-.76-.1-.92-.55c-.75-2.22-2.45-3.67-3.55-5.61-.95-.45-1.44-1.51-2.24-2.16a4.22,4.22,0,0,1-1.26-1.84,13.55,13.55,0,0,1-.68-2.76c-.35-2.08-.66-4.18-1-6.26a5.47,5.47,0,0,0-1.25-2.86,3.09,3.09,0,0,1-.92-1.94c-.06-1-.16-2.08-.25-3.11a38.43,38.43,0,0,0-2-10.34c-.64-1.68-1.89-2.82-2.79-4.26a2.48,2.48,0,0,0-2.2-.51c-.47.1-.52.86-.65,1.35-.56,2-.94,4.11-1.38,6.17a60.68,60.68,0,0,1-1.93,6,5.82,5.82,0,0,1-1,1.51c-.33.46-.56.55-.73-.08a6.35,6.35,0,0,0-1.3-2.43,3.41,3.41,0,0,1-.59-1.46l-1.18-5.21a7.57,7.57,0,0,0-1-2.48,9.06,9.06,0,0,1-1-1.8c-.29-.77-.51-.8-1.05-.25s-1.24,1.31-1.83,2c-.42.49-.81.58-1.17,0-.59-1-1.91-.88-2.36-2.08,0-.13-.4-.13-.62-.14a8,8,0,0,0-1.1,0c-.62,0-.95-.28-1.12-.93a12.22,12.22,0,0,0-.58-1.75c-.44-1-.83-1.18-1.78-1a6.24,6.24,0,0,0-2.26,1c-.95.63-1.71.77-2.4-.42a8.18,8.18,0,0,0-1-1.12,9,9,0,0,0-5.63-2.87,2.67,2.67,0,0,1-2.1-1.42,1.63,1.63,0,0,0-2.87-.29,7.85,7.85,0,0,0-1.28,2.6,1.1,1.1,0,0,1-.68.91L434,266a1.34,1.34,0,0,1-.44.54c-1,.75-2.5.83-3.44,1.62s-1.36,2.39-1.61,3.69c0,.86.07,1.73.13,2.58a68.54,68.54,0,0,1,0,11.23,3.09,3.09,0,0,1-.21,1.34c-.62,1.08-1.22,2.19-1.9,3.22a4,4,0,0,1-2.11,1.72c-.75.23-.82.21-.92-.64s-.2-1.9-.3-2.86c-.41-4.22-.81-8.44-1.24-12.66-.21-2.07-.22-4.16-.63-6.2a2,2,0,0,0-2.43-1.82c-.72.15-1.08.55-1.52-.05a3.72,3.72,0,0,0-2.29-1.37,1.88,1.88,0,0,1-1.47-1.26,2,2,0,0,0-2.79-1.16.89.89,0,0,1-1.19-.17,5,5,0,0,0-.63-.5c-.73-.52-.84,0-1.29.79a1.45,1.45,0,0,1-2.25.59c-.38-.25-.75-.52-1.13-.77s-.81-.74-1.29-.58a4.94,4.94,0,0,0-2.3,1c-1.1,1.26-2.14,2.59-3.24,3.86a20.37,20.37,0,0,0-2.43,2.64,1,1,0,0,1-.69.33,2.38,2.38,0,0,0-1.22.77,6.55,6.55,0,0,0-2.32,4.47,5,5,0,0,1-.26,1c-.41,1.42-.86,2.83-1.23,4.27a92.76,92.76,0,0,0-1.78,9.91c-.06.44-.07.94-.48,1.2a5.92,5.92,0,0,0-2.23,3.15c-.34.89-1.37,1.57-2.7,3.55a17,17,0,0,0-3.42,3.59c-.1.15-4,3.51-4.4,3.47a.56.56,0,0,0-.61.43c-1.45,4.59-3.18,3.54-6,4.23a7,7,0,0,1-2.71.46c-1.92-.29-3.09.76-5.1-.39a36.9,36.9,0,0,1-4.2-2.74c-1.74-1.34-5-.59-6,4.35a2.92,2.92,0,0,1-1.07,1.94c-.93.66-1.39,1.6-2.22,3.63a5.29,5.29,0,0,1-2.31,2.58c-1,.61-5.64-1.82-7.5,2.78-.36.89-2.79,1.92-3.45,2.13-2.61.84-2.62,1.93-6.62,4.4-1.23.76-2.41,1.59-3.63,2.36-1.8,1.14-3.66,2.12-5.82,1.89-1-.11-2.62,0-3.33.82a5.64,5.64,0,0,1-3,2q-2.65.6-5.28,1.25c-2.79.68-1.44,2.29-3.78,2.23-7.76-.19-6.69.34-8.12,2.3a3.31,3.31,0,0,0-1.62,2.1c-.41,1-1,1-4.18,1.26l-11.19-.34c-.31.14-.63.29-.94.47-1.32.72-2.61,1.52-3.88,2.34-1.26,1.35-2.6,2.6-3.88,3.73-4,3.5-7.16,4-12.36,4.83-6,1-14,10-14,10a52.64,52.64,0,0,0-6.52,2.7c-1.7,1.22-5.14,2.88-1.8,5.5l94.21-.39,276.16-1C603.52,374.32,603.42,374.32,603.42,374.26Z" transform="translate(-224.94 -87.5)" style="fill:url(#linear-gradient-11)"/></g><g id="Layer_2" data-name="Layer 2"><g id="jT6Rd4"><path d="M451.35,357.6a9,9,0,0,1-4.92-1.25,8,8,0,0,0-3.92-1.21c-2-.12-2.8-1.24-2.44-3.2a7.17,7.17,0,0,0-.12-2.84,2.17,2.17,0,0,1,.65-2.48c.5-.38.47-.94.48-1.48,0-2,0-3.91.06-5.86a39.46,39.46,0,0,1,.52-5.46,4,4,0,0,1,.58-1.89,2.4,2.4,0,0,0,.49-2.39c-.54-1-.36-2.18-.83-3.15a7.19,7.19,0,0,0-1.17-1.46,41.47,41.47,0,0,1-4.06-4.92c-.3-.47-.48-.38-.63.07a5.57,5.57,0,0,0-.31,2.32,38.2,38.2,0,0,1-.07,8.71,13.63,13.63,0,0,1-.68,2.65,73.47,73.47,0,0,0-2.36,7.62,7.88,7.88,0,0,1-2.71,4.39,2.07,2.07,0,0,0-.88,1.44,3.56,3.56,0,0,1-.37,1.18,3.12,3.12,0,0,0,.35,3.51,7.28,7.28,0,0,1,1.41,2.9c.25,1.24-.09,1.77-1.33,2.08a8.7,8.7,0,0,1-1.86.28c-2.32.05-3.49-.72-4.27-2.92a10.77,10.77,0,0,0-.83-1.94,3.5,3.5,0,0,1-.33-2.66,6.41,6.41,0,0,0,.11-2.6,1.28,1.28,0,0,1,.67-1.57,1.33,1.33,0,0,0,.65-1c.67-2.79,1.43-5.55,1.9-8.38a7,7,0,0,1,1.07-2.78c.09-.14.24-.29.24-.43-.06-1.32.71-2.46.8-3.75a5.43,5.43,0,0,0-.82-3.56A18.17,18.17,0,0,1,423,315.15a1.68,1.68,0,0,0-.09-.61,44.5,44.5,0,0,1-1.67-7.28,7.32,7.32,0,0,0-1.1-2.76,6.54,6.54,0,0,1-1.06-4.63,26.19,26.19,0,0,0-.49-7.69c-.07-.41-.16-.82-.21-1.23a15.27,15.27,0,0,0-2.22-6c-3.6-6.12-7.94-11.74-11.89-17.63a6.58,6.58,0,0,0-.82-.94c-.24-.24-.58-.48-.56-.8,0-1-.74-1.51-1.2-2.23-.9-1.43-2.08-2.7-2.6-4.38a20.08,20.08,0,0,0-1.91-3.78,10.2,10.2,0,0,1-1.39-3.57,8.81,8.81,0,0,0-2.3-4.76c-1.29-1.4-1-3.09.57-4.58.7-.66,1.62-1,2.3-1.69.36-.35.79-.08,1.14.17.95.67,1.81,2.86,1.33,3.93a4.89,4.89,0,0,0,.63,4.93,1.29,1.29,0,0,0,1.12.65,1,1,0,0,1,1,.79c1.49,4.33,4.42,7.81,7,11.47a37.11,37.11,0,0,0,2.76,3.07,16.6,16.6,0,0,1,1.9,2.48c.8,1.33,2.19,1.62,3.56,1.84.81.13,1.25-.73,1.92-1.05.06,0,0-.39-.06-.59a5.39,5.39,0,0,0-1.11-2.21c-1.68-2.09-1.6-4.54-1.33-7a2.2,2.2,0,0,1,.83-1.36,12,12,0,0,1,4.21-2.45,2.15,2.15,0,0,1,2.92,1,3.28,3.28,0,0,0,.45.6c1.81,1.55,2.25,3.75,2.8,5.87a4.09,4.09,0,0,1-.19,2.7,6,6,0,0,0-.21,3.42c.1.68.66.92,1.28,1a3,3,0,0,0,1.55-.43,20,20,0,0,0,8.23-7.33,46.86,46.86,0,0,1,5.21-6.56,13.56,13.56,0,0,0,2.08-3.11,4.81,4.81,0,0,1,1.46-1.82,3.25,3.25,0,0,0,.84-3.62,15.6,15.6,0,0,1-.77-2c-.23-.89,0-1.3.92-1.61a2.88,2.88,0,0,1,2.2-.15,2.25,2.25,0,0,1,1.27,1.25,4.73,4.73,0,0,1,0,4.53,26.07,26.07,0,0,0-1.1,2.65,4.55,4.55,0,0,0-.29.82,25.24,25.24,0,0,1-4.53,10.11c-1,1.34-1.71,2.85-2.71,4.2a52.49,52.49,0,0,1-6.55,7.89,3.37,3.37,0,0,0-1.13,3.46c.89,4.32,2,8.59,3.1,12.85a28,28,0,0,1,1.29,7.1,5.75,5.75,0,0,0,.55,2.29,38.21,38.21,0,0,0,5.27,8.76,1.82,1.82,0,0,1,.43.6c1.28,4.18,3.12,8.16,4.45,12.32.87,2.72,1.54,5.54.83,8.33-.88,3.46-1.27,7-2.35,10.44a8.31,8.31,0,0,1-1,2.4c-.47.66-.19,1.38-.09,2,.17,1.11.32,2.22.43,3.33a6.82,6.82,0,0,0,1.36,3.31,2.73,2.73,0,0,0,1.43,1,9.9,9.9,0,0,1,2.58,1.27,1.9,1.9,0,0,1,.91,2.15,1.88,1.88,0,0,1-1.9,1.36C452,357.63,451.68,357.6,451.35,357.6Z" transform="translate(-224.94 -87.5)" style="fill:#c64c34"/></g><path d="M489,355.88c0,2.14-27.76,3.88-62,3.88s-62-1.73-62-3.87L470.5,116H473Z" transform="translate(-224.94 -87.5)" style="opacity:0.59;fill:url(#linear-gradient-12)"/><path d="M365,356.38c0,2.14,27.76,3.88,62,3.88s62-1.73,62-3.87L383.5,116.5H381Z" transform="translate(-224.94 -87.5)" style="opacity:0.39;fill:url(#linear-gradient-13)"/><g id="_3qq53u" data-name="3qq53u"><path d="M407.36,168a.22.22,0,0,1-.22-.15,1.85,1.85,0,0,1-.07-.3c-.14-.73-.28-1.47-.43-2.2-.09-.45-.19-.9-.29-1.36a.09.09,0,0,0-.08-.08c-.61-.12-1.22-.26-1.84-.38l-1.83-.35-.2,0a.23.23,0,0,1-.19-.23.23.23,0,0,1,.19-.23l.61-.12,1.65-.31,1.57-.33a.1.1,0,0,0,.1-.09c.11-.58.23-1.15.35-1.73s.24-1.24.36-1.86c0-.11,0-.22.06-.32a.24.24,0,0,1,.37-.16.24.24,0,0,1,.1.17l.24,1.22c.08.39.15.78.22,1.17,0,.18.05.37.08.56l.11.83a1.35,1.35,0,0,1,0,.14c0,.05,0,.06.07.07l2.38.46,1.53.29a.31.31,0,0,1,.17.07.23.23,0,0,1-.07.38,1.26,1.26,0,0,1-.28.06l-2.69.51-1,.2a.09.09,0,0,0-.08.08c0,.25-.08.5-.11.75-.06.42-.13.83-.21,1.24l-.31,1.63c0,.06,0,.12,0,.18A.24.24,0,0,1,407.36,168Z" transform="translate(-224.94 -87.5)" style="fill:#3691ba"/></g><g id="_3qq53u-2" data-name="3qq53u"><path d="M439,179.62a.18.18,0,0,1-.18-.12,1.49,1.49,0,0,1-.05-.24c-.11-.59-.23-1.18-.34-1.77-.07-.37-.16-.73-.23-1.09a.07.07,0,0,0-.07-.06l-1.48-.3-1.47-.28-.16,0a.18.18,0,0,1-.15-.18.19.19,0,0,1,.16-.19l.49-.09,1.33-.25,1.27-.26a.08.08,0,0,0,.08-.07l.28-1.39.29-1.5c0-.09,0-.17.05-.26a.19.19,0,0,1,.3-.13.2.2,0,0,1,.08.13l.19,1c.06.31.12.63.18.94,0,.15,0,.3.06.45l.09.66a1.09,1.09,0,0,1,0,.11s0,.05.06.06l1.92.37,1.23.23a.25.25,0,0,1,.13.06.19.19,0,0,1-.05.31,1,1,0,0,1-.22.05l-2.17.41-.83.16a.07.07,0,0,0-.07.07c0,.2-.06.4-.09.6s-.1.67-.17,1l-.25,1.31s0,.1,0,.15A.19.19,0,0,1,439,179.62Z" transform="translate(-224.94 -87.5)" style="fill:#3691ba"/></g><g id="_3qq53u-3" data-name="3qq53u"><path d="M420.71,182.52a.11.11,0,0,1-.11-.07.9.9,0,0,1,0-.14c-.07-.36-.14-.71-.21-1.07s-.09-.44-.14-.66a0,0,0,0,0,0,0l-.9-.18-.89-.17-.1,0a.11.11,0,0,1-.09-.11.11.11,0,0,1,.09-.11l.3-.06.81-.15.77-.16a0,0,0,0,0,0,0l.17-.84.18-.91,0-.16a.12.12,0,0,1,.18-.08.12.12,0,0,1,.05.08l.12.6.11.57c0,.09,0,.18,0,.27l.05.4a.66.66,0,0,1,0,.07s0,0,0,0l1.16.22.75.14a.15.15,0,0,1,.08,0,.11.11,0,0,1,0,.19l-.14,0-1.31.25-.5.1a0,0,0,0,0,0,0c0,.12,0,.24-.05.37s-.06.41-.1.61l-.15.79,0,.09A.11.11,0,0,1,420.71,182.52Z" transform="translate(-224.94 -87.5)" style="fill:#3691ba"/></g><g id="_3qq53u-4" data-name="3qq53u"><path d="M412,142.17a.09.09,0,0,1-.09-.06.77.77,0,0,1,0-.12l-.18-.91c0-.19-.08-.38-.12-.56a0,0,0,0,0,0,0l-.76-.16-.76-.14-.08,0a.09.09,0,0,1-.08-.09.1.1,0,0,1,.08-.1l.25,0,.69-.13.65-.14a0,0,0,0,0,0,0l.14-.72.15-.77,0-.13a.1.1,0,0,1,.15-.07.1.1,0,0,1,0,.07l.1.51.09.49c0,.08,0,.15,0,.23l0,.34a.56.56,0,0,1,0,.06s0,0,0,0l1,.19.63.12a.13.13,0,0,1,.07,0,.1.1,0,0,1,0,.16l-.12,0-1.12.21-.43.08a0,0,0,0,0,0,0l0,.31c0,.17-.05.34-.09.52l-.13.67,0,.08A.1.1,0,0,1,412,142.17Z" transform="translate(-224.94 -87.5)" style="fill:#3691ba"/></g><g id="_3qq53u-5" data-name="3qq53u"><path d="M425.92,131.33a.11.11,0,0,1-.11-.07.9.9,0,0,1,0-.14c-.07-.36-.14-.71-.21-1.07s-.09-.44-.14-.66a0,0,0,0,0,0,0l-.9-.18-.89-.17-.1,0a.11.11,0,0,1-.09-.11.11.11,0,0,1,.09-.11l.3-.06.81-.15.77-.16a0,0,0,0,0,0,0l.17-.84.18-.91,0-.16a.12.12,0,0,1,.18-.08.12.12,0,0,1,.05.08l.12.6.11.57c0,.09,0,.18,0,.27l.05.4a.66.66,0,0,1,0,.07s0,0,0,0l1.16.22.75.14a.15.15,0,0,1,.08,0,.11.11,0,0,1,0,.19l-.14,0-1.31.25-.5.1a0,0,0,0,0,0,0c0,.12,0,.24-.05.37s-.06.41-.1.61l-.15.79,0,.09A.11.11,0,0,1,425.92,131.33Z" transform="translate(-224.94 -87.5)" style="fill:#3691ba"/></g><g id="_3qq53u-6" data-name="3qq53u"><path d="M390.52,208.85a.09.09,0,0,1-.09-.06.77.77,0,0,1,0-.12l-.18-.91c0-.19-.08-.38-.12-.56a0,0,0,0,0,0,0l-.76-.16-.76-.14-.08,0a.09.09,0,0,1-.08-.09.1.1,0,0,1,.08-.1l.25,0,.69-.13.65-.14a0,0,0,0,0,0,0l.14-.72.15-.77,0-.13a.1.1,0,0,1,.15-.07.1.1,0,0,1,0,.07l.1.51.09.49c0,.08,0,.15,0,.23l0,.34a.56.56,0,0,1,0,.06s0,0,0,0l1,.19.63.12a.13.13,0,0,1,.07,0,.1.1,0,0,1,0,.16l-.12,0-1.12.21-.43.08a0,0,0,0,0,0,0l0,.31c0,.17-.05.34-.09.52l-.13.67,0,.08A.1.1,0,0,1,390.52,208.85Z" transform="translate(-224.94 -87.5)" style="fill:#3691ba"/></g><g id="_3qq53u-7" data-name="3qq53u"><path d="M453.74,226.4a.22.22,0,0,1-.22-.15,1.85,1.85,0,0,1-.07-.3c-.14-.73-.28-1.47-.43-2.2-.09-.45-.19-.9-.29-1.36a.09.09,0,0,0-.08-.08c-.61-.12-1.22-.26-1.84-.38L449,221.6l-.2,0a.23.23,0,0,1-.19-.23.23.23,0,0,1,.19-.23l.61-.12,1.65-.31,1.57-.33a.1.1,0,0,0,.1-.09c.11-.58.23-1.15.35-1.73s.24-1.24.36-1.86c0-.11,0-.22.06-.32a.24.24,0,0,1,.37-.16.24.24,0,0,1,.1.17l.24,1.22c.08.39.15.78.22,1.17,0,.18.05.37.08.56l.11.83a1.35,1.35,0,0,1,0,.14c0,.05,0,.06.07.07l2.38.46,1.53.29a.31.31,0,0,1,.17.07.23.23,0,0,1-.07.38,1.26,1.26,0,0,1-.28.06l-2.69.51-1,.2a.09.09,0,0,0-.08.08c0,.25-.08.5-.11.75-.06.42-.13.83-.21,1.24L454,226c0,.06,0,.12,0,.18A.24.24,0,0,1,453.74,226.4Z" transform="translate(-224.94 -87.5)" style="fill:#3691ba"/></g><g id="_3qq53u-8" data-name="3qq53u"><path d="M430.37,159a.16.16,0,0,1-.16-.11,1.36,1.36,0,0,1,0-.22c-.1-.54-.2-1.07-.31-1.61-.07-.33-.14-.66-.21-1a.07.07,0,0,0-.06-.06l-1.35-.28-1.34-.25-.14,0a.17.17,0,0,1-.14-.17.17.17,0,0,1,.14-.17l.45-.09,1.21-.23,1.15-.24a.07.07,0,0,0,.07-.07l.25-1.27.26-1.36c0-.08,0-.16,0-.24a.17.17,0,0,1,.27-.12.18.18,0,0,1,.08.12l.17.89c.06.29.11.57.16.86,0,.14,0,.27.06.41l.08.6a1,1,0,0,1,0,.1s0,0,.05.05l1.74.34,1.12.21a.23.23,0,0,1,.12.05.17.17,0,0,1,0,.28.92.92,0,0,1-.2,0l-2,.38-.76.15a.06.06,0,0,0-.06.06c0,.18-.06.37-.08.55s-.09.61-.15.91l-.23,1.19s0,.09,0,.13A.17.17,0,0,1,430.37,159Z" transform="translate(-224.94 -87.5)" style="fill:#3691ba"/></g><g id="_3qq53u-9" data-name="3qq53u"><path d="M397.87,226.29a.18.18,0,0,1-.18-.12,1.49,1.49,0,0,1-.05-.24c-.11-.59-.23-1.18-.34-1.77-.07-.37-.16-.73-.23-1.09A.07.07,0,0,0,397,223l-1.48-.3-1.47-.28-.16,0a.18.18,0,0,1-.15-.18.19.19,0,0,1,.16-.19l.49-.09,1.33-.25,1.27-.26a.08.08,0,0,0,.08-.07l.28-1.39.29-1.5c0-.09,0-.17.05-.26a.19.19,0,0,1,.3-.13.2.2,0,0,1,.08.13l.19,1c.06.31.12.63.18.94,0,.15,0,.3.06.45l.09.66a1.09,1.09,0,0,1,0,.11s0,.05.06.06l1.92.37,1.23.23a.25.25,0,0,1,.13.06.19.19,0,0,1-.05.31,1,1,0,0,1-.22.05l-2.17.41-.83.16a.07.07,0,0,0-.07.07c0,.2-.06.4-.09.6s-.1.67-.17,1l-.25,1.31s0,.1,0,.15A.19.19,0,0,1,397.87,226.29Z" transform="translate(-224.94 -87.5)" style="fill:#3691ba"/></g><g id="_3qq53u-10" data-name="3qq53u"><path d="M447.29,158.07a.11.11,0,0,1-.11-.07.9.9,0,0,1,0-.14c-.07-.36-.14-.71-.21-1.07s-.09-.44-.14-.66a0,0,0,0,0,0,0l-.9-.18-.89-.17-.1,0a.11.11,0,0,1-.09-.11.11.11,0,0,1,.09-.11l.3-.06.81-.15.77-.16a0,0,0,0,0,0,0l.17-.84.18-.91,0-.16a.12.12,0,0,1,.18-.08.12.12,0,0,1,.05.08l.12.6.11.57c0,.09,0,.18,0,.27l.05.4a.66.66,0,0,1,0,.07s0,0,0,0l1.16.22.75.14a.15.15,0,0,1,.08,0,.11.11,0,0,1,0,.19l-.14,0-1.31.25-.5.1a0,0,0,0,0,0,0c0,.12,0,.24-.05.37s-.06.41-.1.61l-.15.79,0,.09A.11.11,0,0,1,447.29,158.07Z" transform="translate(-224.94 -87.5)" style="fill:#3691ba"/></g><g id="_3qq53u-11" data-name="3qq53u"><path d="M409.52,188.19a.09.09,0,0,1-.09-.06.77.77,0,0,1,0-.12l-.18-.91c0-.19-.08-.38-.12-.56a0,0,0,0,0,0,0l-.76-.16-.76-.14-.08,0a.09.09,0,0,1-.08-.09.1.1,0,0,1,.08-.1l.25,0,.69-.13.65-.14a0,0,0,0,0,0,0l.14-.72.15-.77,0-.13a.1.1,0,0,1,.15-.07.1.1,0,0,1,0,.07l.1.51.09.49c0,.08,0,.15,0,.23l0,.34a.56.56,0,0,1,0,.06s0,0,0,0l1,.19.63.12a.13.13,0,0,1,.07,0,.1.1,0,0,1,0,.16l-.12,0-1.12.21-.43.08a0,0,0,0,0,0,0l0,.31c0,.17-.05.34-.09.52l-.13.67,0,.08A.1.1,0,0,1,409.52,188.19Z" transform="translate(-224.94 -87.5)" style="fill:#3691ba"/></g><g id="_3qq53u-12" data-name="3qq53u"><path d="M438,197.28a.09.09,0,0,1-.09-.06.77.77,0,0,1,0-.12l-.18-.91c0-.19-.08-.38-.12-.56a0,0,0,0,0,0,0l-.76-.16-.76-.14-.08,0a.09.09,0,0,1-.08-.09.1.1,0,0,1,.08-.1l.25,0,.69-.13.65-.14a0,0,0,0,0,0,0l.14-.72.15-.77,0-.13a.1.1,0,0,1,.15-.07.1.1,0,0,1,0,.07l.1.51.09.49c0,.08,0,.15,0,.23l0,.34a.56.56,0,0,1,0,.06s0,0,0,0l1,.19.63.12a.13.13,0,0,1,.07,0,.1.1,0,0,1,0,.16l-.12,0-1.12.21-.43.08a0,0,0,0,0,0,0l0,.31c0,.17-.05.34-.09.52l-.13.67,0,.08A.1.1,0,0,1,438,197.28Z" transform="translate(-224.94 -87.5)" style="fill:#3691ba"/></g><g id="_3qq53u-13" data-name="3qq53u"><path d="M414.65,117.19a.09.09,0,0,1-.09-.06.77.77,0,0,1,0-.12l-.18-.91c0-.19-.08-.38-.12-.56a0,0,0,0,0,0,0l-.76-.16-.76-.14-.08,0a.09.09,0,0,1-.08-.09.1.1,0,0,1,.08-.1l.25,0,.69-.13.65-.14a0,0,0,0,0,0,0l.14-.72.15-.77,0-.13a.1.1,0,0,1,.15-.07.1.1,0,0,1,0,.07l.1.51.09.49c0,.08,0,.15,0,.23l0,.34a.56.56,0,0,1,0,.06s0,0,0,0l1,.19.63.12a.13.13,0,0,1,.07,0,.1.1,0,0,1,0,.16l-.12,0-1.12.21-.43.08a0,0,0,0,0,0,0l0,.31c0,.17-.05.34-.09.52l-.13.67,0,.08A.1.1,0,0,1,414.65,117.19Z" transform="translate(-224.94 -87.5)" style="fill:#3691ba"/></g><g id="_3qq53u-14" data-name="3qq53u"><path d="M455.32,181a.09.09,0,0,1-.09-.06.77.77,0,0,1,0-.12l-.18-.91c0-.19-.08-.38-.12-.56a0,0,0,0,0,0,0l-.76-.16-.76-.14-.08,0a.09.09,0,0,1-.08-.09.1.1,0,0,1,.08-.1l.25,0,.69-.13.65-.14a0,0,0,0,0,0,0l.14-.72.15-.77,0-.13a.1.1,0,0,1,.15-.07.1.1,0,0,1,0,.07l.1.51.09.49c0,.08,0,.15,0,.23l0,.34a.56.56,0,0,1,0,.06s0,0,0,0l1,.19.63.12a.13.13,0,0,1,.07,0,.1.1,0,0,1,0,.16l-.12,0-1.12.21-.43.08a0,0,0,0,0,0,0l0,.31c0,.17-.05.34-.09.52l-.13.67,0,.08A.1.1,0,0,1,455.32,181Z" transform="translate(-224.94 -87.5)" style="fill:#3691ba"/></g><g id="_3qq53u-15" data-name="3qq53u"><path d="M433.35,110.6a.09.09,0,0,1-.09-.06.77.77,0,0,1,0-.12l-.18-.91c0-.19-.08-.38-.12-.56a0,0,0,0,0,0,0l-.76-.16-.76-.14-.08,0a.09.09,0,0,1-.08-.09.1.1,0,0,1,.08-.1l.25,0,.69-.13.65-.14a0,0,0,0,0,0,0l.14-.72.15-.77,0-.13a.1.1,0,0,1,.15-.07.1.1,0,0,1,0,.07l.1.51.09.49c0,.08,0,.15,0,.23l0,.34a.56.56,0,0,1,0,.06s0,0,0,0l1,.19.63.12a.13.13,0,0,1,.07,0,.1.1,0,0,1,0,.16l-.12,0-1.12.21-.43.08a0,0,0,0,0,0,0l0,.31c0,.17-.05.34-.09.52l-.13.67,0,.08A.1.1,0,0,1,433.35,110.6Z" transform="translate(-224.94 -87.5)" style="fill:#3691ba"/></g><g id="MJhrb9"><path d="M301.34,218l.84.11c.78.1,1.21.41,1.33,1a4.26,4.26,0,0,1,0,1.35c0,.16,0,.3.21.3a8.67,8.67,0,0,1,2.78.56c.77.28,1.76.21,2.12,1.26a4.18,4.18,0,0,0,.73,1,11,11,0,0,1,1.08,1.42c2,3.73-2.59,3.62-6.78,3.57-.16,0-.42-.1-.48.1a1.2,1.2,0,0,0,.09.74c.13.36.5.71.2,1.11a.49.49,0,0,0-.06.59,1.12,1.12,0,0,1-.62,1.5,1.16,1.16,0,0,1-1.5-.6c-.24-.6,0-1.42.61-1.49s.67-.49.66-1a.58.58,0,0,1,0-.12c0-.14,0-.2-.17-.24l-2-.56-6.42.12c-1.58-.05-3.16,0-4.75,0-.23,0-.37,0-.24.3a1.62,1.62,0,0,1-1.57,2.19.44.44,0,0,0-.52.35,1.54,1.54,0,0,1-2,.82c-.66-.25-1.2-1.16-.93-1.73a.86.86,0,0,0-.35-1.26,3.61,3.61,0,0,1-.32-.3c-.26-.23-.5-.54-.92-.42a2.59,2.59,0,0,1-1-.09,8.74,8.74,0,0,1-6.57-3.85c-.2-.29-.62-.42-.64-.74a10,10,0,0,0-.44-1.38c-.07-.3-.25-.36-.5-.37-.89,0-1.79-.07-2.68-.13-2.14-.15-11.87-.57-13.7-.78l-7.29-.43a2.37,2.37,0,0,1-2.18-1.34c-.54-1.06-1.12-2.11-1.65-3.18-.26-.53-.49-1-1.21-.93-.36,0-.42.24-.57.4s-.09.32.06.47.11.36,0,.53l-.65.91c-.68,1-1.36,1.94-2.06,2.89-.31.42-.58.06-.84-.12a.4.4,0,0,1-.1-.66c.76-1,1.5-2,2.24-3a10.75,10.75,0,0,1,1.26-1.5,1,1,0,0,0,.14-.25s-.06,0-.09,0c-.52.09-.4-.39-.51-.62s.14-.38.35-.49.37.1.24-.2-.11-.54-.48-.38-.37-.07-.45-.24c-.65-1.4-1.29-2.81-1.94-4.21-.2-.43.09-.57.41-.71s.56-.19.72.2c.43,1,.82,2.06,1.31,3,.39.8.42,1.82,1.41,2.28.3.14.45.55.71.8s.45.24.54-.1.27-.35.53-.33l4.57.42c.49,0,.41.42.38.74s-.09.54-.49.49l-4.49-.54a1.28,1.28,0,0,0-.23,0,1,1,0,0,0,.13.18c1,.89,1.92,1.76,2.86,2.66a2.63,2.63,0,0,0,2.32.84,7,7,0,0,1,1.53-.13,13.46,13.46,0,0,0,1.64.07c2.85-.06,5.69-.16,8.53-.23l9.79-.23,9.86-.17a.49.49,0,0,0,.38-.11,6.12,6.12,0,0,1,4.2-1.69.58.58,0,0,0,.35-.12,1.42,1.42,0,0,1,1.47-.13.87.87,0,0,0,.29,0c.1,0,.23,0,.3-.06s0-.11,0-.15-.21-.05-.32,0c-.34.12-.51,0-.52-.36,0-.2,0-.39,0-.59s-.11-.15-.21-.14-.09,0-.09,0c0,.25,0,.25-.33.25-3,0-6.06-.24-9.08-.49a11.79,11.79,0,0,1-2.49-.4c-.13,0-.33-.08-.3-.22s.23-.09.35-.07a23.42,23.42,0,0,0,2.58.24c1,.09,2.06.11,3.09.13,1.45,0,2.91,0,4.36.05a.64.64,0,0,0,.14,0c0-.09-.09,0-.14-.05a23.68,23.68,0,0,0-2.35-.32c-.5,0-1-.46-1.52.07,0,0-.06,0-.09,0l-1.16-.19-4.86-.79c-1-.16-2-.29-3-.44l-5.07-.8c-1-.16-2.07-.29-3.11-.44-1.32-.2-2.65-.42-4-.61-1.12-.16-2.26-.27-3.38-.45-1.72-.27-3.45-.47-5.18-.66a1.21,1.21,0,0,1-.88-.43c-.06-.08-.21-.13-.13-.26s.22-.11.35-.09l4.17.55c1.54.21,3.09.4,4.63.62,1.75.25,3.5.53,5.26.79l4.33.62,5.26.8c1.09.16,2.17.29,3.26.45l4.36.61c.88.12,1.77.25,2.65.32.44,0,1,.36,1.32-.25h0a1,1,0,0,1-.71-.22l-5-4c-.79-.63-1.59-1.24-2.37-1.87-.14-.11-.4-.22-.23-.46a2.1,2.1,0,0,1,1.7-.15l.88.69,7.7,6c.07.06.12.12.22,0,.39-.37.76-.39,1.07,0s.59.36,1,.27.8-.3,1.12,0a.78.78,0,0,0,.64.24c1.77-.13,3.54-.22,5.31-.43,1.42-.17,2.85-.27,4.27-.42,1.9-.21,3.8-.44,5.69-.66l5.05-.58,4.11-.5c.77-.1,1.53-.24,2.3-.3a17.64,17.64,0,0,1,2.31-.23c.13,0,.25,0,.27.18s-.14.16-.25.17c-1.33.17-2.66.35-4,.5l-4.76.53c-1.63.18-3.25.37-4.88.53s-3.25.35-4.88.53L300,214c-1.69.18-3.38.4-5.07.62l-.16,0,.16,0c1,.08,2.06.08,3.09.14,2.08.12,4.16.16,6.24.22l4.45.1,9,.25,2.94.06c.14,0,.31.07.3.22s-.2.11-.31.11l-4.44-.11-6.42-.14c-4-.11-8-.17-11.94-.37-1.69-.09-3.4,0-5.1,0-.28,0-.42,0-.45.37s-.06.85-.68.65c-.1,0-.06,0-.07.07,0,.23.05.31.29.3a38.64,38.64,0,0,1,4.44.16c.55,0,.77.28.82.84,0,.34.16.57.57.54.7,0,1.39,0,2.09-.05h1.62Zm-10.08-4.19h0l-.06-.12Zm-7.46,15.09c-.08.21.18.26.29.39.29.36.6.5,1,.19.11-.08.32,0,.49-.06s.16,0,.2-.09a.15.15,0,0,0-.12-.2,5.37,5.37,0,0,1-1.36-.47C284.1,228.65,283.88,228.68,283.81,228.88Zm8.07-13.16c.11,0,.14-.26.17-.4s-.11-.24-.19-.19-.44,0-.47.29S291.72,215.67,291.88,215.73Zm10,12.91a1.51,1.51,0,0,0,.62.24c.09,0,.21,0,.17-.13s-.31-.13-.47-.17S302,228.53,301.87,228.64Zm-13-14.92c.11.07.21.19.37.12l-.25-.27c-.14-.17-.33-.1-.56-.11Zm-.15.19a1.6,1.6,0,0,0-.39-.22c-.09,0-.22,0-.19.12s.26.12.4.14S288.71,213.92,288.7,213.91Zm4,.16a3.41,3.41,0,0,0,.41.07.26.26,0,0,0,.16-.09c0-.14-.16,0-.24-.07S292.78,214,292.69,214.08Zm-2.79,1.32,0,0,.36-.17,0,0A.37.37,0,0,0,289.9,215.39Zm13.28,14.86s-.05-.06-.08-.1a2.18,2.18,0,0,0-.09.21s0,.06,0,.14A1.62,1.62,0,0,0,303.18,230.25ZM286,228.82s0-.06.06-.09-.06,0-.09,0a.78.78,0,0,0-.18,0C285.9,228.79,285.93,228.83,286,228.82Zm5.2-13.6a.23.23,0,0,0,0,.07.26.26,0,0,0,0-.07.3.3,0,0,0,0-.09S291.15,215.2,291.15,215.22Zm10,13.41,0,0,0,0,0,0Zm-10.61-14.8v0h0v0Zm-1,1.23h0v0h0Zm-6.12,13.62h0Z" transform="translate(-224.94 -87.5)" style="fill:#3691ba"/><path d="M301.34,218h0Z" transform="translate(-224.94 -87.5)" style="fill:#448799"/></g></g></svg>