<?xml version="1.0" encoding="utf-8"?>
<!-- Generator: Adobe Illustrator 21.1.0, SVG Export Plug-In . SVG Version: 6.00 Build 0)  -->
<svg version="1.1" id="Layer_1" xmlns="http://www.w3.org/2000/svg" xmlns:xlink="http://www.w3.org/1999/xlink" x="0px" y="0px"
	 viewBox="0 0 241 194" style="enable-background:new 0 0 241 194;" xml:space="preserve">
<style type="text/css">
	.st0{fill:none;enable-background:new    ;}
	.st1{fill:#c9c2b0;}
	.st2{fill:#c9c2b0;}

</style>
<path class="st0" d="z"/>
<g>
	<path class="st1" d="M1,55c1.5-1.5,3.2-2.9,4.5-4.6c8.2-10.9,22-9.3,31.5-4.4c5.6,2.9,10.6,6.9,15.9,10.4
		c-3.8,6.7-9.7,4.9-15.1,3.9c-5.5-1-10.8-2.9-16.3-3.8c8.3,3.6,16.5,9,25.9,7.3c3.9-0.7,9.2-2.4,9.5-8.6c0.1-1.7,2.2-1.8,3.4-2.5
		c5.5-2.9,6.4-5,4-10.5c-0.6-1.4,0.3-1.8,0.9-2.4c1.8-1.7,3.7-3.4,5.6-4.9c2.3-1.8,3.7-3.3,0.2-5.3c-1.9-1.1-1.4-2.2,0-3.5
		c2.7-2.4,5.3-5,8.1-7.6c-5.3-4.3-10.2-8.4-15.4-12.7c12.3-2.2,27.5,2.3,35.1,12c6.4,8.2,13.8,13,24.1,13.4c3.7,0.1,4.7,1.8,4,5.7
		c-3.1,15.1-5.9,30.4-8.6,45.6c-0.5,3-1.6,4.1-4.5,3.1c-0.9-0.3-2-0.2-3-0.5c-9.7-3-17.9,0.1-25.9,5.8c-9.9,7.1-20.8,12.5-31.5,18.1
		c-2.3,1.2-3.9,2.8-5.1,5.1c-3.4,6.5-6.9,12.9-10.4,19.3c-0.6,1.1-1.9,2-1.1,3.6c-1,0-2,0-3,0c-2-1.6-4.7-1.4-7-2.3
		c-1.1-0.4-2.9-0.1-3.1-2c-0.5-5.1-2-9.9-0.7-15.2c2.7-11,9.6-19.6,15.2-29c2.1-3.5,2.5-5.2-2.4-5.6C25.6,82.1,16,79,7.8,71.9
		C5.8,70.3,3.8,68.3,1,68C1,63.7,1,59.3,1,55z"/>
	<path class="st1" d="M160,70c-3.5,6.4-3.4,13.6-4.7,20.5c-0.6,3.3-1.2,4.5-4.9,3.7c-9.1-1.8-18.3-3.3-27.5-4.7
		c-2.9-0.4-3.4-1.6-2.8-4.2c4-17,7.5-34,10.1-51.2c0.5-3.1,1.5-4.5,5-4c8.2,1.2,16.5,2,24.7,2.9c0,0.3,0,0.7,0,1c-1.5,5-2.6,10,0,15
		c0,3.7,0,7.3,0,11c-1.3,1-1.3,2,0,3C160,65.3,160,67.7,160,70z"/>
	<path class="st2" d="M52,1c7,4.1,13.5,8.9,19.5,14.2c1.1,0.9,3.9,1.9,2.3,3.5c-2.1,2.1-4.1,6.9-7.7,4.8c-9.2-5.4-19-8.3-29.4-9.9
		c-1.4-0.2-2.7-0.8-2-2.6c0.8-2.3-0.9-5.5,2.6-6.9c2.6-1,5.5-1.3,7.7-3.1C47.3,1,49.7,1,52,1z"/>

	<path class="st2" d="M160,63c-1.3-1-1.3-2,0-3C160,61,160,62,160,63z"/>
	<path class="st2" d="M7.9,37.7c-0.1-5.7,5.7-9.5,12.7-9.5c15.2,0,27.9,6.4,40,14.6c1.6,1.1,1.9,1.7,0.8,3.4c-3,4.6-6.8,5.7-11.8,3
		c-2.6-1.4-5.3-2.8-7.9-4.3c-9.1-5.3-18.7-7.7-29-3.7C8.6,43,8.6,39.9,7.9,37.7z"/>
	<path class="st2" d="M69.7,32.4c-7.7,6.8-8,7.3-16.3,2.1c-9.3-5.9-19.5-7.2-29.9-8.4c-1.4-0.2-4.1,0.8-3.6-1.9
		c0.5-2.6-0.6-6.3,3.4-7.4c2.9-0.7,5.9-1.3,8.9-0.9C46,18.1,58.9,22.4,69.7,32.4z"/>
</g>
<path class="st0" d="z"/>
<g>
	<path class="st1" d="M235.1,132.7c-1.3,1.7-2.8,3.3-3.9,5.2c-6.8,11.9-20.6,12-30.7,8.4c-5.9-2.1-11.4-5.5-17.1-8.3
		c2.9-7.1,9-6.1,14.5-5.8c5.6,0.3,11.1,1.5,16.7,1.7c-8.7-2.5-17.5-6.8-26.6-3.9c-3.8,1.2-8.9,3.6-8.4,9.7c0.1,1.7-1.9,2.1-3.1,2.9
		c-5.1,3.6-5.7,5.8-2.6,10.9c0.8,1.3-0.1,1.8-0.6,2.5c-1.6,1.9-3.2,3.9-4.9,5.6c-2.1,2.1-3.3,3.8,0.5,5.3c2,0.8,1.6,2,0.4,3.4
		c-2.4,2.8-4.6,5.6-7.1,8.6c5.8,3.6,11.2,7.1,16.9,10.6c-12,3.8-27.6,1.2-36.3-7.4c-7.4-7.3-15.3-11.1-25.6-10.2
		c-3.7,0.3-4.9-1.1-4.6-5.1c1.1-15.4,1.9-30.9,2.7-46.3c0.1-3,1-4.2,4.1-3.6c1,0.2,2-0.1,3,0.1c10.1,1.7,17.7-2.3,24.9-9.1
		c8.9-8.3,19-15.1,29-22c2.2-1.5,3.5-3.3,4.4-5.7c2.5-6.9,5.2-13.7,7.8-20.5c0.4-1.1,1.6-2.3,0.6-3.7c1-0.1,2-0.3,3-0.4
		c2.2,1.3,4.8,0.8,7.2,1.4c1.2,0.3,2.9-0.3,3.3,1.6c1.2,4.9,3.3,9.6,2.7,15c-1.2,11.3-7,20.7-11.4,30.7c-1.6,3.7-1.8,5.5,3.1,5.2
		c10.5-0.6,20.4,1.3,29.4,7.3c2.1,1.4,4.4,3.1,7.2,3C234,124.1,234.6,128.4,235.1,132.7z"/>
	<path class="st1" d="M75.5,138.2c2.7-6.8,1.7-13.9,2.1-20.9c0.2-3.4,0.6-4.6,4.3-4.3c9.3,0.6,18.6,0.9,27.8,1.1
		c2.9,0.1,3.6,1.1,3.3,3.8c-1.7,17.3-3.1,34.7-3.5,52.1c-0.1,3.2-0.9,4.6-4.5,4.6c-8.3-0.1-16.6,0.1-24.9,0.2c0-0.3-0.1-0.7-0.1-1
		c0.9-5.2,1.3-10.2-1.9-14.9c-0.5-3.6-0.9-7.3-1.4-10.9c1.2-1.2,1.1-2.2-0.4-3C76.1,142.8,75.8,140.5,75.5,138.2z"/>
	<path class="st2" d="M191.5,192.8c-7.5-3.2-14.5-7.1-21.2-11.6c-1.2-0.8-4.2-1.4-2.7-3.2c1.9-2.3,3.2-7.3,7-5.7
		c9.8,4.2,20,5.8,30.5,6c1.4,0,2.8,0.5,2.3,2.4c-0.5,2.4,1.6,5.4-1.7,7.1c-2.5,1.3-5.2,2-7.3,4.1
		C196.1,192.2,193.8,192.5,191.5,192.8z"/>

	<path class="st2" d="M76.4,145.1c1.4,0.8,1.6,1.8,0.4,3C76.7,147.1,76.5,146.1,76.4,145.1z"/>
	<path class="st2" d="M230.5,150.7c0.8,5.6-4.4,10.2-11.4,11.1c-15,1.9-28.4-2.8-41.5-9.4c-1.7-0.8-2.1-1.4-1.2-3.3
		c2.4-5,6-6.5,11.3-4.5c2.8,1.1,5.6,2.1,8.4,3.2c9.7,4.1,19.5,5.2,29.2,0C229.2,145.6,229.5,148.7,230.5,150.7z"/>
	<path class="st2" d="M169.9,163.9c6.8-7.7,7-8.2,15.9-4.1c9.9,4.6,20.2,4.6,30.7,4.5c1.4,0,4-1.3,3.8,1.4c-0.1,2.7,1.4,6.2-2.4,7.7
		c-2.8,1.1-5.7,2.1-8.7,2C195.2,175.1,181.9,172.5,169.9,163.9z"/>
</g>
</svg>
