<svg id="Layer_1" data-name="Layer 1" xmlns="http://www.w3.org/2000/svg" viewBox="0 0 226 189"><title>gray_entrance</title><polyline points="226 0 222 17 2 34 0 17 153 0" style="fill:#c9c2b0"/><polygon points="14 38 202 21 203 81 180 85 174 90 159 61 119 39 73 62 45 101 31 98 18 102 14 38" style="fill:#c9c2b0"/><polygon points="175 93 160 187 171 184 182 90 175 93" style="fill:#c9c2b0"/><polygon points="183 90 182 122 175 187 188 183 195 88 183 90" style="fill:#c9c2b0"/><polygon points="196 88 192 187 209 189 203 88 196 88" style="fill:#c9c2b0"/><polygon points="43 103 49 184 36 182 33 104 43 103" style="fill:#c9c2b0"/><polygon points="20 108 17 112 17 181 33 186 32 132 32 105 20 108" style="fill:#c9c2b0"/><polygon points="51 161 53 184 157 186 160 157 51 160 51 161" style="fill:#c9c2b0"/><polygon points="73 56 113 39 73 53 73 56" style="fill:none"/></svg>