<svg id="Layer_2" data-name="Layer 2" xmlns="http://www.w3.org/2000/svg" viewBox="0 0 247.67 251.58"><title>Hell_of_show_icon</title><path d="M491.78,199.68l-24.17-20.33-12.92-3.67-26.83-3.83-2.12,3.25-.62,7.5,8.63,7.81-.5,1.31-6.5-4.62-1.06,1.13,3,3.13,2.06,4.13.5,20.13S438.61,232,439,232.22s4.49,5.59,7.13,9.46l-.78,1-7.84-7.84-8-13.83-1.17.21-8.56,15.19-1.5.25,4.19-10.25,4.75-16.69.19-10.5-1.81-.19-5.87,6-3.29,8.48-1.77-.42,1.06-6.75,8.5-11.87-3.87-11.87v-8.5l-2-1.25-27.5,4.5-11,1.75-23.5,20.75-10.92,10.08-3.83,12.17-1,31.75,9.75,16.5,3-23,7.5-19.75v7.75l-3,17v11l13.25-9.5,9.5-.25s-4.75,4.5-5.5,4.75-15,8.75-15,8.75l-1.5,12.75,2.25,8.5-2.5,11.75,5.75,4.25,9.5,15.5,16.25,13,9.5,15,4,2.5,4.65-.72,1.85.22,5.25,2.75,1.63.06,4.27-1.54,1.54-.15,4.63,3,1.94.13,3-.56,3.25-2.25,2.25-.44,2.56.69,2.44.31,2.5-1,2-4,6.5-3.75,7-10.25,24-16,4.81-9.69,2.19-11.56-6-24s-12.25-10.5-13.5-11.25l-1.81-.94.62-1.23,5.94.91,8,4.85,2,2.65h1.56l-.37-5.37,1.31-15.44-1.56-16.94,1.5-1,5.75,10.63v20.87L494,281.22l2.38.25s11-29.62,11.13-30.75S509,232.93,509,232.93Zm-88.17,96.17-8.25,10-13-2L371.61,289.1l1.75-15,14-6.5,12.75,2,9.25,2.5.25,6.5Zm31.5,37.08-3.83.67-5.92-6.42-2.5-.08-4.33,5.5-4.08,2.17-2.58-1.17v-5.42l4.25-12.5,6.58-12.33,3.42-1.25s3.75,3.75,4,4.17,6.08,21.5,6.08,21.5Zm37.25-62.33,4.25,11.5-3.75,14.75-14.25,10-6.25-1-11.5-13.25-4.25-17.25,11.75-6.75,10-2.25Z" transform="translate(-297.11 -171.85)" style="fill:#cfc5b6"/><path d="M374.74,333.91l2.13.88,5,19.31,1.38,1.13,1.38-.87.81-4.44-.25-5.31.94-1.12,1.56.56,4,6.19,2.44.63,2.13.44,2.19,9.94,2.56,5.69,3.13-1.69,1.25-6.5,3-.37,2.94,1.75.44,5,1.06,4.56,2.19,1.5,3.06-1.75,1.5-8.94,3.06-1.19,2.5,1.94,1.38,8.31,3.31,2.25,3.38-1.19.75-4.69.25-5.87,2.88-2.12,3.44.94,1.56,4.44,2.88.63,2.06-3.06-.5-5.06,2.94-2.37,7.13-4.5,4-6.44,2.75-4.37,2.25-.69,1.19,1.19-1.81,10.94.56,3.87,1,.25,3.56-5.87,2.81-11.06,1.81-5.81,3.31-2.62,2.38.06-5.12,17.38L469.3,363.1l-.31,4.5s-2.37,4.44-2.56,4.56-4.62,7.62-4.62,7.62l-5.44,5.44-7.87,4.5-11.44,3-10.37,1.75-27.44-5.81-12.81-8.25s-6.25-7.19-6.25-7.44-2.25-11.31-2.25-11.31l-1.62-16.75Z" transform="translate(-297.11 -171.85)" style="fill:#cfc5b6"/><path d="M310.61,310.93s-1.58-13.08-1.5-13.33,2.83-9.17,2.83-9.17l3.67-1.08,8.5,4.17,10.83,14.92,8.75,8.25,25.75,13.17s.08,2.58-.67,2.33l-14.25-4.67-1,1.25,5,3.42c.25.17,9.83,5,9.83,5l3.83,2.25-1.25,1.5-13.75-6.25-5.5-2.75-.92,1.25,9.17,6.42,9.92,5.83-.67,1.33-10.5-4.67L333.11,327l-17.25,2-11.92-2.5-6.83-10.33,4.42-6.17,4.08-1.08,2.17,5.67,2.25.67Z" transform="translate(-297.11 -171.85)" style="fill:#cfc5b6"/><path d="M482.55,331.6l15.65-12.08,16.67-11.08s5.17-13.5,5.33-13.92,8.75-5.83,8.75-5.83l6.42,2.75s.25,4.67.25,5.08v6.17l-6-1.17-1.17,1.92,6.25,4.67,7.83,4.5,2.25,3.5-.58,5.42L536,323.43l-10.67-1.5-6.58,3.33L491.45,344.1,482,349.85l-.58-2.17,9.25-7.83,4.75-4.33,3.33-3.08-1-1.42-14.54,10.52,0-2.52,8.25-7.25,4.08-3.17,3.08-2.67-1.17-1.33-11.08,7.25-4,1.69Z" transform="translate(-297.11 -171.85)" style="fill:#cfc5b6"/><path d="M481.61,366.93l27.25,14.5,7,3.08L526,382.77l6.17,1s6.17,3.83,6.5,4.17,1.83,6.83,1.83,6.83l-8.08,10.33-2.42-.83-3.42-5.08-2.67,1.25,3.17,13.92-1.33,7.75-5.08,1.33-8.5-5.08-6.33-10.58-.67-7.08-3.67-4.08-32-19.42,1.58-1.75,15.17,7,.92-2.08-12.58-7.17,1.25-1.67,9.75,4.75.92-1.67-10.08-7,1.33-2.17Z" transform="translate(-297.11 -171.85)" style="fill:#cfc5b6"/><polygon points="70.38 192.88 47.92 209.33 44 211.92 38.17 212.67 24.58 211.58 12.92 217.08 10.25 220.25 13.67 226.33 25.42 229.58 25.92 230.92 22.67 237.42 21.58 246.33 24.75 249.5 32.75 250.17 42.92 239 50.08 229.08 73.38 208.88 78.38 205 77.25 202.63 65.17 210.67 64.58 209.17 76 199.5 75.25 197.13 62.83 206.58 61.67 204.33 75.75 192.38 74.88 189.75 70.38 192.88" style="fill:#cfc5b6"/></svg>
