<svg id="Layer_1" data-name="Layer 1" xmlns="http://www.w3.org/2000/svg" viewBox="0 0 1278.13 33.59"><title>Pattern_ Divider</title><g id="mayan_pattern_spacer_auditions"><path d="M-24.17,318.35c.92-1.16,1-2.63,1.41-4a3.81,3.81,0,0,1,4-3.08c3.5,0,7-.08,10.5,0,2.26,0,2.94.68,3.44,2.85.26,1.13.34,2.31.65,3.43.54,2,1.53,2.7,3.6,2.84,2.38.16,3.75-.48,4.5-2.33.46-1.15.66-2.41,1-3.6.69-2.26,1.55-3,3.93-3.14,3.41-.13,6.83-.18,10.25-.07,2.72.08,4,1.53,4.3,4.24,0,.5,0,1,.08,1.5a3.47,3.47,0,0,0,3.11,3.37c2.39.35,3.93-.35,4.7-2.33.45-1.16.66-2.41,1-3.61.7-2.42,1.41-3.1,3.83-3.15q5.37-.11,10.75,0c2.41.07,3.19.78,3.88,3.13.28,1,.43,2,.72,2.91.61,2,1.69,2.94,3.49,3a3.62,3.62,0,0,0,3.89-2.51c.53-1.22,1-2.49,1.42-3.73a4,4,0,0,1,4.17-2.92c3.25,0,6.5-.05,9.75,0,2.6.08,3.9,1.46,4.14,4.08,0,.41,0,.83,0,1.25.17,2.21,1.26,3.41,3.33,3.69,2.26.3,3.79-.56,4.52-2.63.39-1.1.59-2.26.95-3.36.79-2.43,1.46-3,3.93-3,3.33,0,6.67,0,10,.06,2.58.08,3.34.76,4,3.26.29,1,.47,2.12.76,3.16a3.18,3.18,0,0,0,2.92,2.66,4,4,0,0,0,4.26-2,10.3,10.3,0,0,0,.94-3.34c.54-2.84,1.71-3.83,4.62-3.87,3.17,0,6.33,0,9.5,0a3.85,3.85,0,0,1,4.07,3c.35,1.11.62,2.25,1,3.35.69,2,1.7,2.78,3.62,2.84a3.6,3.6,0,0,0,3.89-2.5c.46-1.07.85-2.17,1.24-3.27a4.61,4.61,0,0,1,4.69-3.39c2.83,0,5.66-.21,8.49-.2,3.48,0,5,1.44,5.32,4.91.15,1.62.37,3.18,1.93,4.11a3.8,3.8,0,0,0,5.61-1.83,34.18,34.18,0,0,0,1.29-4,3.62,3.62,0,0,1,3.62-2.88c3.75-.16,7.5-.19,11.25,0a3.27,3.27,0,0,1,3.28,2.57c.37,1.28.66,2.59,1.09,3.84.72,2,1.82,2.75,4,2.68a3.63,3.63,0,0,0,3.89-2.86c.38-1.19.63-2.42,1-3.62a3.21,3.21,0,0,1,3.24-2.61c3.92,0,7.83-.11,11.74,0,2.25.09,3.38,1.49,3.51,3.77,0,.33,0,.67,0,1,.05,2.67.87,3.83,3,4.2,2.69.47,4.4-.49,5.23-3,.39-1.19.63-2.42,1-3.61a3,3,0,0,1,2.91-2.33q6-.29,12,0a3,3,0,0,1,2.89,2.37c.38,1.27.62,2.6,1,3.86.74,2.25,2,3.07,4.34,2.86,2.09-.19,3.15-1.27,3.46-3.57.08-.58,0-1.17.13-1.74.32-2.32,1.58-3.72,3.91-3.8,3.91-.13,7.83-.12,11.74,0,2.17.07,3.24,1.35,3.45,3.56,0,.5,0,1,0,1.5.06,2.61.84,3.72,2.81,4,2.71.43,4.58-.57,5.33-2.95.38-1.19.57-2.43.89-3.64a3.07,3.07,0,0,1,3.24-2.55c3.67,0,7.33,0,11,.12,2.31.08,3,.83,3.59,3.09.24,1,.36,2,.62,2.93.54,2,1.45,2.8,3.23,2.94s3.52-.36,4.36-2.21c.51-1.13.81-2.36,1.21-3.54.87-2.54,1.67-3.22,4.34-3.3,3.16-.09,6.33-.11,9.5,0,2.9.08,4.17,1.35,4.57,4.26.07.49.07,1,.12,1.49.2,2,.93,2.94,2.48,3.29a3.79,3.79,0,0,0,4.49-1.86,18.38,18.38,0,0,0,1.38-4,4,4,0,0,1,4.2-3.18c3.5,0,7-.07,10.5,0,2.22,0,2.92.65,3.58,2.78.37,1.19.59,2.43,1,3.62.68,2.09,1.63,2.79,3.61,2.78a3.52,3.52,0,0,0,3.69-2.76c.32-.94.47-1.94.73-2.91.67-2.52,1.43-3.29,3.95-3.38,3.75-.14,7.5-.18,11.25-.1,2.63.06,3.92,1.43,4.2,4,.05.5,0,1,0,1.5.14,2.44,1.41,3.73,3.72,3.8a3.87,3.87,0,0,0,4.35-3.78,14.86,14.86,0,0,1,.28-2.22c.53-2.07,1.74-3.26,3.85-3.31,3.75-.1,7.5,0,11.24,0a3.38,3.38,0,0,1,3.41,2.76c.29,1,.49,2.11.82,3.14.74,2.37,2.56,3.66,4.61,3.34,2.3-.36,3.48-1.77,3.64-4.34.24-3.93,1.32-5,5.22-5,3.08,0,6.17,0,9.25,0,3.62,0,4.83,1.16,4.73,4.84-.07,2.64,1.06,4.74,4.94,4.24a3.63,3.63,0,0,0,3-2.65c.42-1.17.72-2.39,1.1-3.58a3.56,3.56,0,0,1,3.65-2.82c3.67,0,7.33-.06,11,0,2.1.05,2.76.7,3.28,2.75.29,1.13.46,2.28.73,3.42.37,1.57,1.11,2.77,2.93,2.93a4.17,4.17,0,0,0,4.42-2.15,17.5,17.5,0,0,0,1.1-3.57c.83-2.8,1.54-3.4,4.4-3.44,3.17,0,6.33,0,9.5,0,2.85.07,3.6.74,4.33,3.52.27,1,.45,2.12.78,3.15.57,1.78,1.6,2.66,3.2,2.67a3.77,3.77,0,0,0,3.84-2.27c.53-1.3.77-2.72,1.17-4.07.66-2.22,1.42-2.94,3.71-3,3.58-.08,7.16,0,10.75,0a3.59,3.59,0,0,1,3.76,3c.29,1.13.58,2.26.91,3.38a3.36,3.36,0,0,0,3.18,2.71A3.33,3.33,0,0,0,525.3,318c.49-1.15.82-2.36,1.27-3.53.24-.63.58-1.28,1.43-1.09.69.15.84.78.83,1.37,0,2.17.08,4.34-.14,6.49a4.19,4.19,0,0,1-4.38,3.93,52.59,52.59,0,0,1-8-.11,3.29,3.29,0,0,1-3.14-2.73c-.28-1.22-.54-2.44-.88-3.64a3.56,3.56,0,0,0-3.77-3c-2.09-.07-3.13.66-3.85,2.82-.42,1.26-.75,2.56-1.13,3.83a3.38,3.38,0,0,1-3,2.63,57.74,57.74,0,0,1-12,.07c-2.33-.21-3.46-1.67-3.72-4,0-.41,0-.83,0-1.25-.12-2.78-1.18-3.92-3.7-4s-4.08,1.1-4.18,3.85c-.17,4.63-3,5.6-6.1,5.62s-6,0-9,0c-3.23-.09-4.5-1.39-4.67-4.58a13.18,13.18,0,0,0-.17-2,3.24,3.24,0,0,0-3-2.92,3.7,3.7,0,0,0-4.23,1.92,13.76,13.76,0,0,0-1.05,3.58c-.76,3.17-1.38,3.81-4.53,3.93-3.41.13-6.83.14-10.25,0-2.95-.11-4.1-1.45-4.24-4.44,0-.5,0-1-.05-1.5-.24-1.93-1.18-3-2.82-3.36a3.82,3.82,0,0,0-4.57,2.17,25,25,0,0,0-1.27,4,3.67,3.67,0,0,1-3.74,3.05,67,67,0,0,1-11-.14c-2.37-.28-2.9-.81-3.49-3.2-.26-1.05-.4-2.13-.68-3.17-.56-2-1.59-2.85-3.54-2.86-2.19,0-3.53.92-4,3-.28,1.13-.4,2.29-.6,3.44a3.12,3.12,0,0,1-3,2.86,60.6,60.6,0,0,1-12.72-.11,2.82,2.82,0,0,1-2.55-2.39c-.33-1.29-.54-2.61-.9-3.89-.54-2-1.52-2.75-3.31-2.81a3.32,3.32,0,0,0-3.67,2.7c-.36,1.19-.57,2.43-.84,3.65a3.27,3.27,0,0,1-3,2.85,62.16,62.16,0,0,1-12.47,0,3.34,3.34,0,0,1-3-2.61c-.39-1.27-.64-2.59-1-3.86-.65-2-1.78-3-3.54-3s-2.86.9-3.5,3c-.37,1.19-.69,2.4-1,3.61a3.65,3.65,0,0,1-3.55,3,76.82,76.82,0,0,1-11.73-.08c-2.73-.25-3.73-1.53-3.87-4.29a8.8,8.8,0,0,0-.37-2.71,3.71,3.71,0,0,0-3.69-2.46,3.05,3.05,0,0,0-3.29,2.15c-.51,1.49-.9,3-1.29,4.56a3.23,3.23,0,0,1-3.12,2.72,85.65,85.65,0,0,1-12,.14,3.46,3.46,0,0,1-3.46-3c-.27-1.22-.52-2.45-.87-3.64a3.32,3.32,0,0,0-3.17-2.71,3.62,3.62,0,0,0-3.84,2.19c-.48,1.06-.78,2.19-1.17,3.29-1.1,3.13-2,3.89-5.25,4-3,.08-6,.09-9,0-3.43-.09-4.76-1.51-4.86-5s-1.54-4.82-4.49-4.47a3.78,3.78,0,0,0-3.33,3c-.37,1.19-.62,2.42-.94,3.63a3.17,3.17,0,0,1-3,2.6,64.85,64.85,0,0,1-12.47,0,3,3,0,0,1-2.89-2.63c-.24-1.22-.42-2.46-.73-3.67-.52-2.09-1.56-3-3.36-3.14a3.79,3.79,0,0,0-4,2.46,38.23,38.23,0,0,0-1.33,4,3.75,3.75,0,0,1-3.56,3,69.53,69.53,0,0,1-10.73.1c-2.82-.18-4.09-1.74-4.28-4.59,0-.42,0-.84,0-1.25A3.39,3.39,0,0,0,207,316a3.56,3.56,0,0,0-4.33,2.09,23.15,23.15,0,0,0-1.2,3.8,3.9,3.9,0,0,1-4.09,3.3c-3.5.05-7,.19-10.49.06-2.8-.11-4-1.45-4.33-4.21-.08-.66,0-1.33-.11-2a3.55,3.55,0,0,0-3.56-3.46c-1.86-.12-3,.73-3.51,2.82-.34,1.29-.59,2.6-.86,3.9a3.22,3.22,0,0,1-3.05,2.81,56,56,0,0,1-12.71-.15c-1.77-.22-2.49-1.46-2.93-3s-.62-3.29-1.59-4.71c-1.56-2.29-4.34-2.35-5.82-.15a3.08,3.08,0,0,0-.56,1.63c0,.58,0,1.17,0,1.75-.08,3-1.32,4.51-4.33,4.74-2.57.2-5.16.11-7.74.11a36.11,36.11,0,0,1-3.74-.13c-2.73-.28-3.22-.75-3.85-3.4-.27-1.13-.44-2.3-.78-3.4a3.41,3.41,0,0,0-3.41-2.77,3.75,3.75,0,0,0-3.89,2.55,32,32,0,0,0-.94,3.88,3.48,3.48,0,0,1-3.41,3.05,75.66,75.66,0,0,1-11.48.05c-2.93-.18-4.12-1.59-4.34-4.49,0-.5,0-1,0-1.5a3.29,3.29,0,0,0-2.95-3.2c-2.09-.37-3.56.3-4.27,2.14a27.32,27.32,0,0,0-1,3.85A3.65,3.65,0,0,1,88,325.1a82.06,82.06,0,0,1-11.73,0c-2.9-.18-3.89-1.47-4-4.4,0-.5,0-1,0-1.5-.14-2.08-1-3.19-2.86-3.55a3.72,3.72,0,0,0-4.36,2.1A28.2,28.2,0,0,0,63.68,322a3.79,3.79,0,0,1-3.9,3.19,82.62,82.62,0,0,1-11-.16c-2.63-.29-3.07-.75-3.61-3.32-.2-1-.29-2-.53-2.95a3.41,3.41,0,0,0-3-2.93A3.85,3.85,0,0,0,37.29,318a27.08,27.08,0,0,0-1.35,4,3.8,3.8,0,0,1-3.71,3.13A64.71,64.71,0,0,1,21,325c-2.29-.28-2.77-.81-3.23-3.11-.23-1.14-.36-2.31-.64-3.44a3.09,3.09,0,0,0-2.87-2.69,3.7,3.7,0,0,0-4,1.92A21.07,21.07,0,0,0,9,321.5c-.9,2.89-1.64,3.59-4.55,3.72a73.61,73.61,0,0,1-9.74-.07c-3.16-.28-3.64-.75-4.41-3.76-.25-1-.41-2-.73-2.91-.7-2.05-2-2.86-4-2.56s-2.71,1.29-2.87,3.46c0,.42,0,.83,0,1.25-.3,2.94-1.46,4.15-4.36,4.55-.82.11-1.66.11-2.49.16Z" transform="translate(24.17 -301.35)" style="fill:#973100"/><path d="M-24.17,330.85q63.62.06,127.25.12,65.37,0,130.75-.1c16.08,0,32.17.1,48.25.1q74.74,0,149.48-.08,46.75,0,93.5,0c.58,0,1.17,0,1.75,0,1.34,0,2,.57,2,1.95a1.77,1.77,0,0,1-2,2H-18.68c-1.83,0-3.66-.06-5.5-.09Z" transform="translate(24.17 -301.35)" style="fill:#973100"/><path d="M-24.17,301.35a17.43,17.43,0,0,0,5.21.38l297.93,0H524.42c.83,0,1.67,0,2.5,0,1.16,0,1.93.3,1.95,1.66s-.57,2-1.93,2l-14.25,0q-91.48,0-183,0c-39.16,0-78.32-.08-117.47.17q-61.73.4-123.47.07c-37.32-.19-74.65.09-112-.34-.33,0-.67,0-1,0Z" transform="translate(24.17 -301.35)" style="fill:#973100"/><path d="M700.79,318.66a13.7,13.7,0,0,1,.32-3.72c.19-.55.34-1.24,1-1.32s.9.64,1.1,1.16c.39,1,.66,2.06,1.07,3.07.78,1.92,1.79,2.61,3.55,2.57s2.85-.9,3.47-3c.36-1.2.65-2.41,1-3.61a3.22,3.22,0,0,1,3.12-2.44,115.93,115.93,0,0,1,11.74,0,3.15,3.15,0,0,1,3,2.52c.32,1.12.53,2.27.86,3.39.65,2.22,2.09,3.4,4.07,3.42s3-1,3.64-3.44c0-.16.06-.33.1-.49,1.32-5.4,1.38-5.45,7.07-5.48,2.58,0,5.17,0,7.75,0a3.43,3.43,0,0,1,3.65,2.76c.34,1.2.61,2.43,1,3.6a3.93,3.93,0,0,0,4,2.82c2,0,2.91-.57,3.49-2.51.39-1.27.56-2.6.89-3.89.5-1.95,1.16-2.64,3.06-2.7,3.83-.1,7.66-.06,11.5,0a3.21,3.21,0,0,1,3.19,2.36c.43,1.26.73,2.57,1.19,3.81a3.87,3.87,0,0,0,4.39,2.9c2.35-.11,3.47-1.22,3.62-3.58.32-5,.94-5.59,6-5.56,2.75,0,5.5,0,8.25,0,3.56,0,4.77,1.21,4.92,4.78a4.34,4.34,0,0,0,1.61,3.73,4.08,4.08,0,0,0,6.39-1.86c.47-1.15.64-2.41,1-3.6.66-2.15,1.49-2.89,3.77-3q5.24-.17,10.5-.07c2.6.05,4,1.33,4.45,3.87a10.65,10.65,0,0,1,.15,1.74A3.34,3.34,0,0,0,843,320.2a4.65,4.65,0,0,0,4.54-.34,2.91,2.91,0,0,0,1.3-2.32c0-.58,0-1.17.06-1.75.2-3.07,1.5-4.46,4.51-4.52q5.37-.09,10.75.1c2.71.1,3.48.82,4.17,3.43.28,1,.46,2.13.83,3.13a3.4,3.4,0,0,0,3.61,2.5,3.21,3.21,0,0,0,3.51-2.57c.45-1.34.73-2.73,1.11-4.1a3.14,3.14,0,0,1,3.29-2.51l11,0a3.74,3.74,0,0,1,3.84,3,31.12,31.12,0,0,0,1.38,4,3.86,3.86,0,0,0,5.08,1.92,3,3,0,0,0,1.95-2.93c0-5.44,2.52-6.19,6.75-6,2.5.1,5,0,7.5.07,2.66.09,3.46.76,4.32,3.33.34,1,.58,2.09,1,3.09a4.1,4.1,0,0,0,4.61,2.63c1.84-.18,2.69-1,3.27-3.21.11-.4.2-.81.29-1.22.87-4.23,1.23-4.55,5.63-4.63,3-.06,6-.09,9,0,2.22.05,2.93.68,3.53,2.81.29,1,.44,2.12.75,3.16a4.61,4.61,0,0,0,6.4,2.9,3,3,0,0,0,1.67-2.07,4.49,4.49,0,0,0,.13-1.48c-.34-3.84,1.18-5.57,5.51-5.38,2.83.13,5.67,0,8.5,0,3.64,0,4.87,1.22,5.21,4.9.28,3.11,1.41,4.31,4,4.32a3.37,3.37,0,0,0,3.65-2.44c.46-1.24.66-2.58,1.06-3.85.66-2.13,1.37-2.79,3.54-2.85q5.5-.13,11,0c2.18.06,2.9.74,3.55,2.85.37,1.19.57,2.44,1,3.6.83,2.18,2.54,3,5.06,2.55,2-.36,2.88-1.52,2.95-4,.12-4.11,1.11-5.08,5.28-5.1,3,0,6,0,9,0s3.64.64,4.43,3.4c.3,1,.48,2.12.84,3.14.63,1.81,1.78,2.55,3.82,2.6s3.16-.57,3.86-2.47c.46-1.24.77-2.55,1.11-3.84a3.48,3.48,0,0,1,3.62-2.81c3.58-.11,7.16-.09,10.75,0a3.8,3.8,0,0,1,3.93,3.16,29.69,29.69,0,0,0,1.11,3.58,3.66,3.66,0,0,0,4.08,2.58,3.74,3.74,0,0,0,3.41-3.43c.13-.73.11-1.5.23-2.23.33-2.09,1.42-3.43,3.53-3.65a59,59,0,0,1,11.71.17,3.63,3.63,0,0,1,2.88,2.51c.52,1.23.95,2.49,1.46,3.72.86,2.06,2,2.78,4,2.71s3-.89,3.7-3.09c.36-1.11.64-2.24,1-3.35a3.63,3.63,0,0,1,3.73-2.73c3.42,0,6.83-.07,10.25,0,2.35.06,3.42,1.06,4,3.37a15.31,15.31,0,0,0,.81,3.39,3.94,3.94,0,0,0,4.25,2.39c1.8-.13,2.62-.84,3.23-2.93.35-1.2.6-2.42.92-3.63a3.06,3.06,0,0,1,3.07-2.47c3.83-.09,7.66-.09,11.5-.08a2.85,2.85,0,0,1,2.83,2.07c.44,1.26.75,2.56,1.14,3.83.76,2.45,2.24,3.42,4.67,3.09,2.14-.29,3.17-1.51,3.33-3.95.26-4,1.39-5.08,5.44-5.1,2.67,0,5.34.07,8,0a4.41,4.41,0,0,1,4.85,3.42c.28.87.61,1.73.94,2.58.93,2.41,2.09,3.29,4.19,3.18,1.94-.09,2.95-1.07,3.6-3.51.26-1,.48-1.94.75-2.9a3.22,3.22,0,0,1,3.24-2.62q5.87-.07,11.75,0a3.18,3.18,0,0,1,3.19,2.65c.33,1.2.56,2.44.95,3.62.75,2.25,2.15,3.06,4.64,2.81,2.06-.21,3.12-1.36,3.37-3.66.05-.5,0-1,.08-1.5.28-2.42,1.59-3.88,4-4,3.66-.12,7.33,0,11,.09a3.34,3.34,0,0,1,3.26,2.63c.35,1.2.58,2.44,1,3.62.71,2.08,2,2.87,4.46,2.79s3.34-.87,3.91-3.1c.31-1.21.44-2.46.7-3.68a2.68,2.68,0,0,1,2.82-2.34c3.83,0,7.66,0,11.5,0a3.13,3.13,0,0,1,3.11,2.11c1.21,3.29,2.17,6.62,1.85,10.22-.11,1.18-.54,1.59-1.68,1.6-3.23,0-4.95-1.5-5.25-4.76,0-.5,0-1-.06-1.5a3.06,3.06,0,0,0-2.72-3.08,3.15,3.15,0,0,0-3.86,2,24.14,24.14,0,0,0-1,3.35c-.81,3.18-1.27,3.64-4.56,3.9a86.75,86.75,0,0,1-10,0,4,4,0,0,1-4.08-3.34,28.87,28.87,0,0,0-1-3.36,3.64,3.64,0,0,0-4.21-2.73c-1.82.16-2.68,1-3.14,3.29-.22,1.06-.38,2.13-.56,3.2A2.94,2.94,0,0,1,1209,325a63.71,63.71,0,0,1-12,.12,3.48,3.48,0,0,1-3.22-2.71c-.37-1.19-.68-2.41-1.11-3.58a4,4,0,0,0-4.61-3c-1.83.19-2.81,1.26-3.24,3.54-.08.41-.11.83-.18,1.24-.68,3.85-1.13,4.36-4.95,4.54-3.16.15-6.33.14-9.5.05-2.82-.08-3.56-.78-4.38-3.55-.33-1.12-.57-2.27-1-3.35a3.84,3.84,0,0,0-4.49-2.7c-2,.34-2.92,1.55-3,3.94,0,.5,0,1,0,1.5-.13,2.5-1.07,3.77-3.59,4a64.15,64.15,0,0,1-12.72-.05,3.08,3.08,0,0,1-2.81-2.46c-.33-1.2-.6-2.43-1-3.62-.7-2.37-1.94-3.24-4.18-3s-3.21,1.36-3.36,3.86c-.25,4.2-1.48,5.45-5.72,5.47a85.63,85.63,0,0,1-10.24-.16,3.4,3.4,0,0,1-3.25-2.91c-.28-1.22-.46-2.46-.85-3.65a3.83,3.83,0,0,0-3.89-2.91c-1.9,0-3.05.94-3.66,3.11-.33,1.2-.55,2.43-.8,3.66a3,3,0,0,1-2.85,2.68,66,66,0,0,1-13,0c-2.49-.24-3.59-1.73-3.72-4.24a23.91,23.91,0,0,0-.08-2.49,3.36,3.36,0,0,0-2.58-2.77,3.14,3.14,0,0,0-3.36,1.13,6.65,6.65,0,0,0-1.4,2.9c-.26,1-.47,1.94-.77,2.9a3.2,3.2,0,0,1-2.84,2.45,58.81,58.81,0,0,1-12.47.16,3.32,3.32,0,0,1-3.22-2.94c-.26-1.31-.51-2.62-.85-3.9-.55-2-1.71-2.88-3.59-2.71a3.52,3.52,0,0,0-3.44,3.32c-.09.74,0,1.5-.14,2.24-.33,2.65-1.49,3.95-4.17,4.09a88.37,88.37,0,0,1-11-.08,3.77,3.77,0,0,1-3.68-3.13c-.3-1.13-.59-2.26-1-3.35-.8-2.19-2.29-3.06-4.45-2.7-1.85.31-2.8,1.53-2.94,3.74-.26,4.27-1.61,5.61-5.9,5.58-3,0-6,.12-9-.17a3.86,3.86,0,0,1-3.73-3.09c-.24-.88-.52-1.76-.8-2.63-.91-2.79-2.34-4-4.56-3.75-2,.19-3,1.37-3.49,4.21-.16.9-.33,1.8-.52,2.7a2.88,2.88,0,0,1-2.72,2.51,61.79,61.79,0,0,1-12.72,0,3,3,0,0,1-2.82-2.44c-.33-1.21-.58-2.43-.95-3.62a4,4,0,0,0-4.73-3.08c-2.11.27-3,1.47-3.13,4.07-.16,4.09-1.4,5.33-5.46,5.37q-3.62,0-7.25,0c-4.49,0-5.3-.64-6.67-4.82a21,21,0,0,0-.82-2.36,3.66,3.66,0,0,0-4-2.31,3.36,3.36,0,0,0-3.1,2.8c-.33,1.12-.55,2.26-.8,3.4a3.57,3.57,0,0,1-3.61,3.17,86,86,0,0,1-12-.17,3.1,3.1,0,0,1-3-2.57c-.32-1.29-.6-2.6-1-3.87-.73-2.33-1.92-3.17-4-2.94-2.21.25-3.35,1.41-3.65,3.74-.05.41,0,.83-.05,1.25-.16,3-1.23,4.29-4.23,4.5a89.25,89.25,0,0,1-11.24,0,3.75,3.75,0,0,1-3.73-3.09c-.33-1.29-.67-2.58-1.09-3.84a3.33,3.33,0,0,0-3.25-2.63,3.42,3.42,0,0,0-3.55,2.59c-.44,1.25-.7,2.57-1,3.85a3.67,3.67,0,0,1-3.48,3,76.31,76.31,0,0,1-11.73,0,3.61,3.61,0,0,1-3.54-3.26,32.2,32.2,0,0,0-.76-3.41,3.24,3.24,0,0,0-3.49-2.6,3.18,3.18,0,0,0-3.42,2.67c-.37,1.28-.58,2.6-.89,3.89a3.06,3.06,0,0,1-2.94,2.59,61.8,61.8,0,0,1-12,.09c-2.37-.24-2.92-.85-3.46-3.24-.22-1-.26-2-.49-3a3.66,3.66,0,0,0-3.94-3.11c-2.07,0-3.15.78-3.72,3-.32,1.21-.49,2.45-.8,3.66a3.13,3.13,0,0,1-3,2.59,72.7,72.7,0,0,1-11.48.15,3.53,3.53,0,0,1-3.58-2.89c-.28-1.13-.59-2.26-1-3.36-.8-2.36-2.45-3.38-4.78-3-1.91.3-2.85,1.54-3,4,0,.42,0,.83,0,1.25-.16,2.49-1.18,3.86-3.58,4a74.18,74.18,0,0,1-12.23-.07,3,3,0,0,1-2.81-2.43c-.34-1.29-.6-2.6-1-3.87-.74-2.34-2.19-3.27-4.51-3-2,.22-3,1.4-3.26,3.77-.56,5.22-1.22,5.79-6.54,5.74-2.25,0-4.5,0-6.75,0-4.1,0-6.39-1.48-6.52-5.72-.09-2.76-1.78-4-4.51-3.75a3.28,3.28,0,0,0-3.34,3.33c-.51,5.36-1.38,6.14-6.85,6.11-2.58,0-5.17,0-7.75-.08a4.19,4.19,0,0,1-4.42-3.6,26.64,26.64,0,0,0-1-3.36,3.25,3.25,0,0,0-3.58-2.49c-2,0-3.22.78-3.81,2.6-.43,1.34-.69,2.74-1,4.12a3.16,3.16,0,0,1-3,2.61,56.44,56.44,0,0,1-10,0c-1.28-.08-1.85-.94-2.29-2C700.62,321.66,700.87,320.14,700.79,318.66Z" transform="translate(24.17 -301.35)" style="fill:#973100"/><path d="M977.41,334.92H705c-.75,0-1.5,0-2.25,0-1,0-1.79-.37-1.86-1.55s.34-2,1.52-2.23a17.78,17.78,0,0,1,3-.18q35,0,70,0,71.73-.07,143.47,0,89.22.14,178.45,0,76.48,0,153-.1h1.25c2.33,0,2.54.31,2.4,2.59-.06,1.07-.5,1.49-1.53,1.48-1.33,0-2.67,0-4,0H977.41Z" transform="translate(24.17 -301.35)" style="fill:#973100"/><path d="M977.85,301.73h270.46c1.42,0,2.83,0,4.25-.09.81,0,1.35.19,1.27,1.07s.53,2.18-.91,2.49a14.27,14.27,0,0,1-3,.16l-58,.11c-15,0-30,0-45,.08-40,.35-80,.32-120,.12-60-.29-120-.22-180-.25q-70.87,0-141.73,0c-.83,0-1.67,0-2.5,0-1.31,0-2-.42-2-1.88s.84-1.83,2.11-1.79c.92,0,1.83,0,2.75,0H977.85Z" transform="translate(24.17 -301.35)" style="fill:#973100"/></g></svg>