<svg id="Layer_11" data-name="Layer 11" xmlns="http://www.w3.org/2000/svg" viewBox="0 0 22.27 24.57" transform="translate(20 0)" ><title>Proven performers</title><polygon points="8.24 14.76 8.71 15.27 8.64 19.03 8.41 19.45 8.24 14.76" style="fill:#973100"/><path d="M3170.56,3313.49l.17.76,0,7.8s-.79,0-.78-.06S3170.56,3313.49,3170.56,3313.49Z" transform="translate(-3162.94 -3297.74)" style="fill:#973100"/><path d="M3176.72,3307.38l.68-4.07-.19-.78-1.21-.72h-.65l-.37-.78-1.4-.65-.65.12-.44-1.09-1.55-.59-.72.09-.34-.75-.84-.44-1.43.25-1.06,2.11-.5-.16-.9.25-2.21,4.63,3.76,6.19-1.83,11.29,2.32-.06,1.16-11-4.57-6.34,1.68-4.14.68-.19.75.31,3.41,1.19-.3.75-1,.69-.72,0-1-.3-.72-.67.54.95-.19.49-1.07.39.88-.06,1.25.5h0s2.15,1,2.17,1l1.12,2.46-.45,2.25,1.12-1.86-.18-.54,1.35-.73,2.83-.07-.32-.24.85-1.28.07,1.08-1.74,3.36-1.83,1.59,1.74-.62.19,10.84.69,0,.47,0-.68-11.16.44-.28Zm-8.92-8.71,1-.37.72.22.17.69-.55,1.92-2-.77Zm-.48,5.41.09-.29.83,0-.19.59Zm1.16.45.16-.68.46,0,1.34-.89.58-1.14-1.39-.53.74-1.94.39,0,1.21.47.44.94-1.57,3.75-.69.75Zm4.08,1.59a13.71,13.71,0,0,1-1.34-.54s0-.39,0-.63h0l1.66-4,.72,0,1.06.5.22.55-1.62,3.64Zm1.14-.26,1.69-3.54.46.08.75.4.19.53-.2,1-1.16,2.18-.42.28-1.09-.28Z" transform="translate(-3162.94 -3297.74)"  style="fill:#973100"/></svg>
