<svg id="Layer_4" data-name="Layer 4" xmlns="http://www.w3.org/2000/svg" preserveAspectRatio="xMidYMid meet" viewBox="0 0 226.33 226.37" ><title>2 winners</title><path d="M416.25,407.89c-.4.06-.8,0-.78.48,0,.1.4.24.61.25s.71,0,.68-.45C416.77,408.05,416.39,408,416.25,407.89Z" transform="translate(-307.78 -172.96)" style="fill:#cfc5b6"/><path d="M421.32,408c-.23,0-.51.11-.35.44.05.11.27.17.42.18s.48,0,.52-.34S421.56,408,421.32,408Z" transform="translate(-307.78 -172.96)" style="fill:#cfc5b6"/><path d="M431.48,405a2.13,2.13,0,0,0,.21-.4s-.06-.11-.09-.17a3.64,3.64,0,0,0-.31.54.88.88,0,0,0,0,.32C431.33,405.22,431.41,405.13,431.48,405Z" transform="translate(-307.78 -172.96)" style="fill:#cfc5b6"/><path d="M431.37,407.34c.69-.34.16-.82.06-1.24-.05-.21-.13-.42-.21-.63a2.43,2.43,0,0,0-.64.29.78.78,0,0,0-.09,1.27C430.73,407.26,431.07,407.48,431.37,407.34Z" transform="translate(-307.78 -172.96)" style="fill:#cfc5b6"/><path d="M427.84,407.67a.74.74,0,0,0-.5.36.31.31,0,0,0,.29.47c.19,0,.37-.2.48-.26C428.23,407.86,428.08,407.65,427.84,407.67Z" transform="translate(-307.78 -172.96)" style="fill:#cfc5b6"/><path d="M450.45,219.27s.12,0,.18,0c0-.22-.2-.26-.36-.3A2.41,2.41,0,0,0,450.45,219.27Z" transform="translate(-307.78 -172.96)" style="fill:#cfc5b6"/><path d="M424.92,206.62c-3.36-1.74-6.94-1.39-10.49-1.36a10.16,10.16,0,0,0-7.54,3.38,13.89,13.89,0,0,1-2.15,2.73l-.12.09c-.52,2.46-1.19,4.88-1,7.47a8.85,8.85,0,0,0,5.54,7.31c4.12,1.55,8.37,1.36,12.56,1,3.63-.34,6.93-1.73,8.5-5.56.83-2,.51-4.11.46-6.16C430.61,211.4,428.57,208.51,424.92,206.62Zm3.63,12.33c-1.37,6.3-9.35,7.83-14.6,6.64-6.06-1.38-10.35-6.78-7.31-13.12,2.12-4.42,9.13-6.22,13.58-4.42C424.77,208.05,429.48,214.65,428.54,218.95Z" transform="translate(-307.78 -172.96)" style="fill:#cfc5b6"/><path d="M418.55,210.27a1,1,0,0,1-.19,0c-3.83.08-10.94,1.63-10,6.93.61,3.57,5.43,5,8.51,5.36,3.26.38,8.61-.5,8.55-4.72C425.34,214.25,421.74,211.36,418.55,210.27Z" transform="translate(-307.78 -172.96)" style="fill:#cfc5b6"/><path d="M450.15,218.84v-1C449.72,218.19,449.7,218.52,450.15,218.84Z" transform="translate(-307.78 -172.96)" style="fill:#cfc5b6"/><path d="M419,385.75c.22.13.51.11.45-.21a1.24,1.24,0,0,0-.76-.85c-.12.06-.35.11-.35.17C418.36,385.31,418.7,385.54,419,385.75Z" transform="translate(-307.78 -172.96)" style="fill:#cfc5b6"/><path d="M455.56,215.72a1.4,1.4,0,0,0-.88,1.08.38.38,0,0,0,.34.52,1.57,1.57,0,0,0,1-1.25C456.08,215.79,455.82,215.63,455.56,215.72Z" transform="translate(-307.78 -172.96)" style="fill:#cfc5b6"/><path d="M405.2,405.09c.26,0,.49-.15.46-.45a.44.44,0,0,0-.32-.27c-.26,0-.49.15-.46.44C404.88,404.91,405.08,405,405.2,405.09Z" transform="translate(-307.78 -172.96)" style="fill:#cfc5b6"/><path d="M497.11,182.36l-8.9-7c.93,4.76-4.73,7.4-9.36,8.9a34.74,34.74,0,0,1-6.17,1.66,82.88,82.88,0,0,1-11.87,1.7c-4.93.54-9.85.91-14.83,1.22a1.49,1.49,0,0,1-.68.27c-7.61,1-15.38.12-23,0-8.89-.17-17.78-.17-26.67-.17a1.54,1.54,0,0,1-1.22-.53c-7.78-.18-15.52-.86-23.28-1.47a1.71,1.71,0,0,1-1.57-1.36c-3.92-.28-7.85-.55-11.81-.74-5.76-.28-16-.45-12.9-8.67-1.57.61-2.79,1-2.56.63.58-.94-7.54,6.69-7.54,6.69l1.2,7,3.05,6,5.16,6a.5.5,0,0,0,0,.18,7.59,7.59,0,0,0,.07,1.84c.11.43.51.78,1,.49a.38.38,0,0,0,.26-.15,2,2,0,0,0,.28-.51c1.81-1.06,3.28-2.58,5.33-3.26a1.11,1.11,0,0,1,1.27-.78,17.49,17.49,0,0,1,3.27.88,1,1,0,0,1,.85-.13,1.79,1.79,0,0,1,.57.3s.06-.1.1-.14a3.56,3.56,0,0,0,.63.48,2.39,2.39,0,0,0-.05.66,6.22,6.22,0,0,1,2,2.54,3.68,3.68,0,0,1,1,2.51,16,16,0,0,1-.45,5,9.8,9.8,0,0,0-.47,3.95,3.76,3.76,0,0,0,3,2.92c1.72,0,1.89-1.29,2.15-2.54a24.5,24.5,0,0,0,.38-5.47,37,37,0,0,1,.45-6.47,2.48,2.48,0,0,1,2.47-2.36c2.41-.09,4.83-.07,7.24-.06a2.3,2.3,0,0,1,2.35,1.8,10.9,10.9,0,0,1,.36,7.33,5.12,5.12,0,0,0-.12.55,21.69,21.69,0,0,0,.14,2.49,6.14,6.14,0,0,0,.2.6c.88,2.07,1.82,2.68,4,2.31,1.62-.27,2.27-1.16,2.3-3.29,0-2.42.12-4.84,0-7.25a3.83,3.83,0,0,1,2.83-4.17,8.7,8.7,0,0,1,5.4-.05,2.47,2.47,0,0,1,1.93,3,24.85,24.85,0,0,0-.1,5c.11,1.81.85,2.45,2.7,2.64,2.64.27,3.61-.16,4.24-1.91a11.49,11.49,0,0,1,3.62-5.57c2.62-2,5.46-3.5,8.88-3.51,1.92,0,3.83.09,5.75,0,2.78-.1,5.21,1,7.56,2.2a7.41,7.41,0,0,1,3.86,3.77c.46,1.33,1.31,2.4,1.8,3.69a1.93,1.93,0,0,0,.17.31,3.59,3.59,0,0,0,2.4,1.06,3.19,3.19,0,0,0,1.08-.3,2.2,2.2,0,0,0,1.34-2.86,10.23,10.23,0,0,1-.44-3.2c0-3.52,1.11-4.65,4.59-4.65.9,0,1.26,0,1.45.33.36,0,.71,0,1,0a3.44,3.44,0,0,1,2.4,1.1,1.15,1.15,0,0,1,.36.47c1.53,2.36.87,6.9.64,10.19a8.39,8.39,0,0,0,.13,1.35h0a4.1,4.1,0,0,0,1.9,1.92v0c3.26-.35,4.7-2,4.47-5.25a7.14,7.14,0,0,0-.22-1.48,11.35,11.35,0,0,1,.18-6.38c.42-1.51,1.1-2.33,2.73-2.28,1.91.05,3.83,0,5.75,0,2.61,0,3.59,1,3.64,3.64.05,2.83,0,5.66,0,8.5v0c0,.65.09,1.31.16,2v0a4.32,4.32,0,0,0,.39,1.16c.44.83,1,1.68,2.05,1.52a2.55,2.55,0,0,0,2.28-2,9.34,9.34,0,0,0,.11-2c0-2.75,0-5.5,0-8.25a2.54,2.54,0,0,1,1.6-2.77c.79-.33,1.19-.66,1.32-1.14a3.9,3.9,0,0,0,.54.32c2.91-2.32,7-1.62,10.34.1,2.15,0,4-1.67,5.66-3l.66-2.32,5.75-8.25Z" transform="translate(-307.78 -172.96)" style="fill:#cfc5b6"/><path d="M352,181.24c10.77.9,21.67,1.62,32.47,2.17s21.48-.34,32.22.16,21.31.93,32,1a138.9,138.9,0,0,0,14.4-.54c1-.13,1.9-.27,2.85-.42,1.17-.19,2.56-.36,4-.56a57.51,57.51,0,0,0,7.93-2.08c.59-.2,1.19-.42,1.78-.66a7.85,7.85,0,0,0,2.94-2.9c-3.45-3.28-9.68-2.26-14-2.23a1.64,1.64,0,0,1-.87-.23l-4.38.4-34.87,2.13-4.75-1.75-12.51.35-20.49-1.35-20-1.78-14.78.57c-2.15.76-4.24,1.75-6.35,2.6a1.63,1.63,0,0,1-.62.12C347.66,178.52,347.89,180.9,352,181.24Z" transform="translate(-307.78 -172.96)" style="fill:#cfc5b6"/><path d="M429.66,399.79a.2.2,0,0,0,.12-.16c0-.2-.16-.25-.31-.12s0,.14,0,.21S429.61,399.8,429.66,399.79Z" transform="translate(-307.78 -172.96)" style="fill:#cfc5b6"/><path d="M462.77,416.2c-.68-1.64-.13-2.52-2.32-2.64s-2.57.19-2.77,2.26c-.23,2.36-.91,2.81-3.34,2.76a11.76,11.76,0,0,1-2.63-.16,1.27,1.27,0,0,1-1.52-1.09c0-.16,0-.32-.07-.47s0-.08-.06-.13a1.21,1.21,0,0,1-.05-.35c-.6-2.25-2.31-3.07-3.29.09-.16.51.11,1.22-.29,1.71-1.75,2.19-6.21,1.3-8.58,1.41a1.17,1.17,0,0,1-1.12-.86c-.43-2.44-.91-4.07-3.85-3.82-3.36.29-.95,1-1.45,3-.75,3.08-5.6,1.84-7.73,1.71a1.14,1.14,0,0,1-.23-.06,1,1,0,0,1-1-1.11c.06-2.54.34-3.75-2.83-3-1.43.34-1.19.26-1.79,2.11-.1.31.22.94,0,1.24-1.9,2.46-5.21.89-7.87,1.07a1.16,1.16,0,0,1-1.12-.86c-.42-2.86.14-4.43-3.49-4.34-2.26.06-1.25.35-1.49,2.51-.07.61.15,1.19-.25,1.74-1.37,1.91-8.32,1.71-9.3-.48-.73-1.65,1-3-1.73-3.89-3-.95-2,1.25-2.33,2.91s-.69,2-2.1,2.29c-1.19.24-4.41-.07-5.37-.85a2.79,2.79,0,0,1-1-1.53c-.15-.49.25-1.72,0-2.08-.48-.69-2-.67-2.79-.67a4.59,4.59,0,0,1-.84,3.49,3.7,3.7,0,0,1-3,.83,12.1,12.1,0,0,0,1.8,2l.69.32,46.25-.12,13.88,1.13.88.09a1.7,1.7,0,0,1,1.42-1c8.7-.75,17.42-1.23,26.14-1.64l.27-1.64C464.91,418.07,463.43,417.79,462.77,416.2Z" transform="translate(-307.78 -172.96)" style="fill:#cfc5b6"/><path d="M534.11,229.86,533.23,215l-5.12-8.25-12.4-2.61c-8.36,0-16.75.42-25.1-.07a1.07,1.07,0,0,1-.5-.16,9.38,9.38,0,0,1-3.42,1.58,1,1,0,0,1-1.37.31c-.16-.09-.32-.16-.48-.23l-.28,0a1.05,1.05,0,0,1-.36,0,17.62,17.62,0,0,0-7.84.51,4.2,4.2,0,0,0-.71.77,1.44,1.44,0,0,0-1.55,1.86c1.17,3.09.29,6.29.6,9.42a3.23,3.23,0,0,1-1,2.72,1,1,0,0,1-.62.31.36.36,0,0,1-.38-.32,5.77,5.77,0,0,1-2,.91,1.67,1.67,0,0,1-.77.44c-2.07.55-4.85-1.1-5.12-3.21-.39-3.12-1.16-6.2-.95-9.4,0-.66,0-1.33,0-2a3,3,0,0,0-1.1-2.17,1.7,1.7,0,0,1-.46,0c-1.68-.19-3.39,0-5.08-.19a2.09,2.09,0,0,0-.7,1.18,1,1,0,0,1-.11.25,46.35,46.35,0,0,1,1.29,9.37,6.69,6.69,0,0,1-1.1,3.26,1.87,1.87,0,0,1-1.6,1,22.31,22.31,0,0,0-3.9.73c-2.2.46-5-1-5.28-2.67a22.51,22.51,0,0,1-.49-6.69c.28-1.85.43-3.71.62-5.58a2.4,2.4,0,0,0-.18-.35,2.1,2.1,0,0,0-.92-.6c-.07.18-.38.24-.85.25-3.25.11-3.25.12-3.28,3.44,0,.42,0,.83,0,1.25,0,5.17,0,5.2-5.27,6.24a1.79,1.79,0,0,0-1.69,1.8,17.19,17.19,0,0,1-.1,2c-.68,3.58-2.15,6.53-5.74,8.16-4.88,2.21-10,2.25-15.14,1.91a17.06,17.06,0,0,1-5.27-1.41c-4.38-1.82-6.21-5.52-6.77-10-.28-2.24-.24-2.32-2.53-2.46a14.34,14.34,0,0,1-3.91-.77c-2.14-.76-2.53-1.31-2.52-3.67a13.6,13.6,0,0,1,.5-3.69c.63-2.24-.24-3.14-2.56-2.88-1.68.19-2,.55-2.05,2.47,0,2.75.07,5.5,0,8.25s-1.15,3.83-3.6,4.71c-2.61.93-4.88-.53-7.32-.74-.83-.07-1-1-1.18-1.76h0a3.67,3.67,0,0,1-.52-.79l-.14-.21a1,1,0,0,1-.15-.65,11.47,11.47,0,0,1,.23-3.76c.14-1.07.52-2.11.61-3.18.35-4.06-.12-4.53-4.14-4.35-2.45.11-3.43,1-3.74,3.41a13.52,13.52,0,0,0-.06,1.75,12.15,12.15,0,0,1,0,2.24c-.43,2.26,1.23,5-1.49,6.74.48,1.89-1,2.36-2.21,2.63-2,.42-3.71-.61-5.51-1.2a1.19,1.19,0,0,1-.77-1.2c0-.18,0-.36,0-.54a1,1,0,0,1-.62-.94,23.36,23.36,0,0,1,.27-3.13,6.28,6.28,0,0,1,.08-1.09,12,12,0,0,0-.08-6.18c-.3-.82-.92-1.53-1.21-2.35a.94.94,0,0,1-.4-.59,3.39,3.39,0,0,0-.67-1.47,10,10,0,0,0-1.9-.69c-2.59.21-6.33,3.35-8.32,4.31v.45l-33,.73-4.2,6,1.39,30.65,7.75,24c6.33,7.17,12.5,14.64,19.63,21,4.71,4.22,10.77,7.55,14.25,12.83l.07.05L367.61,322l21.23,13.08,2.42,1.13a1.84,1.84,0,0,1,.39.08c3.49,1.14,3.91,4.26,3.59,7.59-.5,5.06-3.27,7.3-7,10.36-3,2.41-5.51,4.76-6.28,8.71-.35,1.81,0,3.61-1.18,5.19-1.62,2.23-4.4,2.55-6,5-1.44,2.26-2,5.07-2.87,7.65.21.79.43,1.59.63,2.42,1.15,4.68-.57,9.34.83,13.9,1.31,4.27.43,8,.06,12.4,0,.19,0,.39-.05.58a1.62,1.62,0,0,1,.66,1.76,20.81,20.81,0,0,0-.53,4.32c.06.14.14.28.21.42l.09,0c.59,0,1.18.08,1.77.08.25,0,.76.06,1-.16s.15-.88.16-1.18c0-.61,0-1.21,0-1.82a1.14,1.14,0,0,1,1.62-1,1.11,1.11,0,0,1,.55-.13c1.44,0,3.73-.22,4.78,1,1.21,1.45-.37,3.55,2.3,3.87,3.08.37,1.07-2.17,2.15-3.86a2.77,2.77,0,0,1,1.7-1.2c1.13-.39,5.11-.32,6.23.76.91.89.6,1.48.83,2.63.56,2.74-.76,1.07,1.29,1.95a6.68,6.68,0,0,1,1.65,0q2.46,1.09,1.73-.82c.43-1.05-.41-2.75.43-3.73,1.19-1.4,7-1,8.3-.06a2.57,2.57,0,0,1,1.17,2.2,4.48,4.48,0,0,1-.06.78q-1,2.13,1.15,1.71l.31,0q3.39,1.81,2.71-.53c.49-1,0-2.27.92-3.24,1.27-1.35,3.06-.9,4.77-.77,3.32.25,3.67,1.44,3.65,4.32,1.47.22,3.52.5,4.1-.68.15-.31-.63-1.61-.49-2.22.3-1.35,1-1.55,2.17-1.88,3.36-.92,6.67-.34,8.1,2.65.77,1.62,1.82,2.81,4.16,1.74,3-1.37.63-.83,1.45-2.5.66-1.34.68-2,2.28-2.42,4.14-1.15,5.33.83,5.82,4a16,16,0,0,0,2.89.1c.39-.39-.16-2.16,0-2.87.42-1.72,1.76-2,3.35-2.1,1.4-.11,4.13-.29,5.3.78.66.6.55,1.57.88,2.3.55,1.22,1.15,1.44,2,1.45.23-1.42.48-2.94.72-4.43-.7-6.76-1.62-13.43-2.54-20.2a32.55,32.55,0,0,1-.24-4.11c-1.41-5-2.6-10.52-5.21-15-1.18-2-2.81-3.66-4-5.67-1.25-2.18-1.94-4.63-3.19-6.81a16.79,16.79,0,0,0-6.22-6.39c-1.25-.73-2.78-1.19-3.86-2.19-1.94-1.79-1.77-4-1.29-6.39l.57-6.16c.37-.13.73-.27,1.11-.39,5.28-3.2,15.92-9.72,17.41-11.21,2-2,18.13-19.12,18.13-19.12s20.38-13,20.63-13.37,11.75-11.25,11.75-11.25l8.75-6.12,8.88-18.12-.75-3.63,2-1.87Zm-197,49.5-16.5-18.25-5.5-22.88L315,221.06c-.46-3.95-1.54-7.2,3.4-7.8,8-1,16.17.5,24.2-.34a.85.85,0,0,1,1,.79.46.46,0,0,0-.06.15c0,.23-.08.45-.11.67a1.13,1.13,0,0,1-.2.25h.16a18.09,18.09,0,0,0-.21,2.36.47.47,0,0,0,.36.46l0,.41a13.52,13.52,0,0,0,0,1.8,19.74,19.74,0,0,1-.23,2.16l-12.07-.36L320.86,224l-.25,15.13s6.88,17.75,7,19.63,14,16.88,14,16.88l6.63,6,1.25,6.25Zm14.83-4.21-4.71-2.92-4.5-4.87-7.37-11.5-3.5-7-.75-4.25-3.25-13.87,7.63-1.25,5.49-.14a1.91,1.91,0,0,1,.38-.06c.93-.06,1.87-.08,2.8-.09l.77-.07a9.86,9.86,0,0,0,.74,4.91.43.43,0,0,0,.18.18l.76,10.4.53,23.64,5.47,5.32Zm50.3,65.67c1,.21,2,.44,3.06.69a46.86,46.86,0,0,0,7.31,1.11,20,20,0,0,1,5.19.18,104.82,104.82,0,0,0,15.2-1.1c.13,1.93.15,3.88.18,5.78a1.1,1.1,0,0,1-.12.54l0,0a8.27,8.27,0,0,1,.11,2.09.67.67,0,0,1-.78.65,1.35,1.35,0,0,1-1.43-.06h-6.7l-5.25-.42-3.08-.58-2.92.5-7.33-.17s-3.92-1-3.92-1.25.17-2.75.17-2.75l-.33-2.75.75-1.67Zm-2.33,58.8a1.11,1.11,0,0,1-.78.07,13.91,13.91,0,0,1-4.2-1.53c-1.25-.82-.08-2.84,1.18-2a12,12,0,0,0,3.64,1.3,1,1,0,0,1,.81.85.88.88,0,0,1,.07.5A.84.84,0,0,1,399.91,399.63Zm1.28-6c-.92-.67-2-1.1-2.92-1.75a1.19,1.19,0,0,1-.42-1.6,1.18,1.18,0,0,1,1.6-.42c.93.65,2,1.08,2.92,1.75a1.19,1.19,0,0,1,.42,1.6A1.18,1.18,0,0,1,401.19,393.66Zm29.9,15.43c-4.2,1.09-8.44.52-12.67.62-3,0-6,0-9,0-.89,0-2.18.23-1.87-1.51.12-.71-.5-.53-.81-.27a3.94,3.94,0,0,1-3,.91c-1.67-.15-2.18-.92-1.59-2.51a77.45,77.45,0,0,1,6.1-12.52A89.16,89.16,0,0,1,414.3,385c3.23-4.23,4.55-3.49,7.25-.16A88.5,88.5,0,0,1,433,404c.14.3.31.59.42.9C434.47,407.8,434.06,408.32,431.09,409.09ZM403.45,384.5a1.2,1.2,0,0,1,1.65,0c.5.44,1,.91,1.51,1.32a1.2,1.2,0,0,1,.42,1.6,1.17,1.17,0,0,1-1.6.42c-.69-.53-1.33-1.11-2-1.68A1.18,1.18,0,0,1,403.45,384.5Zm30.41,1.5c-1,.69-2.13,1.13-3.17,1.75a1.07,1.07,0,0,1-1.47-.31.8.8,0,0,1-.3-.46.58.58,0,0,1,0-.06s0,0,0,0v0s0,0,0-.07a.63.63,0,0,1,0-.16.72.72,0,0,1,.23-.48,1.15,1.15,0,0,1,.41-.41c1-.62,2.17-1.06,3.17-1.75a1.18,1.18,0,0,1,1.6.42A1.2,1.2,0,0,1,433.86,386Zm3.07,3.57a1.17,1.17,0,0,1,1.18,2,22.09,22.09,0,0,1-4.36,2.12c-1.37.45-2-1.59-.79-2.18a1.53,1.53,0,0,1,.87-.34A22.88,22.88,0,0,0,436.94,389.57Zm1.59,9.18a7.18,7.18,0,0,1-3.26,1.08c-1.5-.07-1.5-2.4,0-2.33a4.77,4.77,0,0,0,2.08-.76,1.19,1.19,0,0,1,1.6.42A1.18,1.18,0,0,1,438.53,398.75Zm12.83-25.47c-6.14-.1-12.18-1.27-18.33-1.17-5.4.09-10.63,1.61-16,1.94a172.75,172.75,0,0,1-18.16-.22c-4.9-.21-10.18.63-15-.45-2.14-.48-1.23-3.76.9-3.28,3.09.69,6.1.08,9.21.11,2.89,0,5.79.27,8.67.37a119.45,119.45,0,0,0,16.12-.08c5.42-.55,10.55-1.85,16-1.78s11,1.06,16.5,1.15C453.55,369.91,453.55,373.31,451.36,373.27Zm-6.67-15.53,3.33,2.17,1.75,6-12.67-.17-6,.5-5.25-.5h-4s-6.25,1.17-6.67,1.17a4.72,4.72,0,0,1-1.34-.5h-.65l-1.67.91-14.42.17s-12.67-.5-13-.5,1.75-6.17,1.75-6.17l4-3,6.25-1.25,9,.33,8.33-1,4.08,1.17,14.92.42Zm35.67-82.67,6-5.07.53-3.14s.25-14.25.25-15,1.25-18,1.25-18l-.22-3.33a4.87,4.87,0,0,0,.25-1.7,10.62,10.62,0,0,1-.3-2.1c.17-.1.34-.2.5-.32a.52.52,0,0,0,.18-.23,33.14,33.14,0,0,1,4.5.37l5.47.19,11.13,1.75-1.75,17.75-13.37,21.13-9.12,6.88-4.75,2.5Zm43.12-35.83-4.62,18.5-9.75,16.88-11.5,10-14.5,9.13-1.12-2,1.88-7.87,13.25-9.25L509,263.86l-.37-3.25,1.88-2.5,4.87-12,.13-5.12,1.5-3.87-.12-7.12.13-5.75-1.62-3.5-5-1.5-13.87,1-3.75-1-4.75.5-.25-7.12,1.65.3a.9.9,0,0,1,.73-.25c2.58.2,5.17.24,7.75.2h0c7.76-.12,15.51-.92,23.25.05a1.19,1.19,0,0,1,.76,1.9l.74,0,1.63,3.63Z" transform="translate(-307.78 -172.96)" style="fill:#cfc5b6"/><polygon points="120.41 224.76 120.31 224.86 120.45 224.89 120.41 224.76" style="fill:#cfc5b6"/><polygon points="103.97 217.83 103.83 217.8 103.87 217.93 103.97 217.83" style="fill:#cfc5b6"/><path d="M409.14,406.52a8.18,8.18,0,0,0,2.71.32h6.24v0c2.33,0,4.66,0,7,0a5.51,5.51,0,0,0,3.49-1.15,1.68,1.68,0,0,0,.67-2.17,53.74,53.74,0,0,0-8.89-14.91C419,387,417.59,387,416,388.4a19.56,19.56,0,0,0-2.2,2.37C412,393.07,411,396,408.7,398c.08,1.65-.87,3-1.44,4.39C406.33,404.67,406.79,405.7,409.14,406.52Zm9-11.71c2.5,0,3.68,1.47,3.94,3.59.22,1.84-1.64,3.38-3.81,3.37-2.33,0-3.57-1.2-3.6-3.46S415.78,394.85,418.17,394.81Z" transform="translate(-307.78 -172.96)" style="fill:#cfc5b6"/><path d="M419.8,397c0-.05-.07-.13-.11-.2s-.17,0-.21.07a.23.23,0,0,0,0,.22C419.61,397.22,419.74,397.18,419.8,397Z" transform="translate(-307.78 -172.96)" style="fill:#cfc5b6"/><path d="M416.59,397.72c.11,0,.22-.19.31-.28a.57.57,0,0,0-.38-.6c-.32-.09-.45.12-.41.4S416.31,397.73,416.59,397.72Z" transform="translate(-307.78 -172.96)" style="fill:#cfc5b6"/></svg>
