<svg id="Layer_8" data-name="Layer 8" xmlns="http://www.w3.org/2000/svg" xmlns:xlink="http://www.w3.org/1999/xlink" viewBox="0 0 392 359.11"><defs><radialGradient id="radial-gradient" cx="211.34" cy="178.21" r="166.7" gradientUnits="userSpaceOnUse"><stop offset="0" stop-color="#fff"/><stop offset="1" stop-color="#fff" stop-opacity="0"/></radialGradient><linearGradient id="linear-gradient" x1="421.94" y1="493" x2="421.94" y2="572.46" gradientUnits="userSpaceOnUse"><stop offset="0" stop-color="#296d8d"/><stop offset="1" stop-color="#feb85b"/></linearGradient><linearGradient id="linear-gradient-2" x1="317.14" y1="100.01" x2="317.14" y2="260.72" gradientUnits="userSpaceOnUse"><stop offset="0" stop-color="#236582"/><stop offset="1" stop-color="#296d8d"/></linearGradient><linearGradient id="linear-gradient-3" x1="151.27" y1="131.18" x2="151.27" y2="261.96" xlink:href="#linear-gradient-2"/><linearGradient id="linear-gradient-4" x1="260.86" y1="60.93" x2="260.86" y2="260.17" xlink:href="#linear-gradient-2"/><radialGradient id="radial-gradient-2" cx="199.31" cy="209.74" r="112.5" gradientUnits="userSpaceOnUse"><stop offset="0" stop-color="#feb85b"/><stop offset="0.87" stop-color="#feb85b" stop-opacity="0"/></radialGradient><linearGradient id="linear-gradient-5" x1="421.53" y1="389.11" x2="421.53" y2="482.53" gradientUnits="userSpaceOnUse"><stop offset="0" stop-color="#fff" stop-opacity="0.3"/><stop offset="1" stop-color="#fff" stop-opacity="0"/></linearGradient><linearGradient id="linear-gradient-6" x1="196" y1="229.58" x2="196" y2="291.32" xlink:href="#linear-gradient-5"/><linearGradient id="linear-gradient-7" x1="419.12" y1="238.94" x2="419.12" y2="397.66" gradientUnits="userSpaceOnUse"><stop offset="0" stop-color="#00abd4" stop-opacity="0.7"/><stop offset="1" stop-color="#00abd4" stop-opacity="0"/></linearGradient></defs><title>Survival_icon</title><circle cx="211.34" cy="178.21" r="166.7" style="opacity:0.23;fill:url(#radial-gradient)"/><path d="M601.11,510.39a3.76,3.76,0,0,0-3.75-3.75H246.53a3.75,3.75,0,1,0,0,7.5H337.2a3.75,3.75,0,1,1,0,7.5h-56a3.75,3.75,0,0,0,0,7.5H310.4a3.75,3.75,0,0,1,3.75,3.75,3.76,3.76,0,0,0,3.75,3.75H353.7a3.75,3.75,0,1,1,0,7.5H310.15a3.75,3.75,0,0,0,0,7.5h95.13a3.75,3.75,0,0,1,0,7.5H368.59a3.75,3.75,0,0,0,0,7.5h89.79a3.75,3.75,0,0,0,3.75-3.75,3.76,3.76,0,0,1,3.75-3.75h44.9a3.75,3.75,0,0,0,0-7.5H435.65a3.75,3.75,0,0,1,0-7.5H537.53a3.76,3.76,0,0,0,3.75-3.75,3.75,3.75,0,0,1,3.75-3.75h21.25a3.75,3.75,0,0,0,0-7.5h-29.5a3.75,3.75,0,0,1,0-7.5H572.2a3.76,3.76,0,0,0,3.75-3.75,3.71,3.71,0,0,1,3.71-3.75h17.71A3.76,3.76,0,0,0,601.11,510.39Zm-209.71,26H374a3.75,3.75,0,0,1,0-7.5H391.4a3.75,3.75,0,0,1,0,7.5Zm125.88-11.25a3.76,3.76,0,0,1-3.75,3.75H500.65a3.75,3.75,0,1,1,0-7.5h12.88A3.76,3.76,0,0,1,517.28,525.14Z" transform="translate(-224.94 -207.53)" style="fill:url(#linear-gradient)"/><path d="M542.78,312.15a1.5,1.5,0,0,0,.09-.47c0-1.28-1.5-2.33-3.35-2.33a3.93,3.93,0,0,0-2.72,1,5,5,0,0,0,0-.5c0-3.06-2.79-5.53-6.22-5.53a6.72,6.72,0,0,0-3.63,1c-.1-3.16-3.41-5.7-7.49-5.7s-7.5,2.61-7.5,5.84a4.69,4.69,0,0,0,.49,2.06,6,6,0,0,0-3.35-1,5.67,5.67,0,0,0-5.63,4.29,3.66,3.66,0,0,0-3-1.31c-1.85,0-3.35,1-3.35,2.33v.3Z" transform="translate(-224.94 -207.53)" style="fill:#3691ba"/><polygon points="167.58 267.34 267.39 92.01 367.19 266.57 167.58 267.34" style="fill:#296d8d"/><polygon points="267.08 266.96 367.19 266.57 267.39 92.01 267.08 92.55 267.08 266.96" style="fill:url(#linear-gradient-2)"/><path d="M499.05,320.27c-3.67-1.39-5.62-4.38-7.2-7.72-.11-.23-.14-.58-.43-.58-.52,0-.28.47-.35.74s0,.27,0,.39c-.27.92-.16,2.33-1.27,2.45s-1.23-1.22-1.65-2.1c-.94-2-2.22-3.77-4.45-4.5a4.81,4.81,0,0,1-2.77-2.06c-.84-1.34-2-1.53-3.15-.46a3.16,3.16,0,0,1-3.13.64c-1.57-.36-3.45-.7-4.67.06-2.1,1.31-4.71,2.27-6.12,4.16-1.26,1.7-2.3,3-4.35,3.83a4.59,4.59,0,0,0-2.74,5c.06.63.21,1.35-.27,1.66-1.7,1.11-1.59,2.82-1.5,4.43a1.4,1.4,0,0,1-1.23,1.66c-1.21.35-2.45.6-3.62,1-3.92,1.4-6.82,5.33-4,10.52a5.33,5.33,0,0,0,1.29,1.19c1.51,1.31,1.47,2.81-.33,3.53-1.44.58-1.82,1.22-1.26,2.63a1.21,1.21,0,0,1-.58,1.55c-.52.25-.9-.17-1.17-.52a4.29,4.29,0,0,0-2.49-1.63c.24,1.49.55,3,.93,4.5,2.2,1.89,4.26,3.93,6.31,6a5.52,5.52,0,0,0,2.43,1.64c.41.11.93.25,1.28-.21a1.3,1.3,0,0,0,.13-1.49,6.11,6.11,0,0,0-1.47-1.59c-1.48-1.38-1.51-1.84.17-2.76.17-.09.33-.2.49-.3.56,3.55,4.55,8.31,7.92,9.6a2.5,2.5,0,0,0,1.2,2.53,4.85,4.85,0,0,1-.55,1c-1.87,2.62,2.46,5.12,4.32,2.52,1.39-1.95,1.75-4.82,1.84-7.14a52.52,52.52,0,0,0,0-5.89,50.39,50.39,0,0,1,1.51-9.6,20.39,20.39,0,0,0,1.33-8.38,9.57,9.57,0,0,0-2.2-4.86c0-.15,0-.3,0-.45a.75.75,0,0,1-.26.07c-.33-.46-.65-.94-1-1.45a1,1,0,0,1,.18-.31,13.47,13.47,0,0,1,1.77-2.11c2-1.54,1.43-3.36.66-5.16-1.22-2.83-1.12-3.42,1.19-5.26a2.91,2.91,0,0,0,1.21-1.77c.31-2.58,2.22-3.3,4.27-3.92a10.15,10.15,0,0,0,2.22-.84c.8-.47,1.41-.17,2.2,0,2.27.6,3.62,2.52,5.57,3.59,1,.56,1.54,2,2.31,3.08.59.8-.51,1.37-1.17,1.71-1,.5-2.81.54-2.83,1.36,0,1.12,1.83.78,2.71,1.47a13.23,13.23,0,0,1,4.55,5.84c.16.44.18,1.22.87,1.11.42-.07.51-.67.56-1.17a7,7,0,0,1,6.49-6.13c.35,0,.89.18,1-.38S499.44,320.42,499.05,320.27Zm-7.73,2.23c-.8-.4-1.66-.84-1.62-1.8a1.78,1.78,0,0,1,1.79-1.93A1.52,1.52,0,0,1,493,320.3,2.46,2.46,0,0,1,491.32,322.5Z" transform="translate(-224.94 -207.53)" style="fill:#3691ba;opacity:0.25"/><polygon points="29.58 267.34 110.79 124.67 192 266.71 29.58 267.34" style="fill:#296d8d"/><polygon points="110.55 267.03 192 266.71 110.79 124.67 110.55 125.11 110.55 267.03" style="fill:url(#linear-gradient-3)"/><polygon points="75.45 268.38 199.18 51.01 322.92 267.42 75.45 268.38" style="fill:#296d8d"/><polygon points="198.81 267.9 322.92 267.42 199.18 51.01 198.81 51.67 198.81 267.9" style="fill:url(#linear-gradient-4)"/><path d="M441.57,321.05a5.22,5.22,0,0,0-5.23-3.54,6,6,0,0,0-3.32,1c0-3.87-4.18-7-9.27-7-4.82,0-8.79,2.8-9.23,6.39a6.86,6.86,0,0,0-6.31-3.75,7.12,7.12,0,0,0-5.47,2.44s0-.09,0-.14c0-4.18-3.83-7.56-8.56-7.56a9.27,9.27,0,0,0-5.14,1.52c-.11-5.61-5.68-10.13-12.55-10.13s-12.56,4.61-12.56,10.3a8.57,8.57,0,0,0,.49,2.81,9.34,9.34,0,0,0-4.68-1.23c-4.43,0-8.07,3-8.52,6.78a5.51,5.51,0,0,0-4.76-2.48c-3,0-5.35,2-5.35,4.49,0,0,0,.08,0,.12Z" transform="translate(-224.94 -207.53)" style="fill:#3691ba"/><path d="M323.51,391.47a2.25,2.25,0,0,0,.13-.7c0-1.93-2.26-3.5-5-3.5a5.91,5.91,0,0,0-4.1,1.48,7.5,7.5,0,0,0,0-.75c0-4.6-4.19-8.33-9.37-8.33a10.11,10.11,0,0,0-5.47,1.58c-.14-4.75-5.13-8.58-11.27-8.58s-11.29,3.93-11.29,8.79a7.06,7.06,0,0,0,.74,3.1,9,9,0,0,0-5-1.52,8.53,8.53,0,0,0-8.48,6.46,5.51,5.51,0,0,0-4.51-2c-2.78,0-5,1.57-5,3.5v.45Z" transform="translate(-224.94 -207.53)" style="fill:#3691ba"/><circle cx="199.31" cy="209.74" r="112.5" style="opacity:0.5700000000000001;fill:url(#radial-gradient-2)"/><g id="_3qq53u" data-name="3qq53u"><path d="M538.82,271.46a.22.22,0,0,1-.22-.15,1.85,1.85,0,0,1-.07-.3c-.14-.73-.28-1.47-.43-2.2-.09-.45-.19-.9-.29-1.36a.09.09,0,0,0-.08-.08c-.61-.12-1.22-.26-1.84-.38l-1.83-.35-.2,0a.23.23,0,0,1-.19-.23.23.23,0,0,1,.19-.23l.61-.12,1.65-.31,1.57-.33a.1.1,0,0,0,.1-.09c.11-.58.23-1.15.35-1.73s.24-1.24.36-1.86c0-.11,0-.22.06-.32a.24.24,0,0,1,.37-.16.24.24,0,0,1,.1.17l.24,1.22c.08.39.15.78.22,1.17,0,.18.05.37.08.56l.11.83a1.35,1.35,0,0,1,0,.14c0,.05,0,.06.07.07l2.38.46,1.53.29a.31.31,0,0,1,.17.07.23.23,0,0,1-.07.38,1.26,1.26,0,0,1-.28.06l-2.69.51-1,.2a.09.09,0,0,0-.08.08c0,.25-.08.5-.11.75-.06.42-.13.83-.21,1.24l-.31,1.63c0,.06,0,.12,0,.18A.24.24,0,0,1,538.82,271.46Z" transform="translate(-224.94 -207.53)" style="fill:#3691ba"/></g><g id="_3qq53u-2" data-name="3qq53u"><path d="M549.25,297a.18.18,0,0,1-.18-.12,1.49,1.49,0,0,1-.05-.24c-.11-.59-.23-1.18-.34-1.77-.07-.37-.16-.73-.23-1.09a.07.07,0,0,0-.07-.06l-1.48-.3-1.47-.28-.16,0a.18.18,0,0,1-.15-.18.19.19,0,0,1,.16-.19l.49-.09,1.33-.25,1.27-.26a.08.08,0,0,0,.08-.07l.28-1.39.29-1.5c0-.09,0-.17.05-.26a.19.19,0,0,1,.3-.13.2.2,0,0,1,.08.13l.19,1c.06.31.12.63.18.94,0,.15,0,.3.06.45l.09.66a1.09,1.09,0,0,1,0,.11s0,.05.06.06l1.92.37,1.23.23a.25.25,0,0,1,.13.06.19.19,0,0,1-.05.31,1,1,0,0,1-.22.05l-2.17.41-.83.16a.07.07,0,0,0-.07.07c0,.2-.06.4-.09.6s-.1.67-.17,1l-.25,1.31s0,.1,0,.15A.19.19,0,0,1,549.25,297Z" transform="translate(-224.94 -207.53)" style="fill:#3691ba"/></g><g id="_3qq53u-3" data-name="3qq53u"><path d="M528,273.69a.11.11,0,0,1-.11-.07.9.9,0,0,1,0-.14c-.07-.36-.14-.71-.21-1.07s-.09-.44-.14-.66a0,0,0,0,0,0,0l-.9-.18-.89-.17-.1,0a.11.11,0,0,1-.09-.11.11.11,0,0,1,.09-.11l.3-.06.81-.15.77-.16a0,0,0,0,0,0,0l.17-.84.18-.91,0-.16a.12.12,0,0,1,.18-.08.12.12,0,0,1,.05.08l.12.6.11.57c0,.09,0,.18,0,.27l.05.4a.66.66,0,0,1,0,.07s0,0,0,0l1.16.22.75.14a.15.15,0,0,1,.08,0,.11.11,0,0,1,0,.19l-.14,0-1.31.25-.5.1a0,0,0,0,0,0,0c0,.12,0,.24-.05.37s-.06.41-.1.61l-.15.79,0,.09A.11.11,0,0,1,528,273.69Z" transform="translate(-224.94 -207.53)" style="fill:#3691ba"/></g><g id="_3qq53u-4" data-name="3qq53u"><path d="M491.15,283.4a.09.09,0,0,1-.09-.06.77.77,0,0,1,0-.12l-.18-.91c0-.19-.08-.38-.12-.56a0,0,0,0,0,0,0l-.76-.16-.76-.14-.08,0a.09.09,0,0,1-.08-.09.1.1,0,0,1,.08-.1l.25,0L490,281l.65-.14a0,0,0,0,0,0,0l.14-.72.15-.77,0-.13a.1.1,0,0,1,.15-.07.1.1,0,0,1,0,.07l.1.51.09.49c0,.08,0,.15,0,.23l0,.34a.56.56,0,0,1,0,.06s0,0,0,0l1,.19.63.12a.13.13,0,0,1,.07,0,.1.1,0,0,1,0,.16l-.12,0-1.12.21-.43.08a0,0,0,0,0,0,0l0,.31c0,.17-.05.34-.09.52l-.13.67,0,.08A.1.1,0,0,1,491.15,283.4Z" transform="translate(-224.94 -207.53)" style="fill:#3691ba"/></g><g id="_3qq53u-5" data-name="3qq53u"><path d="M475.91,278.94a.11.11,0,0,1-.11-.07.9.9,0,0,1,0-.14c-.07-.36-.14-.71-.21-1.07s-.09-.44-.14-.66a0,0,0,0,0,0,0l-.9-.18-.89-.17-.1,0a.11.11,0,0,1-.09-.11.11.11,0,0,1,.09-.11l.3-.06.81-.15.77-.16a0,0,0,0,0,0,0l.17-.84.18-.91,0-.16A.12.12,0,0,1,476,274a.12.12,0,0,1,.05.08l.12.6.11.57c0,.09,0,.18,0,.27l.05.4a.66.66,0,0,1,0,.07s0,0,0,0l1.16.22.75.14a.15.15,0,0,1,.08,0,.11.11,0,0,1,0,.19l-.14,0-1.31.25-.5.1a0,0,0,0,0,0,0c0,.12,0,.24-.05.37s-.06.41-.1.61l-.15.79,0,.09A.11.11,0,0,1,475.91,278.94Z" transform="translate(-224.94 -207.53)" style="fill:#3691ba"/></g><g id="_3qq53u-6" data-name="3qq53u"><path d="M583.7,283.6a.09.09,0,0,1-.09-.06.77.77,0,0,1,0-.12l-.18-.91c0-.19-.08-.38-.12-.56a0,0,0,0,0,0,0l-.76-.16-.76-.14-.08,0a.09.09,0,0,1-.08-.09.1.1,0,0,1,.08-.1l.25,0,.69-.13.65-.14a0,0,0,0,0,0,0l.14-.72.15-.77,0-.13a.1.1,0,0,1,.15-.07.1.1,0,0,1,0,.07l.1.51.09.49c0,.08,0,.15,0,.23l0,.34a.56.56,0,0,1,0,.06s0,0,0,0l1,.19.63.12a.13.13,0,0,1,.07,0,.1.1,0,0,1,0,.16l-.12,0-1.12.21-.43.08a0,0,0,0,0,0,0l0,.31c0,.17-.05.34-.09.52l-.13.67,0,.08A.1.1,0,0,1,583.7,283.6Z" transform="translate(-224.94 -207.53)" style="fill:#3691ba"/></g><g id="_3qq53u-7" data-name="3qq53u"><path d="M277,291.39a.22.22,0,0,1-.22-.15,1.85,1.85,0,0,1-.07-.3c-.14-.73-.28-1.47-.43-2.2-.09-.45-.19-.9-.29-1.36a.09.09,0,0,0-.08-.08c-.61-.12-1.22-.26-1.84-.38l-1.83-.35-.2,0a.23.23,0,0,1-.19-.23.23.23,0,0,1,.19-.23l.61-.12,1.65-.31,1.57-.33a.1.1,0,0,0,.1-.09c.11-.58.23-1.15.35-1.73s.24-1.24.36-1.86c0-.11,0-.22.06-.32a.24.24,0,0,1,.37-.16.24.24,0,0,1,.1.17l.24,1.22c.08.39.15.78.22,1.17,0,.18.05.37.08.56l.11.83a1.35,1.35,0,0,1,0,.14c0,.05,0,.06.07.07l2.38.46,1.53.29a.31.31,0,0,1,.17.07.23.23,0,0,1-.07.38,1.26,1.26,0,0,1-.28.06l-2.69.51-1,.2a.09.09,0,0,0-.08.08c0,.25-.08.5-.11.75-.06.42-.13.83-.21,1.24l-.31,1.63c0,.06,0,.12,0,.18A.24.24,0,0,1,277,291.39Z" transform="translate(-224.94 -207.53)" style="fill:#3691ba"/></g><g id="_3qq53u-8" data-name="3qq53u"><path d="M397.79,271a.22.22,0,0,1-.22-.15,1.85,1.85,0,0,1-.07-.3c-.14-.73-.28-1.47-.43-2.2-.09-.45-.19-.9-.29-1.36a.09.09,0,0,0-.08-.08c-.61-.12-1.22-.26-1.84-.38l-1.83-.35-.2,0a.23.23,0,0,1-.19-.23.23.23,0,0,1,.19-.23l.61-.12,1.65-.31,1.57-.33a.1.1,0,0,0,.1-.09c.11-.58.23-1.15.35-1.73s.24-1.24.36-1.86c0-.11,0-.22.06-.32a.24.24,0,0,1,.37-.16.24.24,0,0,1,.1.17l.24,1.22c.08.39.15.78.22,1.17,0,.18.05.37.08.56l.11.83a1.35,1.35,0,0,1,0,.14c0,.05,0,.06.07.07l2.38.46,1.53.29a.31.31,0,0,1,.17.07.23.23,0,0,1-.07.38,1.26,1.26,0,0,1-.28.06l-2.69.51-1,.2a.09.09,0,0,0-.08.08c0,.25-.08.5-.11.75-.06.42-.13.83-.21,1.24l-.31,1.63c0,.06,0,.12,0,.18A.24.24,0,0,1,397.79,271Z" transform="translate(-224.94 -207.53)" style="fill:#3691ba"/></g><g id="_3qq53u-9" data-name="3qq53u"><path d="M348.56,280.61a.18.18,0,0,1-.18-.12,1.49,1.49,0,0,1-.05-.24c-.11-.59-.23-1.18-.34-1.77-.07-.37-.16-.73-.23-1.09a.07.07,0,0,0-.07-.06l-1.48-.3-1.47-.28-.16,0a.18.18,0,0,1-.15-.18.19.19,0,0,1,.16-.19l.49-.09,1.33-.25,1.27-.26a.08.08,0,0,0,.08-.07l.28-1.39.29-1.5c0-.09,0-.17.05-.26a.19.19,0,0,1,.3-.13.2.2,0,0,1,.08.13l.19,1c.06.31.12.63.18.94,0,.15,0,.3.06.45l.09.66a1.09,1.09,0,0,1,0,.11s0,.05.06.06l1.92.37,1.23.23a.25.25,0,0,1,.13.06.19.19,0,0,1-.05.31,1,1,0,0,1-.22.05l-2.17.41-.83.16a.07.07,0,0,0-.07.07c0,.2-.06.4-.09.6s-.1.67-.17,1l-.25,1.31s0,.1,0,.15A.19.19,0,0,1,348.56,280.61Z" transform="translate(-224.94 -207.53)" style="fill:#3691ba"/></g><g id="_3qq53u-10" data-name="3qq53u"><path d="M310.88,267.61a.11.11,0,0,1-.11-.07.9.9,0,0,1,0-.14c-.07-.36-.14-.71-.21-1.07s-.09-.44-.14-.66a0,0,0,0,0,0,0l-.9-.18-.89-.17-.1,0a.11.11,0,0,1-.09-.11.11.11,0,0,1,.09-.11l.3-.06.81-.15.77-.16a0,0,0,0,0,0,0l.17-.84.18-.91,0-.16a.12.12,0,0,1,.18-.08.12.12,0,0,1,.05.08l.12.6.11.57c0,.09,0,.18,0,.27l.05.4a.66.66,0,0,1,0,.07s0,0,0,0l1.16.22.75.14a.15.15,0,0,1,.08,0,.11.11,0,0,1,0,.19l-.14,0-1.31.25-.5.1a0,0,0,0,0,0,0c0,.12,0,.24-.05.37s-.06.41-.1.61l-.15.79,0,.09A.11.11,0,0,1,310.88,267.61Z" transform="translate(-224.94 -207.53)" style="fill:#3691ba"/></g><g id="_3qq53u-11" data-name="3qq53u"><path d="M357.9,286.25a.09.09,0,0,1-.09-.06.77.77,0,0,1,0-.12l-.18-.91c0-.19-.08-.38-.12-.56a0,0,0,0,0,0,0l-.76-.16-.76-.14-.08,0a.09.09,0,0,1-.08-.09.1.1,0,0,1,.08-.1l.25,0,.69-.13.65-.14a0,0,0,0,0,0,0l.14-.72.15-.77,0-.13A.1.1,0,0,1,358,282a.1.1,0,0,1,0,.07l.1.51.09.49c0,.08,0,.15,0,.23l0,.34a.56.56,0,0,1,0,.06s0,0,0,0l1,.19.63.12a.13.13,0,0,1,.07,0,.1.1,0,0,1,0,.16l-.12,0-1.12.21-.43.08a0,0,0,0,0,0,0l0,.31c0,.17-.05.34-.09.52l-.13.67,0,.08A.1.1,0,0,1,357.9,286.25Z" transform="translate(-224.94 -207.53)" style="fill:#3691ba"/></g><g id="_3qq53u-12" data-name="3qq53u"><path d="M383.9,278.37a.09.09,0,0,1-.09-.06.77.77,0,0,1,0-.12l-.18-.91c0-.19-.08-.38-.12-.56a0,0,0,0,0,0,0l-.76-.16-.76-.14-.08,0a.09.09,0,0,1-.08-.09.1.1,0,0,1,.08-.1l.25,0,.69-.13.65-.14a0,0,0,0,0,0,0l.14-.72.15-.77,0-.13a.1.1,0,0,1,.15-.07.1.1,0,0,1,0,.07l.1.51.09.49c0,.08,0,.15,0,.23l0,.34a.56.56,0,0,1,0,.06s0,0,0,0l1,.19.63.12a.13.13,0,0,1,.07,0,.1.1,0,0,1,0,.16l-.12,0-1.12.21-.43.08a0,0,0,0,0,0,0l0,.31c0,.17-.05.34-.09.52l-.13.67,0,.08A.1.1,0,0,1,383.9,278.37Z" transform="translate(-224.94 -207.53)" style="fill:#3691ba"/></g><path d="M599.08,480.42c-5.79-7.24-22.67-27.87-37.72-25.75-1.28.18-11.45,2.54-13.07,2.15s-1.28-2.16-1.32-3.48c-.43-12.45-.77-24.91-1.3-37.36-.5-11.85-1-23.7-2.83-35.45-.13-.87-.94-1.95.35-2.39.49-.17,1.51.44,1.92,1,3.09,4,6.09,8.07,9.13,12.11a36.15,36.15,0,0,0,2.86,3.63c.45.46,1.36.48,2.06.7.18-.72.66-1.49.51-2.14-2.13-9.61-4.16-19.26-8.06-28.36-.46-1.07-1.06-2.08-1.58-3.13-.6-1.21-1.5-2.57-.3-3.74,1-1,2.19.13,3.19.5,10.51,3.91,18.05,11.16,23.3,20.94a19.43,19.43,0,0,0,2.25,4.06c1.06,1.16.88,4.13,3.15,3.33,1.52-.54.68-2.85.48-4.3-1.43-10.4-5.78-19.82-11.15-28.57-3.3-5.37-9.17-8.21-15.66-9.07-.91-.12-2.36-.2-2.58-.71-.56-1.3.74-2.07,1.68-2.69,7.53-4.93,15.38-9,24.74-8.93,1.53,0,4,1.66,4.29-1,.17-1.42-2.18-2.68-3.89-3-7.6-1.54-15.2-3.52-22.9-.31-1.14.48-2.58,2.14-3.64.86s.57-2.78,1.27-4.08c.37-.68,1-1.25,1.26-2s.64-1.71.34-2.07c-1-1.22-1.64.2-2.29.67a46.78,46.78,0,0,0-10.89,11.3c-3.64,5.18-3.8,5.16-6.41-.3a40.57,40.57,0,0,0-9.46-13.18c-.72-.65-1.44-1.69-2.39-1s-.64,1.72-.29,2.7q2.09,5.74,4.14,11.5c.32.91.78,2-.1,2.72s-1.71-.34-2.38-.94c-9.19-8.11-19.28-6.52-29.4-2.46-2.79,1.12-6.23,1.29-8.18,4.15-.72,1.05-3,1.4-2.23,2.95s2.34.25,3.63,0a41.1,41.1,0,0,1,26.48,3.3c1,.48,2.54.84,2.24,2.26s-1.91,1-3,1.07c-7.17.13-13.82,1.81-19.71,6.12-4.17,3.05-6.36,7.44-7.62,12.14-1.08,4,2.36,6.3,5,8.53,1.35,1.15,1.85.07,2.16-1.34,2-9.07,10.16-10.3,17-12.6,4.05-1.36,2.39,2.7,1.95,4.06-2.41,7.42-2,15-1.76,22.58,0,1.24-.79,3.06,1,3.53,2.13.55,2.44-1.46,2.9-2.87a90.66,90.66,0,0,1,8.38-18.57c1.26-2.12,2.6-3.65,4.65-.64.53.78,1.51,2,2.09,1.88,8.06-1.4,6,5.25,6.39,8.76,1.53,13.86,2.74,27.75,3,41.75,0,0,.52,4.7,1,35,.08,5.13-2.27,4.89-6.51,4-4.68-1-9.57-.94-14.42-1.1,0,0-4.13,0-6.94-.28-2-.18-4-.41-6-.62-6-.65-2.46-6.26-13.8-6-1.72,0-1.32-2.95-1.28-4.61.09-3.47-1.16-5.1-4.87-4.57-4.17.59-6.94-.87-6.55-5.63.23-2.81-.85-4-3.63-3.65-4.1.58-5.33-1.57-4.7-5.13s-.83-4.44-4-4.46-5.78-.6-5.27-5c.39-3.37-1.46-5-5.06-4.39-4.93.84-7.51-.95-6.74-6.32a3.82,3.82,0,0,0-1.1-3.74c-2.11-1.85-2.05-5.2-1-6.44,3.41-4,1.53-6.28-.49-10.22-1.78-3.48-3.7-4-6.4-4-14.9,0-29.8.19-44.7.42-3.14,0-6.89,7.46-4.91,10.74,4,6.66-1.54,11.76-2.27,17.59-.26,2.08-3.36,1.14-5.21,1.25-3.47.21-6.2.79-5.12,5.45.77,3.32-1.14,4.67-4.32,4.42-3.85-.3-5.27,1.61-4.84,5.24.39,3.32-1.11,4.66-4.4,4.33-2.42-.25-4.1.28-4.08,3.37,0,4.62-1.79,7.29-7.12,6-2.68-.64-4.78.39-4.19,3.7.82,4.67-1.84,5.8-5.64,5.77-2.41,0-4.92-.43-4.71,3.27,0,.79-.31,1.78-1.16,1.73-7.5-.45-14,4.39-21.45,4-3.45-.17-5.45-.86-5.08-5.47a251.17,251.17,0,0,1,9.53-52.68c.95-3.16,2.08-8.67,5.15-7.87,2.66.69,1.26,6.34.93,9.9-.72,7.85-3.71,15-6.66,22.13-.37.9-1.73,2-.35,3.06,1.08.78,2.14-.13,3.22-.55,7.66-3,14.41-7.35,14.61-16.24.17-7.21-.13-14.77-3.85-21.49-.59-1.06-2.09-2.18-.46-3.52,1.06-.87,2.23-.39,3.3.1,10,4.59,19,10.67,18.62,25.25,0,1.3-.53,2.85,1.15,3.57,1.86.79,2.86-.59,3.92-1.73,5.56-5.93,4.14-20-2.52-24.81q-5.44-3.91-10.95-7.73c-.77-.53-2-.7-1.66-2s1.59-1,2.46-.93c3.84.45,8,.24,11.43,1.73,6,2.63,12.64,2.41,18.52,5.13,1.15.53,2.83,1.2,3.76-.19s0-2.74-1-4.14c-9.11-13-21.85-17.34-37.1-16.12-1.37.11-3.3,1.64-4.11-.39-.34-.87.74-2.46,1.45-3.56,2.94-4.59,6-9.11,9-13.68a14.93,14.93,0,0,0,2.78-6.36c.08-.74.07-1.81-.38-2.21-.89-.81-1.8,0-2.46.65-6.05,5.51-11.94,11.19-16.5,18.06-1.75,2.64-3,6.74-6.08,6.26s-2.27-3.71-2.69-5.82c-1.48-7.39-6.45-12.71-10.64-18.48-.88-1.21-2.23-2.72-3.81-2-2.31,1.09-.79,3.12-.33,4.63,1.55,5,3.07,10,5,14.9,1.32,3.28.41,4.35-2.8,5.18-19.76,5.12-30.08,17.39-32.43,38.18-.2,1.73.22,3.36,2,3.71s3-1.23,3-2.83c0-5.6,3.49-9.73,5.7-14.44,3-6.46,8.74-8.49,14.81-10.19a5.62,5.62,0,0,1,5.81,1.87c1.27,1.62-.88,3.11-1.81,4.47-6.31,9.28-13.68,18-15.07,29.77-.24,2-1.91,4.61.92,5.54,3,1,2.22-2.3,3.05-3.78a21.32,21.32,0,0,1,6.57-7.33c1.93-1.31,3.79-2.75,5.79-3.94,1.65-1,2.56-4.48,4-3.49,2.18,1.54-.22,4.07-.83,6.12-3.16,10.64-4,21.69-5.86,32.56-1.17,6.87-3.15,13.59-3.69,20.57-.16,2-1.8,3.53-6,.62-.77-.53-33.19,14-33.92,13.45-.19,1.48-9.94,5.36-25.5,5.5l-1.66,2Z" transform="translate(-224.94 -207.53)" style="fill:#214968"/><path d="M605.51,483.74a7.49,7.49,0,0,0,.36-2.29,8.17,8.17,0,0,0-6.87-7.84,8.36,8.36,0,0,0-8.55-7.33,8.92,8.92,0,0,0-5.53,1.89,8.92,8.92,0,0,0-14.51.37,8.58,8.58,0,0,0-5.69-3.79c0-.22,0-.45,0-.68,0-4.42-3.84-8-8.58-8a8.4,8.4,0,0,0-8.49,6.88,8.9,8.9,0,0,0-14.61-.12c-3.05-2.55-7.8-4.2-13.15-4.2a22.61,22.61,0,0,0-10.64,2.5,21.18,21.18,0,0,0-12.7-3.83,23.45,23.45,0,0,0-9,1.72c-3-2.66-7.89-4.38-13.36-4.38a23.36,23.36,0,0,0-9.2,1.81c-2.48-4-8.46-6.81-15.47-6.81a21.13,21.13,0,0,0-12.76,3.88c-3-3-8.15-5-14.07-5-5.32,0-10,1.63-13.1,4.15a22.41,22.41,0,0,0-10.9-2.65,21.36,21.36,0,0,0-12.43,3.63A21.41,21.41,0,0,0,374,450c-5.38,0-10.15,1.66-13.2,4.24a22.06,22.06,0,0,0-11.44-3A21.44,21.44,0,0,0,337,454.84a22.36,22.36,0,0,0-11-2.7c-8.62,0-15.71,4.26-16.6,9.73a8.83,8.83,0,0,0-6.51-2.8,8.72,8.72,0,0,0-7.29,3.79,8.47,8.47,0,0,0-8.38-6.29c-4.74,0-8.58,3.58-8.58,8a7.48,7.48,0,0,0,.25,1.9c-.24,0-.48,0-.72,0a8.94,8.94,0,0,0-5.44,1.82,9,9,0,0,0-13.76-.56,9,9,0,0,0-4.88-1.42,8.33,8.33,0,0,0-8.57,7.68,8.28,8.28,0,0,0-8.35,8,7.49,7.49,0,0,0,.23,1.81Zm-35.12-7.09c.06.09.13.17.19.26h-.38C570.25,476.82,570.32,476.74,570.38,476.65Z" transform="translate(-224.94 -207.53)" style="fill:#08334f"/><rect y="275.34" width="392" height="24" rx="12" ry="12" style="fill:#0a3d5e"/><path d="M605.51,483.74a7.49,7.49,0,0,0,.36-2.29,8.17,8.17,0,0,0-6.87-7.84,8.36,8.36,0,0,0-8.55-7.33,8.92,8.92,0,0,0-5.53,1.89,8.92,8.92,0,0,0-14.51.37,8.58,8.58,0,0,0-5.69-3.79c0-.22,0-.45,0-.68,0-4.42-3.84-8-8.58-8a8.4,8.4,0,0,0-8.49,6.88,8.9,8.9,0,0,0-14.61-.12c-3.05-2.55-7.8-4.2-13.15-4.2a22.61,22.61,0,0,0-10.64,2.5,21.18,21.18,0,0,0-12.7-3.83,23.45,23.45,0,0,0-9,1.72c-3-2.66-7.89-4.38-13.36-4.38a23.36,23.36,0,0,0-9.2,1.81c-2.48-4-8.46-6.81-15.47-6.81a21.13,21.13,0,0,0-12.76,3.88c-3-3-8.15-5-14.07-5-5.32,0-10,1.63-13.1,4.15a22.41,22.41,0,0,0-10.9-2.65,21.36,21.36,0,0,0-12.43,3.63A21.41,21.41,0,0,0,374,450c-5.38,0-10.15,1.66-13.2,4.24a22.06,22.06,0,0,0-11.44-3A21.44,21.44,0,0,0,337,454.84a22.36,22.36,0,0,0-11-2.7c-8.62,0-15.71,4.26-16.6,9.73a8.83,8.83,0,0,0-6.51-2.8,8.72,8.72,0,0,0-7.29,3.79,8.47,8.47,0,0,0-8.38-6.29c-4.74,0-8.58,3.58-8.58,8a7.48,7.48,0,0,0,.25,1.9c-.24,0-.48,0-.72,0a8.94,8.94,0,0,0-5.44,1.82,9,9,0,0,0-13.76-.56,9,9,0,0,0-4.88-1.42,8.33,8.33,0,0,0-8.57,7.68,8.28,8.28,0,0,0-8.35,8,7.49,7.49,0,0,0,.23,1.81Zm-35.12-7.09c.06.09.13.17.19.26h-.38C570.25,476.82,570.32,476.74,570.38,476.65Z" transform="translate(-224.94 -207.53)" style="fill:url(#linear-gradient-5)"/><rect y="275.34" width="392" height="24" rx="12" ry="12" style="opacity:0.62;fill:url(#linear-gradient-6)"/><path d="M599.08,480.42c-5.79-7.24-22.67-27.87-37.72-25.75-1.28.18-11.45,2.54-13.07,2.15s-1.28-2.16-1.32-3.48c-.43-12.45-.77-24.91-1.3-37.36-.5-11.85-1-23.7-2.83-35.45-.13-.87-.94-1.95.35-2.39.49-.17,1.51.44,1.92,1,3.09,4,6.09,8.07,9.13,12.11a36.15,36.15,0,0,0,2.86,3.63c.45.46,1.36.48,2.06.7.18-.72.66-1.49.51-2.14-2.13-9.61-4.16-19.26-8.06-28.36-.46-1.07-1.06-2.08-1.58-3.13-.6-1.21-1.5-2.57-.3-3.74,1-1,2.19.13,3.19.5,10.51,3.91,18.05,11.16,23.3,20.94a19.43,19.43,0,0,0,2.25,4.06c1.06,1.16.88,4.13,3.15,3.33,1.52-.54.68-2.85.48-4.3-1.43-10.4-5.78-19.82-11.15-28.57-3.3-5.37-9.17-8.21-15.66-9.07-.91-.12-2.36-.2-2.58-.71-.56-1.3.74-2.07,1.68-2.69,7.53-4.93,15.38-9,24.74-8.93,1.53,0,4,1.66,4.29-1,.17-1.42-2.18-2.68-3.89-3-7.6-1.54-15.2-3.52-22.9-.31-1.14.48-2.58,2.14-3.64.86s.57-2.78,1.27-4.08c.37-.68,1-1.25,1.26-2s.64-1.71.34-2.07c-1-1.22-1.64.2-2.29.67a46.78,46.78,0,0,0-10.89,11.3c-3.64,5.18-3.8,5.16-6.41-.3a40.57,40.57,0,0,0-9.46-13.18c-.72-.65-1.44-1.69-2.39-1s-.64,1.72-.29,2.7q2.09,5.74,4.14,11.5c.32.91.78,2-.1,2.72s-1.71-.34-2.38-.94c-9.19-8.11-19.28-6.52-29.4-2.46-2.79,1.12-6.23,1.29-8.18,4.15-.72,1.05-3,1.4-2.23,2.95s2.34.25,3.63,0a41.1,41.1,0,0,1,26.48,3.3c1,.48,2.54.84,2.24,2.26s-1.91,1-3,1.07c-7.17.13-13.82,1.81-19.71,6.12-4.17,3.05-6.36,7.44-7.62,12.14-1.08,4,2.36,6.3,5,8.53,1.35,1.15,1.85.07,2.16-1.34,2-9.07,10.16-10.3,17-12.6,4.05-1.36,2.39,2.7,1.95,4.06-2.41,7.42-2,15-1.76,22.58,0,1.24-.79,3.06,1,3.53,2.13.55,2.44-1.46,2.9-2.87a90.66,90.66,0,0,1,8.38-18.57c1.26-2.12,2.6-3.65,4.65-.64.53.78,1.51,2,2.09,1.88,8.06-1.4,6,5.25,6.39,8.76,1.53,13.86,2.74,27.75,3,41.75,0,0,.52,4.7,1,35,.08,5.13-2.27,4.89-6.51,4-4.68-1-9.57-.94-14.42-1.1,0,0-4.13,0-6.94-.28-2-.18-4-.41-6-.62-6-.65-2.46-6.26-13.8-6-1.72,0-1.32-2.95-1.28-4.61.09-3.47-1.16-5.1-4.87-4.57-4.17.59-6.94-.87-6.55-5.63.23-2.81-.85-4-3.63-3.65-4.1.58-5.33-1.57-4.7-5.13s-.83-4.44-4-4.46-5.78-.6-5.27-5c.39-3.37-1.46-5-5.06-4.39-4.93.84-7.51-.95-6.74-6.32a3.82,3.82,0,0,0-1.1-3.74c-2.11-1.85-2.05-5.2-1-6.44,3.41-4,1.53-6.28-.49-10.22-1.78-3.48-3.7-4-6.4-4-14.9,0-29.8.19-44.7.42-3.14,0-6.89,7.46-4.91,10.74,4,6.66-1.54,11.76-2.27,17.59-.26,2.08-3.36,1.14-5.21,1.25-3.47.21-6.2.79-5.12,5.45.77,3.32-1.14,4.67-4.32,4.42-3.85-.3-5.27,1.61-4.84,5.24.39,3.32-1.11,4.66-4.4,4.33-2.42-.25-4.1.28-4.08,3.37,0,4.62-1.79,7.29-7.12,6-2.68-.64-4.78.39-4.19,3.7.82,4.67-1.84,5.8-5.64,5.77-2.41,0-4.92-.43-4.71,3.27,0,.79-.31,1.78-1.16,1.73-7.5-.45-14,4.39-21.45,4-3.45-.17-5.45-.86-5.08-5.47a251.17,251.17,0,0,1,9.53-52.68c.95-3.16,2.08-8.67,5.15-7.87,2.66.69,1.26,6.34.93,9.9-.72,7.85-3.71,15-6.66,22.13-.37.9-1.73,2-.35,3.06,1.08.78,2.14-.13,3.22-.55,7.66-3,14.41-7.35,14.61-16.24.17-7.21-.13-14.77-3.85-21.49-.59-1.06-2.09-2.18-.46-3.52,1.06-.87,2.23-.39,3.3.1,10,4.59,19,10.67,18.62,25.25,0,1.3-.53,2.85,1.15,3.57,1.86.79,2.86-.59,3.92-1.73,5.56-5.93,4.14-20-2.52-24.81q-5.44-3.91-10.95-7.73c-.77-.53-2-.7-1.66-2s1.59-1,2.46-.93c3.84.45,8,.24,11.43,1.73,6,2.63,12.64,2.41,18.52,5.13,1.15.53,2.83,1.2,3.76-.19s0-2.74-1-4.14c-9.11-13-21.85-17.34-37.1-16.12-1.37.11-3.3,1.64-4.11-.39-.34-.87.74-2.46,1.45-3.56,2.94-4.59,6-9.11,9-13.68a14.93,14.93,0,0,0,2.78-6.36c.08-.74.07-1.81-.38-2.21-.89-.81-1.8,0-2.46.65-6.05,5.51-11.94,11.19-16.5,18.06-1.75,2.64-3,6.74-6.08,6.26s-2.27-3.71-2.69-5.82c-1.48-7.39-6.45-12.71-10.64-18.48-.88-1.21-2.23-2.72-3.81-2-2.31,1.09-.79,3.12-.33,4.63,1.55,5,3.07,10,5,14.9,1.32,3.28.41,4.35-2.8,5.18-19.76,5.12-30.08,17.39-32.43,38.18-.2,1.73.22,3.36,2,3.71s3-1.23,3-2.83c0-5.6,3.49-9.73,5.7-14.44,3-6.46,8.74-8.49,14.81-10.19a5.62,5.62,0,0,1,5.81,1.87c1.27,1.62-.88,3.11-1.81,4.47-6.31,9.28-13.68,18-15.07,29.77-.24,2-1.91,4.61.92,5.54,3,1,2.22-2.3,3.05-3.78a21.32,21.32,0,0,1,6.57-7.33c1.93-1.31,3.79-2.75,5.79-3.94,1.65-1,2.56-4.48,4-3.49,2.18,1.54-.22,4.07-.83,6.12-3.16,10.64-4,21.69-5.86,32.56-1.17,6.87-3.15,13.59-3.69,20.57-.16,2-1.8,3.53-6,.62-.77-.53-33.19,14-33.92,13.45-.19,1.48-9.94,5.36-25.5,5.5l-1.66,2Z" transform="translate(-224.94 -207.53)" style="fill:url(#linear-gradient-7)"/><path d="M453.21,413.93c.06-1.27-1.1-2.23-2.42-2.57a13.37,13.37,0,0,0-2.78-.47c-3.45-.13-8.51.27-8.76-3.31-.23-3.28-2.82-6.32-2.77-9.94,0-.68.26-97.51.46-190.11h-4.26c-.14,84.45.11,178.56.32,184.8.1,2.86-1.56,3.08-4,4.08s-2.51,2.76-4.19,5.23c-3.14,4.62-4.35,4.19-1.46,8.82,1.29,2.06,1.5,3.92-1,5.07s-2.7,3.22-2.7,5.48a10.22,10.22,0,0,0,2.64,7.28c1.85,2,1.31,3.29-1.43,3.71-2,.31-4.1.35-5.28,2.44a9.92,9.92,0,0,1-6.56,4.92,6.25,6.25,0,0,0-3.09,2c-2.92,3.18-6.42,5.85-6.88,10.78-.33,3.54-3.34,6.25-4,9.84-.55,3.23-2,5.56-5.73,5.67a3.11,3.11,0,0,0-3.28,2.77c-.28,1.73,1,2.49,2.12,3.35.76.58,1.57,1.27,2.52,1.1,2.52-.46,5,.17,7.46.26,1.85.07,4-.64,4-2.47,0-3.71,2.35-6.37,3.46-9.55,1.8-5.17,3.95-10.15,10.09-12,3-.9,2.89-1.35,3,1.53.22,4.68-.52,9.4.56,14a4.32,4.32,0,0,1-.79,3.13c-.93,1.58-2.52,3.09-.54,5,1.49,1.41,3,2.62,5.33,2.53,3-.12,3.81-.9,3.82-4,0-1.55-1.21-3.24-.25-4.59,3.12-4.4,1.86-9.38,2.15-14.13.26-4.34,2.62-7.18,6.92-7.62,1.94-.2,3.75-.17,4.24,2.47.39,2.06,1.72,2.08,3,.67,1.93-2.14,4.42-3.43,6.8-4.92s4.27-3.46,4.58-6.66C455.46,430.27,452.84,422.2,453.21,413.93Z" transform="translate(-224.94 -207.53)" style="fill:#c64c34"/></svg>
