<svg id="Layer_6" data-name="Layer 6" xmlns="http://www.w3.org/2000/svg" viewBox="0 0 185.01 77.07"><title>temple_background</title><g id="TADpVK"><path d="M298.77,560.33l-.11.11,0,0,0,0,.11-.11,0,0Zm-3-5.54h0v0h0Zm15.41,5.75a.47.47,0,0,0-.12.09,0,0,0,0,0,0,0,.46.46,0,0,0,.06-.14l.11-.11a1.71,1.71,0,0,1,.69,0,.59.59,0,0,0,.77-.28.59.59,0,0,1,.7-.34c.16,0,.27-.06.39-.13a5.06,5.06,0,0,1,.55-.32c.25-.11.43-.25.42-.54a.48.48,0,0,1,.28-.43c.34-.2.61-.49.94-.69a.85.85,0,0,0,.44-.73.79.79,0,0,1,.74-.83c.19,0,.29-.12.29-.31,0-.48.31-.68.74-.75.16,0,.3-.11.46-.14.34-.06.6-.19.65-.58a.46.46,0,0,1,.24-.33,1.18,1.18,0,0,0,.56-.8.72.72,0,0,1,.54-.59.55.55,0,0,0,.4-.32,1.51,1.51,0,0,1,1-.89.57.57,0,0,0,.38-.52c.06-.57.15-.64.73-.69a.81.81,0,0,0,.6-.29,1.46,1.46,0,0,0,.4-.79.72.72,0,0,1,.44-.68,1.26,1.26,0,0,0,.76-.84,1.53,1.53,0,0,1,.7-.84,5.85,5.85,0,0,0,.74-.51c.24-.2.59-.29.73-.59s.36-.38.55-.56c.56-.57,1-1.26,1.6-1.79,0,0,0-.06,0-.1a1.36,1.36,0,0,1,.78-.76,1.62,1.62,0,0,0,.87-.82A1.21,1.21,0,0,1,332,541a1.2,1.2,0,0,0,.58-.45,3.46,3.46,0,0,1,.85-.86,12.76,12.76,0,0,0,1.12-1.14c.43-.46.82-1,1.29-1.39s1-1.25,1.66-1.76c.21-.17.49-.3.6-.59s.33-.63.75-.64a.39.39,0,0,0,.29-.21c.39-.6,1.15-.9,1.34-1.67a.49.49,0,0,1,.2-.24,3.35,3.35,0,0,0,.92-1,3.29,3.29,0,0,1,.68-.74,6.08,6.08,0,0,0,1.22-1.39,1.87,1.87,0,0,1,.53-.58,1.53,1.53,0,0,0,.57-.68,1.38,1.38,0,0,1,.6-.66c.32-.18.61-.35.67-.75,0-.14.19-.2.29-.3.39-.4.94-.64,1.25-1.13a1.75,1.75,0,0,1,.75-.64,2.15,2.15,0,0,0,1-1.08.82.82,0,0,1,.39-.39,2,2,0,0,0,1-1,2.32,2.32,0,0,1,.79-1.11c.24-.2.54-.37.66-.68a2.09,2.09,0,0,1,.82-.94,8.12,8.12,0,0,0,1.69-1.65,1.39,1.39,0,0,1,.48-.41.92.92,0,0,0,.48-.54,1,1,0,0,1,.55-.62,1.78,1.78,0,0,0,.95-1.08.83.83,0,0,1,.55-.53,3.9,3.9,0,0,0,1.46-1.17c.36-.4.89-.68,1-1.27,0-.06.1-.1.16-.14.22-.18.46-.34.67-.53a4.7,4.7,0,0,0,1.08-1.15,17.82,17.82,0,0,1,2.61-3.11c.22-.25.53-.45.61-.79a1.13,1.13,0,0,1,.51-.71,2.18,2.18,0,0,0,.58-.54,1,1,0,0,1,.69-.35c.2,0,.33.05.26.27a5.41,5.41,0,0,0-.15,1.69.52.52,0,0,1-.12.4,1.94,1.94,0,0,0-.51,1.25c0,.21-.11.39-.33.43a13.79,13.79,0,0,1-2.73.57.22.22,0,0,0-.19.07c-.21.3-.53.57-.51,1,0,.63-.16,1.23-.12,1.85a.61.61,0,0,1-.09.36,7.91,7.91,0,0,0-.77,2.07.62.62,0,0,1-.6.5,8.35,8.35,0,0,0-2.75.75.6.6,0,0,0-.2.89.17.17,0,0,0,.14.05c.65-.18,1.35-.11,2-.3,1.58-.48,3.22-.69,4.83-1,.21,0,.58-.21.64.11s-.33.31-.56.36c-.74.16-1.49.32-2.24.44-1.49.23-2.9.78-4.39,1-.11,0-.18.1-.26.17a.36.36,0,0,1-.58-.11l.2,0c.08,0,.16-.06.16-.17a.06.06,0,0,0,0,0c-.1-.05-.16,0-.22.07a1.08,1.08,0,0,0-.12.17.71.71,0,0,0-.19.43,21.11,21.11,0,0,1-.55,2.32,1.52,1.52,0,0,0-.07.42,1.19,1.19,0,0,1-1,1.22,5.14,5.14,0,0,0-.75.27,2.06,2.06,0,0,1-1.38.18c-.64-.16-.88.08-1,.75a24,24,0,0,1-1.38,5c-.07.21-.2.42-.44.41a12.14,12.14,0,0,0-2.34.44c-1,.15-.85,0-1.11,1-.45,1.67-.94,3.34-1.48,5-.19.57-.3.66-.89.61a7.12,7.12,0,0,0-1.69.12c-.93.13-1,.23-1.17,1.14,0,.26-.08.52-.14.79a1.49,1.49,0,0,1-.2.65,1.48,1.48,0,0,0-.24.69,13.29,13.29,0,0,1-.8,2.75.8.8,0,0,1-.85.55,8.67,8.67,0,0,0-3,.54.77.77,0,0,0-.54.57c-.5,1.59-1,3.17-1.53,4.75a1.65,1.65,0,0,1-1.45,1.15,15.43,15.43,0,0,1-1.75.12c-.81,0-1.08.22-1.22,1a12.54,12.54,0,0,1-.64,2.3,13.68,13.68,0,0,0-.73,2.71c-.08.49,0,.57.48.55a6.12,6.12,0,0,1,1.43,0,24.88,24.88,0,0,0,4.87.08c1.13,0,2.26-.14,3.4-.15h.42c.15,0,.36,0,.36.21s-.19.18-.32.2a4.8,4.8,0,0,1-.74.09c-1.44,0-2.86.18-4.3.12a4.26,4.26,0,0,0-.8,0,8.25,8.25,0,0,1-2.33-.1,8.09,8.09,0,0,0-3.27,0,1.25,1.25,0,0,1-.37,0,18.45,18.45,0,0,0-2.33.1c-.61.05-.66.1-.71.73a2,2,0,0,1-.06.37c-.08.28,0,.41.32.38l.42,0a12.79,12.79,0,0,1,2.54-.12c2,.22,3.92.17,5.88.35a36.21,36.21,0,0,0,4.4.19c1.18,0,2.36.08,3.55.1,1.79,0,3.58.05,5.36,0a.83.83,0,0,1,.42,0,.21.21,0,0,1,0,.38.49.49,0,0,1-.2.07l-.37,0c-1.13,0-2.27,0-3.4.05-.78,0-1.56-.08-2.33-.06-1.75,0-3.5-.17-5.25-.12h-.21c-1.32-.1-2.65-.19-4-.31-1.15-.11-2.3,0-3.44-.2a18.29,18.29,0,0,0-3.34,0,.45.45,0,0,0-.43.24c-.72,1.13-.9,2.49-1.58,3.63,0,.07,0,.18,0,.26-.09.29.06.34.3.33a2.67,2.67,0,0,1,.85,0,12.89,12.89,0,0,0,2.42.28c1.09.09,2.19.12,3.28.18l5,.27c1.2.07,2.4.09,3.6.19,1.81.16,3.63.26,5.44.47a1.63,1.63,0,0,0,.42,0,19.56,19.56,0,0,1,2.28,0c.74,0,1.48,0,2.22,0a20.56,20.56,0,0,1,3.54.25c1.26.2,2.5.47,3.76.67,1.9.29,3.81.57,5.73.73l2.59.26c.28,0,.38,0,.34-.34a3.21,3.21,0,0,1,0-1.32.5.5,0,0,0-.25-.63,1.24,1.24,0,0,1-.53-.5.55.55,0,0,0-.59-.33c-1.86,0-3.72,0-5.58,0-.72,0-1.45.11-2.17.08-.46,0-.92,0-1.38,0s-1.05.15-1.59.09a24.36,24.36,0,0,0-4.81.08,6.85,6.85,0,0,1-1.88-.28.14.14,0,0,1-.13-.14.16.16,0,0,1,.15-.13,1.73,1.73,0,0,1,.32,0,14.49,14.49,0,0,0,1.85-.12.64.64,0,0,0,.6-.35,8.45,8.45,0,0,0,.67-1.55,11.18,11.18,0,0,0,.5-1.45c0-.09.1-.18.17-.26a.2.2,0,0,1,.24-.08.17.17,0,0,1,.09.22,3.92,3.92,0,0,1-.22.87,18.15,18.15,0,0,1-.78,1.91c-.07.11-.17.26-.07.39s.26.08.4.06a18.08,18.08,0,0,1,2.16-.15c.3,0,.6.09.9.06a13.88,13.88,0,0,1,2.92,0c.87.08,1.73,0,2.59,0,.39,0,.77-.11,1.16-.08,1.41.13,2.83.07,4.25.07.17,0,.39,0,.48-.15s-.13-.26-.23-.38c-.28-.37-.27-.51.17-.72a.52.52,0,0,0,.33-.59c0-.14,0-.28-.06-.42a4.44,4.44,0,0,1-.08-1.63.75.75,0,0,0-.51-.88,6.86,6.86,0,0,0-1.22-.08,9.24,9.24,0,0,0-2.09.17,1.9,1.9,0,0,1-.63,0,3.38,3.38,0,0,0-.48,0c-1.11.1-2.23.15-3.33.31a38.73,38.73,0,0,1-7.1.17c-.35,0-.7-.09-1.05-.14-.07,0-.15,0-.15-.12s.08-.15.17-.15h1.59l.32,0c-.07-.11-.18-.05-.28-.08a1.06,1.06,0,0,1-.39-.17c-.24-.19-.23-.37,0-.55a.91.91,0,0,1,1.29.5c.05.44.3.29.51.31s.27,0,.19-.25c-.14-.44-.12-.45.3-.69.07,0,.21,0,.17-.16s-.16,0-.24,0c-1.12,0-2.23.1-3.34.16a7.9,7.9,0,0,1-1.17,0c-.1,0-.23,0-.22-.17s.13-.11.21-.11a10.2,10.2,0,0,0,1.06-.07,41.67,41.67,0,0,1,6.46-.35,40.7,40.7,0,0,0,5.88.09,16.23,16.23,0,0,1,2.63-.2c.24,0,.34-.12.36-.36a1.23,1.23,0,0,1,.27-.74c.17-.19.07-.29-.14-.3a7.09,7.09,0,0,0-1.48.08,16.67,16.67,0,0,1-3.39.22,4.67,4.67,0,0,1-.79-.11.29.29,0,0,1-.24-.25c0-.17.16-.18.27-.19a19,19,0,0,1,2.11-.24c1.42,0,2.82-.17,4.23-.23.16,0,.3,0,.19-.23s0-.31.24-.32a.28.28,0,0,0,.31-.29,3,3,0,0,1,.2-.93.26.26,0,0,0-.18-.38c-.31-.11-.68-.2-.49-.68,0,0-.06-.08-.09-.13-.26-.39-.26-.41.17-.56.27-.1.33-.21.18-.46a5.16,5.16,0,0,1-.33-.72c-.18-.45,0-.74.48-.81a1.94,1.94,0,0,1,1.09.13,1.71,1.71,0,0,0,.56.17c.45,0,.53,0,.55-.47a2.24,2.24,0,0,1,.13-.88c.15-.33.09-.46-.24-.63-.13-.06-.26-.16-.28.11a1.72,1.72,0,0,1-.36.7c-.18.3-.44.25-.7.15a1,1,0,0,1-.62-.67.17.17,0,0,1,.05-.14.6.6,0,0,0,.26-.6c-.06-.29-.38-.17-.58-.26s-.25-.1-.22-.26.18-.15.3-.15c.44,0,.89.09,1.24-.29,0,0,.14,0,.2,0,.63.09.63-.16.57-.7a4.07,4.07,0,0,1,0-1.48c.09-.35.07-.38-.32-.39s-.85,0-1.27,0a.81.81,0,0,1-.48-.2c-.22-.19-.19-.37.1-.46a1.32,1.32,0,0,1,.68-.07,6.67,6.67,0,0,0,1.27.05c.22,0,.33-.08.26-.33a.45.45,0,0,1,.16-.52.21.21,0,0,0,.09-.28c-.06-.12-.17-.1-.28-.09l-1.22.11a1.08,1.08,0,0,1-.67-.12c-.11-.06-.22-.13-.21-.28a.23.23,0,0,1,.23-.19,4.37,4.37,0,0,0,1.29-.47c.28-.11.16-.4.34-.55s-.15-.19-.25-.28a.84.84,0,0,0-.66-.12.92.92,0,0,1-.82-.3c-.17-.19-.13-.32.11-.39a2.42,2.42,0,0,1,.47-.05,1.29,1.29,0,0,0,1.08-.57.38.38,0,0,1,.14-.15.35.35,0,0,0,.22-.53c-.09-.21,0-.33.22-.29.58.14.88-.07.92-.66a.29.29,0,0,1,0-.1c.26-.53.26-.53-.32-.54h-.85l-.37,0a.15.15,0,0,1-.14-.14c0-.08.08-.12.15-.12l1,0c.94,0,.94,0,1.15-.94,0-.19.14-.39,0-.57-.2-.38-.39-.72.19-1,.15-.06.18-.34.16-.54s-.17-.16-.28-.19-.31.1-.37.28a.75.75,0,0,1-.61.52c-.2,0-.33,0-.36-.23a8.46,8.46,0,0,1-.06-1,.32.32,0,0,1,.2-.34,1.81,1.81,0,0,1,1.43-.13c.14.05.32.15.43,0s.27-.44.1-.64a1.12,1.12,0,0,1-.2-.78,2.66,2.66,0,0,0-.1-.63.37.37,0,0,0-.36-.33,9.32,9.32,0,0,0-1.32,0c-1.33.2-2.67.37-4,.55-.39.05-.4.05-.27.45a1.78,1.78,0,0,1-.16,1.58c-.26.4-.76.64-.69,1.22a.19.19,0,0,1-.23.17.2.2,0,0,1-.14-.2,1.58,1.58,0,0,0-.34-.93.59.59,0,0,1-.06-.47,4.06,4.06,0,0,1,.49-1.39c0-.07.17-.13.12-.22s-.18,0-.28,0l-5.28.93a3.89,3.89,0,0,1-.9.05c-.13,0-.26,0-.27-.19s.13-.2.25-.22l.94-.16c3.36-.64,6.73-1.18,10.13-1.56a.67.67,0,0,0,.35-.09,1.13,1.13,0,0,1,1.05-.15,3.77,3.77,0,0,0,.63,0c.13,0,.4,0,.37-.08-.09-.29.36-.42.14-.76-.35-.55-.29-.7.3-1,.32-.15.2-.21,0-.38s-.18-.49.22-.55.7-.27.63-.81a5.69,5.69,0,0,1,0-1.17c.06-.88.07-.88-.76-1.21l-.1,0c-.18-.08-.51-.06-.46-.33s.35-.21.54-.24.66,0,.58-.49c0,0,0-.1.09-.12.23-.16.13-.29,0-.42l-.2-.17a.3.3,0,0,1-.12-.28c0-.15.18-.17.3-.16a6.32,6.32,0,0,0,.79-.1c.08,0,.2,0,.21-.1s-.08-.16-.16-.2a1.69,1.69,0,0,1-.57-.38c-.09-.1-.23-.2-.17-.36s.22-.15.36-.15.43,0,.41-.33c0,0,.07-.08.1-.11.39-.38.39-.38.16-.88-.08-.17-.24-.32-.13-.54a1.64,1.64,0,0,0,.11-1,.45.45,0,0,1,.12-.44c.36-.36.35-.37,0-.81-.12-.17-.26-.34,0-.56a1.17,1.17,0,0,0,.44-1.2c-.05-.17.09-.33.17-.49a1,1,0,0,0,0-.92c-.12-.25-.17-.42.13-.61a.75.75,0,0,0,.23-.77c0-.21-.35-.26-.58-.29l-.69-.07c-.13,0-.25-.08-.26-.23s.13-.23.29-.25.34.06.4-.06-.16-.25-.21-.4-.08-.16-.11-.24-.05-.29.13-.34c.4-.11.21-.24,0-.42a.66.66,0,0,1,0-.82c.19-.24.39-.19.6,0l.1,0c.15,0,.26,0,.22-.17-.14-.76,0-1.55-.19-2.31a.76.76,0,0,1,0-.42c.12-.45-.15-.85-.59-.76a9.31,9.31,0,0,0-1.53.36,21.91,21.91,0,0,1-4.22,1.22,15.4,15.4,0,0,0-1.57.26,26.4,26.4,0,0,1-3.18.82,1.45,1.45,0,0,0-.35.12,4.63,4.63,0,0,1-1.24.29,8.89,8.89,0,0,0-2.33.51,8,8,0,0,1-1.52.44,1.93,1.93,0,0,0-.95.46c-.88.82-1.81,1.59-2.62,2.48-.54.58-1.09,1.16-1.68,1.7s-1,.83-1.51,1.26c-1.21,1-2.22,2.29-3.48,3.27-.81.63-1.51,1.4-2.35,2a12.87,12.87,0,0,0-1.61,1.38c-1.25,1.21-2.46,2.45-3.7,3.66a22.74,22.74,0,0,1-2.22,2.13,21.86,21.86,0,0,0-1.92,1.6q-1.53,1.43-3.1,2.82a24.45,24.45,0,0,0-2.26,2.39c-.77.9-1.5,1.84-2.23,2.77s-1.71,2-2.59,3c-1.82,2-3.6,4.09-5.46,6.08-.27.28-.5.59-.79.86a7.43,7.43,0,0,1-1.92,1.63s0,.05-.08.07c-.62.45-1.05,1.11-1.67,1.55a15.45,15.45,0,0,0-2,2,34.55,34.55,0,0,1-3,2.8,3.79,3.79,0,0,0-.34.33c-.64.68-1.28,1.37-1.92,2-.26.27-.57.47-.82.76-1,1.18-2.24,2.16-3.36,3.24-.55.53-1.23.9-1.73,1.48-.07.08-.2.15-.14.26s.19,0,.3,0a30.94,30.94,0,0,1,3.55-.13c.83,0,1.66,0,2.49,0a5.61,5.61,0,0,1,1.17,0c.16,0,.35.07.35.26s-.2.17-.33.19a23.18,23.18,0,0,1-4.7.23c-1-.06-2.09,0-3.13,0a.77.77,0,0,0-.65.4c-.12.18-.1.3.14.32h.27c1.73,0,3.46-.25,5.2-.26h.11a23.59,23.59,0,0,1,2.76,0c.25,0,.62.06.61.38s-.36.21-.58.21c-1.59,0-3.19.06-4.78.11-1.33,0-2.65,0-4,0a1,1,0,0,0-.64.2c-.08.06-.22.1-.2.22s.19.14.31.14c.72,0,1.44,0,2.16,0,1.66,0,3.33,0,5,0,.9,0,1.8,0,2.7,0a.82.82,0,0,0,.73-.24c.35-.46.3-1.09.64-1.56a.1.1,0,0,0,0-.1c-.41-.4,0-.59.22-.79a6.32,6.32,0,0,0,1.42-1.5.7.7,0,0,1,.18-.19.22.22,0,0,1,.25,0c.1.05.08.15.06.23a1.5,1.5,0,0,1-.43.84.76.76,0,0,0-.25.34,3.85,3.85,0,0,1-.61,1.11Zm67.39-40.4a.38.38,0,0,0-.33-.08s-.05,0,0,.05l.35,0a3.41,3.41,0,0,0,1.93.43c.06,0,.16,0,.16-.09s-.09-.1-.15-.11A11.76,11.76,0,0,0,378.6,520.15ZM408.16,548c0-.16,0-.26,0-.37s0-.27.12-.32.24.07.31.17a1.56,1.56,0,0,1,.32,1.14c-.09.58-.09.58.46.74a1.34,1.34,0,0,0,.2.06.83.83,0,0,1,.72.66,4,4,0,0,0,1.07,1.86.59.59,0,0,1,.18.43,5.82,5.82,0,0,0,.6,2.08,1.92,1.92,0,0,1,.2.66,7.81,7.81,0,0,0,.38,1.49c.16.49.18.49.72.53a6.44,6.44,0,0,1,1.42.13c.48.14,1,.28,1,.93a.76.76,0,0,0,.1.24,27.29,27.29,0,0,1,1,2.86c.32,1.06.49,2.17.88,3.21.2.54.18.54.79.53a20.17,20.17,0,0,1,4.18.19,25.08,25.08,0,0,0,3.81.16,7.21,7.21,0,0,1,1.79.08,2,2,0,0,0,.31,0c.64.08,1.26-.11,1.9-.06.09,0,.19,0,.23-.08s0-.17-.09-.23a11.67,11.67,0,0,0-1.69-1.83,1,1,0,0,1-.22-.23c-.53-.72-1.07-1.43-1.57-2.17s-1.3-1.25-1.81-2c-.3-.44-.75-.74-1.08-1.17-.76-1-1.52-2-2.32-3s-1.78-2.11-2.68-3.15-1.83-2.25-2.72-3.39-1.91-2.28-2.92-3.36-2-2.16-2.93-3.29-1.9-2.37-2.84-3.56a12.64,12.64,0,0,1-.92-1.16,7.46,7.46,0,0,0-2.13-2.46,1.53,1.53,0,0,1-.27-.26c-1.68-1.84-3.18-3.84-4.75-5.77-1-1.27-2-2.57-3.06-3.87-.7-.89-1.44-1.75-2.13-2.64-1.2-1.56-2.45-3.07-3.79-4.51-1-1.09-2-2.16-3-3.31a9.55,9.55,0,0,0-1.44-1.62,4.74,4.74,0,0,1-1.39-1.66,21.45,21.45,0,0,0-2.32-3.09c-.43-.58-.9-1.14-1.29-1.75a1,1,0,0,0-.81-.53c-.23,0-.25.06-.21.22a9.65,9.65,0,0,0,.58,1.93.58.58,0,0,0,.42.37,10.18,10.18,0,0,1,1,.34,1.16,1.16,0,0,1,.87,1c.13.6.29,1.2.41,1.81.16.83.72,1.5.94,2.3a4.65,4.65,0,0,0,.31.73.9.9,0,0,0,.71.53,2.5,2.5,0,0,1,2,1.48c.23.58.38,1.18.56,1.77a25.79,25.79,0,0,0,.81,2.69,1.2,1.2,0,0,0,.68.68,13.54,13.54,0,0,1,1.65.58c.14.08.29.13.35.3a12,12,0,0,1,.61,1.44c.17.79.46,1.56.7,2.33.13.4.26.81.41,1.21a.64.64,0,0,0,.5.49c.45.08.89.25,1.35.29a.86.86,0,0,1,.79.73,6.38,6.38,0,0,0,.25.76,11.8,11.8,0,0,1,.66,1.85,3.57,3.57,0,0,0,.13.4s.05.12.09.12.06-.07.07-.11a.74.74,0,0,1,0-.16c.08-.2.09-.52.39-.48s.19.34.21.54.06.62-.39.67c-.21,0-.17.21-.12.34a14.63,14.63,0,0,1,.44,1.8.47.47,0,0,0,.43.4c.44,0,.85.24,1.29.32a1.38,1.38,0,0,1,1,.89,23,23,0,0,1,1.56,4.89,4,4,0,0,0,.22.71c.13.32.44.23.7.25s.25-.13.23-.31.06-.2.19-.18a.23.23,0,0,0,.27-.1c.13-.19.23-.08.32,0a.7.7,0,0,1,.1.41c0,.62,0,.63.56.78a.93.93,0,0,1,.62.52,6.45,6.45,0,0,1,.67,1.95,8.66,8.66,0,0,0,.64,2c0,.07.06.19.18.15s.08-.11.09-.18a1.06,1.06,0,0,1,.13-.51.23.23,0,0,1,.44,0,.64.64,0,0,1-.36.89c-.24.08-.26.18-.17.39s.28.69.4,1a1.53,1.53,0,0,0,.33.47.36.36,0,0,0,.44.08c.18-.08.11-.24.08-.37A2.93,2.93,0,0,1,408.16,548Zm26,17.77c.14,0,.3.06.37-.07s-.07-.22-.14-.32a4.33,4.33,0,0,0-1.5-1.47.91.91,0,0,1-.28-.24,30.43,30.43,0,0,1-2-2.45,8.73,8.73,0,0,0-.85-1.09c-.71-.79-1.35-1.64-2-2.5a21.92,21.92,0,0,0-1.36-1.76c-1.32-1.45-2.64-2.91-3.9-4.42-.14-.17-.27-.37-.48-.4-.54-.06-.72-.46-.9-.86a5.44,5.44,0,0,0-.89-1.38c-.74-.88-1.5-1.74-2.21-2.65-1.25-1.63-2.59-3.19-4-4.72-.64-.71-1.33-1.37-2-2.09-1.25-1.44-2.41-3-3.8-4.3a9.82,9.82,0,0,1-1.3-1.54c-.41-.6-.79-1.22-1.22-1.8-1.9-2.51-3.94-4.92-5.9-7.39-1.09-1.37-2.31-2.64-3.38-4a65.54,65.54,0,0,0-5.33-6.41,18.42,18.42,0,0,1-1.66-1.85c-.64-.85-1.29-1.69-2-2.51-.33-.41-.59-.88-1.12-1.09a1,1,0,0,1-.31-.29c-.84-.94-1.52-2-2.32-3s-1.53-2-3-1.9a1.21,1.21,0,0,1-.26,0c-.08,0-.19-.07-.24,0s0,.16.1.22a28,28,0,0,1,2.5,3.22.9.9,0,0,0,.13.17c1.07,1,1.89,2.24,2.85,3.35.82,1,1.55,2,2.38,2.92,1.38,1.57,2.82,3.07,4.26,4.59a21,21,0,0,1,1.63,2,21.13,21.13,0,0,0,1.57,2.08,10.3,10.3,0,0,1,1.24,1.59,15.51,15.51,0,0,0,1.28,1.69c1.09,1.28,2.2,2.55,3.27,3.84s2.06,2.43,3.12,3.62c1.58,1.77,3.21,3.49,4.67,5.37.89,1.15,1.76,2.3,2.68,3.43,1.19,1.47,2.47,2.87,3.68,4.33,1,1.17,2,2.3,2.88,3.54,2,2.8,4.37,5.34,6.53,8,.89,1.1,1.93,2.06,2.89,3.1.28.3.44.69.7,1,.63.74,1.23,1.5,1.88,2.22a9.87,9.87,0,0,1,.94,1.21c.22.33.47.73.88.79C433,565.59,433.58,565.69,434.13,565.76Zm-35.46-58.68c-.18.05-.46-.11-.54.08s.2.33.33.49c1.12,1.3,2.44,2.41,3.48,3.79.69.92,1.48,1.76,2.26,2.61,1.45,1.58,2.92,3.13,4.37,4.7,1,1.09,2,2.2,3,3.29a2.27,2.27,0,0,0,.42.41,7.66,7.66,0,0,1,2.37,2.38,9.46,9.46,0,0,0,1.19,1.36c.64.68,1.34,1.32,1.93,2,2,2.38,4.06,4.63,6.08,7,1.26,1.46,2.58,2.87,3.88,4.29.56.61,1.1,1.25,1.67,1.85s1.28,1.17,1.83,1.84a7.91,7.91,0,0,0,1,.91,27.12,27.12,0,0,1,3.87,4,1.91,1.91,0,0,1,.53.9,2,2,0,0,0,.68,1.22l2.62,2.93c.7.78,1.28,1.65,2,2.37a17.44,17.44,0,0,1,1.29,1.26c.95,1.1,1.92,2.17,2.94,3.21a24.2,24.2,0,0,1,2.42,2.73,9,9,0,0,0,1.59,1.7,6.72,6.72,0,0,1,1.71,1.56c.06.09.19.08.3.09a5.32,5.32,0,0,0,1.37-.16c.17,0,.23-.12.06-.23a1.44,1.44,0,0,1-.65-.93.65.65,0,0,0-.24-.35c-.34-.29-.59-.72-1.08-.83a.32.32,0,0,1-.16-.13c-.51-.74-1.19-1.36-1.66-2.13a10,10,0,0,0-1.47-1.67,6.12,6.12,0,0,1-.54-.58,17.29,17.29,0,0,0-1.56-1.74c-.85-.88-1.71-1.75-2.55-2.63s-1.59-1.76-2.41-2.61c-1-1-2-2.06-3.05-3.11-2-2-3.68-4.31-5.64-6.35a11,11,0,0,0-2.52-2.26,1.26,1.26,0,0,1-.65-.82,2.92,2.92,0,0,0-1-1.48,34.37,34.37,0,0,1-2.83-3.23,66.9,66.9,0,0,0-4.46-5.13c-.49-.48-1-1-1.47-1.46-1.41-1.31-2.53-2.88-4.08-4.07a16.22,16.22,0,0,1-2.44-2.28c-.47-.55-.92-1.11-1.41-1.65-1.74-1.89-3.44-3.81-5.15-5.72-1.05-1.17-2.15-2.3-3.13-3.54a6.51,6.51,0,0,0-1.64-1.72,8.41,8.41,0,0,1-1.71-1.63A1.34,1.34,0,0,0,398.67,507.08Zm-12.16,49.5,4.49.09c2.69.06,5.37.29,8.06.41,3.8.17,7.6.36,11.41.36a10.19,10.19,0,0,0,1.06-.08c.28,0,.38-.15.28-.42a11.7,11.7,0,0,1-.44-1.42c-.1-.4-.2-.45-.61-.39-.19,0-.38.08-.57.12a5.17,5.17,0,0,1-1.63.18,19.63,19.63,0,0,0-2.75-.12c-.37,0-.51-.12-.54-.49s0-.67,0-1-.09-.48-.47-.46a16.75,16.75,0,0,1-2.91-.21l-.53,0c-.26,0-.31.11-.22.33s.17.39.25.59c.31.78.31.78-.3,1.31l0,0c-.16.16-.32.32-.49,0a.22.22,0,0,0-.28-.09,4.3,4.3,0,0,1-1.15.11,6.75,6.75,0,0,1-2.46-.14.77.77,0,0,0-.21,0,11.37,11.37,0,0,0-2.48.14c-.3.07-.4-.07-.4-.32a12.12,12.12,0,0,0-.27-1.78c-.11-.69-.12-.69-.8-.62h-.37l-2.87,0c-.55,0-.6.05-.42.58a9.74,9.74,0,0,1,.26,1.25c0,.19-.32.77-.49.75-.41,0-.82.18-1.21.08-.67-.18-1.39.05-2-.25a.35.35,0,0,0-.21,0,2,2,0,0,1-.68,0c-.61,0-1.23-.06-1.85-.06a4.7,4.7,0,0,1-2.16-.21c-.23-.11-.37-.22-.33-.46.09-.54-.28-1-.34-1.48,0-.23-.42-.3-.49-.1-.13.43-.44.33-.73.32A1.93,1.93,0,0,0,377,554a.28.28,0,0,0,0,.25c.19.31,0,.37-.26.38l-1.06,0c-.14,0-.33,0-.29.2.09.42-.18.35-.43.36-.76,0-1.52,0-2.28.12-1.39.16-2.78.26-4.17.37a2.13,2.13,0,0,0-.78.06,1,1,0,0,0,.85.13,4,4,0,0,1,1.88.17,2.91,2.91,0,0,0,.47.08,30.45,30.45,0,0,0,4.4.21,9.35,9.35,0,0,1,1,0c1.54.13,3.08.18,4.61.2C382.83,556.63,384.63,556.66,386.52,556.58Zm-61.09-24.77v0h1.22a.74.74,0,0,0,.61-.26,3.69,3.69,0,0,1,.49-.56c.13-.1.09-.23-.09-.24a2.1,2.1,0,0,0-.48,0,8.91,8.91,0,0,1-1.54.06,1.15,1.15,0,0,1-.66-.17c-.16-.11-.23-.26,0-.36a.64.64,0,0,0,.37-.59c.05-.44.07-.42.53-.48a23.74,23.74,0,0,0,2.37-.19c.12,0,.25,0,.37,0s0,.18.09.19c.27,0,.53.17.79-.1.69-.74,1.47-1.37,2.14-2.13a6.55,6.55,0,0,1,.51-.54l4.63-4.2a37.17,37.17,0,0,1,3.49-3,8.22,8.22,0,0,0,1.68-1.8,14.5,14.5,0,0,1,2.83-2.72c1.31-1,2.59-2,3.84-3a38.58,38.58,0,0,0,3.72-3.24c.49-.53,1-1,1.57-1.51.09-.08.28-.14.23-.26s-.26,0-.38,0c-1.41.42-2.79.92-4.18,1.39-.87.29-1.71.66-2.6.9-.38.1-.73.28-.79.75a1.18,1.18,0,0,1-.19.43c-.35.62-.61,1.28-.94,1.9a6.1,6.1,0,0,1-1.43,1.95,12.05,12.05,0,0,1-2.58,1.41,2.87,2.87,0,0,0-1.59,1.73,3.88,3.88,0,0,1-.23.54c-.36.69-.75,1.37-1.07,2.07a1.9,1.9,0,0,1-1.26,1,20.29,20.29,0,0,1-2.85.74,1.38,1.38,0,0,0-1.39,1.26,1.78,1.78,0,0,1-1.58,1.6c-.91.12-.9.23-1.27,1.12a3.29,3.29,0,0,1-.58,1,.62.62,0,0,1-.49.25,12.93,12.93,0,0,0-2.09.34,1,1,0,0,0-.87.53c-.58,1.25-1.16,2.5-1.75,3.75-.11.24,0,.33.22.32Zm45.73,17.59H371c-.48,0-.48,0-.49.4s0,.44.51.46h.21c2.5-.12,5,.24,7.47.36,1.42.07,2.82.24,4.23.36,2.07.18,4.14.06,6.21.19,2.49.15,5,.1,7.48.21,1.15,0,2.3,0,3.45-.08,1.49-.07,3,.16,4.46.14,1,0,2.09,0,3.13,0a10.74,10.74,0,0,1,1.68.21c.16,0,.33.05.36-.19a1.1,1.1,0,0,0-1.12-1.24,6.55,6.55,0,0,1-1.42-.1,14.36,14.36,0,0,0-3.06-.15,27.77,27.77,0,0,1-3.93,0,23.75,23.75,0,0,0-2.49-.16,21.66,21.66,0,0,1-2.44,0c-2.45-.25-4.91-.31-7.36-.49-1.45-.11-2.89-.26-4.35-.24l-.21,0c-1.71-.13-3.42-.27-5.14-.37-1.17-.07-2.33-.14-3.49-.29-.25,0-.44,0-.58.22a.72.72,0,0,1-.5.27,4.85,4.85,0,0,1-1.37,0c-.17,0-.4-.06-.45.16C371.74,549.44,371.44,549.41,371.15,549.4Zm7.27-48.65h0c0-.3,0-.6,0-.9.06-.64.06-.63.75-.7a1.92,1.92,0,0,1,1,.27.43.43,0,0,1,.25.44c0,.5.1,1,.12,1.48,0,.81.08.86.9,1,.49.07.48.07.68-.34a.66.66,0,0,1,.17-.26,1.18,1.18,0,0,0,.49-1.1c0-.37.2-.51.55-.45l1.46.27c.3.06.39.23.39.53a17.44,17.44,0,0,0,.14,2.06.42.42,0,0,0,.48.44,6,6,0,0,1,.84.08c.47.08.49,0,.55-.45s0-1.06.05-1.59.23-.62.69-.54a5.12,5.12,0,0,1,.57.14c.49.15.51.19.57.69s.09,1.13.1,1.7c0,.25.11.41.38.39a7.12,7.12,0,0,1,2.24.37,1.77,1.77,0,0,0,.78.1,2.2,2.2,0,0,1,1.58.31,1.21,1.21,0,0,0,.66.17c.23,0,.37-.1.38-.34l.12-2.33a.32.32,0,0,0-.28-.38,4.12,4.12,0,0,0-1.51-.22,2.77,2.77,0,0,1-1.52-.17,8.22,8.22,0,0,1-1.62-.61,1.87,1.87,0,0,0-.55-.2c-.85-.18-1.69-.39-2.54-.55a20.36,20.36,0,0,0-3.33-.62c-.6,0-1.17-.18-1.77-.15a5.79,5.79,0,0,1-1.43-.35c-2.08-.45-4.14-.95-6.19-1.51-.65-.18-1.3-.33-2-.48-.21,0-.42-.1-.52.2s-.06.73.2.8.23.2.15.39a2.75,2.75,0,0,0-.27.85,9.15,9.15,0,0,0,.13,1.42c.08.63.1.62.72.67a23.52,23.52,0,0,1,3,.36c.69.15,1.4.18,2.1.28.25,0,.37,0,.34-.3S378.43,501,378.43,500.75Zm-7.38-3c0-.68,0-.68-.5-.48-.36.14-.73.28-1.1.4-1.66.55-3.36,1-5,1.5s-3.47,1-5.19,1.53c-1.2.38-2.37.81-3.57,1.2a9.6,9.6,0,0,1-2.87.7c-.23,0-.3.13-.28.35.05.83.24,1.64.27,2.47,0,.3.15.38.47.31a7.07,7.07,0,0,0,1.12-.32,26,26,0,0,1,3-.9l3.34-.86a.62.62,0,0,0,.41-.36c.38-.72.09-1.46.09-2.19,0-.09-.08-.15-.15-.21s-.12-.27.06-.4a7.24,7.24,0,0,1,2-.72.54.54,0,0,1,.41.07c.13.07.26.14.24.31s-.15.17-.27.21c-.43.14-.59.33-.49.77s.17,1.15.26,1.73c0,.22.14.32.35.28a6.86,6.86,0,0,0,.88-.21c.74-.25,1.52-.3,2.27-.51,1-.27,2-.31,3-.6a4.83,4.83,0,0,1,1.09-.24c.34,0,.4-.21.38-.5,0-.45-.1-.91-.16-1.35C371,499,371.31,498.31,371,497.75Zm2.75,66.4v0h-.27c-.29,0-.46,0-.33.37a.4.4,0,0,1-.09.39c-.25.39-.24.43.18.6a1,1,0,0,0,.46.11,19.18,19.18,0,0,1,2.28,0c.64,0,1.27-.12,1.91-.11s1,.12,1.48.09c1-.05,1.94-.07,2.91-.1a4.37,4.37,0,0,1,.79-.06,8.79,8.79,0,0,0,2,0,9.44,9.44,0,0,1,1.69,0,16.59,16.59,0,0,0,2.27.14c.83,0,1.66-.14,2.49-.11a7.72,7.72,0,0,0,1.59-.07,9.76,9.76,0,0,1,2.27-.15,17.47,17.47,0,0,0,2.39-.08,13.31,13.31,0,0,1,3.27,0,15.49,15.49,0,0,0,2.63.19c1.91,0,3.81-.19,5.72-.11.91,0,1.8-.15,2.7-.12a40.28,40.28,0,0,0,4.38-.22c.45,0,.47-.11.29-.54a.6.6,0,0,0-.52-.39,6.12,6.12,0,0,0-1.48,0,16.09,16.09,0,0,1-2.65.15,37.08,37.08,0,0,0-4-.19c-1.26,0-2.52-.07-3.77,0a40.66,40.66,0,0,1-6.15.09c-1.3-.1-2.62-.08-3.93-.12-.32,0-.64,0-1,0-2.1-.18-4.2-.12-6.31-.11h-6.48a14.59,14.59,0,0,0-3.85.21,5.06,5.06,0,0,1-2.36,0A4.13,4.13,0,0,0,373.8,564.14Zm21.57-66.79c0-.37-.13-.56-.45-.63-.54-.1-1.07-.23-1.61-.35-.9-.21-1.76-.54-2.67-.68a17,17,0,0,1-1.92-.42c-.68-.19-1.36-.37-2.05-.54-.9-.21-1.8-.36-2.71-.54-1.51-.29-3-.79-4.51-1a1.54,1.54,0,0,1-.6-.21,2.77,2.77,0,0,0-.8-.29c-1.83-.43-3.69-.68-5.48-1.27-.27-.09-.36,0-.35.27a13.29,13.29,0,0,1-.07,2.17c0,.29.13.39.39.46a59,59,0,0,0,6.3,1.24c1.07.15,2.14.3,3.2.51,1.31.25,2.58.65,3.86,1,2,.51,4,.88,6.07,1.35,1,.24,2,.46,3.05.71.25.06.29,0,.3-.24C395.33,498.36,395.08,497.81,395.36,497.35ZM302.14,554a3.3,3.3,0,0,1,.55-1.27c.4-.65,1.12-1,1.38-1.79a.16.16,0,0,1,.22-.1c.1,0,.11.14.1.23a2.29,2.29,0,0,1-.36,1.15,12.9,12.9,0,0,0-1.38,2.62c-.23.56-.42,1.13-.68,1.67a2.67,2.67,0,0,1-.92,1.2,3.87,3.87,0,0,0-1.45,1.32c-.08.14-.33.32-.18.43s.33-.14.44-.29A5.56,5.56,0,0,1,301,558c.64-.5,1.16-1.13,1.76-1.68.36-.33.7-.7,1.09-1a4.92,4.92,0,0,0,1-1,1.47,1.47,0,0,1,.42-.4,5.34,5.34,0,0,0,1.24-1.15,3,3,0,0,1,.53-.52c.57-.38.9-1,1.45-1.39,0,0,.08-.09,0-.14a.19.19,0,0,0-.13-.06,1,1,0,0,0-.21,0,17.39,17.39,0,0,1-3.28,0,11.45,11.45,0,0,0-2.33-.12,2.7,2.7,0,0,1-1.31-.09.53.53,0,0,0-.68.23,3.45,3.45,0,0,1-1,.87c-.28.18-.45.54-.85.56,0,0,0,0,0,0-.22.47-.67.77-.93,1.22-.52.9-1,1.82-1.53,2.73a8.8,8.8,0,0,0-.71,1.42c-.07.21-.26.53-.09.62s.42-.18.6-.34c.45-.39.79-.91,1.38-1.12.14,0,.2-.19.26-.32a4.63,4.63,0,0,0,.27-.75,1.74,1.74,0,0,1,.34-.77c.38-.41.62-1,1.16-1.22.11-.05.18-.21.25-.34.28-.57.69-1.07.94-1.66a1.9,1.9,0,0,1,.46-.58c.07-.07.15-.19.26-.11s.07.21,0,.3c-.24.5-.33,1.06-.58,1.54a5.2,5.2,0,0,1-1.08,1.62,2.82,2.82,0,0,0-.86,1.38,7.24,7.24,0,0,1-1.59,2.9,6.65,6.65,0,0,0-1,1.5,3.61,3.61,0,0,1-.23.42,1.15,1.15,0,0,1-.72.5A.35.35,0,0,1,295,561c-.1-.18.08-.25.18-.33a4.15,4.15,0,0,0,.89-1.61c0-.09,0-.2-.11-.17s-.55,0-.72.29c-.43.65-.86,1.3-1.27,2-.17.28-.13.34.18.37l1.9.18a.49.49,0,0,0,.36-.06,4.67,4.67,0,0,0,1.1-.91c.6-.87,1.37-1.61,1.95-2.5a2,2,0,0,1,.86-.68c.27-.12.52-.15.46-.55,0-.16.13-.33.24-.46a8,8,0,0,0,1-1.63C302.1,554.62,302.34,554.36,302.14,554Zm102.72-4.54h.69l.74,0c.14,0,.3,0,.28-.21a.8.8,0,0,0-.8-.74,19.67,19.67,0,0,1-2.28-.06,20,20,0,0,0-2.81-.17,13.79,13.79,0,0,1-2.38-.18,31,31,0,0,0-4.39-.36,25.75,25.75,0,0,1-2.65-.15c-1.9-.2-3.81-.27-5.72-.39-1.43-.08-2.86-.2-4.29-.27a3,3,0,0,0-1.67.12.23.23,0,0,1-.29-.06.94.94,0,0,0-.74-.21l-2.65-.1-2.49-.12c-.17,0-.4-.07-.49.11s-.37.3-.66.24a1.24,1.24,0,0,0-.53,0,1.42,1.42,0,0,1-1.27-.34c-.47-.38-.95-.16-1.06.43l0,.1c-.07.47,0,.54.44.54a52,52,0,0,1,6.41.3c1.14.13,2.3.11,3.44.23,2.61.26,5.23.32,7.84.51,1.52.11,3,.23,4.56.29,1.7.06,3.38.33,5.09.27a19.28,19.28,0,0,1,2.91.16,14.73,14.73,0,0,0,3,.1A15.83,15.83,0,0,1,404.86,549.48Zm-26.29-9h-1.05c-.42,0-.37,0-.36.45s.13.38.41.44a14.18,14.18,0,0,0,2.9.29,26,26,0,0,1,3,.19,25.62,25.62,0,0,0,2.78.36,16.92,16.92,0,0,1,2.27.2,2.72,2.72,0,0,1,.81.26c.11.05.23.12.2.27s-.17.17-.29.19-.35,0-.53,0h-1.91c-.07,0-.16,0-.17.08s.1.08.16.08c1.5.09,3,.2,4.5.33,1.32.11,2.65.14,4,.22.51,0,1,.18,1.53.17,1.21,0,2.4.1,3.6.18a27.86,27.86,0,0,1,3.28.28c.29.05.6.08.9.11s.34,0,.31-.26a1.29,1.29,0,0,0-.4-.9,2.75,2.75,0,0,0-1.09-.52c-.91-.19-1.85-.29-2.77-.44-1.26-.2-2.54-.17-3.81-.31-.71-.08-1.39-.26-2.1-.31-2.6-.18-5.16-.67-7.74-1-1.05-.12-2.1-.28-3.17-.32C382,540.52,380.27,540.57,378.56,540.44Zm-7.21-48c0-.2,0-.37-.07-.55,0-.46-.05-.48-.48-.31a9.71,9.71,0,0,1-2.28.7,3.79,3.79,0,0,0-.56.17,25.69,25.69,0,0,1-2.63.81,19.85,19.85,0,0,0-3.71,1.1c-1.77.72-3.6,1.29-5.41,1.9-.89.3-1.79.57-2.68.87a.71.71,0,0,0-.56.84,3.79,3.79,0,0,1,0,1c-.05.44.11.53.53.4,1.37-.42,2.65-1.06,4-1.56a17.45,17.45,0,0,1,3.39-1.18,1.83,1.83,0,0,0,.3-.1,10.76,10.76,0,0,1,1.74-.48c1.7-.27,3.31-.89,5-1.19,1-.17,1.89-.45,2.84-.66.46-.1.56-.19.54-.67A3.81,3.81,0,0,1,371.35,492.41Zm17.16,43.77-.4,0s-.13,0-.14,0,.06.11.12.12l.93.22a4,4,0,0,1,.51.15c.19.07.22.2,0,.29s-.5.17-.75.26-.57-.06-.68.18,0,.48,0,.72a1.57,1.57,0,0,0,0,.21c0,.09.07.18.16.19.34,0,.62.25,1,.31,1.17.19,2.34.38,3.51.54.82.12,1.64.24,2.45.43a1.2,1.2,0,0,1,.75.55c.14.22.07.38-.19.42a13.06,13.06,0,0,1-3.17.16,18.25,18.25,0,0,1-1.9-.14.33.33,0,0,0-.29,0,1.78,1.78,0,0,0,.25.07l1.53.19c1,.12,2.09.17,3.11.36,1.87.35,3.78.27,5.65.57.21,0,.35,0,.28-.29-.27-1.06-.5-2.14-.8-3.19s-.38-1.11-1.51-1.14c-1.31,0-2.61-.22-3.91-.35-1.87-.19-3.73-.4-5.57-.75A4.72,4.72,0,0,0,388.52,536.19Zm-70.83,2.12a30.19,30.19,0,0,1,3,.11.62.62,0,0,0,.63-.18c.47-.6,1.05-1.09,1.55-1.66l2.11-2.44.7-.79c.05-.06.13-.13.08-.23s-.15-.08-.24-.08l-.53,0a11.87,11.87,0,0,1-2.12,0c-.29,0-.46-.05-.37-.43s-.36-.24-.49-.45-.19.15-.24.28a3.8,3.8,0,0,1-.46,1c-.28.36-.58.77-1.11.68a5.4,5.4,0,0,0-1,0c-.5,0-.65.14-.76.63a4.82,4.82,0,0,1-.64,1.62.84.84,0,0,1-.73.46c-.49-.05-.94.15-1.41.14a.53.53,0,0,0-.58.43c0,.17-.1.34-.14.51-.08.37-.05.41.32.41Zm-8.28,7.34H308a1.3,1.3,0,0,0-.93.32c-.1.09-.19.17-.15.31.14.61-.05,1.23,0,1.85a1,1,0,0,1-.51.92c-.16.12-.39.13-.42-.11a4.5,4.5,0,0,1-.18-1.52,3.14,3.14,0,0,0,0-.63c0-.32,0-.33-.34-.22a3,3,0,0,0-1.42,1.3c-.1.15-.17.3-.36.36a9.79,9.79,0,0,1-1.32.38.9.9,0,0,0-.78.61c-.18.44-.11.57.37.6s.81,0,1.22,0,.68.08.92-.25c.06-.09.2-.07.3-.07a44.29,44.29,0,0,1,5,.07.71.71,0,0,0,.61-.22c1.08-1,2-2.16,3.08-3.16.06-.06.15-.12.13-.22s-.17-.1-.27-.1A35.48,35.48,0,0,0,309.41,545.64Zm89.79,13.93h-1c-.51,0-.5,0-.49.49s.17.87.17,1.31.08.88.07,1.32a.36.36,0,0,0,.37.42c.33,0,.66.09,1,.09,2,0,4-.16,6-.28.28,0,.42-.12.44-.41a4.45,4.45,0,0,0-.14-1.68,1.07,1.07,0,0,1-.11-.57c.08-.33-.12-.35-.36-.35-.62,0-1.24,0-1.86-.05C402,559.8,400.59,559.57,399.21,559.57Zm-81.53-20.69h-2.55c-.19,0-.4,0-.5.2A2.32,2.32,0,0,1,313,540.3a3.43,3.43,0,0,0-2.38,2.14c-.13.32-.11.36.25.36,1.66,0,3.32,0,5,0,1,0,1,0,1.7-.74.47-.45,1-.87,1.48-1.29a9.45,9.45,0,0,0,1.44-1.48c.07-.09.21-.19.11-.32s-.2-.06-.3-.06Zm35.07-43.19c0,.44.12.53.56.42,2-.51,3.9-1.16,5.81-1.84,1.48-.52,3-1.08,4.48-1.49a30.77,30.77,0,0,0,3-.88,7.45,7.45,0,0,1,1.52-.45c1-.15,1.95-.5,2.92-.74.17,0,.33-.1.31-.3a4.79,4.79,0,0,1,.16-1.1c0-.37,0-.41-.3-.26-1.38.66-2.85,1.07-4.24,1.68a1.59,1.59,0,0,1-.5.16,12.14,12.14,0,0,0-2.63.58c-.71.21-1.46.3-2.16.53a61.83,61.83,0,0,0-7,2.52l-1.55.7C352.88,495.31,352.72,495.45,352.75,495.69Zm23.5,35.62c-.18,0-.35,0-.53.06l-2.51.46c-.1,0-.26,0-.26.11s.18.11.29.14l.16,0,5.77.36c.85.05,1.7,0,2.54.19.66.11,1.33.19,2,.25s1.59.12,2.37.26c1.39.24,2.8.37,4.2.53a4.71,4.71,0,0,1,.74,0,43.24,43.24,0,0,0,5,1c.23,0,.45.08.68.1s.29,0,.22-.24a4.35,4.35,0,0,1-.18-.94.43.43,0,0,0-.49-.43,8.8,8.8,0,0,0-1.43.08,4.2,4.2,0,0,1-.63.07c-.51,0-.61-.09-.72-.58-.05-.24-.1-.48-.16-.72s-.11-.27-.29-.24a3,3,0,0,1-1.74-.37c-.17-.08-.24,0-.21.15s.08.38.11.57c.07.43,0,.54-.47.54s-.81,0-1.22-.06a6.25,6.25,0,0,0-.9,0,9.14,9.14,0,0,1-2.11-.16.68.68,0,0,1-.48-.3c-.21-.31-.49-.42-.78-.22a4.22,4.22,0,0,1-1.62.43.8.8,0,0,1-.87-.25.53.53,0,0,0-.38-.16l-3.54-.33a.42.42,0,0,0-.42.15.7.7,0,0,1-1.26-.05A.81.81,0,0,0,376.25,531.31Zm17.84-1.36h1.22c.11,0,.28,0,.29-.13a.28.28,0,0,0-.24-.3,1.78,1.78,0,0,0-.74,0,2.12,2.12,0,0,1-1.45-.18c-.34-.16-.67-.33-1-.46a1,1,0,0,0-1,0,.73.73,0,0,1-1-.07.62.62,0,0,0-.63-.15.83.83,0,0,1-.47,0,3.3,3.3,0,0,0-1.11-.1,3.26,3.26,0,0,1-1-.16c-.57-.17-.57-.17-1,.24a.47.47,0,0,1-.79-.13c-.09-.35-.09-.7-.51-.85-.07,0-.06-.12,0-.19.06-.22-.09-.28-.25-.31l-.79-.11c-.09,0-.19,0-.22.09a.18.18,0,0,0,.09.18l.27.17c.1.06.26.1.25.25s-.19.19-.31.25a.41.41,0,0,1-.45-.09,3.68,3.68,0,0,0-2-.6,1.6,1.6,0,0,1-.67-.12.87.87,0,0,0-.77,0c-.25.09-.51.15-.76.24a1.23,1.23,0,0,1-.83,0,7.68,7.68,0,0,0-1.6-.38.87.87,0,0,1-.75-.52.56.56,0,0,0-.44-.34c-.77-.14-1.55-.13-2.31-.3-.14,0-.3.08-.24.2.13.29,0,.6.09.88s.06.45.35.46c.71,0,1.39.29,2.09.34,1.57.11,3.13.36,4.69.57,2.7.36,5.4.73,8.09,1.14,1.07.16,2.15.12,3.22.29A14.31,14.31,0,0,0,394.09,529.95Zm-23-34.38c0-.56,0-.57-.48-.4-.32.11-.64.22-1,.3-3,.78-5.85,1.81-8.8,2.61-1.37.37-2.66,1-4,1.43a13,13,0,0,1-1.71.58,18.52,18.52,0,0,0-2,.58,2.73,2.73,0,0,0-.66.33c-.14.09-.25.2-.17.39s.15.36.39.37a1.14,1.14,0,0,0,.57-.11c.93-.46,2-.55,2.91-.95.76-.32,1.61-.39,2.38-.75a12.61,12.61,0,0,1,2-.73c1.3-.35,2.61-.63,3.9-1,1.94-.55,3.89-1.07,5.8-1.69a1.71,1.71,0,0,0,.77-.33C371.22,496,371,495.77,371.07,495.57Zm15.56,67.18v0h3.45c.56,0,.55,0,.67-.52a7.71,7.71,0,0,0,0-1.69c0-.22-.2-.21-.36-.18a2.62,2.62,0,0,1-.56.13c-1-.06-2-.25-2.95-.26s-2.26,0-3.4,0a4.42,4.42,0,0,0-.53.07c-.19,0-.3.12-.28.31.06.53,0,1.06,0,1.59s0,.54.55.54Zm-94.37-2.39a1.79,1.79,0,0,0,.32-.06A2.07,2.07,0,0,0,294,558.8c.12-.53.3-1.06.46-1.58a6.68,6.68,0,0,1,.81-1.55c.24-.38.18-.49-.24-.55a.71.71,0,0,1-.36-.08c-.38-.3-.7-.11-1,.11a2,2,0,0,1-.62.39.4.4,0,0,0-.23.2,5,5,0,0,1-2.25,1.87,3.45,3.45,0,0,0-1.35,1.08,2.35,2.35,0,0,1-.54.64c-.17.11-.14.27,0,.38a7.63,7.63,0,0,0,.79.44c.44.19.49.14.52-.33,0-.19,0-.36.23-.43s.25.09.34.2A3.08,3.08,0,0,0,292.26,560.36Zm85.12-25.87h-.69a1.62,1.62,0,0,0-.26,0c.06.08.15.05.23.07,1,.15,2.07.29,3.11.37,1.48.1,3,.26,4.44.38a54.8,54.8,0,0,1,6.55.66c.21,0,.42.05.63.09,1.47.27,3,.28,4.43.53,1.31.22,2.65.15,4,.36.17,0,.28,0,.25-.21-.12-.68-.25-.82-.94-.94l-.53-.08c-1.11-.13-2.23-.11-3.33-.3a3.31,3.31,0,0,0-.58,0l-.15,0c0,.1.1.06.16.08s.34,0,.33.17-.25,0-.39,0a.56.56,0,0,1-.47-.21,1,1,0,0,0-.59-.32,16.71,16.71,0,0,0-3-.45l-2.42-.3c-.09,0-.22,0-.24,0s.09.13.17.17l.42.23c.1.05.18.13.15.25s-.14.16-.25.16H388a20,20,0,0,1-2.32-.27.85.85,0,0,1-.81-.73.32.32,0,0,0-.3-.3,10.6,10.6,0,0,0-1.75-.1.25.25,0,0,0-.13,0c0,.06.07.06.12.07l.91.29c.12,0,.33,0,.31.21s-.2.11-.31.13a15.36,15.36,0,0,1-3.44,0C379.31,534.71,378.35,534.49,377.38,534.49ZM459,554.4h1.17c.12,0,.28,0,.33-.09s-.08-.26-.16-.37a.64.64,0,0,0-.38-.17,9,9,0,0,0-2.94-.24c-.19,0-.41-.07-.57.06s-.38.05-.54-.11c-.63-.62-1.27-1.22-1.88-1.85a.56.56,0,0,0-.5-.19c-.65,0-1.31.05-2,.07a22.05,22.05,0,0,1-3.66-.18c-.13,0-.32-.08-.39.06s.11.24.22.31a5.65,5.65,0,0,1,1,.93,1.44,1.44,0,0,0,1.15.58,6.32,6.32,0,0,1,1,.12,4,4,0,0,1,1.89.44.59.59,0,0,0,.26.06C455,554.09,457,554.29,459,554.4ZM451.08,551h2.12c.22,0,.37-.08.21-.32-.29-.44-.5-.93-.77-1.39a.72.72,0,0,0-.74-.4,3.34,3.34,0,0,1-.9,0,23.36,23.36,0,0,0-5.33-.2c-.23,0-.34.09-.23.33s.13.54-.24.72-.2.4.07.52a1.48,1.48,0,0,1,.43.19,1.94,1.94,0,0,0,1.57.47,4.71,4.71,0,0,1,1.11,0A15.57,15.57,0,0,0,451.08,551Zm-10.32-9.22c-.05,0-.22-.08-.28.06s.12.2.19.29.25.25.35.4c.21.31.13.55-.23.55s-.52.37-.87.32c-.05,0-.1.09-.09.17a1.78,1.78,0,0,0,.2,1,6.76,6.76,0,0,1,.53.79.5.5,0,0,0,.52.29,25.12,25.12,0,0,0,3.29-.12,4,4,0,0,1,1.48,0c.23,0,.32-.06.19-.26a10.86,10.86,0,0,0-1.32-1.92c-.23-.23-.55-.41-.61-.78s-.32-.47-.65-.5Zm14.71,18h-.85c-.13,0-.27,0-.3.16-.07.31-.26.39-.55.31a.12.12,0,0,0-.16.09.18.18,0,0,0,.09.18.78.78,0,0,0,.61.08,11.41,11.41,0,0,1,1.85-.06c2.24.1,4.48.27,6.72.46a9.58,9.58,0,0,0,3.17-.12,5.25,5.25,0,0,1,2.21-.07,4.5,4.5,0,0,0,.85,0c.12,0,.2-.05.2-.19a1.06,1.06,0,0,0-.9-.92,27.3,27.3,0,0,0-2.75-.09c-.95.07-1.9,0-2.85.11a13.2,13.2,0,0,1-2.64,0,7.44,7.44,0,0,0-1.21,0C457.79,559.81,456.63,559.61,455.47,559.79ZM375,511.54l-.28,0c-.33.07-.34.09-.11.36.09.1.15.19.07.32s0,.39.25.45l.52.11c2,.39,4,.59,5.93,1.15a18.56,18.56,0,0,0,2.45.44c.38.06.42,0,.3-.35-.3-.94-.6-1.89-1-2.81a.72.72,0,0,0-.43-.42,19.35,19.35,0,0,0-2.46-.63s-.13,0-.15,0,0,.11.08.15a.84.84,0,0,1,.17.55,1.74,1.74,0,0,0,.22.86c.17.3.09.66.19,1a.22.22,0,0,1-.21.26c-.13,0-.19-.08-.21-.19s-.06-.31-.09-.47,0-.15-.11-.16-.11.1-.12.18c-.09.52-.18.56-.65.33a.48.48,0,0,1-.22-.22.27.27,0,0,0-.36-.13,7.49,7.49,0,0,1-2.21,0,.92.92,0,0,1-.85-.47C375.62,511.57,375.35,511.56,375,511.54Zm4.23,6.69c-.21,0-.49,0-.47.24a1,1,0,0,1-.33.8c-.11.13-.1.22.07.26l.36.08c1.17.18,2.35.35,3.51.54,1.8.3,3.62.43,5.41.8.41.08.44,0,.35-.36-.19-.86-.49-1.7-.6-2.58,0-.36-.33-.48-.56-.67a.15.15,0,0,0-.19,0c-.08.06,0,.14,0,.19a.59.59,0,0,1,0,.65c-.07.15,0,.31,0,.47s.07.38.09.58a.21.21,0,0,1-.14.25.18.18,0,0,1-.21-.13c-.09-.25-.25-.27-.5-.24a1.07,1.07,0,0,1-1-.38c-.14-.18-.21-.2-.23,0s-.24.37-.52.37c-.76,0-1.49-.3-2.26-.27-.24,0-.35-.19-.41-.42s.06-.45-.11-.61-.45,0-.67-.06l-.21,0c-.21,0-.37,0-.46.24a.48.48,0,0,1-.68.32A1.71,1.71,0,0,0,379.23,518.23Zm-3.52,27.12a6.36,6.36,0,0,0-.74,0,1.46,1.46,0,0,1-1.53-1.32c0-.22,0-.4.31-.36s.26,0,.25-.17,0-.34-.17-.4a2,2,0,0,0-.46-.11l-3.43-.28a.57.57,0,0,0-.53.18c-.28.42-.84.71-.63,1.36,0,.13,0,.24-.13.33s-.06.34.17.39a4.16,4.16,0,0,0,.42,0,19.74,19.74,0,0,1,2.53.26c2.29.53,4.65.37,7,.74.24,0,.33-.06.31-.29a3.22,3.22,0,0,1,0-1,.23.23,0,0,0-.17-.29,2,2,0,0,0-.89-.1.22.22,0,0,0-.2.3c.09.45,0,.51-.4.54S376.28,545.36,375.72,545.35ZM413,559.93v0h-1.48c-.19,0-.44-.1-.56,0s.11.33.14.51c.13.68.22,1.36.29,2s.15.66.72.71l2.69.2c.37,0,.74,0,1.11,0s.46-.11.31-.49a3.3,3.3,0,0,1-.22-.48c-.17-.7-.42-1.38-.64-2.07a.54.54,0,0,0-.62-.44C414.2,559.94,413.61,559.93,413,559.93Zm-23.15-34.55a.9.9,0,0,0-.2-.8c-.21-.21-.27-.22-.38.07s-.14.44-.22.66-.12.37-.34.35-.32-.18-.38-.39a1.07,1.07,0,0,1,.06-.67c.11-.31-.15-.28-.33-.32s-.36,0-.34.24.07.49.09.74c.06.66-.1.82-.76.66a10.35,10.35,0,0,0-2.9-.19c-.45,0-.5,0-.61-.45-.06-.28-.1-.56-.18-.83s-.22-.26-.38-.09a.38.38,0,0,0-.14.28c0,.43-.26.48-.57.52a4.5,4.5,0,0,0-.53.06c-.16,0-.43,0-.44.21a.59.59,0,0,0,.35.5,1.56,1.56,0,0,0,.51.13c.61.07,1.24,0,1.85.15.86.14,1.74.05,2.59.2,1.86.33,3.74.57,5.59,1,.39.09.44,0,.33-.31-.22-.73-.46-1.45-.69-2.18a.58.58,0,0,0-.39-.39c-.66-.23-.8-.11-.71.59a1.09,1.09,0,0,1-.29,1.07c-.3.25-.52.16-.59-.23C389.86,525.76,390,525.58,389.88,525.38Zm7.33,33.13v0h-4.09l-.21,0c0,.1.14.06.21.06a18.51,18.51,0,0,1,2.16.21c2.22.24,4.45.18,6.67.43,1.57.18,3.15.07,4.72.21a1.4,1.4,0,0,0,.73-.1.65.65,0,0,1,.51,0,11.14,11.14,0,0,0,1.56.08c.09,0,.19-.07.28-.13a.66.66,0,0,1,.75-.05.61.61,0,0,0,.3.08c1.31,0,2.62.1,3.92.15.42,0,.46-.07.29-.46-.26-.59-.26-.59-.91-.46a2.48,2.48,0,0,1-.37,0,43.74,43.74,0,0,1-5.82.13c-2.44-.24-4.91-.08-7.37-.23C399.44,558.46,398.33,558.51,397.21,558.51Zm-10.83-4.26h1.25c.29,0,.37-.15.29-.42s-.13-.44-.17-.67c-.11-.55-.11-.6-.67-.58a22.49,22.49,0,0,1-4.53-.4c-.38-.06-.77-.05-1.16-.13s-.64-.2-.79,0,.09.56.17.85a.3.3,0,0,0,.09.13.81.81,0,0,1,.28.71c0,.31.14.38.42.39a11.33,11.33,0,0,1,1.74,0,5.07,5.07,0,0,0,1.36.14C385.29,554.22,385.9,554.34,386.38,554.25Zm-18-1.32c0,.72.09.8.82.81h.27c.74.06,1.48,0,2.22,0,1.11,0,2.22,0,3.33.06.34,0,.44-.09.39-.46a7.74,7.74,0,0,1-.19-1c0-.34-.14-.38-.4-.38-.85,0-1.69.1-2.54,0a24.79,24.79,0,0,1-3-.13.72.72,0,0,0-.93.68A3.32,3.32,0,0,0,368.38,552.93Zm83.47,4.6v-.07c.71,0,1.41,0,2.12,0a7,7,0,0,0,1.15-.18c.36-.08.38-.13.21-.47s-.32-.51-.43-.79a1.18,1.18,0,0,0-1-.74,1.12,1.12,0,0,0-.67,0,1.42,1.42,0,0,1-.78.06,2,2,0,0,0-.48,0c-.37,0-.4.08-.26.41s.32.67.47,1c.07.16.19.35,0,.46s-.3-.12-.38-.27-.1-.19-.14-.28c-.13-.25-.27-.5-.38-.76a.6.6,0,0,0-.57-.37c-.74-.08-1.41.29-2.14.24-.2,0-.17.17-.14.32a1.65,1.65,0,0,1,0,1.09c-.08.2.11.17.22.18Zm-70.08-36.95c-.09,0-.21,0-.26,0s.07.14.12.2.17.16.09.27-.18.09-.29.06a2.77,2.77,0,0,0-.87-.22,6.74,6.74,0,0,1-2.31-.25,2.64,2.64,0,0,0-.47-.08,17.23,17.23,0,0,1-2.06-.19c-.7-.15-1.35.22-2,.1a.1.1,0,0,0-.09,0,.08.08,0,0,0,.07.11l.48,0a30.67,30.67,0,0,1,3.31.42,17.73,17.73,0,0,0,3.31.41,23.81,23.81,0,0,1,5.77.8c1.49.42,3,.52,4.53.9.08,0,.19.06.25,0s-.07-.17-.09-.26c-.1-.47-.41-.59-.85-.57a1.65,1.65,0,0,1-.7-.23,9.3,9.3,0,0,0-1.47-.57c-1.64-.42-3.33-.49-5-.77C382.74,520.71,382.25,520.65,381.76,520.58Zm13.13,26.75a18.72,18.72,0,0,1,1.91.1c.22,0,.29-.07.24-.28-.14-.53-.28-1.06-.41-1.59a.4.4,0,0,0-.43-.32l-.85-.06c-1.07-.09-2.14-.23-3.22-.25-.45,0-.48,0-.4.49a4.16,4.16,0,0,1,.18,1.25c-.06.45,0,.43.44.5C393.18,547.3,394,547.25,394.9,547.33Zm40.6-11.67h-.66c-.23,0-.33.05-.21.32.2.42,0,.69-.46.69l-.48,0c-.08,0-.21,0-.24,0s.09.12.16.16a2.15,2.15,0,0,1,.87.9c.09.19.1.36-.13.42s-.31.32-.43.51-.17.38.21.43,1.06.1,1.59.14c.72,0,1.45.1,2.17.11.45,0,.52-.14.26-.5-.55-.78-1-1.63-1.48-2.45C436.38,535.91,436.06,535.47,435.5,535.66Zm-35.21,18.1c0-.7.14-.77-.75-.76a26.79,26.79,0,0,1-2.69-.19,2.16,2.16,0,0,1-.86-.25,2.62,2.62,0,0,0-1.54-.19c-.24,0-.32.19-.34.4a1.21,1.21,0,0,0,.1.52,5,5,0,0,1,.26,1c0,.36.11.41.48.37s.45-.05.68-.06a18.72,18.72,0,0,0,3.52-.19,1.08,1.08,0,0,1,.37,0C400.25,554.52,400.32,554.46,400.29,553.76Zm57.43,8.14c-.43-.12-.74.4-1.16.69-.09.07,0,.14.06.18a6.13,6.13,0,0,0,1.9.73c.19,0,.34.17.5.29a.71.71,0,0,0,.54.16,10.68,10.68,0,0,0,1.42-.16,1.44,1.44,0,0,1,1.18,0,.78.78,0,0,0,1-.21c.24-.23.1-.45,0-.66s0-.36.06-.54.28-.1.34-.25l-.48,0h-.32c-.64,0-1.27.07-1.91,0C459.86,562.11,458.89,562,457.72,561.9Zm7.95,2.69c-.71,0-1.45,0-2.19.05-.16,0-.35,0-.45.12-.24.35-.6.32-1,.36-.14,0-.38-.08-.38.16a.53.53,0,0,0,.3.47.76.76,0,0,0,.31,0c1,0,2,0,3,0,2.06.06,4.08-.38,6.14-.37l.16,0a.13.13,0,0,0,.11-.14.69.69,0,0,0-.58-.65,4.44,4.44,0,0,0-.58,0c-.8,0-1.59.1-2.39.07S466.54,564.62,465.67,564.59Zm-78.84-47.83c.24,0,.28-.05.23-.27a.93.93,0,0,0-.69-.79c-.76-.2-1.51-.45-2.26-.71a4.79,4.79,0,0,0-.89-.16,14.82,14.82,0,0,1-1.72-.31c-.47-.12-.49-.12-.42.37,0,.21,0,.34-.23.37a1.15,1.15,0,0,1-1.29-.9c0-.16-.06-.31-.25-.36a24,24,0,0,0-2.4-.4c-.14,0-.2.06-.12.19a1.11,1.11,0,0,1,.26.88c0,.09.08.15.17.17l.42.09c1,.16,2.1.29,3.14.5,1.25.25,2.48.57,3.73.83C385.27,516.44,386.07,516.52,386.83,516.76ZM382.42,531c-.07-.47-.17-1-.22-1.48a.49.49,0,0,0-.49-.5c-1.12-.16-2.25-.19-3.36-.42-.2,0-.31,0-.27.26.11.55.2,1.11.34,1.66s.22.66.82.69q1.35.07,2.68.27C382.36,531.52,382.43,531.44,382.42,531Zm70.14,31.63a1.49,1.49,0,0,0-.67.11c-.22.06-.24.19-.09.35l.7.73a2,2,0,0,0,1,.62,3.48,3.48,0,0,1,1.58,1.08.45.45,0,0,0,.21.15,2.5,2.5,0,0,0,1.44.21,4.19,4.19,0,0,1,1-.09,1,1,0,0,0,.71-1,.37.37,0,0,0-.15-.21,2,2,0,0,0-.8-.25c-.17,0-.31.08-.15.25a.51.51,0,0,1,.08.71c-.13.18-.58.16-.83,0s-.45-.34-.66-.53a6.65,6.65,0,0,0-1.06-.79c-.57-.33-.57-.3-.35-.91.05-.15.11-.25.28-.26a1,1,0,0,0,.26-.05.42.42,0,0,0,.3-.34c0-.2-.19-.17-.31-.22l-.25-.09a1.33,1.33,0,0,0-1.49.33A.66.66,0,0,1,452.56,562.61Zm16,1.52v0c.73,0,1.45,0,2.18-.09.5,0,.58-.24.28-.65-.18-.24-.33-.5-.49-.74s-.38-.75-.89-.74c-1,0-1.94.09-2.91.2-.21,0-.34.1-.27.34a.36.36,0,0,1-.16.41c-.18.14-.52.08-.56.33s.29.34.33.58.27.34.52.34Zm-60-9.18c.32,0,.64,0,1-.06s.76-.16,1.14-.23.3-.21.21-.43a2.15,2.15,0,0,1-.23-.64,2.68,2.68,0,0,0-.59-1.17c-.1-.16-.3-.25-.45-.08a1.31,1.31,0,0,1-1,.35c-.58.07-1.16.12-1.74.2a.68.68,0,0,0-.66.93,2.65,2.65,0,0,1,0,.63c0,.21.07.35.3.34C407.2,554.76,407.86,554.95,408.53,554.95Zm-6.74-9.48c-.34-.05-.41.05-.34.26.18.61.37,1.22.55,1.83a.38.38,0,0,0,.37.31c1.09.09,2.18.22,3.28.23.28,0,.35-.11.26-.36l-.69-1.83a.51.51,0,0,0-.53-.36A21.15,21.15,0,0,1,401.8,545.47Zm-12.67-13.34,1,0c.48,0,.5,0,.42-.47s-.17-.76-.19-1.15-.19-.46-.5-.47a16.36,16.36,0,0,1-1.69-.13c-.61-.1-1.22-.23-1.84-.28-.29,0-.34.07-.29.33.09.45.17.9.25,1.36s.18.65.75.7A12.55,12.55,0,0,0,389.12,532.13Zm-5.24,6.62h.27c.12,0,.27,0,.32-.12s-.06-.19-.12-.28a1.57,1.57,0,0,1-.34-.64c0-.19-.24-.3-.45-.32a6.33,6.33,0,0,0-.64,0,11,11,0,0,1-2.12-.1c-.56-.1-1.11-.23-1.66-.32-.39-.07-.48,0-.45.42a5.77,5.77,0,0,0,.23,1.31c.06.2.16.43.4.45.69.07,1.37.11,2.06.15.14,0,.22,0,.23-.22,0-.45,0-.46.46-.44C382.69,538.66,383.29,538.71,383.89,538.75Zm-3.6-31.27-.06-.27c-.13-.63-.33-1.23-.51-1.84a.69.69,0,0,0-.86-.56,1,1,0,0,1-.47,0c-.53-.21-1.12-.16-1.66-.33-.25-.08-.34,0-.25.27,0,.07.08.14.07.2,0,.36.27.73,0,1.07s-.11.27.13.32.58.07.53.38-.4.22-.66.18c0,0-.14,0-.15,0s.06.1.12.12a2.45,2.45,0,0,0,.4.13c1,.19,2,.33,3,.59C380.17,507.82,380.32,507.79,380.29,507.48Zm4.34,39.23c.3-.07.72.19.93-.13a1.45,1.45,0,0,0,0-1,.36.36,0,0,0-.4-.33,10.61,10.61,0,0,1-1.43-.09,19.92,19.92,0,0,1-3.25-.44c-.29-.08-.36,0-.33.29s.09.59.11.89c0,.55,0,.58.55.6C382.11,546.5,383.36,546.65,384.63,546.72Zm50.21-11.57h.66c.11,0,.21,0,.22-.17a1.23,1.23,0,0,0-.76-.91,30.15,30.15,0,0,0-3-.22,12.59,12.59,0,0,1-2.28-.08,1,1,0,0,0-.26,0c-.15,0-.24.09-.16.25.22.46.41,1,1.07.88a1.94,1.94,0,0,1,.32,0C432,535,433.46,535,434.84,535.15Zm-46.31,10.11c-.48,0-1,0-1.43,0s-.43.09-.38.46a1.31,1.31,0,0,1,0,.67c-.15.41-.14.42.31.43.62,0,1.23,0,1.85.09s1.05.11,1.58.14.48-.06.38-.46a5.16,5.16,0,0,1-.21-.82c0-.4-.25-.51-.58-.54A7.7,7.7,0,0,0,388.53,545.26Zm-76.85-.78c1,0,1.85-.05,2.73.05a.88.88,0,0,0,.77-.25,4,4,0,0,0,.4-.42c.08-.1.27-.17.18-.34s-.22-.09-.34-.09l-4.72-.13a.89.89,0,0,0-.67.24c-.35.31-.76.57-1.14.85,0,0-.11.07-.1.1s.1.06.16.05C309.88,544.44,310.82,544.5,311.68,544.48Zm88.59,3.33h.9c.11,0,.21,0,.25-.15A.56.56,0,0,0,401,547a1.17,1.17,0,0,1-1-.57,2.73,2.73,0,0,0-2.22-1.13c-.59,0-.63,0-.49.59a9.84,9.84,0,0,1,.33,1.23c0,.36.23.43.52.46A17.61,17.61,0,0,0,400.27,547.81Zm-24.54-11.29c-.18,0-.49-.13-.44.26a2.43,2.43,0,0,0,.6,1.65.51.51,0,0,1,.22.41c0,.29.21.29.36.23a2.92,2.92,0,0,1,1.51,0c.39.05.46,0,.41-.44s-.14-.91-.18-1.37a.41.41,0,0,0-.42-.44Zm18.81-6.09v0h-.74c-.22,0-.34.08-.28.32.15.62.29,1.24.43,1.86a.27.27,0,0,0,.35.23,8.92,8.92,0,0,1,1.84-.18c.23,0,.33-.1.27-.33l-.39-1.43a.55.55,0,0,0-.54-.43Zm-16.21-7.83-.57,0c-.76,0-.76,0-.68.72,0,0,0,.07,0,.11.05.42.13.51.55.57s1,.16,1.52.22.74.06,1.11.08.36-.11.3-.36-.15-.58-.2-.88-.18-.32-.4-.32A12,12,0,0,0,378.34,522.6Zm5,17.23h-.9c-.07,0-.15,0-.13.12s.08.06.13.07l.42,0a31.72,31.72,0,0,1,3.65.29c.73.14,1.47.18,2.21.25.09,0,.24.09.27,0s-.13-.14-.22-.2a3.2,3.2,0,0,0-.69-.27,1.39,1.39,0,0,1-.77-.54c-.15-.22-.23-.48.05-.65a.53.53,0,0,0,.24-.63,1.42,1.42,0,0,1,0-.48c.07-.34-.06-.46-.39-.41H387c-.24,0-.39,0-.38.36a.94.94,0,0,1-.46.84c-.27.18-.25.35,0,.53a1.61,1.61,0,0,1,.46.35c.13.18.12.33-.12.4a2.7,2.7,0,0,1-.68.08C385,540,384.21,539.82,383.38,539.83Zm1-16.16c-.59,0-.63,0-.51.57,0,.17.07.35.11.52.08.44.14.5.6.47a5,5,0,0,1,1.16,0c.4.06.81.11,1.2.19s.37,0,.34-.28-.07-.6-.09-.9a.34.34,0,0,0-.38-.35A20.18,20.18,0,0,1,384.41,523.67Zm62.14,23.14h-.37c-.2,0-.27.07-.1.24s.15.13.16.2c.11.5.46.5.88.51a20.33,20.33,0,0,1,4.06.29,2,2,0,0,0,.47,0c.23,0,.25-.12.16-.32a1,1,0,0,0-1-.6,25,25,0,0,0-3.43-.19.33.33,0,0,1-.2-.05A1.28,1.28,0,0,0,446.55,546.82Zm15.27,11.46c.47.14.89-.08,1.33-.09.09,0,.24.06.25-.1s-.11-.18-.21-.2a2.26,2.26,0,0,0-.37,0c-.64,0-1.28,0-1.91,0-2-.08-4,.11-6,.2-.15,0-.33,0-.33.23s.1.32.32.31a8.25,8.25,0,0,0,1.06-.07,6.6,6.6,0,0,1,2.06-.08,1.84,1.84,0,0,0,.53,0C459.61,558.3,460.74,558.52,461.82,558.28ZM372.6,530.35h.8c.09,0,.23,0,.21-.1,0-.32.15-.43.39-.54a.16.16,0,0,0,.07-.19c-.06-.42-.13-.84-.2-1.25,0,0-.06-.08-.09-.12a1.36,1.36,0,0,0-.07.13c0,.12-.07.24-.13.35a1,1,0,0,1-1,.48,1.65,1.65,0,0,1-.64-.55.34.34,0,0,1,0-.44.1.1,0,0,0,0-.14.11.11,0,0,0-.14,0,.84.84,0,0,0-.17.26c-.14.55-.26,1.1-.38,1.65,0,.2.08.28.26.32A4.2,4.2,0,0,0,372.6,530.35Zm45.74-8.28h1c.2,0,.39,0,.43-.26s-.13-.38-.37-.39a8.46,8.46,0,0,1-1.88-.24,13.18,13.18,0,0,0-2.09-.33,1.18,1.18,0,0,0-.57.07c-.11,0-.13.12-.05.2.38.36.69.81,1.3.82S417.58,522.1,418.34,522.07Zm-39-13.7a.29.29,0,0,0-.22,0c-.08.09,0,.15.06.22.29.5.24.59-.34.6h-.16s-.09,0-.1,0,0,.1.08.11a3,3,0,0,0,.41.13c.5.1,1,.16,1.51.28a15,15,0,0,1,2.06.5c.09,0,.25.07.18-.12-.17-.46-.33-.94-.91-1.06a7,7,0,0,1-.71-.23A11.75,11.75,0,0,0,379.38,508.37Zm-24.13,47.5h-.66l-.37,0c.1.09.23.05.34.08.32.09.77.12.84.46s.36.39.64.36l4.39-.41a2,2,0,0,0,.36-.08c.07,0,.14-.06.14-.14s-.12-.11-.2-.11h-1.27C358,556.09,356.6,555.95,355.25,555.86Zm101.53,1.27a5.86,5.86,0,0,0,.9-.07c.78-.12.78-.12.36-.82-.13-.21-.19-.5-.46-.55-.57-.1-1.15-.17-1.73-.23-.23,0-.33.1-.22.33a8.12,8.12,0,0,1,.37.82C456.14,557,456.39,557.23,456.78,557.14ZM376.2,542.35a8,8,0,0,0-1.79.1c-.08,0-.17,0-.22.09a2,2,0,0,0,.25.05c1,.08,1.9.18,2.86.2,1.15,0,2.29.12,3.44.18l2.92.14c.1,0,.24.05.27-.05s-.15-.05-.23-.08a11.77,11.77,0,0,0-2.3-.37C379.66,542.49,377.91,542.43,376.2,542.35Zm6,18.81c-.1-.9-.09-1-.92-.87-.24,0-.57-.16-.72.14a1.18,1.18,0,0,0,0,.78c.07.26,0,.57.27.77s.58.27.41.68c0,0,0,.06,0,.08.22.18.79,0,.79-.31A8.64,8.64,0,0,1,382.19,561.16Zm-11.83,2.77h-.42c-.47,0-.49,0-.45.49a1.51,1.51,0,0,1-.05.88c-.11.21.09.23.23.22a4.7,4.7,0,0,1,1.36,0,.91.91,0,0,0,.31,0c.25,0,.39-.19.34-.44-.22-1.14.09-1.07-1.16-1.16Zm6.55-61.24a1.3,1.3,0,0,0-.52.07c-.26.1-.23.34-.25.54s.18.19.3.22l2.49.51c.12,0,.24.08.35,0s0-1-.23-1C378.33,503,377.63,502.73,376.91,502.7ZM443,541.41h.16c.15,0,.37.09.41-.1a.51.51,0,0,0-.25-.49.56.56,0,0,0-.25-.06l-2.88-.4a.62.62,0,0,0-.52.2.35.35,0,0,0,.22.65C440.89,541.18,441.92,541.37,443,541.41Zm17.68,15.43h0a5.47,5.47,0,0,0,.74-.05c.27-.05.71,0,.77-.19s-.25-.59-.42-.87a.27.27,0,0,0-.27-.14l-2,.17c-.16,0-.2.09-.16.26.18.64.41.82,1.08.82ZM428,529.2c-.16,0-.3.07-.31.22,0,.36-.18.73.15,1s.28.36,0,.59,0,.24.13.25l.16,0a1.2,1.2,0,0,1,1.39.9,1,1,0,0,0,.28.38c.09.09.21.18.32.09s0-.2-.05-.28c-.36-.56-.73-1.13-1.05-1.72-.21-.39-.44-.77-.66-1.15A.52.52,0,0,0,428,529.2Zm-49.46-11.46.57,0c.11,0,.21,0,.27-.13a.7.7,0,0,0-.33-.8c-.6-.16-1.2-.29-1.8-.42a.34.34,0,0,0-.35.07c-.15.17,0,1,.22,1C377.67,517.45,378.07,518,378.58,517.74Zm5.76.39c0-.55-.09-.75-.41-.81-.5-.09-1-.14-1.52-.2-.14,0-.25,0-.25.19s0,.53,0,.79a.2.2,0,0,0,.2.21c.52,0,1,.19,1.51.23S384.35,518.52,384.34,518.14Zm37.2,7.06a1.91,1.91,0,0,0-.33-.59,6,6,0,0,1-.76-.95.87.87,0,0,0-.28-.24c-.34-.23-.29-.2-.5.16s0,.53.12.8c.29.75.94.84,1.58,1C421.47,525.36,421.55,525.33,421.54,525.2Zm-43.87-13.67c.14,0,.45.13.48-.25a.86.86,0,0,0-1-1c-.36,0-.56.27-.58.68s0,.42.48.51A2.12,2.12,0,0,0,377.67,511.53ZM389.8,527.9c0-.15,0-.19-.28-.25a14.49,14.49,0,0,0-3.46-.47c-.1,0-.24,0-.27.1s.11.25.18.36.16.08.26,0a.8.8,0,0,1,.85-.11c.76.36,1.66.17,2.39.62C389.65,528.26,389.81,528.11,389.8,527.9ZM288.92,561.17h.79c.07,0,.2,0,.21-.09s-.08-.11-.15-.13a2.23,2.23,0,0,1-.88-.46c-.13-.12-.19,0-.29.07-.47.53-.81.53-1.33,0-.08-.08-.14-.23-.29-.17a.4.4,0,0,0-.23.33c-.07.36,0,.49.43.53C287.77,561.34,288.33,561.08,288.92,561.17Zm18.3-10.82h1.52c.17,0,.44,0,.45-.18s-.27-.14-.42-.15a33.88,33.88,0,0,1-4.19-.12c-.1,0-.25-.06-.27.07s.13.18.25.21l.16,0C305.6,550.25,306.48,550.4,307.22,550.36Zm69.42-17h-1.27l-.14,0c0,.09.08.1.14.11l.79.09a13.86,13.86,0,0,0,2.21.24c.81,0,1.62,0,2.43,0,.07,0,.2.06.2-.07s-.11-.07-.18-.07C379.42,533.66,378,533.43,376.64,533.4ZM426,527.51c-.15,0-.3,0-.35.13a.24.24,0,0,0,.2.32,3.17,3.17,0,0,1,1.58.67.21.21,0,0,0,.36-.14c0-.28-.59-1-.89-.93A1.76,1.76,0,0,1,426,527.51ZM296,554.24c0,.13-.06.22,0,.24s.1-.08.14-.14.1-.23.17-.33a12.24,12.24,0,0,1,1.08-1.68c.11-.12.37-.21.22-.39s-.32,0-.45.17a3.66,3.66,0,0,1-.25.27,3.15,3.15,0,0,1-.62.56c-.15.08-.63,0-.15.39.09.07,0,.23,0,.35S296,554.1,296,554.24Zm77.2-31.57a8.84,8.84,0,0,0-.25-1.23.22.22,0,0,0-.23-.17c-.14,0-.15.12-.15.23q0,.73.09,1.47a.25.25,0,0,0,.26.26c.2,0,.28-.11.28-.29S373.18,522.83,373.18,522.67Zm18.37,5.88a.73.73,0,0,0,.62-.23c.08-.1.09-.23,0-.25a8.14,8.14,0,0,1-1.83-.25c-.08,0-.15.08-.07.12C390.65,528.18,391,528.59,391.55,528.55Zm-53.71-10.78a.25.25,0,0,0-.21-.29c-.15,0-.18.08-.2.19-.11.57-.21,1.14-.31,1.71,0,0,0,.1,0,.11s.05,0,.07-.07.14-.32.2-.49A8.8,8.8,0,0,1,337.83,517.77Zm38.25.2c.09.13,0,.38.23.46s.3-.1.42-.24.12-.2,0-.29a.83.83,0,0,1-.17-.19c-.11-.14,0-.48-.25-.43s0,.39-.19.55C376.08,517.85,376.09,517.9,376.09,518Zm-5.6,21.76h1.11c.08,0,.17,0,.22-.06l-.2,0-1.79-.08a1.76,1.76,0,0,0-.58,0c-.07,0-.14.06-.13.14s.09.1.16.1Zm4.4-5.26s.16.07.17-.07-.08-.11-.15-.13a6.6,6.6,0,0,0-.75-.24.24.24,0,0,0-.28.25c0,.14.14.13.24.14Zm76.93,24.47a1.78,1.78,0,0,0,.55,0s.12,0,.13-.07-.06-.06-.1-.06l-1.09-.1c-.12,0-.29,0-.3.14s.17.13.28.14S451.56,558.93,451.82,558.93ZM293,561.14a.33.33,0,0,0,.25-.32.24.24,0,0,0-.31-.26c-.1,0-.25,0-.2.18S292.77,561.08,293,561.14Zm85.76-34.4c.08-.06.29.09.32-.07s-.23-.1-.36-.13l-.51-.08a.1.1,0,0,0-.12.08c0,.06,0,.09.08.12A1.28,1.28,0,0,0,378.72,526.74ZM459,556.84h.08c.06,0,0-.09,0-.14a3.66,3.66,0,0,0-.21-.42c-.08-.12-.15-.38-.27-.31s0,.27.11.4S458.89,556.7,459,556.84Zm-48.37,5.85a.16.16,0,0,0-.08.18.1.1,0,0,0,.15.09.1.1,0,0,0,0-.13C410.72,562.76,410.71,562.69,410.61,562.69Zm-17.38.12c0-.12,0-.17-.06-.17s-.12,0-.14.11a.08.08,0,0,0,.07.11A.13.13,0,0,0,393.23,562.81Zm-17.54-27.74-.19,0s-.12,0-.1.08.11.06.17,0S375.67,535.14,375.69,535.07ZM313.8,545.61s0-.08,0-.08a.14.14,0,0,0-.17.09.09.09,0,0,0,0,.08C313.71,545.72,313.76,545.67,313.8,545.61Zm105.72-23s-.05,0-.05.07a.1.1,0,0,0,.05.08c.07,0,.08,0,.07-.09S419.54,522.67,419.52,522.65Zm-36.27,1a.09.09,0,0,0,0-.12.08.08,0,0,0-.08,0,.09.09,0,0,0,0,.12A.05.05,0,0,0,383.25,523.64ZM353.78,555.8l-.05.06s0,0,.07,0,0,0,.06-.06Zm38.6,2.76-.16,0s0,0-.07,0l.14,0S392.34,558.58,392.38,558.56Zm-10.87-41.5s0,.06.06.05,0,0,0,0l-.06-.05Zm-7.26,16.34s-.05,0-.08,0,0,0-.05.06.05,0,.07,0S374.23,533.42,374.25,533.4Zm-60.08,11.77-.08,0,0,0,.08,0Z" transform="translate(-286.73 -488.97)" style="fill:#0f0e11"/><path d="M314.1,556.84c0,.38,0,.39-.35.25s-.47-.18-.54.31a1.17,1.17,0,0,1-.06.25.18.18,0,0,1-.15.13c-.08,0-.11-.07-.14-.13a.67.67,0,0,1,.07-.87c.07-.08.19-.15.18-.25-.06-.35.13-.39.4-.36s.28-.11.32-.28a3.2,3.2,0,0,1,.08-.47,1.22,1.22,0,0,1,.64-.81c.51-.26,1.13-.53,1.27-1.24.08-.41.43-.63.73-.87.07-.06.15-.12.24-.07.36.2.39,0,.38-.29a.76.76,0,0,1,.44-.68,2.45,2.45,0,0,0,1.17-1.38c.15-.46.6-.53,1-.63a.54.54,0,0,0,.49-.61c0-.5.11-.59.6-.59a.32.32,0,0,0,.34-.26,2.34,2.34,0,0,0,.13-1.29.27.27,0,0,1,.17-.36,3.86,3.86,0,0,1,.42-.23.45.45,0,0,0,.32-.38c.08-.59.56-.77,1-1a2.3,2.3,0,0,0,.39-.14c.1-.06.18-.13.09-.25s0-.61-.32-.83a.18.18,0,0,1,0-.24.24.24,0,0,1,.28-.09.64.64,0,0,1,.32.18.93.93,0,0,0,.25.19c.15.06.36.11.43,0s-.15-.2-.26-.28-.18-.06-.24-.12-.34-.26-.32-.46.22-.31.42-.34a.36.36,0,0,0,.32-.3.87.87,0,0,1,.68-.67.91.91,0,0,0,.68-.67c.07-.21.14-.35.39-.34s.26-.07.24-.22c0-.34.17-.48.43-.58a.41.41,0,0,0,.31-.43c0-.27.2-.44.38-.61s.39-.41.18-.74,0-.33.2-.41.42-.13.36-.42a.06.06,0,0,1,0,0c.43-.23.55-.72.87-1s.63-.44.7-.88c0-.15.21-.28.38-.36a9.91,9.91,0,0,0,1.29-.84,1.72,1.72,0,0,1,.59-.24.18.18,0,0,1,.23.08.2.2,0,0,1-.05.24c-.15.13-.31.24-.46.36a10.49,10.49,0,0,0-1.76,1.35c-.12.14-.29.25-.25.5s-.17.24-.29.33a1.36,1.36,0,0,0-.7,1.47.6.6,0,0,1-.24.62,4.43,4.43,0,0,0-1.13,1.5,13.06,13.06,0,0,1-1.25,1.42,1.52,1.52,0,0,0-.28.31,3.61,3.61,0,0,1-.9,1.31.57.57,0,0,0-.12.79c.12.21,0,.29-.14.34a.72.72,0,0,0-.56.5.47.47,0,0,1-.46.31c-.23,0-.31.1-.35.3a1.49,1.49,0,0,1-1,1.23c-.22.08-.22.24-.22.43a4.25,4.25,0,0,1-.38,1.32.41.41,0,0,1-.16.21,1.28,1.28,0,0,0-.71,1.22c0,.38-.54.69-.95.61a.3.3,0,0,0-.37.17,4.61,4.61,0,0,1-1.47,1.35.88.88,0,0,0-.47.6,1.7,1.7,0,0,1-.54.8,6.81,6.81,0,0,1-1.42,1.16c-.11.07-.13.2-.18.32a.87.87,0,0,1-.58.63c-.21.05-.28.26-.34.44a1,1,0,0,1-.52.64A.3.3,0,0,0,314.1,556.84Z" transform="translate(-286.73 -488.97)" style="fill:#0f0e11"/><path d="M341.69,524.52c-.09-.21.07-.31.19-.39s.36-.16.51-.28a12.59,12.59,0,0,0,1.93-1.75,2.8,2.8,0,0,1,.54-.58,1.23,1.23,0,0,0,.53-.57c.08-.23.37-.25.57-.36s.33-.16.2-.44,0-.57.37-.65a.52.52,0,0,0,.35-.27,5.17,5.17,0,0,1,1.35-1.54,1.44,1.44,0,0,1,.63-.27c.24,0,.33.08.26.32a1.62,1.62,0,0,1-.49.69c-.2.2-.43.37-.63.56s-.41.4-.21.73,0,.4-.19.53a2.62,2.62,0,0,1-.54.33c-.7.27-1,.91-1.52,1.41a11.87,11.87,0,0,0-.93,1.13c-.12.17-.38.11-.51.27a10.1,10.1,0,0,1-1.15,1.09.39.39,0,0,0-.15.27c0,.41-.27.57-.6.71-.49.21-.81.68-1.32.87-.08,0-.11.14-.11.23s0,.21-.09.24c-.4.14-.44.62-.71.8-.49.33-.73.89-1.26,1.17a1.26,1.26,0,0,0-.52.44c0,.08-.11.17-.2.15-.39-.08-.52.22-.7.46a9.92,9.92,0,0,1-.89.83s-.06.06-.09.06c-.63,0-.8.59-1.15.94-.18.19-.3.43-.63.42-.17,0-.26.17-.36.29a3.23,3.23,0,0,1-.81.67.27.27,0,0,1-.34,0c-.13-.12,0-.22,0-.33a2.2,2.2,0,0,1,1.3-1.17,2,2,0,0,0,.85-.82,1.3,1.3,0,0,1,.65-.58,2.54,2.54,0,0,0,.94-.89,2.34,2.34,0,0,1,1-.86c.06,0,.15-.05.18-.11a2.44,2.44,0,0,1,1-1,.23.23,0,0,0,.1-.12c.12-.58.63-.93.85-1.45a.36.36,0,0,1,.34-.28c.57,0,.87-.51,1.33-.72C341.78,524.69,341.73,524.6,341.69,524.52Z" transform="translate(-286.73 -488.97)" style="fill:#0f0e11"/><path d="M347.49,550c1.79.16,3.57,0,5.36,0,1.2,0,2.4-.12,3.6-.22.67-.06,1.34-.07,2-.06,1.37,0,2.72-.17,4.08-.27a3.73,3.73,0,0,1,.48,0c.16,0,.34.05.33.26s-.16.21-.31.23l-.69.05a40.62,40.62,0,0,1-4.56.27c-1.22,0-2.44.17-3.66.21a.4.4,0,0,0-.4.28c-.35.93-.86,1.78-1.24,2.69-.13.31-.33.59-.45.9,0,.07-.07.14-.15.13s-.13-.1-.15-.19a.56.56,0,0,1,.08-.35l1.23-2.65,0,0c.28-.68.27-.62-.43-.68-1.12-.09-2.23,0-3.34,0s-2-.15-3-.11a1.13,1.13,0,0,1-.26,0c-.07,0-.15-.06-.15-.13s.09-.13.18-.14A8.38,8.38,0,0,1,347.49,550Z" transform="translate(-286.73 -488.97)" style="fill:#0f0e11"/><path d="M346.43,543.52c-.18-.08-.57.15-.59-.2s.37-.18.58-.22c1.66-.29,3.35-.32,5-.51,2-.23,4-.36,6-.73,1.48-.27,3-.33,4.49-.45.55,0,1.09-.12,1.64-.18l.48,0c.15,0,.31,0,.34.19s-.14.28-.3.3c-.68.09-1.37.2-2.06.24a64.73,64.73,0,0,0-6.49.75c-1.24.21-2.5.29-3.75.4C350,543.23,348.24,543.37,346.43,543.52Z" transform="translate(-286.73 -488.97)" style="fill:#0f0e11"/><path d="M349.91,516.92c-.05,0-.11,0-.14,0s0-.2.09-.27c.5-.52,1-1.07,1.52-1.55a32.71,32.71,0,0,1,2.51-2.28c.56-.41,1-.91,1.56-1.35.33-.27.68-.5,1-.74a3,3,0,0,0,1.25-1.39.28.28,0,0,1,0-.09,6.71,6.71,0,0,1,2-1.7c.11-.05.23-.14.34,0s0,.27-.08.37c-.42.48-.84,1-1.26,1.43a.49.49,0,0,1-.21.15,1.06,1.06,0,0,0-.66.63,2.42,2.42,0,0,1-1,.93,8,8,0,0,0-1.7,1.58,5,5,0,0,1-1.21,1,5.08,5.08,0,0,0-1,.77l-2.39,2.18A1.55,1.55,0,0,1,349.91,516.92Z" transform="translate(-286.73 -488.97)" style="fill:#0f0e11"/><path d="M357.49,535.46l-4.07.37a1.35,1.35,0,0,1-.58,0c-.07,0-.13-.06-.13-.14s.07-.12.14-.14l.21,0c1.49-.21,3-.45,4.47-.54a11.15,11.15,0,0,0,1.15-.16c1.78-.3,3.58-.44,5.36-.66a14.74,14.74,0,0,0,1.68-.24c.15,0,.35-.06.41.13s-.13.31-.3.35a9.55,9.55,0,0,1-1.46.24c-1.74.19-3.48.34-5.21.62a.79.79,0,0,0-.68.56c-.23.57-.52,1.12-.78,1.68,0,.09-.09.22-.22.17s-.07-.18-.05-.28a7,7,0,0,1,.5-1.34C358.17,535.42,358.18,535.42,357.49,535.46Z" transform="translate(-286.73 -488.97)" style="fill:#0f0e11"/><path d="M361.13,522.29a3.07,3.07,0,0,1-.32,0c-.14,0-.32,0-.32-.21s.2-.16.33-.19c1.89-.38,3.8-.62,5.72-.85.53-.06,1-.24,1.55-.34a3.59,3.59,0,0,1,.52-.08.22.22,0,0,1,.24.17.22.22,0,0,1-.14.26,2.35,2.35,0,0,1-.3.09,45.51,45.51,0,0,1-5.07.83c-.56.1-1.12.17-1.68.25Z" transform="translate(-286.73 -488.97)" style="fill:#0f0e11"/><path d="M349.23,534.92h-.05c-.2,0-.54.09-.55-.14s.34-.16.53-.19c.75-.11,1.52-.15,2.26-.31,2.2-.48,4.45-.54,6.65-1,.17,0,.45-.19.49.08s-.28.21-.46.24a39,39,0,0,1-4.31.57c-.14,0-.34,0-.4.1-.18.38-.52.32-.83.34Z" transform="translate(-286.73 -488.97)" style="fill:#0f0e11"/><path d="M352.25,527.79c-.12,0-.29,0-.29-.15s.14-.14.24-.16a9.87,9.87,0,0,1,1.53-.2c1.7-.1,3.39-.26,5.07-.5.51-.07,1,0,1.53-.13.08,0,.2,0,.23.08s-.09.17-.19.21a4.79,4.79,0,0,1-1.09.2c-2.11.27-4.23.42-6.34.56C352.7,527.72,352.47,527.76,352.25,527.79Z" transform="translate(-286.73 -488.97)" style="fill:#0f0e11"/><path d="M335.92,548.55c-.25,0-.5,0-.75,0s-.26-.06-.27-.21.15-.17.27-.18c1.26,0,2.5-.21,3.76-.23.79,0,1.59-.07,2.38-.11h.42a.13.13,0,0,1,.14.13.21.21,0,0,1-.07.13.94.94,0,0,1-.49.17,23.78,23.78,0,0,1-2.75.18C337.67,548.44,336.79,548.46,335.92,548.55Z" transform="translate(-286.73 -488.97)" style="fill:#0f0e11"/><path d="M360.13,509.42a.16.16,0,0,1-.18-.09.17.17,0,0,1,.06-.19c.78-.74,1.4-1.63,2.14-2.41.52-.55,1.17-1,1.65-1.55.29-.35.77-.39,1.14-.63a.2.2,0,0,1,.28.06c0,.09,0,.17-.07.24-.2.3-.41.59-.85.49-.19,0-.28.11-.4.21-.39.35-.68.82-1.24,1-.14,0-.19.2-.27.32a6.32,6.32,0,0,1-1.59,1.83,1.25,1.25,0,0,0-.32.48C360.41,509.28,360.32,509.41,360.13,509.42Z" transform="translate(-286.73 -488.97)" style="fill:#0f0e11"/><path d="M359.45,545.9c-.27-.09-.64.11-.66-.25s.35-.24.56-.27c1-.12,2-.33,3-.51a4.43,4.43,0,0,1,1-.06c.12,0,.27,0,.29.18s-.13.2-.25.22Z" transform="translate(-286.73 -488.97)" style="fill:#0f0e11"/><path d="M344.15,537.13c-.14,0-.52.13-.56-.16s.37-.24.58-.28c1-.17,2.1-.31,3.15-.45a2.1,2.1,0,0,1,.79,0c.09,0,.17.07.16.18a.21.21,0,0,1-.11.17.66.66,0,0,1-.35.12c-1.1.06-2.17.3-3.26.42C344.46,537.14,344.35,537.13,344.15,537.13Z" transform="translate(-286.73 -488.97)" style="fill:#0f0e11"/><path d="M359.26,523.71a3.24,3.24,0,0,1-.3,1.14.8.8,0,0,1-.26.33.65.65,0,0,1-.74.1c-.22-.14-.07-.39,0-.59a4.86,4.86,0,0,1,.81-1.41c.15-.24.36-.18.46.09A2,2,0,0,1,359.26,523.71Z" transform="translate(-286.73 -488.97)" style="fill:#0f0e11"/><path d="M367.72,511.73c.08-.33.16-.68.25-1s.23-.85.33-1.28.18-.5.62-.37a1.8,1.8,0,0,0,.68,0l.37,0c.07,0,.15,0,.16.1s-.06.12-.13.13a5.73,5.73,0,0,1-.68.09.67.67,0,0,0-.72.56,16,16,0,0,1-.62,1.91c0,.08,0,.21-.13.2S367.75,511.84,367.72,511.73Z" transform="translate(-286.73 -488.97)" style="fill:#0f0e11"/><path d="M356.88,522.19c.09,0,.24,0,.26.1s-.14.19-.25.21l-3.06.6a.89.89,0,0,1-.26,0c-.09,0-.18,0-.17-.15s.08-.1.15-.13C353.82,522.71,356.58,522.19,356.88,522.19Z" transform="translate(-286.73 -488.97)" style="fill:#0f0e11"/><path d="M348.23,533.33c-.3,0-.38-.11-.26-.39a5.07,5.07,0,0,1,.55-.89.36.36,0,0,1,.41-.17.42.42,0,0,1,.28.35C349.31,532.68,348.75,533.31,348.23,533.33Z" transform="translate(-286.73 -488.97)" style="fill:#0f0e11"/><path d="M344,557a1.08,1.08,0,0,1,.81-1c.2,0,.33.06.29.26a1.74,1.74,0,0,1-.54,1.17c-.33.25-.41.23-.5-.19Z" transform="translate(-286.73 -488.97)" style="fill:#0f0e11"/><path d="M369.12,505.2a1.48,1.48,0,0,1,.23-1,1.87,1.87,0,0,1,1.44-.65.2.2,0,0,1,.24.16c0,.13-.07.2-.18.23l-.57.13c-.58.11-.76.32-.77.93a1.79,1.79,0,0,1-.12.62c0,.08-.07.17-.19.14s-.09-.1-.09-.17S369.12,505.34,369.12,505.2Z" transform="translate(-286.73 -488.97)" style="fill:#0f0e11"/><path d="M339.07,556.2c.15,0,.3,0,.42,0a1.59,1.59,0,0,0,.88.31c.08,0,.18,0,.19.15s-.08.1-.14.14a1.34,1.34,0,0,1-1.53,0c-.16-.13-.37-.27-.28-.51S338.93,556.23,339.07,556.2Z" transform="translate(-286.73 -488.97)" style="fill:#0f0e11"/><path d="M346.05,541.86a.76.76,0,0,1-.14.39,1.74,1.74,0,0,0-.22.42c0,.14,0,.36-.24.36a.71.71,0,0,1-.61-.36c-.12-.19,0-.34.13-.46s.31-.52.63-.62S346,541.61,346.05,541.86Z" transform="translate(-286.73 -488.97)" style="fill:#0f0e11"/><path d="M347.06,535.94c-.27,0-.39-.18-.25-.41a2.58,2.58,0,0,0,.36-.75c0-.19.25-.17.4-.14a.34.34,0,0,1,.34.28A1,1,0,0,1,347.06,535.94Z" transform="translate(-286.73 -488.97)" style="fill:#0f0e11"/><path d="M365.07,510.47c-.12,0-.24,0-.26-.15s.08-.15.16-.18a13.94,13.94,0,0,1,2.41-.6.16.16,0,0,1,.18.07c0,.1,0,.17-.12.21a1.51,1.51,0,0,1-.34.14l-1.9.48Z" transform="translate(-286.73 -488.97)" style="fill:#0f0e11"/><path d="M366.49,516.24a1.65,1.65,0,0,1,.11-.76c.1-.19.17-.45.5-.3.14.07.25-.1.39-.13a4,4,0,0,1,.41-.1c.1,0,.24,0,.26.11s-.14.13-.22.16l-.45.16a.67.67,0,0,0-.56.77.19.19,0,0,1,0,.05c0,.23-.08.54-.36.5S366.53,516.38,366.49,516.24Z" transform="translate(-286.73 -488.97)" style="fill:#0f0e11"/><path d="M358.15,537.69a3.69,3.69,0,0,1,.84-1.9c.09-.08.17-.23.3-.16s.05.23,0,.32a4,4,0,0,0-.64,1.55,1.33,1.33,0,0,1-.15.34c-.05.09-.12.19-.25.13S358.12,537.8,358.15,537.69Z" transform="translate(-286.73 -488.97)" style="fill:#0f0e11"/><path d="M367.29,529.12a1.09,1.09,0,0,1-.38.81.29.29,0,0,1-.34,0c-.11-.07-.09-.18-.07-.28.09-.32.17-.64.27-1,0-.11.05-.26.22-.24s.17.11.21.21A1,1,0,0,1,367.29,529.12Z" transform="translate(-286.73 -488.97)" style="fill:#0f0e11"/><path d="M361.68,518a1.36,1.36,0,0,1,.5-.91.24.24,0,0,1,.3,0,.29.29,0,0,1,.15.32,1.61,1.61,0,0,1-.43.83.29.29,0,0,1-.38.1C361.7,518.29,361.7,518.16,361.68,518Z" transform="translate(-286.73 -488.97)" style="fill:#0f0e11"/><path d="M361.51,529.31a.68.68,0,0,1,0,.1c-.17.46-.34.92-.52,1.37a1.29,1.29,0,0,1-.15.27.15.15,0,0,1-.18.07.13.13,0,0,1-.09-.16,16.4,16.4,0,0,1,.6-1.62.25.25,0,0,1,.27-.13A.12.12,0,0,1,361.51,529.31Z" transform="translate(-286.73 -488.97)" style="fill:#0f0e11"/><path d="M346.29,535.46a.87.87,0,0,1-.63.71c-.23,0-.35-.11-.26-.32a1.94,1.94,0,0,1,.49-.62C346,535.07,346.28,535.23,346.29,535.46Z" transform="translate(-286.73 -488.97)" style="fill:#0f0e11"/><path d="M338.27,560.21a1.38,1.38,0,0,1-.31.88c-.05.07-.1.16-.21.12a.16.16,0,0,1-.08-.22,3.26,3.26,0,0,0,.24-1.23.14.14,0,0,1,.28,0C338.22,559.92,338.25,560.09,338.27,560.21Z" transform="translate(-286.73 -488.97)" style="fill:#0f0e11"/><path d="M366.07,530a.08.08,0,0,1,0,.12.12.12,0,0,1-.15.08.09.09,0,0,1,0-.08A.15.15,0,0,1,366.07,530Z" transform="translate(-286.73 -488.97)" style="fill:#0f0e11"/><path d="M409.25,543c.68-.09,1.17.39,1.65.85a.36.36,0,0,1,0,.49c-.11.17-.24,0-.37,0a4.54,4.54,0,0,0-2-.12,1.16,1.16,0,0,1-1.13-.42c-.24-.27-.18-.47.16-.51A8.17,8.17,0,0,1,409.25,543Z" transform="translate(-286.73 -488.97)" style="fill:#0f0e11"/><path d="M409.72,545.25c0,.05,0,.11,0,.16s0,.26-.16.3a.24.24,0,0,1-.3-.15c-.09-.36-.3-.27-.53-.18a.93.93,0,0,1-.25.07.41.41,0,0,1-.45-.21c-.07-.17.11-.24.2-.33a1,1,0,0,1,.95-.33C409.63,544.69,409.73,544.78,409.72,545.25Z" transform="translate(-286.73 -488.97)" style="fill:#0f0e11"/><path d="M402.66,539.42a1.58,1.58,0,0,1,.84.57c.08.18.06.31-.15.36a1.13,1.13,0,0,1-1-.5A.29.29,0,0,1,402.66,539.42Z" transform="translate(-286.73 -488.97)" style="fill:#0f0e11"/><path d="M397.92,533.44a1.53,1.53,0,0,1,.19-.81c.07-.11.24-.19.29,0a1.18,1.18,0,0,1,0,1.06c-.08.13-.18.3-.36.27s-.15-.24-.16-.39A.86.86,0,0,1,397.92,533.44Z" transform="translate(-286.73 -488.97)" style="fill:#0f0e11"/><path d="M412.9,554.45c0,.14-.06.24-.21.25s-.39-.29-.38-.56.06-.28.24-.28S412.9,554.19,412.9,554.45Z" transform="translate(-286.73 -488.97)" style="fill:#0f0e11"/><path d="M414.06,556c0,.12-.08.2-.2.19a.24.24,0,0,1-.24-.28.18.18,0,0,1,.2-.19A.24.24,0,0,1,414.06,556Z" transform="translate(-286.73 -488.97)" style="fill:#0f0e11"/><path d="M389.85,520.25c0-.05.05-.07.08,0a.25.25,0,0,1,.08.12s0,.05-.07,0A.78.78,0,0,1,389.85,520.25Z" transform="translate(-286.73 -488.97)" style="fill:#0f0e11"/><path d="M348.69,510.57a1.14,1.14,0,0,1-.69,1.12c-.31.11-.47,0-.41-.3a7.15,7.15,0,0,1,.54-1.48.23.23,0,0,1,.26-.14.25.25,0,0,1,.21.21C348.64,510.2,348.67,510.42,348.69,510.57Z" transform="translate(-286.73 -488.97)" style="fill:#0f0e11"/><path d="M386.28,501.17c0-.09,0-.19.07-.29s.16-.34.37-.26a.34.34,0,0,1,.18.48,1,1,0,0,1-.22.29c-.07.08-.16.15-.27.11S386.27,501.31,386.28,501.17Z" transform="translate(-286.73 -488.97)" style="fill:#0f0e11"/><path d="M398.39,538.42h-.9c-.29,0-.41.1-.39.41s0,.74,0,1.11c0,.13,0,.32-.21.3s-.16-.16-.2-.28.11-.58-.16-.73-.48,0-.73.05a17.74,17.74,0,0,1-3.8-.34,1.08,1.08,0,0,1-.67-.49.37.37,0,0,1-.07-.4c.09-.17.24-.1.37-.08.88.09,1.75.26,2.62.41.66.12,1.33.21,2,.32.12,0,.27.06.28-.13s-.13-.15-.24-.16l-1-.09a.59.59,0,0,1-.43-.16c-.26-.28-.2-.49.18-.6a4.1,4.1,0,0,1,1.79,0l2.14.36.2.06c.17.06.39.14.35.34s-.29.1-.44.11-.49,0-.74,0Z" transform="translate(-286.73 -488.97)" style="fill:#0f0e11"/><path d="M321.84,536.73c-.19,0-.35,0-.36-.28a1.57,1.57,0,0,1,1-1.51c.33-.11.49,0,.46.33a1.86,1.86,0,0,1-.73,1.35A.57.57,0,0,1,321.84,536.73Z" transform="translate(-286.73 -488.97)" style="fill:#0f0e11"/><path d="M319.27,536.27a1.31,1.31,0,0,1,.23-.69.48.48,0,0,1,.77-.06.27.27,0,0,1,0,.38,7.89,7.89,0,0,0-.62.72.14.14,0,0,1-.19.06C319.3,536.59,319.28,536.43,319.27,536.27Z" transform="translate(-286.73 -488.97)" style="fill:#0f0e11"/><path d="M382.86,521.42a1.23,1.23,0,0,1-.25,0c-.2-.06-.53-.09-.49-.3s.35-.09.54-.1a1.3,1.3,0,0,1,.26,0,1.47,1.47,0,0,1,.83.25A4,4,0,0,1,382.86,521.42Z" transform="translate(-286.73 -488.97)" style="fill:#0f0e11"/><path d="M386.67,521.61a2.71,2.71,0,0,1,.4.14c.15.08.37.16.27.38s-.3.13-.47.09a.55.55,0,0,1-.42-.29.25.25,0,0,1,0-.25C386.49,521.58,386.58,521.6,386.67,521.61Z" transform="translate(-286.73 -488.97)" style="fill:#0f0e11"/><path d="M384.81,521.15c.2.06.43.09.53.34a.1.1,0,0,1-.06.13.6.6,0,0,1-.61-.2.14.14,0,0,1,0-.18A.18.18,0,0,1,384.81,521.15Z" transform="translate(-286.73 -488.97)" style="fill:#0f0e11"/></g></svg>