<?xml version="1.0" encoding="utf-8"?>
<!-- Generator: Adobe Illustrator 21.1.0, SVG Export Plug-In . SVG Version: 6.00 Build 0)  -->
<svg version="1.1" id="Layer_1" xmlns="http://www.w3.org/2000/svg" xmlns:xlink="http://www.w3.org/1999/xlink" x="0px" y="0px"
	 viewBox="0 0 83 87" style="enable-background:new 0 0 83 87;" xml:space="preserve">
<style type="text/css">
	.st0{fill:#231F1C;}
</style>
<path id="Shape_18_copy_2" class="st0" d="M56.4,18.3c-0.3,0.2-0.7,0.5-0.9,0.8c-0.3,0.3-0.5,0.6-0.8,0.9c-0.2-0.3-0.5-0.6-0.8-0.9
	c-0.3-0.3-0.6-0.5-0.9-0.8c0.3-0.2,0.7-0.5,0.9-0.8c0.3-0.3,0.5-0.6,0.8-0.9c0.2,0.3,0.5,0.7,0.8,0.9C55.7,17.8,56.1,18.1,56.4,18.3
	z M81.9,50.8H63.8c-0.6,0-1.2,0.5-1.2,1.2c0,0.6,0.5,1.1,1.2,1.1c0,0,0,0,0,0h5.3c0.6,0,1.2,0.5,1.2,1.2v0.5c0,0.6-0.5,1.1-1.1,1.1
	c0,0,0,0,0,0H13.9c-0.6,0-1.1-0.5-1.1-1.1c0,0,0,0,0,0v-0.5c0-0.6,0.5-1.2,1.1-1.2h5.3c0.6,0,1.1-0.5,1.2-1.1c0,0,0-0.1,0-0.1
	c-0.1-0.6-0.6-1.1-1.2-1.1H1.1c-0.5,0-0.9-0.4-0.9-0.9C0.2,49.4,0.5,49,1,49l6.5-0.6l3.4-3.4l6.3-6.3l0.1-0.1
	c0.4-0.3,0.8-0.5,1.3-0.6c0.1,0,0.1,0,0.2,0c0.6,0,1.2,0.2,1.6,0.6l4,4l0,0l1.9,1.9c0.4,0.4,1.1,0.4,1.6,0c0.4-0.4,0.4-1.1,0-1.6
	l-0.9-0.9l-0.7-0.7L25.9,41l1.6-1.5l6.9-6.9l1.6-1.6l4-4c0.9-0.9,2.3-0.9,3.2,0l12.4,12.5l1.6,1.6l3.5,3.5c0.4,0.4,1.1,0.4,1.6,0
	c0.4-0.4,0.4-1.1,0-1.6l-7.8-7.8l2.5-2.5c0.7-0.7,1.9-0.9,2.8-0.3c0.1,0.1,0.2,0.2,0.4,0.3l1.4,1.4l3.3,3.3l1.1,1.1l1.6,1.6l4.8,4.7
	l3.4,3.4L82,49c0.5,0.1,0.9,0.5,0.8,1C82.8,50.4,82.4,50.8,81.9,50.8L81.9,50.8z M26.2,41.4l-0.3-0.3l0,0L26.2,41.4z M8.6,69.8
	L8.6,69.8c0-0.6,0.5-1.1,1.1-1.1h15c0.6,0,1.1-0.5,1.1-1.1c0,0,0,0,0,0v-5.4c0-0.6-0.5-1.1-1.1-1.1c0,0,0,0,0,0H1.1
	c-0.6,0-1.1,0.5-1.1,1.1c0,0,0,0,0,0v13.9c0,0.6,0.5,1.1,1.1,1.1h15c0.6,0,1.1,0.5,1.1,1.1l0,0c0,0.6-0.5,1.1-1.1,1.1h-15
	C0.5,79.5,0,80,0,80.6v5.4C0,86.5,0.5,87,1.1,87h23.6c0.6,0,1.1-0.5,1.1-1.1V72c0-0.6-0.5-1.1-1.1-1.1c0,0,0,0,0,0h-15
	C9.1,70.9,8.6,70.4,8.6,69.8C8.6,69.8,8.6,69.8,8.6,69.8L8.6,69.8z M57.3,62.3v13.9c0,0.6,0.5,1.1,1.1,1.1h15c0.6,0,1.1,0.5,1.1,1.1
	l0,0c0,0.6-0.5,1.1-1.1,1.1h-15c-0.6,0-1.1,0.5-1.1,1.1v5.4c0,0.6,0.5,1.1,1.1,1.1h23.6c0.6,0,1.1-0.5,1.1-1.1V72
	c0-0.6-0.5-1.1-1.1-1.1c0,0,0,0,0,0h-15c-0.6,0-1.1-0.5-1.1-1.1l0,0c0-0.6,0.5-1.1,1.1-1.1h15c0.6,0,1.1-0.5,1.1-1.1c0,0,0,0,0,0
	v-5.4c0-0.6-0.5-1.1-1.1-1.1c0,0,0,0,0,0H58.3C57.7,61.3,57.3,61.7,57.3,62.3C57.3,62.3,57.3,62.3,57.3,62.3L57.3,62.3z M43.7,70.9
	h-4.3c-0.6,0-1.1,0.5-1.1,1.1c0,0,0,0,0,0v4.3c0,0.6,0.5,1.1,1.1,1.1h4.3c0.6,0,1.1-0.5,1.1-1.1V72C44.7,71.4,44.2,70.9,43.7,70.9
	C43.7,70.9,43.7,70.9,43.7,70.9L43.7,70.9z M28.6,62.3v23.6c0,0.6,0.5,1.1,1.1,1.1c0,0,0,0,0,0h23.6c0.6,0,1.1-0.5,1.1-1.1V62.3
	c0-0.6-0.5-1.1-1.1-1.1c0,0,0,0,0,0H29.7C29.1,61.3,28.6,61.7,28.6,62.3C28.6,62.3,28.6,62.3,28.6,62.3L28.6,62.3z M45.8,79.5h-8.6
	c-0.6,0-1.1-0.5-1.1-1.1v-8.6c0-0.6,0.5-1.1,1.1-1.1h8.6c0.6,0,1.1,0.5,1.1,1.1v8.6C46.9,79,46.4,79.5,45.8,79.5L45.8,79.5z
	 M38.4,25.5c1.7-1.7,4.5-1.7,6.2,0l8.2,8.3l2.5-2.5c0.8-0.8,1.9-1.3,3.1-1.3c0.8,0,1.7,0.2,2.4,0.7l0,0c0.2,0.2,0.5,0.3,0.7,0.5l0,0
	l4.7,4.7c5.3-13.6-1.4-28.9-15-34.2c-13.6-5.3-28.9,1.4-34.2,15C14.5,23.1,14.5,30,17,36.3c0.4-0.2,0.9-0.3,1.4-0.4
	c0.1,0,0.2,0,0.4,0c1.2,0,2.3,0.5,3.1,1.3l0.6,0.6c0.5-0.3,0.7-0.9,0.6-1.4c-0.1-0.2-0.3-0.4-0.3-0.6c-0.1-0.7,1.2-0.8,1.6-1
	c0.9-0.5,0.7-1.5,0.3-2.3C22.6,31,22,28.1,23.4,26c0.7-1.1,1.8-1.8,3.1-2c0.3-0.1,0.6-0.1,0.9-0.2c0.7-0.2,2.7-0.4,2.2-1.6
	c-0.3-0.6-0.3-1.4,0-2c0.1-0.2,1.4-1,1.4-0.6c0.1-1.6-0.4-3.2,0.9-4.5c0.9-0.9,2.3-0.6,3.4-0.9c-0.5-1.2,0-2.6,1.2-3.1
	c0.3-0.1,0.6-0.2,0.9-0.2c0.3,0,0.6,0.1,0.9,0.2c0.2-0.4,0.5-0.7,0.7-1.1c0.4-0.3,0.9-0.4,1.4-0.4c1-0.2,2,0,3-0.2
	C44,9.2,44.5,9.2,45,9.2c0.2-0.6,0.9-0.9,1.6-0.7c0.5,0.2,0.8,0.6,0.8,1.1c0.7,0.2,1.5,0.5,2.2,0.7c0.3,0.1,0.6,0.2,0.9,0.5
	c0.3,0.4,0.5,0.8,0.8,1.2c0.4,0.4,1,0.5,1.1,1.1c0.2,0.8,0.5,1.6,0.9,2.2c0.2-0.3,0.4-0.7,0.5-1l0.6-1.6c0.1-0.2,0.2-0.2,0.4-0.2
	c0.1,0,0.2,0.1,0.2,0.2l0.6,1.6c0.3,0.7,0.7,1.4,1.2,1.9c0.6,0.5,1.2,0.9,1.9,1.2l1.6,0.6c0.2,0.1,0.2,0.2,0.2,0.4
	c0,0.1-0.1,0.2-0.2,0.2l-1.6,0.6c-0.7,0.3-1.4,0.7-1.9,1.2c-0.5,0.6-0.9,1.2-1.2,1.9L55,23.9c-0.1,0.2-0.2,0.2-0.4,0.2
	c-0.1,0-0.2-0.1-0.2-0.2l-0.6-1.6c-0.5-1.5-1.7-2.6-3.1-3.1l-1.6-0.6c-0.2-0.1-0.2-0.2-0.2-0.4c0-0.1,0.1-0.2,0.2-0.2l1.6-0.6
	c0.6-0.2,1.2-0.6,1.7-1c-0.6-1.2-1.4-1.7-2-2.8l0-0.1c-0.1,0-0.3,0.1-0.4,0.1c-0.6,0-1-0.5-1-1c0,0,0,0,0,0c0-0.1,0-0.2,0.1-0.4
	c-0.4-0.2-0.8-0.3-1.4-0.5c-0.8-0.4-1.7-0.7-2.6-0.7c-0.4,0.1-1.2,1-1.6,0.9c-0.5-0.1-1.1,0.1-1.4,0.5c-0.1,0.1-0.2,0.2-0.3,0.3
	c-0.1,0.1-0.3,0.1-0.5,0.2c-1.5,0.5-0.5,2.5-1.8,3.1c-0.2,0-0.5,0.1-0.7,0.3c-0.1,0.1-0.1,0.3-0.2,0.4c-0.2,0.8-0.3,1.6-0.2,2.3
	c0,0,0,0.1,0,0.1c1.2,1,1.4,2.8,0.4,4c-0.5,0.6-1.3,1-2.1,1c0.1,0.5,0.3,1,0.6,1.5c0.1,0.2,0.2,0.4,0.3,0.7"/>
</svg>
