<svg xmlns="http://www.w3.org/2000/svg" width="359" height="377" viewBox="0 0 359 377">
  <metadata><?xpacket begin="﻿" id="W5M0MpCehiHzreSzNTczkc9d"?>
<x:xmpmeta xmlns:x="adobe:ns:meta/" x:xmptk="Adobe XMP Core 5.6-c138 79.159824, 2016/09/14-01:09:01        ">
   <rdf:RDF xmlns:rdf="http://www.w3.org/1999/02/22-rdf-syntax-ns#">
      <rdf:Description rdf:about=""/>
   </rdf:RDF>
</x:xmpmeta>
                                                                                                    
                                                                                                    
                                                                                                    
                                                                                                    
                                                                                                    
                                                                                                    
                                                                                                    
                                                                                                    
                                                                                                    
                                                                                                    
                                                                                                    
                                                                                                    
                                                                                                    
                                                                                                    
                                                                                                    
                                                                                                    
                                                                                                    
                                                                                                    
                                                                                                    
                                                                                                    
                           
<?xpacket end="w"?></metadata>
<defs>
    <style>
      .cls-1 {
        fill: #fff;
        fill-rule: evenodd;
      }
    </style>
  </defs>
  <path id="SOS-LOGO" class="cls-1" d="M865.952,383.419a25.869,25.869,0,0,0-7.392,7.4,25.529,25.529,0,0,0-7.375-7.4,27.965,27.965,0,0,0,4.073-3.322,26.951,26.951,0,0,0,3.3-4.062,27.092,27.092,0,0,0,3.319,4.062A27.859,27.859,0,0,0,865.952,383.419Zm110.39,140.717H897.985a5.015,5.015,0,0,0-5,5.016,5.033,5.033,0,0,0,5,4.975h23.037A4.988,4.988,0,0,1,926,539.115v2.012a4.988,4.988,0,0,1-4.982,4.988H681.974a4.985,4.985,0,0,1-4.968-4.988v-2.012a4.985,4.985,0,0,1,4.968-4.988h23.037a4.851,4.851,0,0,0,3.53-1.468,4.932,4.932,0,0,0,1.452-3.9,5.171,5.171,0,0,0-5.24-4.622h-78.1c-4.982,0-5.321-7.353-.353-7.828l28.088-2.651,14.7-14.721,27.354-27.389c0.095-.1.2-0.19,0.3-0.272a9.41,9.41,0,0,1,5.7-2.5c0.284-.027.556-0.041,0.841-0.041a9.568,9.568,0,0,1,6.788,2.813l17.118,17.14,0.041-.04,8.281,8.3a4.759,4.759,0,0,0,6.733-6.728l-3.706-3.724-3.108-3.112c-0.475-.5-0.951-1.006-1.426-1.523l6.734-6.728,29.784-29.822,6.761-6.782,17.389-17.413a9.695,9.695,0,0,1,13.657,0l53.677,54.289,6.72,6.728,15.014,15.033a4.755,4.755,0,0,0,6.72-6.728l-33.64-33.682,10.657-10.67a9.6,9.6,0,0,1,6.815-2.814,9.713,9.713,0,0,1,5.267,1.55,11.181,11.181,0,0,1,1.547,1.264l6,6.008,14.4,14.435,4.724,4.73,7.087,7.1,20.567,20.565,14.715,14.734,28.1,2.651C981.663,516.783,981.324,524.136,976.342,524.136ZM735.434,483.387l-1.48-1.468,0.054-.055C734.483,482.381,734.959,482.883,735.434,483.387ZM659.1,606.694h0a4.618,4.618,0,0,1,4.614-4.62H728.7a4.616,4.616,0,0,0,4.614-4.619V574.162a4.616,4.616,0,0,0-4.614-4.62H626.606a4.616,4.616,0,0,0-4.614,4.62v60.445a4.617,4.617,0,0,0,4.614,4.62H691.59a4.616,4.616,0,0,1,4.613,4.62h0a4.616,4.616,0,0,1-4.613,4.619H626.606a4.617,4.617,0,0,0-4.614,4.621v23.292a4.616,4.616,0,0,0,4.614,4.62H728.7a4.616,4.616,0,0,0,4.614-4.62V615.934a4.616,4.616,0,0,0-4.614-4.619H663.711A4.618,4.618,0,0,1,659.1,606.694Zm210.592-32.532v60.445a4.618,4.618,0,0,0,4.614,4.62h64.984a4.616,4.616,0,0,1,4.613,4.62h0a4.616,4.616,0,0,1-4.613,4.619H874.3a4.618,4.618,0,0,0-4.614,4.621v23.292A4.617,4.617,0,0,0,874.3,681H976.392a4.616,4.616,0,0,0,4.614-4.62V615.934a4.616,4.616,0,0,0-4.614-4.619H911.409a4.618,4.618,0,0,1-4.614-4.621h0a4.618,4.618,0,0,1,4.614-4.62h64.983a4.616,4.616,0,0,0,4.614-4.619V574.162a4.616,4.616,0,0,0-4.614-4.62H874.3A4.617,4.617,0,0,0,869.689,574.162Zm-58.865,37.153H792.175a4.617,4.617,0,0,0-4.614,4.619v18.673a4.618,4.618,0,0,0,4.614,4.62h18.649a4.618,4.618,0,0,0,4.614-4.62V615.934A4.617,4.617,0,0,0,810.824,611.315ZM745.84,574.162V676.379a4.617,4.617,0,0,0,4.614,4.62h102.09a4.617,4.617,0,0,0,4.614-4.62V574.162a4.617,4.617,0,0,0-4.614-4.62H750.454A4.617,4.617,0,0,0,745.84,574.162Zm74.212,74.3H782.946a4.617,4.617,0,0,1-4.614-4.619V606.694a4.618,4.618,0,0,1,4.614-4.62h37.106a4.618,4.618,0,0,1,4.615,4.62v37.153A4.618,4.618,0,0,1,820.052,648.466Zm-31.9-233.88a18.91,18.91,0,0,1,26.659-.048l35.3,35.878,10.846-10.861a18.911,18.911,0,0,1,23.606-2.5l0.159,0.1a20.55,20.55,0,0,1,2.821,2.3l0.1,0.094,20.254,20.277a114.166,114.166,0,1,0-212.272,1.282,18.5,18.5,0,0,1,6.047-1.547c0.539-.048,1.071-0.072,1.621-0.072a18.69,18.69,0,0,1,13.314,5.52l2.65,2.654c1.749-1.869,3.775-3.805,2.787-6.139-0.4-.939-1.314-1.66-1.436-2.673-0.38-3.165,5.312-3.382,7.117-4.418,3.975-2.283,2.937-6.267,1.251-9.98a20.074,20.074,0,0,1,7.673-36.544c1.167-.347,2.4-0.647,3.7-0.932,3.214-.707,11.472-1.544,9.68-6.758-0.885-2.571-1.35-6.268.115-8.731,0.507-.851,5.976-4.38,5.873-2.822,0.446-6.767-1.565-13.923,3.7-19.563,3.7-3.958,9.9-2.674,14.5-3.894a10.224,10.224,0,0,1,13.369-13.445c1.376-1.337,1.461-3.427,3.141-4.742s4.178-1.563,6.193-1.911c4.285-.738,8.706-0.032,12.983-0.722a34.257,34.257,0,0,1,6.967-.4,5.223,5.223,0,0,1,10.106,1.686c3.189,0.863,6.376,1.964,9.67,3.106a9.035,9.035,0,0,1,3.741,2.008c1.474,1.553,2.1,3.7,3.513,5.265,1.661,1.835,4.193,1.993,4.685,4.958,0.581,3.509,2.28,6.6,4.035,9.717a27.414,27.414,0,0,0,2.229-4.491l2.463-7.022a1.322,1.322,0,0,1,2.5,0l2.464,7.022a21.687,21.687,0,0,0,13.462,13.479l6.935,2.475a1.325,1.325,0,0,1,0,2.5l-6.947,2.444a21.714,21.714,0,0,0-13.445,13.479l-2.473,6.947a1.322,1.322,0,0,1-2.494,0l-2.44-6.942A21.687,21.687,0,0,0,841.4,387.135l-6.956-2.479a1.325,1.325,0,0,1,0-2.5L841.4,379.7a26.027,26.027,0,0,0,7.319-4.274c-2.474-5.193-6.118-7.416-8.658-12.128-0.056-.1-0.112-0.195-0.169-0.3a4.437,4.437,0,0,1-5.824-5.679c-1.6-.767-3.5-1.417-5.931-2.4-2.987-1.2-8.039-3.716-11.381-2.91-1.8.44-5.308,4.546-7.066,3.894-1.975-.734-4.609.488-6.063,2.014a7.641,7.641,0,0,1-1.134,1.14,7.385,7.385,0,0,1-2.018.708c-6.344,1.987-2.06,11.023-7.588,13.3-0.963.395-2.142,0.412-2.845,1.178a3.633,3.633,0,0,0-.716,1.78c-0.7,3.393-1.621,6.669-.921,10.148,0.041,0.2.1,0.4,0.154,0.592a12.189,12.189,0,0,1-7.142,21.623c0.053,1.794,1.132,3.623,2.419,6.281,0.474,0.98.932,1.935,1.343,2.886" transform="translate(-622 -304)"/>
</svg>
