<svg id="Layer_1" data-name="Layer 1" xmlns="http://www.w3.org/2000/svg" viewBox="0 0 133 12"><defs><style>.cls-1{fill:#d18141;}</style></defs><title>outpost_text</title><path class="cls-1" d="M62.77,51.25A5.76,5.76,0,1,1,57,57,5.75,5.75,0,0,1,62.77,51.25Zm0,9A3.2,3.2,0,1,0,59.58,57,3.21,3.21,0,0,0,62.77,60.21Z" transform="translate(-57.02 -51.25)"/><path class="cls-1" d="M70.78,51.71a.31.31,0,0,1,.3-.3h2a.3.3,0,0,1,.3.3v6.48a2,2,0,1,0,4,0V51.71a.3.3,0,0,1,.3-.3h2a.31.31,0,0,1,.3.3v6.61a4.56,4.56,0,0,1-9.12,0Z" transform="translate(-57.02 -51.25)"/><path class="cls-1" d="M84.4,53.76H82.11a.3.3,0,0,1-.3-.3V51.71a.3.3,0,0,1,.3-.3h7.11a.3.3,0,0,1,.3.3v1.74a.3.3,0,0,1-.3.3H86.93v8.55a.31.31,0,0,1-.3.3H84.7a.31.31,0,0,1-.3-.3Z" transform="translate(-57.02 -51.25)"/><path class="cls-1" d="M91.6,51.71a.3.3,0,0,1,.3-.3h3.86a3.57,3.57,0,1,1,0,7.14H94.1v3.76a.32.32,0,0,1-.3.3H91.9a.3.3,0,0,1-.3-.3Zm4,4.5a1.26,1.26,0,0,0,1.26-1.26,1.22,1.22,0,0,0-1.26-1.18H94.1v2.45Z" transform="translate(-57.02 -51.25)"/><path class="cls-1" d="M106.43,51.25A5.76,5.76,0,1,1,100.69,57,5.75,5.75,0,0,1,106.43,51.25Zm0,9A3.2,3.2,0,1,0,103.25,57,3.21,3.21,0,0,0,106.43,60.21Z" transform="translate(-57.02 -51.25)"/><path class="cls-1" d="M114,61.09l.75-1.33a.41.41,0,0,1,.54-.1,4.77,4.77,0,0,0,2.27.88,1,1,0,0,0,1.1-1c0-.67-.56-1.18-1.65-1.62-1.38-.54-3.11-1.62-3.11-3.54,0-1.58,1.23-3.19,3.7-3.19a6,6,0,0,1,3.43,1.2.4.4,0,0,1,.1.51l-.82,1.23c-.11.18-.4.32-.54.21a5,5,0,0,0-2.29-1,.93.93,0,0,0-1,.82c0,.59.48,1,1.74,1.55s3.23,1.47,3.23,3.65a3.52,3.52,0,0,1-3.78,3.31,5.08,5.08,0,0,1-3.6-1.23C113.89,61.38,113.84,61.32,114,61.09Z" transform="translate(-57.02 -51.25)"/><path class="cls-1" d="M125.29,53.76H123a.3.3,0,0,1-.3-.3V51.71a.3.3,0,0,1,.3-.3h7.11a.3.3,0,0,1,.3.3v1.74a.3.3,0,0,1-.3.3h-2.29v8.55a.31.31,0,0,1-.3.3H125.6a.31.31,0,0,1-.3-.3Z" transform="translate(-57.02 -51.25)"/><path class="cls-1" d="M141.46,51.26a6.18,6.18,0,0,1,3.91,1.5.28.28,0,0,1,0,.43l-1.26,1.34a.34.34,0,0,1-.43,0,2.94,2.94,0,0,0-2.1-.77,3.21,3.21,0,0,0,0,6.42A3.78,3.78,0,0,0,143,60V59h-1a.29.29,0,0,1-.3-.29V57.15a.29.29,0,0,1,.3-.3h3.22a.3.3,0,0,1,.29.3l0,4.31a.39.39,0,0,1-.13.26,8.09,8.09,0,0,1-4,1,5.75,5.75,0,0,1,0-11.49Z" transform="translate(-57.02 -51.25)"/><path class="cls-1" d="M146.78,62.2l5-10.77a.32.32,0,0,1,.27-.18h.16a.32.32,0,0,1,.27.18l5,10.77a.28.28,0,0,1-.27.42h-1.78c-.29,0-.42-.1-.56-.4l-.58-1.26H150l-.58,1.28a.6.6,0,0,1-.58.38h-1.76A.28.28,0,0,1,146.78,62.2Zm6.58-3.43-1.22-2.64h0l-1.2,2.64Z" transform="translate(-57.02 -51.25)"/><path class="cls-1" d="M160.4,51.5a.31.31,0,0,1,.29-.26h.26a.35.35,0,0,1,.27.16l3.71,6.92h0l3.71-6.92a.35.35,0,0,1,.27-.16h.26a.31.31,0,0,1,.29.26l1.81,10.76a.29.29,0,0,1-.3.35h-1.89a.33.33,0,0,1-.3-.26l-.72-4.95h0l-2.69,5.19a.38.38,0,0,1-.27.18h-.29a.35.35,0,0,1-.27-.18l-2.71-5.19h0l-.71,4.95a.31.31,0,0,1-.3.26h-1.89a.29.29,0,0,1-.3-.35Z" transform="translate(-57.02 -51.25)"/><path class="cls-1" d="M173.82,51.71a.3.3,0,0,1,.3-.3h6.63a.3.3,0,0,1,.3.3v1.74a.3.3,0,0,1-.3.3h-4.43v2H180a.31.31,0,0,1,.3.3v1.74a.3.3,0,0,1-.3.3h-3.65v2.16h4.43a.3.3,0,0,1,.3.3v1.74a.3.3,0,0,1-.3.3h-6.63a.3.3,0,0,1-.3-.3Z" transform="translate(-57.02 -51.25)"/><path class="cls-1" d="M183,61.09l.75-1.33a.41.41,0,0,1,.54-.1,4.77,4.77,0,0,0,2.27.88,1,1,0,0,0,1.1-1c0-.67-.56-1.18-1.65-1.62-1.38-.54-3.11-1.62-3.11-3.54,0-1.58,1.23-3.19,3.7-3.19a6,6,0,0,1,3.43,1.2.4.4,0,0,1,.1.51l-.82,1.23c-.11.18-.4.32-.54.21a5,5,0,0,0-2.29-1,.93.93,0,0,0-1,.82c0,.59.48,1,1.74,1.55s3.23,1.47,3.23,3.65a3.52,3.52,0,0,1-3.78,3.31,5.08,5.08,0,0,1-3.6-1.23C183,61.38,182.91,61.32,183,61.09Z" transform="translate(-57.02 -51.25)"/></svg>
