<svg xmlns="http://www.w3.org/2000/svg" viewBox="0 0 127 39">
    <defs>
        <style>.cls-1{fill:#ffba52;}.cls-2{fill:#c64c34;}</style>
    </defs>
    <path class="cls-1" d="M37.74,14.61h-23a1.62,1.62,0,1,1,0-3.23h23a1.62,1.62,0,0,0,1.63-1.62h0V1.62A1.62,1.62,0,0,0,37.74,0H1.63A1.62,1.62,0,0,0,0,1.61V22.77a1.62,1.62,0,0,0,1.63,1.62h23a1.62,1.62,0,1,1,0,3.23h-23A1.62,1.62,0,0,0,0,29.23v8.15A1.62,1.62,0,0,0,1.63,39H37.74a1.63,1.63,0,0,0,1.63-1.62V16.23A1.63,1.63,0,0,0,37.74,14.61Z" transform="translate(0 0)"/>
    <path class="cls-1" d="M102.38,11.38h23A1.62,1.62,0,0,0,127,9.76V1.61A1.62,1.62,0,0,0,125.37,0H89.25a1.62,1.62,0,0,0-1.63,1.61h0V22.77a1.62,1.62,0,0,0,1.63,1.62h23a1.62,1.62,0,1,1,0,3.23h-23a1.62,1.62,0,0,0-1.63,1.62v8.15A1.62,1.62,0,0,0,89.25,39h36.12A1.62,1.62,0,0,0,127,37.38V16.23a1.62,1.62,0,0,0-1.63-1.62h-23a1.62,1.62,0,1,1,0-3.23Z" transform="translate(0 0)"/>
    <path class="cls-1" d="M81.56,0H45.44a1.62,1.62,0,0,0-1.63,1.61h0V37.38A1.63,1.63,0,0,0,45.44,39H81.56a1.63,1.63,0,0,0,1.63-1.62V1.61A1.62,1.62,0,0,0,81.56,0ZM71.7,26a1.62,1.62,0,0,1-1.63,1.61H56.94A1.62,1.62,0,0,1,55.3,26h0V13a1.62,1.62,0,0,1,1.63-1.62H70.06A1.63,1.63,0,0,1,71.7,13h0Z" transform="translate(0 0)"/>
    <path class="cls-2" d="M66.8,14.61H60.2a1.62,1.62,0,0,0-1.63,1.62h0v6.53a1.62,1.62,0,0,0,1.63,1.62h6.6a1.62,1.62,0,0,0,1.63-1.62h0V16.23A1.62,1.62,0,0,0,66.8,14.61Z" transform="translate(0 0)"/>
</svg>
