<svg id="Layer_1" data-name="Layer 1" xmlns="http://www.w3.org/2000/svg" viewBox="0 0 36 50.01"><defs><style>.cls-1{fill:#e4dbcf}</style></defs><title>papaya</title><path id="Papaya" class="cls-1" d="M15.49 6.59h-.76a1.92 1.92 0 0 0-.91.22l-2.1 1.1a6.9 6.9 0 0 0-2.58 2.33l-3.9 5.94-3.18 5a10.62 10.62 0 0 0-1.49 3.94l-.29 1.75a21 21 0 0 0-.08 6.42L.45 35a12.27 12.27 0 0 0 2.59 6l1.23 1.52a15.89 15.89 0 0 0 3.62 3.28L13 49.1a5 5 0 0 0 1.82.73l.51.09a4.87 4.87 0 0 0 1.32.06h.37a4.84 4.84 0 0 0 2.09-.68L29 43.35a9.28 9.28 0 0 0 3.72-4.25l2.12-4.88a14.53 14.53 0 0 0 .93-8.58l-.61-3.12a10.37 10.37 0 0 0-1-2.76L31.7 15l-2.55-4a9.07 9.07 0 0 0-1.38-1.67l-2.35-2.21A4 4 0 0 0 23.11 6l-.95-.11a4.07 4.07 0 0 0-2.35.45l-.69.37a4.35 4.35 0 0 0-1.77 1.75l-1.72 3.17a15.39 15.39 0 0 0-1.75 5.41l-.68 5.33a18.62 18.62 0 0 0-.15 2l-.17 10.28a.34.34 0 0 1-.26.32h-.18a.35.35 0 0 1-.42-.27l-1.65-8.22a19.71 19.71 0 0 1-.37-4.32l.06-2.06a13.66 13.66 0 0 1 1.21-5.25l1.38-3.06a7.72 7.72 0 0 1 .52-1l2.47-4a.18.18 0 0 0-.06-.25zM18 4.74L20.13 4a3.28 3.28 0 0 1 .82-.17l2.43-.15a.3.3 0 0 0 .28-.3V.21a.21.21 0 0 0-.21-.21h-.06l-2 .45a2.63 2.63 0 0 1-.63.07h-2.49a.26.26 0 0 0-.27.27l.06.57a1.44 1.44 0 0 1 0 .54l-.35 1.25a1.41 1.41 0 0 0 0 .58l.12.82a.21.21 0 0 0 .24.18z" transform="translate(0 .01)"/></svg>