<svg id="Layer_1" data-name="Layer 1" xmlns="http://www.w3.org/2000/svg" viewBox="0 0 30.01 40"><defs><style>.cls-1{fill:#c64c34}</style></defs><title>punch</title><path id="Punch" class="cls-1" d="M.18 32.85l3.11-6.67 2.35 1.88a.36.36 0 0 0 .45 0l.53-.48-3.24-3.21a3.21 3.21 0 0 1-.44-.54L.61 20.15a3.25 3.25 0 0 1-.5-1.63L0 15.3a2.1 2.1 0 0 1 .14-.84l3.45-8.74a.28.28 0 0 1 .35-.18H4l11.88 4.91a.34.34 0 0 1 .18.44V11l-2.76 3.88a1.06 1.06 0 0 1-1.34.35L7.52 13v2.15a.5.5 0 0 0 .3.46l4.4 1.82a1.94 1.94 0 0 1 1.19 1.74l.14 4a.17.17 0 0 0 .1.15l.53.22a.16.16 0 0 0 .21-.09.17.17 0 0 0 0-.05l.26-4a.67.67 0 0 1 .71-.62.65.65 0 0 1 .22.06l9.11 4.27a1.81 1.81 0 0 1 1 1.8l-.13 1.48a4.64 4.64 0 0 1-1 2.56l-2.06 2.48a2.26 2.26 0 0 1-1.81.82l-4.17-.15-.21.52a.28.28 0 0 0 .15.35h.06l2.92.32L17.68 39l-3.22.4a6 6 0 0 1-2.7-.28l-4.12-1.3a9.9 9.9 0 0 1-2.69-1.42zM20.29 5.11l4.25 1.77a.41.41 0 0 1 .23.53l-4.49 11.42a.4.4 0 0 1-.52.24l-4.25-1.76a.41.41 0 0 1-.23-.53l4.47-11.39a.42.42 0 0 1 .53-.24zm5.48 4.63l3.42 1.42a1.35 1.35 0 0 1 .72 1.74l-3.37 8.54a.42.42 0 0 1-.53.24l-4.25-1.78a.41.41 0 0 1-.23-.53l3.7-9.37a.42.42 0 0 1 .54-.26zM14.46 1.52l4.24 1.7a.41.41 0 0 1 .23.53L16.88 9a.42.42 0 0 1-.53.24l-4.25-1.8a.41.41 0 0 1-.23-.53l2.05-5.21a.4.4 0 0 1 .52-.24zm-5.91-2l3.72 1.54a.41.41 0 0 1 .23.53l-1.88 4.79a.41.41 0 0 1-.53.23L5.83 4.85a.41.41 0 0 1-.23-.53L7.26.1a1 1 0 0 1 1.29-.56z" transform="translate(0 .53)"/></svg>