<svg id="Layer_1" data-name="Layer 1" xmlns="http://www.w3.org/2000/svg" viewBox="0 0 232 179"><defs><style>.cls-1{fill:#cfc5b6}</style></defs><title>summary-33</title><path class="cls-1" d="M190.45 77.35l-15-28.2-38.63-25.65H91.45l-34 21-15.88 38.65 1 39.73 24.87 31.84L102 171.5l45.39-1 30.23-22.17 13.82-37.52zm-20.61 65.15l-25.6 18.77-40.21.87-30.59-14.85-21.65-27.72-.87-34.71 13.94-34 29.23-18.03h39.92l34.3 22.79 12.9 24.2.86 29.5z"/><path class="cls-1" d="M116.6 88.67l-34.53 39.8 3.58 3.03 33.52-24.61 27.37 5.63 2.66-4.85-25.1-21.17-7.5 2.17zM110.88 12.19h12.2v6.78h-12.2zM101.4 0h31.16v8.13H101.4z"/></svg>