<svg id="Layer_1" data-name="Layer 1" xmlns="http://www.w3.org/2000/svg" viewBox="0 0 232 179"><defs><style>.cls-1{fill:#cfc5b6}</style></defs><title>summary-4</title><path class="cls-1" d="M194.8 100.36l.26-1.46-1.26-5.43-3.18-5.39-1.21-1.6-2.41 4-1.41 4.6 2 5.61.4 5.21-.2 2.6-.8-.8-.81-6.81-2.82-6.81-2-4.8.81-.81 2.82 4 .81-2.4 2.82-6 2.42 2 2.06 4.37-.45-2-2.42-6-1.61-12.42 2-12.42-.8-8.41-4.53-12.42h.09l-.09-3.72a5.69 5.69 0 0 1-.29-.69 22.54 22.54 0 0 0-8.34-10.92l-1.77-.29-4.31-1.54h-.34a5.19 5.19 0 0 1-1.8-.31L162 20.79l-7.59 1.5a3.61 3.61 0 0 1-.34.11c-2 .41-3.88.85-5.81 1.44a10.33 10.33 0 0 0-1.66.6l-.34.22-.19.67-.52.13 1.54 3.33 5.64 1.6 4 1.2.8 4L156 36l-2.42-3.61-7.66-2.8-1.59-3.49a4.93 4.93 0 0 1-2 .74L139.84 28l-6.05 8.41-6.45 6-3.42 23.06 5.44 3.38 2.42 3.6 1.2 4 .81 3.2-1.17 3.5 5.3 11 3.23 8.42 4.93-11.12-.8-5.21-5.64-4.81-1.82-3.8 3.63 2.4 7.25 6.81v5.61l-3.22 6.81-1.21 6-2.42 2.4-3.22-3.2-4.84-11.22-2.42-3.6-.2-6.21h-2.82l-1 5.41L132 98.3l5.44 13.82 2.42 7.21.8 4.41 1.21-5.61 3.23-7.21 1.21-3.21 1.61-2.8 3-5.41 3-8.21 1.62-5.61-4.84-10.41.4-2 12.5-13.62 11.21-2.78 4.91-5.63 1.61-4.81v-1.6l-.8-3.2V38l2.82-1.2 1.61 1.6-.4 3.21L183 44l1.21 3.21-2.82 4.4-4.83 4.81 3.22-.8 5.22 8.82 1.21 9.61-7.66 12.82-9.27 3.21-9.1-2.26-2.18 1.87-3.22 8-4.43 8.81-2.22 3.41-4.23 9.81-3.63 10.42-8.06-24.84-7.86-16.62 3-7.82 4 .4.48.74.33-1.94v-2.4l-2.82-2.4-.34-2.81-2-1.2.4-1.2-3.22-2.41-.63-.37-7 13.59-4-5.6-3.63-7.21-6.45-20L92.68 34l-2.12-1.88-2.72 3.48-2.42 1.2-3.63.8-3.62 1.6-2 2.81-3.22 4-4.44 4.81-1.21-2.4 2.42-3.61L70.91 42l.81-1.2.8.8 4.84-4.41 5.64-.8 4-1.6 2.9-3.24-.28-.24.06-.22a4.34 4.34 0 0 1-2.19-1.57 4.32 4.32 0 0 1-1.83-1.29c-.21 0-.55-.12-.35-.12-.79-.11-1.6-.14-2.4-.2a12.72 12.72 0 0 1-3.6-.67v.12l-5.9-2.07.08-.16a19.21 19.21 0 0 0-4-1.42c-1-.16-2.1-.28-3.15-.39h-.04a5.49 5.49 0 0 1-.94.08 5.16 5.16 0 0 1-1.41.21 5.37 5.37 0 0 1-1.49-.2c-5.45-1-15.85 2.21-18.61 7.39-1.76 3.3-1.44 7.07-2.57 10.4l.84 4-.23.77-.81 10 .41 5.21 1.21 13.28-2.42 10.82-4 8v10.42l2.42 6 .8 8.81 4.84.8 5.21-1.91-4.4-2.5-1.62-6 1.82-8.21 2-4.8-4.45-6.8-2.22 3.4v9.61l2.22-3.8-1-1.8.81-2.81 2.21 2.61-2 6.81-1.61 2-2-2.4v-10l3.63-6.81 3 4.21 3.23 6.81-2.42 4-1.61 8 1.61 4.81 4.9 2.93.34-.12 21.76 6 4.25 6.6.4-3.2-2.4-5.61-8.26-2.6-16.13-5.21-2-2.4 1.21-9.22 2-2.4 4 2.4 10.89 4.81 5.64 4 2.22 1.8.4 3.6h-2.84l-8.06-2.4-5.44-2.6v-2l5.84 3 8.46 2.4-1.2-2.8-6.45-4-11.29-4-2 2.8-.4 4.81 10.88 4.4 7.26 2 6.45 2 1.82 4.62v7.77l1.41 2.44 1.62-2.4v-8l-1.62-8-1.61-5.6-4.43-5.11-5.27-3.64-4-.5-2.62-1.4v-2l6.45 1.6 6.45 4.41 4.43 5.6 2 6 1.62 8.82-.43 8.42-1.35 3.75 5.79 9.5.22.24-2.24 8.17 1.21 2-.8 6.81 5.64.8 2-.4-.8-2.4 3.3-9.47.73.25.75.17-3.17 9.45 2.83 6.38 1.61.4 4 6.41 4-4.41v-16.25l2.33.5-1.05 7.74.41 9.61 5.24-1.2.8-7.61-.76-7.55 1.57.34h.74l-.37 8v10l3.63.8 5.24-2.81-.81-2 1.62 1.6 3.62-2.4-2.79-14.27 1.93-.42-.35 5.48L131 170.6l3.63-2 1.61 3.61 2.76-6.81V163l-5.21-11.09 1.18-.39v.27l4.84 12 2.41.4 2-.4 2.82-7.21-2.72-9.26.71-.35 5.75-13.78-.51-1.44-.41-8.41 1.62-8.82 2-6 4.43-5.6 6.45-4.41 6.45-1.6v2l-1.41 1.4H165l-6 3.6-4 5.2-2 5.61-1.62 8 .61 7.82 2-4.81 1.42-1-.41-2 2-4 5.44-2.2 17.13-5.41 1.61-1.6-.4-4-1.61-4-10.89 5.21-6 4-1.21 2 6.85-1.6 5.84-3v2l-6.24 2.2-9.27 2.8-1.21-.4-.2-2.2 3.22-2.8 5.64-4 10.89-4.81 4-2.4 2 2.4 1.21 9.22-2.32 1.8-16.12 5.21-8 3.2-.85 4 16.57-8.42 11.89-1 8.87-9.21.43-2.45v.05l-1.61 2-2 1.6v-2l-.4-3.61L189 97.7v-3.21l2-.8v2l-.41 1.6 1 3.4v3.21zm-52.55-28.7l-3.25-1.2-4.84-4v-1.6l2.82-.4 1.62 1.2 2.82 2 1.61 2.41zm7.26-8.81l-5.64-3.21-6.45-6-2.42-4.41 6.05 3.6 3.22.8v1.61l4 3.2 1.61 1.2zm1.61-8l-3.22-3.21-.81-4h3.23l1.61 1.2 2.42 2.4.4 2.81zM163.21 50l-2.41-.4-4.44-7.6-2.82-1.6.4-2.81 2.83-.4 2.82 3.21 4 5.2.8 2.81zm6.86-4.41l-3.63-.8-2-4 .41-2.81H168l2.42 3.21zm6.45.8l-1.21-1.6-.81-4V36l-.81-5.21 2.83.4 1.2 4.81.41 9.61zm-64.9 52.11l6.85-3.61 6.45 4 4.84 12 1.24 10.44-6.05 2-5.24-5.61-2.82-2-7.25 8.42h-6.45l-1.62-4 2-9.21zM86.23 54.44l4.43-1.61 4-4 2.82-.8v2l-2.38 4.41-7.26 2L90.26 58l-5.64 4.41L82.2 62l-.81-1.61 3.23-1.6zM79 49.63l3.23-.8 3.22-2v1.61l-.8 4.4-6.05 1.61zm-16.55-8.81L65.67 38l.81 4.81-1.61 2.4-2.42-.4zm-7.26-8.42l2.42-2.4.81 2-.81 2.41L56.8 42l.41 2.8-2 1.6-1.21-4zm-6.45 5.21l1.62.4 1.64 1.6-.41 2L49.95 44l-2-2.4zm42.33 92.54l-3.63-12.42-2-8-4-6.81-5.69-7.22-2.68-7-.14.17H56.4l-6.85-5.21-3.23-8.41.41-10 6.85-10 13.13 3.43 1.38-3.43 2.42-4.81 3.63-3.61-1.21 2.81-2 3.6-2.82 4-.65 1.62 1.46.38 9.27 8.82.25.88 2.17.72 4.39-1.6 4-1.21 3.63-1.2 4 1.2 5.24-.4 5.18-3.57.33 1-.27.55-4.84 2.4-5.64.8-4.44-.8-3.62.8-4 2L81 71.26l-2.07-.59 2.47 8.6-6.15 7.22.51 2.8 1.41 4.2L80 97.1l4.23 5.4 3.63 6 1.61 8.82 1.82 6.61 2.42-4.41 1-8.61 3.83-5.81 4.23-11.82 2.22-3.4-6.47-13.21-6 6.41-6.86 5.2 6.05 12.82 2.62-6.61 2-6-1.2-1.6.8-2.4 2 .8 1.81 3.81-2.82 4-2.22 7-1.81 3.81-2-.2-5.67-10.22-1.81-5.81 14.91-14.42 2 3.61 6.85 8.81-.41 6.81-2.41 2.4-1.21 4.81-2.42 6.81-5.24 9.62-.4 6.8zm17.43 18l-1.11-.2-1.51-2.1-2.32-.1-.4 1.6-1.21.8-6.85-1.6.4-4 1.41-3.8 1.21-2 1.61 2-.2 1.8v2h-1.21l-.6-3.4-1.21 5.61 3.93 1.5 2-1.6-2.92-18.13-4.84 12.82-2 5.61-.81-2.81v-4l1.21.8 1.41-3.81 3.12-9.61 1.39-2.6 1.41 1.11 1.21 7.61 1.51 10.91 2 1.21.81-1.61-2.82-12h1.61l3 14.62 4.84-12.82-4-.8.2 5-1.21-2-.81-3.6.81-1.21H114l.81 2-1.52 2.8zm11.38 1.4a4.59 4.59 0 0 1-1.41-1.4l-.8-4.4-1.82 5-1.61 1.2-.8-1.1.8-4 2-4.91 2-.8 1.41 1.8 1.82 7s-1.05 1.77-1.59 1.63zm1.82 9.45l-1-4h.61l1.11-.24zm19.3-14l-2-5.61-4.84-12.82-2.82 18.13 2 1.6 3.93-2.1-1.31-5-.61 3.4h-1.21v-2l.41-3.2 1.61-1.61 1.21 2.41.8 4.4.41 4-6.85 1.6-1.21-.8-.41-1.6-2.42.8-2 1.2-.81-1.3-4-13-1.61-2.7.4-1.41h6.45l.81 1.21-.81 3.6-1.21 2-1.21-4.4-1.61 1.2 4.23 12.22 2.62-15h1.62l-2.62 13.11.8 1.61 1.82-2.31 1.61-13.22 1-5.8 2 1.6 1.11 1.6 3.63 12.42 1.31 1.6 1.21-2.4.8 2z"/></svg>