<svg id="Layer_1" xmlns="http://www.w3.org/2000/svg" viewBox="0 0 83 87"><style>.st0{fill:#231f1c}</style><path id="Shape_18_copy_2" class="st0" d="M56.4 18.3c-.3.2-.7.5-.9.8-.3.3-.5.6-.8.9-.2-.3-.5-.6-.8-.9-.3-.3-.6-.5-.9-.8.3-.2.7-.5.9-.8.3-.3.5-.6.8-.9.2.3.5.7.8.9.2.3.6.6.9.8zm25.5 32.5H63.8c-.6 0-1.2.5-1.2 1.2 0 .6.5 1.1 1.2 1.1h5.3c.6 0 1.2.5 1.2 1.2v.5c0 .6-.5 1.1-1.1 1.1H13.9c-.6 0-1.1-.5-1.1-1.1v-.5c0-.6.5-1.2 1.1-1.2h5.3c.6 0 1.1-.5 1.2-1.1v-.1c-.1-.6-.6-1.1-1.2-1.1H1.1c-.5 0-.9-.4-.9-.9s.3-.9.8-.9l6.5-.6 3.4-3.4 6.3-6.3.1-.1c.4-.3.8-.5 1.3-.6h.2c.6 0 1.2.2 1.6.6l4 4 1.9 1.9c.4.4 1.1.4 1.6 0 .4-.4.4-1.1 0-1.6L27 42l-.7-.7-.4-.3 1.6-1.5 6.9-6.9L36 31l4-4c.9-.9 2.3-.9 3.2 0l12.4 12.5 1.6 1.6 3.5 3.5c.4.4 1.1.4 1.6 0 .4-.4.4-1.1 0-1.6l-7.8-7.8 2.5-2.5c.7-.7 1.9-.9 2.8-.3.1.1.2.2.4.3l1.4 1.4 3.3 3.3 1.1 1.1 1.6 1.6 4.8 4.7 3.4 3.4 6.2.8c.5.1.9.5.8 1 0 .4-.4.8-.9.8zm-55.7-9.4l-.3-.3.3.3zM8.6 69.8c0-.6.5-1.1 1.1-1.1h15c.6 0 1.1-.5 1.1-1.1v-5.4c0-.6-.5-1.1-1.1-1.1H1.1c-.6 0-1.1.5-1.1 1.1v13.9c0 .6.5 1.1 1.1 1.1h15c.6 0 1.1.5 1.1 1.1 0 .6-.5 1.1-1.1 1.1h-15c-.6.1-1.1.6-1.1 1.2V86c0 .5.5 1 1.1 1h23.6c.6 0 1.1-.5 1.1-1.1V72c0-.6-.5-1.1-1.1-1.1h-15c-.6 0-1.1-.5-1.1-1.1zm48.7-7.5v13.9c0 .6.5 1.1 1.1 1.1h15c.6 0 1.1.5 1.1 1.1 0 .6-.5 1.1-1.1 1.1h-15c-.6 0-1.1.5-1.1 1.1V86c0 .6.5 1.1 1.1 1.1H82c.6 0 1.1-.5 1.1-1.1V72c0-.6-.5-1.1-1.1-1.1H67c-.6 0-1.1-.5-1.1-1.1 0-.6.5-1.1 1.1-1.1h15c.6 0 1.1-.5 1.1-1.1v-5.4c0-.6-.5-1.1-1.1-1.1H58.3c-.6.2-1 .6-1 1.2zm-13.6 8.6h-4.3c-.6 0-1.1.5-1.1 1.1v4.3c0 .6.5 1.1 1.1 1.1h4.3c.6 0 1.1-.5 1.1-1.1V72c-.1-.6-.6-1.1-1.1-1.1zm-15.1-8.6v23.6c0 .6.5 1.1 1.1 1.1h23.6c.6 0 1.1-.5 1.1-1.1V62.3c0-.6-.5-1.1-1.1-1.1H29.7c-.6.1-1.1.5-1.1 1.1zm17.2 17.2h-8.6c-.6 0-1.1-.5-1.1-1.1v-8.6c0-.6.5-1.1 1.1-1.1h8.6c.6 0 1.1.5 1.1 1.1v8.6c0 .6-.5 1.1-1.1 1.1zm-7.4-54c1.7-1.7 4.5-1.7 6.2 0l8.2 8.3 2.5-2.5c.8-.8 1.9-1.3 3.1-1.3.8 0 1.7.2 2.4.7.2.2.5.3.7.5l4.7 4.7c5.3-13.6-1.4-28.9-15-34.2-13.6-5.3-28.9 1.4-34.2 15-2.5 6.4-2.5 13.3 0 19.6.4-.2.9-.3 1.4-.4h.4c1.2 0 2.3.5 3.1 1.3l.6.6c.5-.3.7-.9.6-1.4-.1-.2-.3-.4-.3-.6-.1-.7 1.2-.8 1.6-1 .9-.5.7-1.5.3-2.3-2.1-1.5-2.7-4.4-1.3-6.5.7-1.1 1.8-1.8 3.1-2 .3-.1.6-.1.9-.2.7-.2 2.7-.4 2.2-1.6-.3-.6-.3-1.4 0-2 .1-.2 1.4-1 1.4-.6.1-1.6-.4-3.2.9-4.5.9-.9 2.3-.6 3.4-.9-.5-1.2 0-2.6 1.2-3.1.3-.1.6-.2.9-.2.3 0 .6.1.9.2.2-.4.5-.7.7-1.1.4-.3.9-.4 1.4-.4 1-.2 2 0 3-.2.6-.2 1.1-.2 1.6-.2.2-.6.9-.9 1.6-.7.5.2.8.6.8 1.1.7.2 1.5.5 2.2.7.3.1.6.2.9.5.3.4.5.8.8 1.2.4.4 1 .5 1.1 1.1.2.8.5 1.6.9 2.2.2-.3.4-.7.5-1l.6-1.6c.1-.2.2-.2.4-.2.1 0 .2.1.2.2l.6 1.6c.3.7.7 1.4 1.2 1.9.6.5 1.2.9 1.9 1.2l1.6.6c.2.1.2.2.2.4 0 .1-.1.2-.2.2l-1.6.6c-.7.3-1.4.7-1.9 1.2-.5.6-.9 1.2-1.2 1.9l-.6 1.6c-.1.2-.2.2-.4.2-.1 0-.2-.1-.2-.2l-.6-1.6c-.5-1.5-1.7-2.6-3.1-3.1l-1.6-.6c-.2-.1-.2-.2-.2-.4 0-.1.1-.2.2-.2l1.6-.6c.6-.2 1.2-.6 1.7-1-.6-1.2-1.4-1.7-2-2.8v-.1c-.1 0-.3.1-.4.1-.6 0-1-.5-1-1 0-.1 0-.2.1-.4-.4-.2-.8-.3-1.4-.5-.8-.4-1.7-.7-2.6-.7-.4.1-1.2 1-1.6.9-.5-.1-1.1.1-1.4.5l-.3.3c-.1.1-.3.1-.5.2-1.5.5-.5 2.5-1.8 3.1-.2 0-.5.1-.7.3-.1.1-.1.3-.2.4-.2.8-.3 1.6-.2 2.3v.1c1.2 1 1.4 2.8.4 4-.5.6-1.3 1-2.1 1 .1.5.3 1 .6 1.5.1.2.2.4.3.7"/></svg>