<svg xmlns="http://www.w3.org/2000/svg" width="359" height="377" viewBox="0 0 359 377"><defs><style>.cls-1{fill:#fff;fill-rule:evenodd}</style></defs><path id="SOS-LOGO" class="cls-1" d="M865.952 383.419a25.869 25.869 0 0 0-7.392 7.4 25.529 25.529 0 0 0-7.375-7.4 27.965 27.965 0 0 0 4.073-3.322 26.951 26.951 0 0 0 3.3-4.062 27.092 27.092 0 0 0 3.319 4.062 27.859 27.859 0 0 0 4.075 3.322zm110.39 140.717h-78.357a5.015 5.015 0 0 0-5 5.016 5.033 5.033 0 0 0 5 4.975h23.037a4.988 4.988 0 0 1 4.978 4.988v2.012a4.988 4.988 0 0 1-4.982 4.988H681.974a4.985 4.985 0 0 1-4.968-4.988v-2.012a4.985 4.985 0 0 1 4.968-4.988h23.037a4.851 4.851 0 0 0 3.53-1.468 4.932 4.932 0 0 0 1.452-3.9 5.171 5.171 0 0 0-5.24-4.622h-78.1c-4.982 0-5.321-7.353-.353-7.828l28.088-2.651 14.7-14.721 27.354-27.389c.095-.1.2-.19.3-.272a9.41 9.41 0 0 1 5.7-2.5c.284-.027.556-.041.841-.041a9.568 9.568 0 0 1 6.788 2.813l17.118 17.14.041-.04 8.281 8.3a4.759 4.759 0 0 0 6.733-6.728l-3.706-3.724-3.108-3.112c-.475-.5-.951-1.006-1.426-1.523l6.734-6.728 29.784-29.822 6.761-6.782 17.389-17.413a9.695 9.695 0 0 1 13.657 0l53.677 54.289 6.72 6.728 15.014 15.033a4.755 4.755 0 0 0 6.72-6.728l-33.64-33.682 10.657-10.67a9.6 9.6 0 0 1 6.815-2.814 9.713 9.713 0 0 1 5.267 1.55 11.181 11.181 0 0 1 1.547 1.264l6 6.008 14.4 14.435 4.724 4.73 7.087 7.1 20.567 20.565 14.715 14.734 28.1 2.651c4.964.474 4.625 7.827-.357 7.827zm-240.908-40.749l-1.48-1.468.054-.055c.475.517.951 1.019 1.426 1.523zM659.1 606.694a4.618 4.618 0 0 1 4.614-4.62H728.7a4.616 4.616 0 0 0 4.614-4.619v-23.293a4.616 4.616 0 0 0-4.614-4.62H626.606a4.616 4.616 0 0 0-4.614 4.62v60.445a4.617 4.617 0 0 0 4.614 4.62h64.984a4.616 4.616 0 0 1 4.613 4.62 4.616 4.616 0 0 1-4.613 4.619h-64.984a4.617 4.617 0 0 0-4.614 4.621v23.292a4.616 4.616 0 0 0 4.614 4.62H728.7a4.616 4.616 0 0 0 4.614-4.62v-60.445a4.616 4.616 0 0 0-4.614-4.619h-64.989a4.618 4.618 0 0 1-4.611-4.621zm210.592-32.532v60.445a4.618 4.618 0 0 0 4.614 4.62h64.984a4.616 4.616 0 0 1 4.613 4.62 4.616 4.616 0 0 1-4.613 4.619H874.3a4.618 4.618 0 0 0-4.614 4.621v23.292A4.617 4.617 0 0 0 874.3 681h102.092a4.616 4.616 0 0 0 4.614-4.62v-60.446a4.616 4.616 0 0 0-4.614-4.619h-64.983a4.618 4.618 0 0 1-4.614-4.621 4.618 4.618 0 0 1 4.614-4.62h64.983a4.616 4.616 0 0 0 4.614-4.619v-23.293a4.616 4.616 0 0 0-4.614-4.62H874.3a4.617 4.617 0 0 0-4.611 4.62zm-58.865 37.153h-18.652a4.617 4.617 0 0 0-4.614 4.619v18.673a4.618 4.618 0 0 0 4.614 4.62h18.649a4.618 4.618 0 0 0 4.614-4.62v-18.673a4.617 4.617 0 0 0-4.614-4.619zm-64.987-37.153v102.217a4.617 4.617 0 0 0 4.614 4.62h102.09a4.617 4.617 0 0 0 4.614-4.62V574.162a4.617 4.617 0 0 0-4.614-4.62h-102.09a4.617 4.617 0 0 0-4.614 4.62zm74.212 74.3h-37.106a4.617 4.617 0 0 1-4.614-4.619v-37.149a4.618 4.618 0 0 1 4.614-4.62h37.106a4.618 4.618 0 0 1 4.615 4.62v37.153a4.618 4.618 0 0 1-4.615 4.619zm-31.9-233.88a18.91 18.91 0 0 1 26.659-.048l35.3 35.878 10.846-10.861a18.911 18.911 0 0 1 23.606-2.5l.159.1a20.55 20.55 0 0 1 2.821 2.3l.1.094 20.254 20.277a114.166 114.166 0 1 0-212.272 1.282 18.5 18.5 0 0 1 6.047-1.547 18.126 18.126 0 0 1 1.621-.072 18.69 18.69 0 0 1 13.314 5.52l2.65 2.654c1.749-1.869 3.775-3.805 2.787-6.139-.4-.939-1.314-1.66-1.436-2.673-.38-3.165 5.312-3.382 7.117-4.418 3.975-2.283 2.937-6.267 1.251-9.98a20.074 20.074 0 0 1 7.673-36.544c1.167-.347 2.4-.647 3.7-.932 3.214-.707 11.472-1.544 9.68-6.758-.885-2.571-1.35-6.268.115-8.731.507-.851 5.976-4.38 5.873-2.822.446-6.767-1.565-13.923 3.7-19.563 3.7-3.958 9.9-2.674 14.5-3.894a10.224 10.224 0 0 1 13.369-13.445c1.376-1.337 1.461-3.427 3.141-4.742s4.178-1.563 6.193-1.911c4.285-.738 8.706-.032 12.983-.722a34.257 34.257 0 0 1 6.967-.4 5.223 5.223 0 0 1 10.106 1.686c3.189.863 6.376 1.964 9.67 3.106a9.035 9.035 0 0 1 3.741 2.008c1.474 1.553 2.1 3.7 3.513 5.265 1.661 1.835 4.193 1.993 4.685 4.958.581 3.509 2.28 6.6 4.035 9.717a27.414 27.414 0 0 0 2.229-4.491l2.463-7.022a1.322 1.322 0 0 1 2.5 0l2.464 7.022a21.687 21.687 0 0 0 13.462 13.479l6.935 2.475a1.325 1.325 0 0 1 0 2.5l-6.947 2.444a21.714 21.714 0 0 0-13.445 13.479l-2.473 6.947a1.322 1.322 0 0 1-2.494 0l-2.44-6.942a21.687 21.687 0 0 0-13.474-13.481l-6.956-2.479a1.325 1.325 0 0 1 0-2.5l6.956-2.456a26.027 26.027 0 0 0 7.319-4.274c-2.474-5.193-6.118-7.416-8.658-12.128-.056-.1-.112-.195-.169-.3a4.437 4.437 0 0 1-5.824-5.679c-1.6-.767-3.5-1.417-5.931-2.4-2.987-1.2-8.039-3.716-11.381-2.91-1.8.44-5.308 4.546-7.066 3.894-1.975-.734-4.609.488-6.063 2.014a7.641 7.641 0 0 1-1.134 1.14 7.385 7.385 0 0 1-2.018.708c-6.344 1.987-2.06 11.023-7.588 13.3-.963.395-2.142.412-2.845 1.178a3.633 3.633 0 0 0-.716 1.78c-.7 3.393-1.621 6.669-.921 10.148.041.2.1.4.154.592a12.189 12.189 0 0 1-7.142 21.623c.053 1.794 1.132 3.623 2.419 6.281.474.98.932 1.935 1.343 2.886" transform="translate(-622 -304)"/></svg>