<svg id="Layer_1" data-name="Layer 1" xmlns="http://www.w3.org/2000/svg" viewBox="0 0 43 58"><defs><style>.cls-1{fill:#d18141}</style></defs><title>outpost_logo2</title><path class="cls-1" d="M19.65 24.26L18.88 30l5.3-3.55L24 21zm16.9 10.18l-10-2.93-.08 1.31L25.89 50a16.44 16.44 0 0 0 1.95.08 20.85 20.85 0 0 0 11.52-3.38zM25 49.94l-.62-18.2-6.23 3.39L16.77 47A20.34 20.34 0 0 0 25 49.94zm-9.74-24.6l-1.17 7.79 3-2 .47-4.94v.08zM27.91 8.6a20.94 20.94 0 0 0-21 20.82 20.69 20.69 0 0 0 8.88 17l.78-9.56-4.13-1.47c-.55-.23-.62-.62-.16-.93s.86-.62.86-.62L14 25l-.7-.31c-.39-.15-.31-.54.16-.93l11.34-8.22a2 2 0 0 1 1.87-.23l15.66 5.86c.55.23.62.62.16.93s-.86.54-.86.54l.55 8.64 1.32.46c.55.23.62.62.08.93l-5 2.93L40.53 46a20.6 20.6 0 0 0 8.41-16.58A20.94 20.94 0 0 0 27.91 8.6zm12.47 14.89l-3.59 2.31.55 3.86L41.23 31zm-13.56-3.24L26.67 26l9 3.09-1-5.86zM16.38 64.67H7.19a.08.08 0 0 0-.08.08v.39a.08.08 0 0 0 .08.08h9.19a.08.08 0 0 0 .08-.08v-.39zm31.63 0h-9.19a.08.08 0 0 0-.08.08v.39a.08.08 0 0 0 .08.08H48a.08.08 0 0 0 .08-.08l-.08-.47c.17.08.09 0 0 0zM9.37 55.26a3.24 3.24 0 1 1 0 6.48 3.16 3.16 0 0 1-3.27-3.16 3.29 3.29 0 0 1 3.27-3.32zm0 5.09a1.8 1.8 0 0 0 1.79-1.77 1.87 1.87 0 0 0-1.79-1.85 1.82 1.82 0 0 0-1.79 1.85 1.75 1.75 0 0 0 1.79 1.77zM14 55.57a.17.17 0 0 1 .16-.15h1.09a.17.17 0 0 1 .16.15v3.7a1.13 1.13 0 0 0 1.09 1.16 1.19 1.19 0 0 0 1.17-1.16v-3.7a.17.17 0 0 1 .16-.15H19a.17.17 0 0 1 .16.15v3.78a2.61 2.61 0 0 1-5.22 0v-3.78zm8 1.16h-1.26a.17.17 0 0 1-.16-.15v-1a.17.17 0 0 1 .16-.15h4.06a.17.17 0 0 1 .16.15v1a.17.17 0 0 1-.16.15h-1.33v4.86a.17.17 0 0 1-.16.15h-1.09a.17.17 0 0 1-.16-.15zm4.28-1.16a.17.17 0 0 1 .16-.15h2.18a2.05 2.05 0 0 1 2 2 2 2 0 0 1-2 2h-.93v2.16a.17.17 0 0 1-.16.15h-1.02a.17.17 0 0 1-.16-.15zm2.26 2.55a.69.69 0 1 0 0-1.39h-.86v1.39zM35 55.26a3.24 3.24 0 1 1-3.27 3.24A3.23 3.23 0 0 1 35 55.26zm0 5.09a1.8 1.8 0 0 0 1.79-1.77A1.87 1.87 0 0 0 35 56.73a1.82 1.82 0 0 0-1.79 1.85A1.71 1.71 0 0 0 35 60.35zm4.44.54l.47-.77c.08-.15.23-.08.31-.08a2.92 2.92 0 0 0 1.32.46.55.55 0 0 0 .62-.54q0-.58-.93-.93c-.78-.31-1.79-.93-1.79-2a1.85 1.85 0 0 1 2.1-1.77 3.1 3.1 0 0 1 1.95.69.46.46 0 0 1 .08.31l-.47.74a.59.59 0 0 1-.31.15 2.68 2.68 0 0 0-1.32-.54.52.52 0 0 0-.55.46c0 .31.31.62 1 .85s1.87.85 1.87 2.08a2 2 0 0 1-2.18 1.85 2.65 2.65 0 0 1-2-.69c-.17-.16-.25-.16-.17-.27zm6.78-4.16h-1.33a.17.17 0 0 1-.16-.15v-1a.17.17 0 0 1 .16-.15h4.05a.17.17 0 0 1 .16.15v1a.17.17 0 0 1-.16.15h-1.32v4.86a.17.17 0 0 1-.16.15h-1.09a.17.17 0 0 1-.16-.15zm-26.49 6.78a1.85 1.85 0 0 1 1 .39s.08.08 0 .08l-.31.31h-.08a.71.71 0 0 0-.55-.23.8.8 0 0 0-.78.85.78.78 0 0 0 .78.77.71.71 0 0 0 .39-.08v-.23H20c-.08 0-.08 0-.08-.08v-.39c0-.08 0-.08.08-.08h.86c.08 0 .08 0 .08.08v1.16a2.13 2.13 0 0 1-1 .23 1.47 1.47 0 0 1-1.48-1.47 1.3 1.3 0 0 1 1.27-1.31zm2.49 2.78l1.25-2.7.08-.08h.08a.08.08 0 0 1 .08.08l1.29 2.7c0 .08 0 .08-.08.08h-.47c-.08 0-.08 0-.16-.08l-.2-.29H23l-.16.31c0 .08-.08.08-.16.08l-.47-.08zm1.71-.85l-.31-.69-.31.69zm3-1.85c0-.08.08-.08 0 0l.16-.08a.08.08 0 0 1 .08.08l.93 1.77.9-1.77.08-.08h.08a.08.08 0 0 1 .08.08l.47 2.7c0 .08 0 .08-.08.08h-.47a.08.08 0 0 1-.08-.08l-.16-1.23-.7 1.31-.08.08h-.08a.08.08 0 0 1-.08-.08l-.7-1.31-.16 1.23a.08.08 0 0 1-.08.08h-.47c-.08 0-.08 0-.08-.08zm4.6.08l1.79-.08c.08 0 .08 0 .08.08v.46c0 .08 0 .08-.08.08H32.2v.46h.93c.08 0 .08 0 .08.08v.46c0 .08 0 .08-.08.08h-.93v.54h1.09c.08 0 .08 0 .08.08v.46c0 .08 0 .08-.08.08h-1.72c-.08 0-.08 0-.08-.08v-2.7zM35.08 66l.16-.31c0-.08.08-.08.16 0a1.21 1.21 0 0 0 .55.23c.16 0 .31-.08.31-.23s-.16-.31-.39-.39c-.39-.15-.78-.39-.78-.93a.83.83 0 0 1 .93-.77 1.51 1.51 0 0 1 .86.31c.08 0 .08.08 0 .15l-.23.31c0 .08-.08.08-.16.08a1.21 1.21 0 0 0-.55-.23.21.21 0 0 0-.23.23c0 .15.16.23.47.39s.86.39.86.93a.93.93 0 0 1-.93.85 1.37 1.37 0 0 1-.93-.31c-.18-.25-.18-.25-.1-.31z" transform="translate(-6.1 -8.6)"/></svg>