<svg xmlns="http://www.w3.org/2000/svg" viewBox="0 0 127 39"><defs><style>.cls-1{fill:#ffba52}.cls-2{fill:#c64c34}</style></defs><path class="cls-1" d="M37.74 14.61h-23a1.62 1.62 0 1 1 0-3.23h23a1.62 1.62 0 0 0 1.63-1.62V1.62A1.62 1.62 0 0 0 37.74 0H1.63A1.62 1.62 0 0 0 0 1.61v21.16a1.62 1.62 0 0 0 1.63 1.62h23a1.62 1.62 0 1 1 0 3.23h-23A1.62 1.62 0 0 0 0 29.23v8.15A1.62 1.62 0 0 0 1.63 39h36.11a1.63 1.63 0 0 0 1.63-1.62V16.23a1.63 1.63 0 0 0-1.63-1.62zM102.38 11.38h23A1.62 1.62 0 0 0 127 9.76V1.61A1.62 1.62 0 0 0 125.37 0H89.25a1.62 1.62 0 0 0-1.63 1.61v21.16a1.62 1.62 0 0 0 1.63 1.62h23a1.62 1.62 0 1 1 0 3.23h-23a1.62 1.62 0 0 0-1.63 1.62v8.15A1.62 1.62 0 0 0 89.25 39h36.12a1.62 1.62 0 0 0 1.63-1.62V16.23a1.62 1.62 0 0 0-1.63-1.62h-23a1.62 1.62 0 1 1 0-3.23zM81.56 0H45.44a1.62 1.62 0 0 0-1.63 1.61v35.77A1.63 1.63 0 0 0 45.44 39h36.12a1.63 1.63 0 0 0 1.63-1.62V1.61A1.62 1.62 0 0 0 81.56 0zM71.7 26a1.62 1.62 0 0 1-1.63 1.61H56.94A1.62 1.62 0 0 1 55.3 26V13a1.62 1.62 0 0 1 1.63-1.62h13.13A1.63 1.63 0 0 1 71.7 13z"/><path class="cls-2" d="M66.8 14.61h-6.6a1.62 1.62 0 0 0-1.63 1.62v6.53a1.62 1.62 0 0 0 1.63 1.62h6.6a1.62 1.62 0 0 0 1.63-1.62v-6.53a1.62 1.62 0 0 0-1.63-1.62z"/></svg>