<?xml version="1.0" encoding="utf-8"?>
<!-- Generator: Adobe Illustrator 21.1.0, SVG Export Plug-In . SVG Version: 6.00 Build 0)  -->
<svg version="1.1" id="Layer_1" xmlns="http://www.w3.org/2000/svg" xmlns:xlink="http://www.w3.org/1999/xlink"
	 viewBox="0 0 420 350" width="350" height="350">
<g>
	<path style="fill:#E90052" d="M44.1,172.1c3.2-0.8,4.6-0.3,4,3.6c-3.4,21-6.6,42.1-9.9,63.1c-1.2,7.2,2.4,12.5,8.8,12.9
		c6.1,0.4,10.5-4.2,10.4-11.2c-0.3-21.9,2.3-43.5,5.6-65.1c1-6.4,3.4-9.5,9.7-11.4c19.4-6,38-14.1,56.6-22.3
		c1.3-0.6,2.7-1.7,4.2-0.7c1.6,1.1,0.7,2.7,0.4,4.1c-2.1,10.6-4.1,21.2-6.3,31.8c-1.9,9.4-3.9,18.9-5.9,28.3
		c-1.8,8.6,3.9,15.1,12,13.7c5.1-0.9,8.4-5.1,8.5-11.4c0.5-23.4,4.4-46.4,9.3-69.2c1.1-5.3,3.8-8.8,8.8-11.2
		c9.4-4.5,18.7-9.3,27.9-14.4c11.7-6.5,23.3-13.2,32.6-22.9c8.4-8.7,6.5-15.4-5.1-18.8c-0.5-0.1-1-0.2-1.5-0.3
		c-11.7-3.5-23.1-1.6-34.5,1.5c-2.1,0.5-3.9,1-5.5-0.9c-1.5-1.7-0.5-3.4,0.2-5.1c5.9-13.7,11.6-27.5,20.3-39.9
		c5-7.2,2.9-16.8-4.5-21.3c-7.3-4.5-16.9-2-21,5.8c-1.6,2.9-2.7,6.1-3.8,9.2c-11.4,33.8-20,68.3-27.1,103.2
		c-0.6,2.9-1.2,5.2-4.5,6.4c-19.1,7.3-38.7,13.1-58.8,17.1c-5,1-6.1-0.3-5-5.2c8.4-36.5,18.9-72.4,32.8-107.2
		c2.7-6.7,2.4-12.8-2.6-18.1c-4.5-4.8-10-6.4-16.4-4.4c-7,2.3-10.2,7.4-11.4,14.4c-4.1,25.3-8.7,50.5-12.6,75.8
		c-1.2,7.6-4.8,12.3-11.4,15.7c-17.2,9-31.8,20.6-37.9,40.2c0,2.7,0,5.3,0,7.9c3,5.8,8.1,7.9,14.3,8.1
		C31.3,174.2,37.7,173.6,44.1,172.1z M158.2,113.5c1.9-6,3.6-12.1,5.5-18.1c0.8-2.5,2.5-4.4,5-5.3c5.6-2.2,11.4-3.7,16.4-4.2
		c6.8-0.1,8.2,2.3,5.3,7.4c-2.2,3.8-5.4,6.8-8.7,9.5c-6.2,5.1-12.9,9.4-19.9,13.3c-1,0.6-2.1,1.3-3.2,0.5
		C157.4,115.8,157.9,114.6,158.2,113.5z M46,142.4c1.4-4.3,3.8-8.2,8.9-10.7c-0.8,4.8-1.5,9.6-2.4,14.4c-0.4,2-1.9,2.2-3.4,1.6
		C46.7,146.8,45.1,145.2,46,142.4z"/>
	<path style="fill:#E90052" d="M398.5,193.2c-45-0.5-89.9,1.7-134.5,7.6c-49.9,6.6-98.7,17.7-146,35.2c-32.5,12-63.9,26.4-92.3,46.6
		c-9.9,7-9.5,15.3,0.8,21.3c2,0,4,0,6,0c6.5-4.6,12.8-9.5,19.4-13.9c36.7-24.4,76.7-41.6,118.5-55c74.2-23.9,150.6-34,228.3-36.1
		c2.3,0,4.7,0.1,6.8-1c0-1,0-2,0-3C403.6,192.8,401,193.2,398.5,193.2z"/>
	<path style="fill:#E90052" d="M210.8,111.6c-20.1,7.3-28.3,23.3-30.4,43c-2.2,21.4,11.9,36.6,33.4,36.7c14.4,0.1,26.4-6.4,37.7-14.2
		c5-3.5,9.6-7.6,14.9-11.9c-0.3,4-0.6,7.4-0.9,10.7c-0.2,3.5,0.6,6.5,4.6,7.1c3.9,0.6,5.6-1.9,6.7-5.3c2.8-8.7,5.1-17.7,5.4-26.8
		c0.3-11.2,5.2-19.9,12.9-27.2c6.3-6,13-11.5,19.5-17.2c1.4-1.3,3.6-2.5,2.4-4.9c-1.3-2.5-3.6-1.7-5.7-1.1
		c-8.9,2.5-17,6.8-24.1,12.7c-3.3,2.7-4.7,2.5-5-2c-0.2-3.8-1.9-6.9-6.5-6.3c-4.6,0.6-4.5,4.1-4.4,7.6c0.3,7.6,0.4,15.3-0.7,22.9
		c-3.8,26.6-24.4,44.3-49.8,42.5c-8.7-0.6-15.6-4.5-20-12.2c-1.7-3-1.7-4.7,2.6-4.9c9.3-0.4,17.9-3.3,25.9-8.1
		c5.9-3.6,10.3-8.4,12.8-14.9c5.5-14.4-3.6-27.7-19-28.1C218.9,109.6,214.8,110.2,210.8,111.6z M226.5,134.2
		c-1.3,8.1-7.2,13.7-15.3,17c-3.6,1.5-8.2,4.8-11.5,1.4c-2.9-3,0.1-7.6,1.5-11.2c3.5-8.6,11.4-13.8,20.2-13.7
		C225.8,127.9,226.8,128.9,226.5,134.2z"/>
	<path style="fill:#E90052" d="M315.7,148.6c1.7,18.6,14.9,31.4,32.8,31.5c2.2-0.1,4.8-0.2,7.6-0.8c21.1-5.1,37-28.3,34.3-50
		c-3-24.1-25-36.7-47.1-27.1C325.7,109.8,314,129.5,315.7,148.6z M355.2,112.3c12.3-3.5,22.6,3.6,23.8,16.3
		c1.3,15.7-12.3,31.3-27.6,31.4c-9.9,0-17.4-7.4-17.8-17.7C333.1,129.7,343.1,115.7,355.2,112.3z"/>
</g>
</svg>
