<svg id="Layer_1" data-name="Layer 1" xmlns="http://www.w3.org/2000/svg" viewBox="0 0 111 145"><defs><style>.cls-1{fill:#cfc5b6;}</style></defs><title>flare2</title><path id="Flare_Vector_v2" data-name="Flare Vector v2" class="cls-1" d="M96.79.08,71,21.11a6.12,6.12,0,0,1-4.45,1.34l-2.79-.26a4,4,0,0,0-3,.89L31.13,47.23a1.15,1.15,0,0,0-.18,1.62h0L49.71,71.71a1.18,1.18,0,0,0,1.65.15L80.77,47.91a4.05,4.05,0,0,0,1.47-2.7l.29-2.77a6.08,6.08,0,0,1,2.21-4.07l26.06-21.22a.83.83,0,0,0,.12-1.17h0L98,.19A.84.84,0,0,0,96.79.08Zm-49.6,99.7-9-11a3.46,3.46,0,0,0-2.29-1.23L21.43,86.1a.41.41,0,0,0-.44.37v0l-.14,15.62a11.77,11.77,0,0,0,.28,2.64l3.06,13.94a12.9,12.9,0,0,0,1.32,3.49l11,19.75a5.63,5.63,0,0,0,2.64,2.41l.13.06a5.67,5.67,0,0,0,5.87-.8l12.84-10.45a7,7,0,0,0,2.56-4.72l.21-2A4.21,4.21,0,0,0,59.44,123l-8.3-8a11.65,11.65,0,0,1-2.84-4.36l-1.75-4.77a3.59,3.59,0,0,1,0-2.47c.29-.78.63-1.78.85-2.43a1.23,1.23,0,0,0-.21-1.18ZM70.33,59.58l-19.62,16a.8.8,0,0,1-1.13-.11L24.08,44.38a.69.69,0,0,0-1-.1h0l-2.76,2.24a.69.69,0,0,0-.1,1h0l4,4.93a.3.3,0,0,1,0,.42l-.67.54a2.91,2.91,0,0,0-1.08,2.13L21.27,83.1a.68.68,0,0,0,.61.7l14.27,1.37a5.91,5.91,0,0,1,4,2.12l9.05,11a1.08,1.08,0,0,0,.74.39l8.1.78a4.51,4.51,0,0,0,3.31-1l8.65-7a4.32,4.32,0,0,0,1.58-2.91l.67-6.47a5.09,5.09,0,0,0-1.13-3.75l-4.57-5.57a.48.48,0,0,1,.07-.68h0l6.72-5.48a3.17,3.17,0,0,0,.49-4.44l0,0-2-2.42a1.06,1.06,0,0,0-1.5-.14ZM65.12,74.91l3.49,4.26a3.84,3.84,0,0,1,.86,2.73L69,87.63a3.71,3.71,0,0,1-1.36,2.57l-7.29,5.94a3.7,3.7,0,0,1-2.68.81l-4.15-.4a3.14,3.14,0,0,1-2.11-1.12L50.2,93.92A3.09,3.09,0,0,1,49.64,91l1.62-5.2a5.81,5.81,0,0,1,1.88-2.78l10.21-8.31a1.25,1.25,0,0,1,1.77.16h0ZM19.68,62.37l-.58-.7a1.16,1.16,0,0,0-1.62-.16L13,65.14a1.23,1.23,0,0,1-.88.27l-5.65-.55a2,2,0,0,0-1.42.43L.24,69.23a.38.38,0,0,0-.06.54h0L2.8,73a.38.38,0,0,0,.54.05h0l2.91-2.36a1.93,1.93,0,0,1,1.42-.43l5.37.51a2.27,2.27,0,0,1,1.33.61l2.27,2.18a1.16,1.16,0,0,0,1.53.06L19,73a1,1,0,0,0,.37-.72l.57-9.16a1,1,0,0,0-.22-.7Z" transform="translate(-0.09 0.1)"/></svg>