<svg id="Layer_1" data-name="Layer 1" xmlns="http://www.w3.org/2000/svg" viewBox="0 0 30.01 40"><defs><style>.cls-1{fill:#c64c34;}</style></defs><title>punch</title><path id="Punch" class="cls-1" d="M.18,32.85l3.11-6.67,2.35,1.88a.36.36,0,0,0,.45,0l.53-.48L3.38,24.37a3.21,3.21,0,0,1-.44-.54L.61,20.15a3.25,3.25,0,0,1-.5-1.63L0,15.3a2.1,2.1,0,0,1,.14-.84L3.59,5.72a.28.28,0,0,1,.35-.18l.06,0,11.88,4.91a.34.34,0,0,1,.18.44h0V11L13.3,14.88a1.06,1.06,0,0,1-1.34.35L7.52,13v2.15a.5.5,0,0,0,.3.46l4.4,1.82a1.94,1.94,0,0,1,1.19,1.74l.14,4a.17.17,0,0,0,.1.15l.53.22a.16.16,0,0,0,.21-.09.17.17,0,0,0,0-.05l.26-4a.67.67,0,0,1,.71-.62.65.65,0,0,1,.22.06l9.11,4.27a1.81,1.81,0,0,1,1,1.8l-.13,1.48a4.64,4.64,0,0,1-1,2.56l-2.06,2.48a2.26,2.26,0,0,1-1.81.82l-4.17-.15-.21.52a.28.28,0,0,0,.15.35h.06l2.92.32L17.68,39l-3.22.4a6,6,0,0,1-2.7-.28L7.64,37.82A9.9,9.9,0,0,1,4.95,36.4ZM20.29,5.11l4.25,1.77a.41.41,0,0,1,.23.53h0L20.28,18.83a.4.4,0,0,1-.52.24h0l-4.25-1.76a.41.41,0,0,1-.23-.53h0L19.75,5.39a.42.42,0,0,1,.53-.24Zm5.48,4.63,3.42,1.42a1.35,1.35,0,0,1,.72,1.74l-3.37,8.54a.42.42,0,0,1-.53.24L21.76,19.9a.41.41,0,0,1-.23-.53h0L25.23,10A.42.42,0,0,1,25.77,9.74ZM14.46,1.52l4.24,1.7a.41.41,0,0,1,.23.53h0L16.88,9a.42.42,0,0,1-.53.24L12.1,7.44a.41.41,0,0,1-.23-.53h0L13.92,1.7a.4.4,0,0,1,.52-.24h0Zm-5.91-2,3.72,1.54a.41.41,0,0,1,.23.53h0L10.62,6.38a.41.41,0,0,1-.53.23L5.83,4.85a.41.41,0,0,1-.23-.53h0L7.26.1A1,1,0,0,1,8.55-.46Z" transform="translate(0 0.53)"/></svg>