<svg id="Layer_1" data-name="Layer 1" xmlns="http://www.w3.org/2000/svg" viewBox="0 0 232 179"><defs><style>.cls-1{fill:#cfc5b6;}</style></defs><title>summary-1</title><path class="cls-1" d="M213.3,143.16l-59.73,2.49L164.5,154l-65,6L54,160.58,25.5,158l7.37-9.86-22.4-2.49,13.69,5L5.5,161.83l47.28,3.73L29.5,176l35,3,87.83-1L72.5,172l109.69-15.15-13.69-8.71Z"/><path class="cls-1" d="M192.5,151.5l16,5-34,10,46-7,5-4Z"/><path class="cls-1" d="M10.48,135.7,64,62.3l6.22,2.49,68.67,76.15,3.63-.94-57-65L125,26.22,131.18,25l5,14.92,7.47-2.48L146.11,20l8.71,2.49,42.31,82.11-26.46,33.22,3.84.18,32.58-37.14,8.71,2.49,8.71,29.86-85.86,7.47,5,8.7L95.5,154l-57.65-.88,8.71-8.71-3.73-5Z"/></svg>