<svg id="Layer_1" data-name="Layer 1" xmlns="http://www.w3.org/2000/svg" viewBox="0 0 232 179"><defs><style>.cls-1{fill:#cfc5b6;}</style></defs><title>summary-2</title><path id="Skull" class="cls-1" d="M180.87,109.16l2.52,11.21a7.26,7.26,0,0,1-.14,3.71l-2.14,7a7,7,0,0,1-1.85,3l-5.84,5.63-5.16-1.05a.94.94,0,0,1-.64-1.3l2.84-6.19a3.31,3.31,0,0,1,1.13-1.34l.06-1.86-3.3-.72a3.5,3.5,0,0,0-2,1.85l-3.78,8.31-2,10.31a4.45,4.45,0,0,0-.08,1l.43,10.89a1.08,1.08,0,0,1-.16.61l-1.51,2.44a1.11,1.11,0,0,0-.16.57v3.08a1.08,1.08,0,0,1-1,1.08l-.6.06a1.07,1.07,0,0,1-1.07-.56l-.62-1.13a1.09,1.09,0,0,0-1.26-.52l-3.25.92a1.08,1.08,0,0,0-.79,1l-.17,4.15a1.09,1.09,0,0,1-.83,1l-2.42.6a1.08,1.08,0,0,1-1.36-1.09l.15-4.79a1.09,1.09,0,0,0-1-1.12h-.18a1.08,1.08,0,0,0-1,.78l-1.76,5.95a1.1,1.1,0,0,1-1.37.74h0l-3.59-1.19a1.09,1.09,0,0,1-.73-1.21l.84-5.22a1.09,1.09,0,0,0-.82-1.23l-3.91-.93a1.09,1.09,0,0,0-1.25.6l-1.69,3.7a1.09,1.09,0,0,1-.85.63l-4,.54a1.09,1.09,0,0,1-.8-.2l-3.34-2.49,1.34-4.75a1.09,1.09,0,0,0-.71-1.33l-2.09-.69a4.31,4.31,0,0,1-1.83-1.21l-4.62-5.26a10.39,10.39,0,0,1-1.91-3.89V141l5.77,1.84,6,4.6,2.42,4,2.15-7.08-2.08-3.45-7.46-3.68-6.23-2.52-3.65,1.92a4,4,0,0,1-.57.25l-3.81,4.63a4.88,4.88,0,0,1-2.93.15L94.07,140a4.9,4.9,0,0,1-2.14-1.2L85,132.14a4.4,4.4,0,0,1-.47-.52l-4.4-5.57a4.56,4.56,0,0,0-1.08-1l-4.23-2.81-4.41-5.43a.86.86,0,0,1-.26-.9l1.7-5.64a.9.9,0,0,1,1-.64l6.5,1.18,9.7.86a.77.77,0,0,0,.83-.61l1.94-9.85,3.92-8.28,4.85-5.29,3.79-2.23a3.65,3.65,0,0,0,1.68-2.2l2.16-8a3.22,3.22,0,0,0-1.86-.37l-5,6.51a4.68,4.68,0,0,1-1.9,1.81l-3,1.57a5.61,5.61,0,0,0-1.8,1.5L90.86,91a5.09,5.09,0,0,0-.59,1L86.8,99.53a4.79,4.79,0,0,0-.33,1l-1,4.54a1.34,1.34,0,0,1-1.45,1l-5-.56-9.56-1.05a1.4,1.4,0,0,0-1.47.8l-2.1,4.57-1.27,6.32,1.26,3.44a.64.64,0,0,1-.92.78l-8.35-4.65a8.08,8.08,0,0,1-4.14-6.38L50,81.54a9.27,9.27,0,0,1,.26-3.16L57.68,50a9.27,9.27,0,0,1,1.85-3.6L71.81,31.64A9.5,9.5,0,0,1,74,29.72l14-8.82A14.64,14.64,0,0,1,92,19.13l14.33-3.83a38.29,38.29,0,0,1,17-.63l14.57,2.78a16.13,16.13,0,0,1,6.23,2.61l14,9.67a9.5,9.5,0,0,1,2.43,2.47L172,49.32a9.28,9.28,0,0,1,1.33,3.08l6.47,28.12a6,6,0,0,0,.19.67L184.16,93a4.91,4.91,0,0,1,0,3.3l-3,8.3A8.17,8.17,0,0,0,180.87,109.16Zm-40.57-8.22-6.21-3a6.4,6.4,0,0,1-1.15-.72l-3.55-2.8a6.89,6.89,0,0,0-3.3-1.4l-5.52-.76a5,5,0,0,0-1.88.1l-11.5,3a5.49,5.49,0,0,0-3.05,2l-4.28,5.74a5.09,5.09,0,0,0-1,3.74l.61,4.52a5.75,5.75,0,0,0,1.64,3.29l4.79,4.77a3.34,3.34,0,0,0,1.83.92l11.37,1.72a5.46,5.46,0,0,0,2.34-.15l11.91-3.41a7.87,7.87,0,0,0,3.68-2.3l3.65-4a4,4,0,0,0,1-2.79l-.16-6.44A2.3,2.3,0,0,0,140.3,100.94Zm2.19,31.59-3.26,9.35a3.39,3.39,0,0,0,.12,2.53l1.33,2.91a1.4,1.4,0,0,0,1.41.81l3.71-.33a1.52,1.52,0,0,0,.68-.25l2.54-1.79a1.28,1.28,0,0,1,1.78.31l0,0,1.2,1.8a1,1,0,0,0,1,.4l1.77-.44a2.2,2.2,0,0,0,1.6-1.58l1.27-4.91a5.71,5.71,0,0,0,.16-1.94l-.57-6.37a5.76,5.76,0,0,1,0-.92l.57-7.92a2.6,2.6,0,0,0-.87-2.13l-2.53-2.24a.9.9,0,0,0-1.25.08L143.15,131.4A3.37,3.37,0,0,0,142.49,132.53Zm32.61-41.41-6.22.84a2,2,0,0,0-1.62,1.34l-1.87,5.75a4.45,4.45,0,0,1-1.94,2.44l-4.67,2.83a2,2,0,0,0-.6.57l-1.62,2.42a1.89,1.89,0,0,0-.27,1.48l1.24,5.39A4.41,4.41,0,0,0,159.6,117l4.93,2.89a4.46,4.46,0,0,0,2.74.58l5.15-.59a3.12,3.12,0,0,0,2.26-1.39l1.24-1.92a3.07,3.07,0,0,0,.5-1.68v-7.21a3.11,3.11,0,0,1,.24-1.18l3.7-8.91a2,2,0,0,0-.31-2l-3.15-3.77a2,2,0,0,0-1.79-.69Z"/></svg>