<svg id="Layer_1" data-name="Layer 1" xmlns="http://www.w3.org/2000/svg" viewBox="0 0 232 179"><defs><style>.cls-1{fill:#cfc5b6;}</style></defs><title>summary-33</title><path class="cls-1" d="M190.45,77.35l-15-28.2L136.82,23.5l-45.37,0-34,21L41.57,83.15l1,39.73,24.87,31.84L102,171.5l45.39-1,30.23-22.17,13.82-37.52ZM169.84,142.5l-25.6,18.77-40.21.87L73.44,147.29,51.79,119.57l-.87-34.71,13.94-34L94.09,32.83l39.92,0,34.3,22.79,12.9,24.2.86,29.5Z"/><polygon class="cls-1" points="116.6 88.67 82.07 128.47 85.65 131.5 119.17 106.89 146.54 112.52 149.2 107.67 124.1 86.5 116.6 88.67"/><rect class="cls-1" x="110.88" y="12.19" width="12.2" height="6.78"/><rect class="cls-1" x="101.4" width="31.16" height="8.13"/></svg>