<svg style="fill:#c64c34" xmlns="http://www.w3.org/2000/svg" viewBox="0 0 18 19">
    <path d="M16.9,10.43a3.86,3.86,0,0,1,.12,1c0,3.18-3.58,5.75-8,5.75s-8-2.57-8-5.75a4.19,4.19,0,0,1,.11-.94A2,2,0,0,1,2,6.64a2,2,0,0,1,1.46.63A9.68,9.68,0,0,1,8.63,5.65L9.79.41A.35.35,0,0,1,10.2.15L13.91,1a1.5,1.5,0,1,1-.16.68L10.4.9l-1,4.74a9.73,9.73,0,0,1,5.21,1.61A2,2,0,0,1,16,6.64a2,2,0,0,1,.9,3.79ZM5.7,12.15a1.5,1.5,0,1,0-1.5-1.51A1.5,1.5,0,0,0,5.7,12.15Zm6.64,1.54a.36.36,0,0,0-.51,0A4.37,4.37,0,0,1,9,14.51a4.37,4.37,0,0,1-2.82-.82.36.36,0,0,0-.51,0,.36.36,0,0,0,0,.52,5.17,5.17,0,0,0,3.33,1,5.17,5.17,0,0,0,3.33-1A.36.36,0,0,0,12.33,13.68Zm1.47-3a1.5,1.5,0,1,0-1.5,1.51A1.5,1.5,0,0,0,13.8,10.64Z"/>
</svg>
