<svg style="fill:#c64c34" xmlns="http://www.w3.org/2000/svg" viewBox="0 0 16 19">
    <path d="M14.36,7.88c0,.14,0,.28,0,.43A9.27,9.27,0,0,1,5,17.64a9.26,9.26,0,0,1-5-1.47,6.74,6.74,0,0,0,.79,0,6.57,6.57,0,0,0,4.07-1.4A3.29,3.29,0,0,1,1.8,12.53a4.12,4.12,0,0,0,.62.05,3.46,3.46,0,0,0,.86-.11A3.28,3.28,0,0,1,.65,9.25v0a3.3,3.3,0,0,0,1.48.42,3.29,3.29,0,0,1-1-4.39A9.32,9.32,0,0,0,7.88,8.67a3.69,3.69,0,0,1-.08-.75,3.28,3.28,0,0,1,5.67-2.24,6.46,6.46,0,0,0,2.08-.79,3.27,3.27,0,0,1-1.44,1.81A6.57,6.57,0,0,0,16,6.19,7,7,0,0,1,14.36,7.88Z"/>
</svg>
