<svg style="fill:#c64c34" xmlns="http://www.w3.org/2000/svg" viewBox="0 0 18 19">
    <path d="M15.3,3.83a2.51,2.51,0,0,1,1.81.78,3.29,3.29,0,0,1,.71,1.84,25.62,25.62,0,0,1,.18,3v1.4a25.61,25.61,0,0,1-.18,3,3.34,3.34,0,0,1-.71,1.84,2.54,2.54,0,0,1-1.81.77s-2.51.2-6.3.2c-4.68,0-6.11-.19-6.11-.19a3,3,0,0,1-2-.78,3.34,3.34,0,0,1-.71-1.84,25.61,25.61,0,0,1-.18-3V9.44a25.62,25.62,0,0,1,.18-3A3.29,3.29,0,0,1,.9,4.61,2.51,2.51,0,0,1,2.7,3.83S5.21,3.64,9,3.64,15.3,3.83,15.3,3.83ZM12,10,7.14,7.35v5.19Z"/>
</svg>
